<svg width="66" height="26" viewBox="0 0 66 26" fill="none" xmlns="http://www.w3.org/2000/svg">
<path d="M2.4 7.8V2.4H0.5V1.2H5.8V2.4H3.9V7.8H2.4V7.8Z" fill="black"/>
<path d="M5.60001 5.4C5.60001 4 6.60001 2.9 8.10001 2.9C9.70001 2.9 10.7 4.1 10.7 5.4C10.7 6.8 9.70001 7.9 8.10001 7.9C6.60001 8 5.60001 6.8 5.60001 5.4ZM9.40001 5.4C9.40001 4.6 9.00001 4 8.20001 4C7.40001 4 7.00001 4.6 7.00001 5.4C7.00001 6.2 7.40001 6.8 8.20001 6.8C8.90001 6.8 9.40001 6.2 9.40001 5.4Z" fill="black"/>
<path d="M11.8 9.1L12.4 8.2C12.8 8.6 13.3 8.8 13.9 8.8C14.5 8.8 15.2 8.5 15.2 7.6V7.1C14.8 7.6 14.3 7.9 13.7 7.9C12.5 7.9 11.6 7.1 11.6 5.4C11.6 3.8 12.5 2.9 13.7 2.9C14.3 2.9 14.8 3.1 15.2 3.6V3H16.5V7.5C16.5 9.3 15.1 9.8 13.9 9.8C13.1 9.8 12.4 9.6 11.8 9.1ZM15.2 6.1V4.5C15 4.3 14.5 4 14.1 4C13.4 4 12.9 4.5 12.9 5.3C12.9 6.1 13.4 6.6 14.1 6.6C14.5 6.7 15 6.4 15.2 6.1Z" fill="black"/>
<path d="M17.7 5.4C17.7 4 18.7 2.9 20.2 2.9C21.6 2.9 22.6 4 22.6 5.6V5.9H19C19.1 6.5 19.6 7 20.4 7C20.8 7 21.4 6.8 21.7 6.5L22.3 7.3C21.8 7.7 21.1 8 20.3 8C18.8 8 17.7 7 17.7 5.4ZM20.2 3.9C19.4 3.9 19.1 4.5 19 5H21.4C21.4 4.5 21 3.9 20.2 3.9Z" fill="black"/>
<path d="M24 6.60001V4.10001H23.2V3H24V1.7H25.3V3H26.3V4.10001H25.3V6.3C25.3 6.6 25.5 6.8 25.7 6.8C25.9 6.8 26.1 6.7 26.1 6.7L26.4 7.7C26.2 7.9 25.9 8 25.3 8C24.5 8 24 7.50001 24 6.60001Z" fill="black"/>
<path d="M30.7 7.8V4.9C30.7 4.2 30.4 4 29.8 4C29.3 4 28.9 4.30001 28.7 4.60001V7.8H27.4V1.2H28.7V3.7C29 3.3 29.6 3 30.4 3C31.5 3 32 3.6 32 4.5V7.9H30.7V7.8Z" fill="black"/>
<path d="M33.2 5.4C33.2 4 34.2 2.9 35.7 2.9C37.1 2.9 38.1 4 38.1 5.6V5.9H34.5C34.6 6.5 35.1 7 35.9 7C36.3 7 36.9 6.8 37.2 6.5L37.8 7.3C37.3 7.7 36.6 8 35.8 8C34.3 8 33.2 7 33.2 5.4ZM35.7 3.9C34.9 3.9 34.6 4.5 34.5 5H36.9C36.8 4.5 36.5 3.9 35.7 3.9Z" fill="black"/>
<path d="M39.2 7.8V3H40.5V3.7C40.8 3.3 41.4 2.9 42 2.9V4.1C41.9 4.1 41.8 4.1 41.6 4.1C41.2 4.1 40.6 4.3 40.4 4.6V7.8H39.2V7.8Z" fill="black"/>
<path d="M50.1 7.8L49.1 4.5L48.1 7.8H46.7L45.3 3H46.6L47.5 6.2L48.6 3H49.7L50.8 6.2L51.7 3H53L51.5 7.8H50.1Z" fill="black"/>
<path d="M53.7 1.7C53.7 1.3 54 0.900002 54.5 0.900002C54.9 0.900002 55.3 1.2 55.3 1.7C55.3 2.1 55 2.5 54.5 2.5C54.1 2.5 53.7 2.2 53.7 1.7ZM53.8 7.8V3H55.1V7.8H53.8Z" fill="black"/>
<path d="M56.9 6.60001V4.10001H56.1V3H56.9V1.7H58.2V3H59.2V4.10001H58.2V6.3C58.2 6.6 58.4 6.8 58.6 6.8C58.8 6.8 59 6.7 59 6.7L59.3 7.7C59.1 7.9 58.8 8 58.2 8C57.4 8 56.9 7.50001 56.9 6.60001Z" fill="black"/>
<path d="M63.5 7.8V4.9C63.5 4.2 63.2 4 62.6 4C62.1 4 61.7 4.30001 61.5 4.60001V7.8H60.2V1.2H61.5V3.7C61.8 3.3 62.4 3 63.2 3C64.3 3 64.8 3.6 64.8 4.5V7.9H63.5V7.8Z" fill="black"/>
<path fill-rule="evenodd" clip-rule="evenodd" d="M48.8 12.1H45.3L42.5 19.3L39.8 12.1H36.3L34 25.6H37.5L38.7 17.8L40.9 23.4L41.7 25.6H43.1L46.3 17.8L47.3 25.6H50.8L48.8 12.1Z" fill="#61A46C"/>
<path fill-rule="evenodd" clip-rule="evenodd" d="M30.7 12.1C29.6 12.1 28.6 13 28.6 14.1V18.8V18.7V23.6C28.6 24.7 29.5 25.6 30.7 25.6C31.8 25.6 32.8 24.7 32.8 23.6V18.7V18.8V14C32.8 13 31.9 12.1 30.7 12.1Z" fill="#61A46C"/>
<path fill-rule="evenodd" clip-rule="evenodd" d="M60.4 12.1H56.6L51.4 25.5H55.1L56 23.2H60.8L61.7 25.5H65.4L60.4 12.1Z" fill="#61A46C"/>
<path fill-rule="evenodd" clip-rule="evenodd" d="M9.39999 12.2H5.59999L0.399994 25.6H4.09999L4.99999 23.2H9.89999L10.7 25.6H14.4L9.39999 12.2Z" fill="#61A46C"/>
<path fill-rule="evenodd" clip-rule="evenodd" d="M25.3 18.1H20.8V20.6H23.5C23.4 21.2 23.2 21.7 22.9 22C22.4 22.5 21.7 22.7 20.9 22.7C19.9 22.7 19.2 22.4 18.6 21.8C17.8 21 17.5 20 17.5 18.8C17.5 18.2 17.6 17.7 17.8 17.1C18.4 15.6 19.4 14.9 20.8 14.9C21.5 14.9 22.1 15.1 22.6 15.5C23 15.8 23.3 16.2 23.5 16.8L26.6 15.5C26.1 14.4 25.4 13.6 24.7 13.1C23.7 12.4 22.5 12 21 12C18.7 12 17 12.7 15.7 14.2C14.6 15.5 14 17 14 18.9C14 20.6 14.5 22 15.4 23.2C16.7 24.8 18.4 25.6 20.8 25.6C21.4 25.6 21.9 25.5 22.5 25.4C23.3 25.2 23.9 24.9 24.6 24.5C25.7 23.8 26.5 22.8 27 21.4C27.3 20.5 27.5 19.4 27.5 18L25.3 18.1Z" fill="#61A46C"/>
</svg>
