<svg width="22" height="16" viewBox="0 0 22 16" fill="none" xmlns="http://www.w3.org/2000/svg">
<g clip-path="url(#clip0_2:4)">
<path d="M12.6796 14.9606C12.6791 14.9638 12.6781 14.9665 12.6771 14.9685L8.50011 11.9693L8.18898 11.746L7.87785 11.9693L3.69949 14.9695C3.69908 14.9686 3.69869 14.9676 3.69833 14.9665C3.69649 14.9607 3.69659 14.9542 3.69851 14.9485L3.69861 14.9482L5.33104 10.1596L5.4507 9.80859L5.13691 9.59547L0.906142 6.72203L0.905913 6.72188C0.905851 6.72183 0.903188 6.71988 0.901264 6.71444C0.899299 6.70886 0.899143 6.70226 0.900963 6.69641C0.902096 6.69277 0.903625 6.69051 0.904686 6.68927H6.11851H6.49972L6.61441 6.3397L8.18898 1.54059L9.76354 6.34126L9.87815 6.69088H10.2594H15.4749C15.4759 6.69211 15.4775 6.69437 15.4785 6.69799C15.4804 6.70383 15.4803 6.71044 15.4783 6.71603C15.4764 6.72149 15.4738 6.72344 15.4737 6.72349V6.72351L11.2413 9.59534L10.9272 9.8084L11.0469 10.1596L12.6783 14.9469V14.947C12.6798 14.9511 12.6802 14.9559 12.6796 14.9606ZM15.4792 6.69088C15.4791 6.69088 15.479 6.69088 15.479 6.69088H15.4792Z" stroke="white"/>
</g>
<defs>
<clipPath id="clip0_2:4">
<rect width="22" height="16" fill="white"/>
</clipPath>
</defs>
</svg>
