<svg width="64" height="65" viewBox="0 0 64 65" fill="none" xmlns="http://www.w3.org/2000/svg">
<path d="M20.0155 35.4224V26.1056M47.5932 63H62.5V3.37267H20.0155V15.4236M47.5932 63H2.5V53.4969M47.5932 63L2.5 17.9068V33.559M2.5 33.559H7.71739M2.5 33.559V43.9938M2.5 43.9938H7.71739M2.5 43.9938V53.4969M2.5 53.4969H7.71739M39.0217 45.1118L47.2205 48.0932L44.2391 39.8944M39.0217 45.1118L44.2391 39.8944M39.0217 45.1118L20.0155 26.1056M44.2391 39.8944L20.0155 15.4236M20.0155 26.1056L7.71739 13.8075M20.0155 15.4236L12.8821 8.21739M7.71739 13.8075L2.5 8.59006L7.71739 3L12.8821 8.21739M7.71739 13.8075L12.8821 8.21739M12.1894 53.4969V40.6398L25.0466 53.4969H12.1894Z" stroke="#43BEA2" stroke-width="3"/>
</svg>
