<svg width="63" height="52" viewBox="0 0 63 52" fill="none" xmlns="http://www.w3.org/2000/svg">
<path d="M28.0912 2H1.5V33.6522M28.0912 41.5652H1.5V33.6522M1.5 33.6522H25.424M22.3861 41.5652L15.9304 50.2319H26.943M14.6348 26.8386L19.7815 13.0435M11 16L6.05696 19.941L11 24M24 16L28.3593 19.941L24 24M41.7532 29.3478H44.7911V33.8696M49.3481 29.3478H52.3861V33.8696M58.462 29.3478H61.5V33.8696M40.2342 7.49275V9C40.2342 10.2486 41.2543 11.2609 42.5127 11.2609C43.771 11.2609 44.7911 10.2486 44.7911 9V7.49275C44.7911 6.24411 43.771 5.23188 42.5127 5.23188C41.2543 5.23188 40.2342 6.24411 40.2342 7.49275ZM49.3481 7.49275V9C49.3481 10.2486 50.3682 11.2609 51.6266 11.2609C52.8849 11.2609 53.9051 10.2486 53.9051 9V7.49275C53.9051 6.24411 52.8849 5.23188 51.6266 5.23188C50.3682 5.23188 49.3481 6.24411 49.3481 7.49275ZM44.7911 18.7971V20.3043C44.7911 21.553 45.8112 22.5652 47.0696 22.5652C48.328 22.5652 49.3481 21.553 49.3481 20.3043V18.7971C49.3481 17.5485 48.328 16.5362 47.0696 16.5362C45.8112 16.5362 44.7911 17.5485 44.7911 18.7971ZM53.9051 18.7971V20.3043C53.9051 21.553 54.9252 22.5652 56.1835 22.5652C57.4419 22.5652 58.462 21.553 58.462 20.3043V18.7971C58.462 17.5485 57.4419 16.5362 56.1835 16.5362C54.9252 16.5362 53.9051 17.5485 53.9051 18.7971ZM35.6772 7.51036V8.98239C35.6772 10.2408 34.6571 11.2609 33.3987 11.2609V11.2609C32.1404 11.2609 31.1203 10.2408 31.1203 8.98239V7.51037C31.1203 6.25199 32.1404 5.23188 33.3987 5.23188V5.23188C34.6571 5.23188 35.6772 6.25199 35.6772 7.51036Z" stroke="#333333" stroke-width="3"/>
</svg>
