<svg width="56" height="57" viewBox="0 0 56 57" fill="none" xmlns="http://www.w3.org/2000/svg">
<path d="M0 55.9844H4.48M56 55.9844H50.4M50.4 55.9844V18.572C50.4 18.0197 49.9523 17.572 49.4 17.572H41.32C40.7677 17.572 40.32 18.0197 40.32 18.572V55.9844M50.4 55.9844H40.32M40.32 55.9844H32.48M32.48 55.9844V34.1596C32.48 33.6073 32.0323 33.1596 31.48 33.1596H23.4C22.8477 33.1596 22.4 33.6073 22.4 34.1596V55.9844M32.48 55.9844H22.4M22.4 55.9844H14.56M14.56 55.9844V43.0668C14.56 42.5146 14.1123 42.0668 13.56 42.0668H5.48C4.92772 42.0668 4.48 42.5146 4.48 43.0668V55.9844M14.56 55.9844H4.48M6.16 34.273L12.46 28.0101M50.96 1.98438L38.225 14.6443C37.835 15.0321 37.205 15.0321 36.815 14.6443L32.065 9.92235C31.675 9.53461 31.045 9.53461 30.655 9.92235L18.76 21.7473M50.96 1.98438H42.56M50.96 1.98438V9.22149" stroke="#333333" stroke-width="2" stroke-linejoin="round"/>
</svg>
