<svg width="58" height="58" viewBox="0 0 58 58" fill="none" xmlns="http://www.w3.org/2000/svg">
<path d="M44.12 31.4689V56.9844M31.24 43.9431H57M1 26.3658V3.1184C1 2.49209 1.50144 1.98438 2.12 1.98438H25.64C26.2586 1.98438 26.76 2.49209 26.76 3.1184V26.3658C26.76 26.9921 26.2586 27.4998 25.64 27.4998H2.12C1.50144 27.4998 1 26.9921 1 26.3658ZM31.24 26.3658V3.1184C31.24 2.49209 31.7414 1.98438 32.36 1.98438H55.88C56.4986 1.98438 57 2.49209 57 3.1184V26.3658C57 26.9921 56.4986 27.4998 55.88 27.4998H32.36C31.7414 27.4998 31.24 26.9921 31.24 26.3658ZM26.76 55.9844V32.4689C26.76 31.9166 26.3123 31.4689 25.76 31.4689H2C1.44772 31.4689 1 31.9166 1 32.4689V55.9844C1 56.5367 1.44771 56.9844 2 56.9844H25.76C26.3123 56.9844 26.76 56.5367 26.76 55.9844Z" stroke="#333333" stroke-width="2" stroke-linejoin="round"/>
</svg>
