<svg width="75" height="67" viewBox="0 0 75 67" fill="none" xmlns="http://www.w3.org/2000/svg">
<path d="M48.3523 12.4531L49.1325 13.0803C49.3224 12.8442 49.3946 12.5345 49.3288 12.2383L48.3523 12.4531ZM46.21 15.1167L45.4297 14.4895C45.1338 14.8574 45.1366 15.3827 45.4362 15.7487L46.21 15.1167ZM49.3119 18.9058L48.5381 19.5377C48.8378 19.9038 49.3526 20.0108 49.7724 19.7942L49.3119 18.9058ZM52.3836 17.3205L52.7799 16.4035C52.5042 16.2841 52.1897 16.2946 51.9231 16.4321L52.3836 17.3205ZM52.7192 17.4557L52.3712 18.3922L52.3712 18.3922L52.7192 17.4557ZM53.077 17.5782L54.0076 17.2134C53.8964 16.9312 53.6631 16.7144 53.3734 16.624L53.077 17.5782ZM54.3339 20.7662L53.4033 21.1309C53.5765 21.5702 54.0331 21.8293 54.4987 21.7525L54.3339 20.7662ZM59.1589 19.9711L59.3237 20.9575C59.7893 20.8807 60.1372 20.4891 60.1582 20.0179L59.1589 19.9711ZM59.3118 16.5513L58.7212 15.7433C58.4763 15.9218 58.326 16.2018 58.3124 16.5046L59.3118 16.5513ZM59.6115 16.32L58.9777 15.5453L58.9777 15.5453L59.6115 16.32ZM59.885 16.0847L60.0319 15.0962C59.7349 15.0515 59.4338 15.1424 59.2117 15.3439L59.885 16.0847ZM63.3069 16.5996L63.1599 17.5881C63.6276 17.6585 64.0801 17.3922 64.2447 16.9496L63.3069 16.5996ZM65.0105 12.0188L65.9483 12.3687C66.1129 11.9261 65.9447 11.4282 65.545 11.1749L65.0105 12.0188ZM62.1179 10.1856L61.1238 10.2954C61.1578 10.5969 61.3269 10.8669 61.5834 11.0294L62.1179 10.1856ZM61.9972 9.46374L61.217 8.83653C61.027 9.07275 60.9548 9.38262 61.0208 9.67887L61.9972 9.46374ZM64.1388 6.8009L64.9191 7.42811C65.215 7.06021 65.2123 6.53499 64.9126 6.16892L64.1388 6.8009ZM61.0369 3.01189L61.8107 2.3799C61.511 2.01383 60.9962 1.90688 60.5764 2.1235L61.0369 3.01189ZM57.9638 4.59782L57.5679 5.51499C57.8435 5.63427 58.1579 5.62371 58.4243 5.48621L57.9638 4.59782ZM57.6309 4.46378L57.2828 5.40025L57.2828 5.40025L57.6309 4.46378ZM57.2725 4.34116L56.3418 4.70589C56.4531 4.98812 56.6864 5.20492 56.9762 5.29532L57.2725 4.34116ZM56.0149 1.15144L56.9455 0.786703C56.7724 0.347489 56.3157 0.0883814 55.8501 0.165108L56.0149 1.15144ZM51.1899 1.9465L51.0252 0.960173C50.5595 1.0369 50.2116 1.42857 50.1906 1.89979L51.1899 1.9465ZM51.0369 5.36921L51.6277 6.17711C51.8725 5.99862 52.0227 5.71866 52.0362 5.41592L51.0369 5.36921ZM50.7385 5.59951L51.3724 6.37418L51.3724 6.37418L50.7385 5.59951ZM50.4667 5.83341L50.3198 6.8219C50.6167 6.86658 50.9177 6.77573 51.1397 6.5744L50.4667 5.83341ZM47.0419 5.31801L47.1889 4.32952C46.7212 4.25914 46.2687 4.52547 46.1041 4.96805L47.0419 5.31801ZM45.3383 9.89888L44.4005 9.54892C44.2359 9.9915 44.4041 10.4895 44.8038 10.7427L45.3383 9.89888ZM48.2321 11.7328L49.2261 11.6231C49.1922 11.3216 49.0231 11.0516 48.7666 10.8889L48.2321 11.7328ZM53.1389 8.62638L53.7728 9.40105L53.1389 8.62638ZM56.1216 8.1349L56.4696 7.19843L56.1216 8.1349ZM53.996 13.7572L53.648 14.6936L53.648 14.6936L53.996 13.7572ZM56.9787 13.2657L57.6126 14.0404L57.6126 14.0404L56.9787 13.2657ZM49.3288 12.2383C49.3064 12.1374 49.2866 12.0356 49.2694 11.9329L47.296 12.2581C47.319 12.3958 47.3456 12.5324 47.3757 12.6678L49.3288 12.2383ZM46.9902 15.744L49.1325 13.0803L47.572 11.8259L45.4297 14.4895L46.9902 15.744ZM50.0856 18.2738L46.9837 14.4848L45.4362 15.7487L48.5381 19.5377L50.0856 18.2738ZM51.9231 16.4321L48.8514 18.0174L49.7724 19.7942L52.8441 18.2089L51.9231 16.4321ZM53.0672 16.5193C52.9702 16.4831 52.8744 16.4445 52.7799 16.4035L51.9872 18.2375C52.1135 18.2922 52.2415 18.3438 52.3712 18.3922L53.0672 16.5193ZM53.3734 16.624C53.2707 16.592 53.1686 16.5571 53.0672 16.5193L52.3712 18.3922C52.5068 18.4428 52.6433 18.4894 52.7806 18.5323L53.3734 16.624ZM55.2645 20.4015L54.0076 17.2134L52.1464 17.9429L53.4033 21.1309L55.2645 20.4015ZM58.9941 18.9848L54.1691 19.7799L54.4987 21.7525L59.3237 20.9575L58.9941 18.9848ZM58.3124 16.5046L58.1595 19.9244L60.1582 20.0179L60.3111 16.598L58.3124 16.5046ZM58.9777 15.5453C58.8938 15.6138 58.8082 15.6798 58.7212 15.7433L59.9024 17.3594C60.0188 17.2745 60.1332 17.1863 60.2454 17.0947L58.9777 15.5453ZM59.2117 15.3439C59.1357 15.4128 59.0577 15.48 58.9777 15.5453L60.2454 17.0947C60.3523 17.0074 60.4566 16.9176 60.5582 16.8254L59.2117 15.3439ZM63.4538 15.6111L60.0319 15.0962L59.738 17.0732L63.1599 17.5881L63.4538 15.6111ZM64.0727 11.6688L62.3691 16.2497L64.2447 16.9496L65.9483 12.3687L64.0727 11.6688ZM61.5834 11.0294L64.476 12.8626L65.545 11.1749L62.6524 9.3417L61.5834 11.0294ZM61.0807 9.98662C61.0979 10.0895 61.1122 10.1925 61.1238 10.2954L63.112 10.0757C63.0964 9.93758 63.0771 9.79944 63.0541 9.66144L61.0807 9.98662ZM61.0208 9.67887C61.0434 9.78056 61.0634 9.88317 61.0807 9.98662L63.0541 9.66144C63.0309 9.52269 63.0041 9.38504 62.9737 9.24862L61.0208 9.67887ZM63.3586 6.17369L61.217 8.83653L62.7775 10.091L64.9191 7.42811L63.3586 6.17369ZM60.2632 3.64387L63.3651 7.43289L64.9126 6.16892L61.8107 2.3799L60.2632 3.64387ZM58.4243 5.48621L61.4974 3.90028L60.5764 2.1235L57.5033 3.70942L58.4243 5.48621ZM57.2828 5.40025C57.3791 5.43615 57.4742 5.47442 57.5679 5.51499L58.3598 3.68065C58.2345 3.62644 58.1075 3.57529 57.9789 3.52731L57.2828 5.40025ZM56.9762 5.29532C57.079 5.32741 57.1813 5.36238 57.2828 5.40025L57.9789 3.52731C57.8431 3.47667 57.7063 3.4299 57.5688 3.387L56.9762 5.29532ZM55.0843 1.51617L56.3418 4.70589L58.2031 3.97642L56.9455 0.786703L55.0843 1.51617ZM51.3547 2.93284L56.1797 2.13777L55.8501 0.165108L51.0252 0.960173L51.3547 2.93284ZM52.0362 5.41592L52.1893 1.99321L50.1906 1.89979L50.0375 5.3225L52.0362 5.41592ZM51.3724 6.37418C51.456 6.30599 51.5411 6.24029 51.6277 6.17711L50.4461 4.56132C50.3302 4.64578 50.2164 4.73363 50.1047 4.82484L51.3724 6.37418ZM51.1397 6.5744C51.2153 6.50588 51.2929 6.43911 51.3724 6.37418L50.1047 4.82484C49.9984 4.9116 49.8947 5.00084 49.7937 5.09242L51.1397 6.5744ZM46.895 6.3065L50.3198 6.8219L50.6137 4.84492L47.1889 4.32952L46.895 6.3065ZM46.2761 10.2488L47.9797 5.66797L46.1041 4.96805L44.4005 9.54892L46.2761 10.2488ZM48.7666 10.8889L45.8728 9.05502L44.8038 10.7427L47.6975 12.5767L48.7666 10.8889ZM49.2694 11.9329C49.2522 11.8297 49.2378 11.7264 49.2261 11.6231L47.238 11.8425C47.2536 11.9811 47.2729 12.1196 47.296 12.2581L49.2694 11.9329ZM53.7728 9.40105C54.3289 8.94701 55.0995 8.82003 55.7735 9.07136L56.4696 7.19843C55.1292 6.6986 53.6111 6.94876 52.505 7.85171L53.7728 9.40105ZM53.0628 11.2749C52.9457 10.5736 53.2176 9.85431 53.7728 9.40105L52.505 7.85171C51.4002 8.75369 50.8532 10.1858 51.0895 11.6001L53.0628 11.2749ZM54.3441 12.8207C53.6712 12.5698 53.18 11.9763 53.0628 11.2749L51.0895 11.6001C51.3257 13.0144 52.3091 14.1944 53.648 14.6936L54.3441 12.8207ZM56.3448 12.491C55.7887 12.9451 55.0181 13.072 54.3441 12.8207L53.648 14.6936C54.9884 15.1935 56.5065 14.9433 57.6126 14.0404L56.3448 12.491ZM57.0548 10.6171C57.1719 11.3185 56.9 12.0378 56.3448 12.491L57.6126 14.0404C58.7174 13.1384 59.2644 11.7063 59.0282 10.292L57.0548 10.6171ZM55.7735 9.07136C56.4464 9.32226 56.9376 9.91576 57.0548 10.6171L59.0282 10.292C58.7919 8.87764 57.8085 7.69772 56.4696 7.19843L55.7735 9.07136Z" fill="#333333"/>
<path d="M48.083 51.5047L48.6903 52.3006C48.9674 52.0902 49.1144 51.7506 49.0784 51.4043L48.083 51.5047ZM48.0317 50.6748L49.0322 50.6579L49.0322 50.6579L48.0317 50.6748ZM45.3079 53.6129L44.7005 52.8171C44.3172 53.1082 44.1972 53.6315 44.415 54.0618L45.3079 53.6129ZM47.9746 58.8796L47.0817 59.3285C47.2996 59.7587 47.7933 59.9735 48.2561 59.8393L47.9746 58.8796ZM51.3421 57.9035L52.0117 57.1628C51.7537 56.9302 51.3937 56.8473 51.0605 56.9439L51.3421 57.9035ZM51.9884 58.4392L51.3835 59.2335L51.3835 59.2335L51.9884 58.4392ZM52.6722 58.9152L53.6728 58.9383C53.6799 58.5889 53.5036 58.2606 53.2078 58.0726L52.6722 58.9152ZM52.6017 62.3755L51.6012 62.3524C51.5914 62.8331 51.926 63.2537 52.3975 63.3531L52.6017 62.3755ZM58.3794 63.5945L58.1752 64.5721C58.6467 64.6716 59.1213 64.4218 59.3047 63.9777L58.3794 63.5945ZM59.7129 60.3656L59.5522 59.3789C59.2093 59.4336 58.9198 59.6621 58.7875 59.9825L59.7129 60.3656ZM61.3483 59.9613L61.9846 59.1918C61.7165 58.9705 61.353 58.9036 61.0243 59.0149L61.3483 59.9613ZM64.0506 62.1918L63.4143 62.9612C63.786 63.2681 64.3232 63.2676 64.6926 62.9601L64.0506 62.1918ZM68.5778 58.4241L69.2199 59.1924C69.5893 58.8849 69.6863 58.3577 69.4506 57.9376L68.5778 58.4241ZM66.8822 55.4019L66.0114 54.9071C65.8388 55.2108 65.8381 55.583 66.0095 55.8884L66.8822 55.4019ZM67.2622 54.6615L66.3528 54.2418L67.2622 54.6615ZM67.5801 53.8874L67.3756 52.9087C67.0357 52.9786 66.757 53.2194 66.639 53.5451L67.5801 53.8874ZM71.0138 53.1813L71.2183 54.16C71.6904 54.0629 72.025 53.6433 72.0143 53.1618L71.0138 53.1813ZM70.882 47.2876L71.8825 47.2682C71.8718 46.7867 71.5187 46.3804 71.0427 46.3018L70.882 47.2876ZM67.4373 46.7185L66.5107 47.0934C66.6424 47.416 66.9325 47.6475 67.2766 47.7043L67.4373 46.7185ZM67.0904 45.961L66.1987 46.4121L66.1987 46.4121L67.0904 45.961ZM66.6835 45.2388L65.7915 44.7832C65.6329 45.0941 65.6486 45.4656 65.833 45.763L66.6835 45.2388ZM68.2572 42.1544L69.1492 42.61C69.3677 42.1817 69.249 41.6578 68.8667 41.3636L68.2572 42.1544ZM63.5754 38.5514L64.1849 37.7606C63.8026 37.4664 63.2654 37.4855 62.9068 37.806L63.5754 38.5514ZM60.958 40.8908L60.6786 41.8495C61.0107 41.9468 61.3692 41.8662 61.6266 41.6361L60.958 40.8908ZM60.1606 40.692L59.9608 41.6706L59.9608 41.6706L60.1606 40.692ZM59.3164 40.5552L58.4072 40.9701C58.5532 41.2874 58.8541 41.5062 59.2011 41.5474L59.3164 40.5552ZM57.8593 37.3878L58.7685 36.9728C58.5673 36.5355 58.0831 36.3023 57.616 36.4178L57.8593 37.3878ZM52.1348 38.8036L51.8916 37.8337C51.4245 37.9492 51.107 38.3806 51.1359 38.8606L52.1348 38.8036ZM52.3436 42.2804L52.9141 43.103C53.2011 42.905 53.3634 42.5716 53.3425 42.2234L52.3436 42.2804ZM51.6641 42.7935L51.0256 42.0222L51.0256 42.0222L51.6641 42.7935ZM51.053 43.341L50.8145 44.3108C51.1505 44.3941 51.5052 44.2983 51.7526 44.0575L51.053 43.341ZM47.6358 42.4938L47.8743 41.5241C47.4062 41.408 46.9227 41.6414 46.724 42.0793L47.6358 42.4938ZM45.2022 47.8567L44.2904 47.4421C44.0917 47.88 44.2342 48.398 44.6295 48.6745L45.2022 47.8567ZM48.05 49.8488L49.0487 49.9155C49.071 49.567 48.9095 49.2316 48.6226 49.0309L48.05 49.8488ZM54.6372 46.5282L53.9987 45.757L54.6372 46.5282ZM59.0028 45.4485L59.2025 44.4699L59.0028 45.4485ZM52.7709 50.5777L53.7715 50.5608L53.7715 50.5608L52.7709 50.5777ZM54.8039 54.5671L54.1989 55.3613L54.1989 55.3613L54.8039 54.5671ZM62.6516 52.6261L61.7423 52.2063L62.6516 52.6261ZM62.5634 48.1557L61.6717 48.6068L61.6717 48.6068L62.5634 48.1557ZM49.0784 51.4043C49.0527 51.1573 49.0372 50.9083 49.0322 50.6579L47.0311 50.6918C47.0372 50.9981 47.0561 51.3029 47.0876 51.6052L49.0784 51.4043ZM45.9153 54.4088L48.6903 52.3006L47.4756 50.7089L44.7005 52.8171L45.9153 54.4088ZM48.8674 58.4308L46.2007 53.1641L44.415 54.0618L47.0817 59.3285L48.8674 58.4308ZM51.0605 56.9439L47.6931 57.9199L48.2561 59.8393L51.6236 58.8632L51.0605 56.9439ZM52.5934 57.6449C52.392 57.4918 52.198 57.3309 52.0117 57.1628L50.6724 58.6443C50.9002 58.8496 51.1373 59.0463 51.3835 59.2335L52.5934 57.6449ZM53.2078 58.0726C52.9977 57.9391 52.7927 57.7965 52.5934 57.6449L51.3835 59.2335C51.6279 59.4194 51.8792 59.5942 52.1366 59.7578L53.2078 58.0726ZM53.6023 62.3987L53.6728 58.9383L51.6717 58.892L51.6012 62.3524L53.6023 62.3987ZM58.5836 62.6168L52.806 61.3979L52.3975 63.3531L58.1752 64.5721L58.5836 62.6168ZM58.7875 59.9825L57.4541 63.2113L59.3047 63.9777L60.6382 60.7488L58.7875 59.9825ZM60.2967 59.2278C60.0501 59.2887 59.8017 59.3391 59.5522 59.3789L59.8735 61.3524C60.1782 61.3038 60.4817 61.2423 60.7831 61.1677L60.2967 59.2278ZM61.0243 59.0149C60.7856 59.0958 60.5428 59.1669 60.2967 59.2278L60.7831 61.1677C61.084 61.0933 61.3806 61.0064 61.6722 60.9076L61.0243 59.0149ZM64.6869 61.4224L61.9846 59.1918L60.7119 60.7307L63.4143 62.9612L64.6869 61.4224ZM67.9358 57.6558L63.4086 61.4235L64.6926 62.9601L69.2199 59.1924L67.9358 57.6558ZM66.0095 55.8884L67.7051 58.9106L69.4506 57.9376L67.755 54.9154L66.0095 55.8884ZM66.3528 54.2418C66.2482 54.4689 66.1342 54.6908 66.0114 54.9071L67.7531 55.8967C67.9035 55.6319 68.0432 55.3599 68.1716 55.0812L66.3528 54.2418ZM66.639 53.5451C66.5537 53.7802 66.4584 54.0127 66.3528 54.2418L68.1716 55.0812C68.3006 54.8013 68.4171 54.5172 68.5213 54.2297L66.639 53.5451ZM70.8092 52.2026L67.3756 52.9087L67.7847 54.8661L71.2183 54.16L70.8092 52.2026ZM69.8815 47.3071L70.0133 53.2007L72.0143 53.1618L71.8825 47.2682L69.8815 47.3071ZM67.2766 47.7043L70.7214 48.2734L71.0427 46.3018L67.5979 45.7327L67.2766 47.7043ZM66.1987 46.4121C66.3127 46.6357 66.4166 46.863 66.5107 47.0934L68.3639 46.3436C68.2488 46.0617 68.1215 45.7836 67.9821 45.5099L66.1987 46.4121ZM65.833 45.763C65.9634 45.9734 66.0855 46.1899 66.1987 46.4121L67.9821 45.5099C67.8433 45.2376 67.6937 44.9723 67.5339 44.7146L65.833 45.763ZM67.3652 41.6988L65.7915 44.7832L67.5754 45.6944L69.1492 42.61L67.3652 41.6988ZM62.9659 39.3422L67.6477 42.9452L68.8667 41.3636L64.1849 37.7606L62.9659 39.3422ZM61.6266 41.6361L64.244 39.2968L62.9068 37.806L60.2894 40.1454L61.6266 41.6361ZM59.9608 41.6706C60.2033 41.7206 60.4427 41.7803 60.6786 41.8495L61.2374 39.932C60.9492 39.8476 60.6566 39.7745 60.3603 39.7134L59.9608 41.6706ZM59.2011 41.5474C59.4552 41.5776 59.7087 41.6186 59.9608 41.6706L60.3603 39.7134C60.0519 39.6498 59.7421 39.5997 59.4317 39.5629L59.2011 41.5474ZM56.9501 37.8028L58.4072 40.9701L60.2256 40.1402L58.7685 36.9728L56.9501 37.8028ZM52.378 39.7736L58.1025 38.3577L57.616 36.4178L51.8916 37.8337L52.378 39.7736ZM53.3425 42.2234L53.1338 38.7466L51.1359 38.8606L51.3446 42.3374L53.3425 42.2234ZM52.3026 43.5647C52.5003 43.4017 52.7044 43.2477 52.9141 43.103L51.773 41.4578C51.5168 41.6346 51.2674 41.8228 51.0256 42.0222L52.3026 43.5647ZM51.7526 44.0575C51.9284 43.8864 52.1118 43.7219 52.3026 43.5647L51.0256 42.0222C50.7925 42.2144 50.5683 42.4154 50.3535 42.6245L51.7526 44.0575ZM47.3972 43.4636L50.8145 44.3108L51.2916 42.3712L47.8743 41.5241L47.3972 43.4636ZM46.1139 48.2712L48.5475 42.9084L46.724 42.0793L44.2904 47.4421L46.1139 48.2712ZM48.6226 49.0309L45.7748 47.0388L44.6295 48.6745L47.4773 50.6666L48.6226 49.0309ZM49.0322 50.6579C49.0273 50.4093 49.0329 50.1617 49.0487 49.9155L47.0513 49.782C47.0319 50.0836 47.0251 50.3871 47.0311 50.6918L49.0322 50.6579ZM55.2757 47.2994C56.2509 46.4954 57.5621 46.1711 58.803 46.427L59.2025 44.4699C57.368 44.0916 55.4403 44.5684 53.9987 45.757L55.2757 47.2994ZM53.7715 50.5608C53.7466 49.307 54.3045 48.1002 55.2757 47.2994L53.9987 45.757C52.5621 46.9414 51.7333 48.7266 51.7703 50.5946L53.7715 50.5608ZM55.4089 53.7728C54.4016 53.0067 53.7964 51.8207 53.7715 50.5608L51.7703 50.5946C51.8074 52.4681 52.706 54.2259 54.1989 55.3613L55.4089 53.7728ZM58.9545 54.5006C57.7293 54.8037 56.4101 54.5342 55.4089 53.7728L54.1989 55.3613C55.6886 56.4943 57.6329 56.8877 59.4409 56.4406L58.9545 54.5006ZM61.7423 52.2063C61.2176 53.3452 60.1797 54.1976 58.9545 54.5006L59.4409 56.4406C61.2489 55.9934 62.7803 54.7403 63.561 53.0458L61.7423 52.2063ZM61.6717 48.6068C62.2446 49.7312 62.2701 51.0606 61.7423 52.2063L63.561 53.0458C64.3434 51.3476 64.3069 49.3765 63.455 47.7046L61.6717 48.6068ZM58.803 46.427C60.0389 46.6819 61.1015 47.4879 61.6717 48.6068L63.455 47.7046C62.6056 46.0375 61.0307 44.8469 59.2025 44.4699L58.803 46.427Z" fill="#333333"/>
<path d="M34.5556 13.3956L35.5358 13.5968C35.6372 13.1135 35.3696 12.6301 34.906 12.459L34.5556 13.3956ZM25.2809 9.97297L25.6313 9.03637C25.1677 8.86529 24.6472 9.05792 24.4062 9.48971L25.2809 9.97297ZM33.4617 18.6097L32.4815 18.4085C32.4114 18.7428 32.5172 19.0891 32.7622 19.3267L33.4617 18.6097ZM35.3574 20.8822L36.1917 20.3272L36.1909 20.326L35.3574 20.8822ZM35.3813 20.9181L34.5469 21.4731C34.7352 21.7554 35.0548 21.9224 35.3953 21.9165L35.3813 20.9181ZM40.7751 20.8244L41.7631 20.658C41.6822 20.171 41.2563 19.8174 40.761 19.826L40.7751 20.8244ZM42.3917 30.5597L42.701 31.5083C43.1721 31.3542 43.4606 30.8803 43.3797 30.3933L42.3917 30.5597ZM37.2836 32.2306L36.9743 31.282C36.6484 31.3886 36.3992 31.6537 36.3138 31.9849L37.2836 32.2306ZM36.2534 34.9889L35.3569 34.5469C35.2043 34.8529 35.2188 35.215 35.3954 35.5068L36.2534 34.9889ZM39.0224 39.5654L39.6614 40.3322C40.0428 40.0158 40.1359 39.4697 39.8804 39.0475L39.0224 39.5654ZM31.3973 45.8902L30.7302 46.6373C31.0997 46.965 31.6548 46.9734 32.0362 46.657L31.3973 45.8902ZM27.3418 42.2929L28.0089 41.5459C27.756 41.3216 27.406 41.2404 27.0788 41.3303L27.3418 42.2929ZM24.4277 42.7791L24.3684 41.7826C24.027 41.8039 23.7195 41.9975 23.553 42.2959L24.4277 42.7791ZM21.8026 47.4831L21.4521 48.4197C21.9157 48.5908 22.4363 48.3982 22.6773 47.9664L21.8026 47.4831ZM12.5279 44.0605L11.5477 43.8593C11.4463 44.3426 11.7139 44.8261 12.1775 44.9971L12.5279 44.0605ZM13.6321 38.7971L14.6123 38.9983C14.6824 38.6642 14.5767 38.3181 14.332 38.0805L13.6321 38.7971ZM11.7426 36.5373L12.5746 35.9788C12.3859 35.6986 12.0675 35.533 11.7285 35.5389L11.7426 36.5373ZM6.3084 36.6318L5.32038 36.7981C5.40124 37.2851 5.82719 37.6388 6.32246 37.6301L6.3084 36.6318ZM4.69176 26.8965L4.38249 25.9478C3.91139 26.1019 3.62287 26.5759 3.70374 27.0628L4.69176 26.8965ZM9.79395 25.2274L10.1032 26.1761C10.4289 26.0696 10.678 25.8047 10.7636 25.4739L9.79395 25.2274ZM10.829 22.4654L11.725 22.9084C11.8781 22.6021 11.8637 22.2396 11.687 21.9475L10.829 22.4654ZM8.06105 17.8907L7.42213 17.124C7.04071 17.4403 6.9476 17.9864 7.20308 18.4086L8.06105 17.8907ZM15.6862 11.5659L16.3533 10.8188C15.9838 10.4911 15.4287 10.4827 15.0473 10.7991L15.6862 11.5659ZM19.7078 15.1332L19.0408 15.8802C19.2948 16.1055 19.6466 16.1863 19.9748 16.0947L19.7078 15.1332ZM19.748 15.122L19.4825 14.1601L19.4811 14.1605L19.748 15.122ZM22.682 14.6299L22.7402 15.6266C23.082 15.6056 23.39 15.412 23.5567 15.1132L22.682 14.6299ZM22.2063 24.4893L22.4719 25.4512L22.2063 24.4893ZM26.8799 26.214L27.7134 25.6577L26.8799 26.214ZM19.0959 28.3908L18.0953 28.3525L19.0959 28.3908ZM26.6705 31.1861L27.4535 31.8059L26.6705 31.1861ZM34.906 12.459L25.6313 9.03637L24.9305 10.9096L34.2052 14.3322L34.906 12.459ZM34.4419 18.811L35.5358 13.5968L33.5754 13.1943L32.4815 18.4085L34.4419 18.811ZM36.1909 20.326C35.5938 19.4339 34.9119 18.6208 34.1612 17.8928L32.7622 19.3267C33.4135 19.9583 34.0053 20.6639 34.5238 21.4385L36.1909 20.326ZM36.2157 20.3631L36.1917 20.3272L34.523 21.4373L34.5469 21.4731L36.2157 20.3631ZM40.761 19.826L35.3672 19.9197L35.3953 21.9165L40.7891 21.8227L40.761 19.826ZM43.3797 30.3933L41.7631 20.658L39.7871 20.9907L41.4037 30.726L43.3797 30.3933ZM37.5928 33.1793L42.701 31.5083L42.0824 29.611L36.9743 31.282L37.5928 33.1793ZM37.1499 35.4309C37.624 34.4798 37.992 33.4891 38.2534 32.4764L36.3138 31.9849C36.087 32.8634 35.7679 33.7225 35.3569 34.5469L37.1499 35.4309ZM39.8804 39.0475L37.1113 34.471L35.3954 35.5068L38.1645 40.0833L39.8804 39.0475ZM32.0362 46.657L39.6614 40.3322L38.3835 38.7987L30.7584 45.1235L32.0362 46.657ZM26.6748 43.04L30.7302 46.6373L32.0643 45.1432L28.0089 41.5459L26.6748 43.04ZM24.487 43.7757C25.5433 43.7097 26.5885 43.5348 27.6048 43.2555L27.0788 41.3303C26.1954 41.5731 25.2867 41.7251 24.3684 41.7826L24.487 43.7757ZM22.6773 47.9664L25.3024 43.2624L23.553 42.2959L20.9278 46.9999L22.6773 47.9664ZM12.1775 44.9971L21.4521 48.4197L22.153 46.5465L12.8783 43.1239L12.1775 44.9971ZM12.6519 38.5958L11.5477 43.8593L13.5081 44.2618L14.6123 38.9983L12.6519 38.5958ZM10.9105 37.0959C11.4973 37.9672 12.1747 38.7781 12.9322 39.5136L14.332 38.0805C13.6736 37.4412 13.0846 36.7362 12.5746 35.9788L10.9105 37.0959ZM6.32246 37.6301L11.7566 37.5357L11.7285 35.5389L6.29434 35.6334L6.32246 37.6301ZM3.70374 27.0628L5.32038 36.7981L7.29643 36.4654L5.67979 26.7301L3.70374 27.0628ZM9.48468 24.2787L4.38249 25.9478L5.00103 27.8451L10.1032 26.1761L9.48468 24.2787ZM9.933 22.0224C9.46415 22.9605 9.09083 23.9512 8.82431 24.981L10.7636 25.4739C10.9946 24.5813 11.3183 23.7222 11.725 22.9084L9.933 22.0224ZM7.20308 18.4086L9.97105 22.9833L11.687 21.9475L8.91902 17.3728L7.20308 18.4086ZM15.0473 10.7991L7.42213 17.124L8.69997 18.6575L16.3251 12.3326L15.0473 10.7991ZM20.3749 14.3862L16.3533 10.8188L15.0191 12.3129L19.0408 15.8802L20.3749 14.3862ZM19.4811 14.1605L19.4409 14.1717L19.9748 16.0947L20.015 16.0835L19.4811 14.1605ZM22.6239 13.6333C21.5752 13.6976 20.5227 13.8713 19.4825 14.1601L20.0136 16.0839C20.9169 15.8331 21.8303 15.6824 22.7402 15.6266L22.6239 13.6333ZM24.4062 9.48971L21.8073 14.1467L23.5567 15.1132L26.1556 10.4562L24.4062 9.48971ZM22.4719 25.4512C23.8224 25.0763 25.27 25.6105 26.0463 26.7703L27.7134 25.6577C26.4581 23.7824 24.1244 22.9212 21.9407 23.5274L22.4719 25.4512ZM20.0965 28.4291C20.1549 27.0335 21.1174 25.8272 22.4719 25.4512L21.9407 23.5274C19.7507 24.1354 18.1903 26.0854 18.0953 28.3525L20.0965 28.4291ZM22.2134 31.5786C20.8994 31.0937 20.0384 29.8138 20.0965 28.4291L18.0953 28.3525C18.0005 30.6134 19.399 32.6718 21.5126 33.4518L22.2134 31.5786ZM25.8875 30.5662C25.0211 31.6525 23.5274 32.0635 22.2134 31.5786L21.5126 33.4518C23.6263 34.2318 26.0388 33.5798 27.4535 31.8059L25.8875 30.5662ZM26.0463 26.7703C26.825 27.9335 26.7608 29.4712 25.8875 30.5662L27.4535 31.8059C28.8721 30.0273 28.9724 27.5385 27.7134 25.6577L26.0463 26.7703Z" fill="#333333"/>
</svg>
