<svg width="119" height="120" viewBox="0 0 119 120" fill="none" xmlns="http://www.w3.org/2000/svg">
<path d="M30.2324 91.054V103.919H102.919V11.2919H81.0486C81.0486 11.2919 72.2041 18.2985 68.1838 24.1567C56.6565 40.954 81.7379 63.8119 65.6108 76.2594C58.1252 82.0371 50.9112 79.1051 42.454 83.3351C37.4053 85.8603 30.2324 91.054 30.2324 91.054Z" fill="#43BEA2"/>
<path d="M7.71892 55.6757H30.2324V103.919H102.919V11.9351H30.2324V25.4432M30.2324 49.2432V49.2432C24.9036 49.2432 20.5838 44.9234 20.5838 39.5946V39.5946C20.5838 34.2658 24.9036 29.9459 30.2324 29.9459H42.1324C45.8626 29.9459 48.8865 32.9698 48.8865 36.7V36.7C48.8865 40.4302 45.8626 43.4541 42.1324 43.4541H30.2324M19.2973 62.1081H1.28649M46.3135 55.6757H87.4811M46.3135 73.0432H87.4811M46.3135 87.8378H87.4811M87.4811 29.9459H109.351M95.8432 20.9405H111.924M25.7297 112.924H46.3135M0 89.1243H12.8649M6.43243 82.6919V95.5568M1.28649 1.64324L12.8649 13.2216M12.8649 1.64324L1.28649 13.2216M105.492 113.568H111.924M111.924 113.568H118.357M111.924 113.568V107.135M111.924 113.568V120M103.562 3.57297H108.708M106.135 1V6.14595M112.568 3.57297H115.141M115.141 3.57297H117.714M115.141 3.57297V1M115.141 3.57297V6.14595M112.568 12.5784H115.141M115.141 12.5784H117.714M115.141 12.5784V10.0054M115.141 12.5784V15.1514" stroke="#333333" stroke-width="2"/>
</svg>
