<svg width="63" height="64" viewBox="0 0 63 64" fill="none" xmlns="http://www.w3.org/2000/svg">
<path d="M46.5 6.01924C37.218 0.660254 25.782 0.660254 16.5 6.01924C7.21797 11.3782 1.5 21.282 1.5 32C1.5 42.718 7.21797 52.6218 16.5 57.9808C23.9786 62.2985 32.8555 63.1374 40.8774 60.4975L35.7647 50.272C35.0959 48.9343 34.7477 47.4593 34.7477 45.9637C34.7477 40.6432 39.0608 36.3301 44.3813 36.3301H61.1864C61.3937 34.9082 61.5 33.4617 61.5 32C61.5 21.282 55.782 11.3782 46.5 6.01924Z" stroke="#333333" stroke-width="3" stroke-linecap="round" stroke-linejoin="round"/>
<path d="M13.8559 38.2245C14.726 37.7221 15.7982 37.7221 16.6684 38.2245C17.5385 38.7269 18.0746 39.6554 18.0746 40.6602C18.0746 41.665 17.5385 42.5935 16.6684 43.0959C15.7982 43.5983 14.726 43.5983 13.8559 43.0959C12.9857 42.5935 12.4496 41.665 12.4496 40.6602C12.4496 39.6554 12.9857 38.7269 13.8559 38.2245Z" stroke="#333333" stroke-width="3" stroke-linecap="round" stroke-linejoin="round"/>
<path d="M14.9384 19.8215C15.8086 19.3191 16.8807 19.3191 17.7509 19.8215C18.6211 20.3239 19.1571 21.2524 19.1571 22.2572C19.1571 23.262 18.6211 24.1905 17.7509 24.6929C16.8807 25.1953 15.8086 25.1953 14.9384 24.6929C14.0682 24.1905 13.5321 23.262 13.5321 22.2572C13.5321 21.2524 14.0682 20.3239 14.9384 19.8215Z" stroke="#333333" stroke-width="3" stroke-linecap="round" stroke-linejoin="round"/>
<path d="M30.4046 11.4722C31.2748 10.9697 32.3469 10.9697 33.2171 11.4722C34.0873 11.9746 34.6234 12.903 34.6234 13.9078C34.6234 14.9127 34.0873 15.8411 33.2171 16.3435C32.3469 16.8459 31.2748 16.8459 30.4046 16.3435C29.5344 15.8411 28.9984 14.9127 28.9984 13.9078C28.9984 12.903 29.5344 11.9746 30.4046 11.4722Z" stroke="#333333" stroke-width="3" stroke-linecap="round" stroke-linejoin="round"/>
<path d="M45.5601 20.1324C46.4303 19.63 47.5024 19.63 48.3726 20.1324C49.2428 20.6348 49.7788 21.5633 49.7788 22.5681C49.7788 23.5729 49.2428 24.5014 48.3726 25.0038C47.5024 25.5062 46.4303 25.5062 45.5601 25.0038C44.6899 24.5014 44.1538 23.5729 44.1538 22.5681C44.1538 21.5633 44.6899 20.6348 45.5601 20.1324Z" stroke="#333333" stroke-width="3" stroke-linecap="round" stroke-linejoin="round"/>
</svg>
