<svg width="79" height="64" viewBox="0 0 79 64" fill="none" xmlns="http://www.w3.org/2000/svg">
<path d="M22.4 22.4H17.3H8.6V60C8.6 61.1046 9.49543 62 10.6 62H69C70.1046 62 71 61.1046 71 60V22.4H61.4H56.6M22.4 22.4H26V24.8H54.2V22.4H56.6M22.4 22.4V16.4V2H56.6V16.4V22.4M25.4 10.4H45.5M77 23.3V29.3C77 30.4598 74.8598 31.4 73.7 31.4C72.5402 31.4 71.6 30.4598 71.6 29.3V23.3C71.6 22.1402 72.5402 21.2 73.7 21.2C74.8598 21.2 77 22.1402 77 23.3ZM35.9 39.2C35.9 37.2118 34.2882 35.6 32.3 35.6C30.3118 35.6 28.7 37.2118 28.7 39.2C28.7 41.1882 30.3118 42.8 32.3 42.8C34.2882 42.8 35.9 41.1882 35.9 39.2ZM49.1 39.2C49.1 37.2118 47.4882 35.6 45.5 35.6C43.5118 35.6 41.9 37.2118 41.9 39.2C41.9 41.1882 43.5118 42.8 45.5 42.8C47.4882 42.8 49.1 41.1882 49.1 39.2ZM62.3 39.2C62.3 37.2118 60.6882 35.6 58.7 35.6C56.7118 35.6 55.1 37.2118 55.1 39.2C55.1 41.1882 56.7118 42.8 58.7 42.8C60.6882 42.8 62.3 41.1882 62.3 39.2ZM22.7 39.2V39.2C22.7 41.1882 21.0882 42.8 19.1 42.8V42.8C17.1118 42.8 15.5 41.1882 15.5 39.2V39.2C15.5 37.2118 17.1118 35.6 19.1 35.6V35.6C21.0882 35.6 22.7 37.2118 22.7 39.2ZM2 23.9V28.7C2 30.1912 3.20883 31.4 4.7 31.4V31.4C6.19117 31.4 7.4 30.1912 7.4 28.7V23.9C7.4 22.4088 6.19117 21.2 4.7 21.2V21.2C3.20883 21.2 2 22.4088 2 23.9ZM55.7 54.6V53.2C55.7 52.0954 54.8046 51.2 53.7 51.2H25.3C24.1954 51.2 23.3 52.0954 23.3 53.2V54.6C23.3 55.7046 24.1954 56.6 25.3 56.6H53.7C54.8046 56.6 55.7 55.7046 55.7 54.6Z" stroke="#333333" stroke-width="3"/>
</svg>
