<svg width="59" height="66" viewBox="0 0 59 66" fill="none" xmlns="http://www.w3.org/2000/svg">
<path d="M52.8609 10.4831L53.833 10.2485C53.77 9.98736 53.6046 9.76259 53.3741 9.62476L52.8609 10.4831ZM53.431 29.0152L52.4465 28.84L53.431 29.0152ZM37.7307 55.9364L37.0915 55.1674L37.7307 55.9364ZM29.1497 61.5599L28.6982 62.4522C28.9821 62.5958 29.3173 62.5958 29.6011 62.4522L29.1497 61.5599ZM20.5686 55.9364L19.9294 56.7055L20.5686 55.9364ZM4.86835 29.0152L5.85288 28.8399L4.86835 29.0152ZM5.43865 10.4822L4.92554 9.6239C4.69499 9.76172 4.52958 9.9865 4.46656 10.2476L5.43865 10.4822ZM13.3758 6.71912L13.715 7.65985L13.3758 6.71912ZM44.9224 6.71912L45.2616 5.77839L44.9224 6.71912ZM51.8889 10.7177C53.3123 16.616 53.5236 22.7894 52.4465 28.84L54.4156 29.1905C55.5417 22.8643 55.3205 16.4119 53.833 10.2485L51.8889 10.7177ZM52.4465 28.84C50.617 39.1179 45.1238 48.4911 37.0915 55.1674L38.37 56.7055C46.7615 49.7305 52.5023 39.9385 54.4156 29.1905L52.4465 28.84ZM37.0915 55.1674C34.5104 57.3128 31.688 59.1549 28.6982 60.6676L29.6011 62.4522C32.7218 60.8733 35.6707 58.9491 38.37 56.7055L37.0915 55.1674ZM29.6011 60.6676C26.6114 59.1549 23.789 57.3128 21.2079 55.1674L19.9294 56.7055C22.6287 58.9491 25.5776 60.8733 28.6982 62.4522L29.6011 60.6676ZM21.2079 55.1674C13.1755 48.4911 7.68242 39.1179 5.85288 28.8399L3.88383 29.1905C5.79704 39.9385 11.5379 49.7305 19.9294 56.7055L21.2079 55.1674ZM5.85288 28.8399C4.77578 22.7891 4.98706 16.6154 6.41074 10.7168L4.46656 10.2476C2.9789 16.4113 2.75769 22.864 3.88383 29.1905L5.85288 28.8399ZM5.95176 11.3406C8.40788 9.87228 11.0077 8.63591 13.715 7.65985L13.0366 5.77839C10.2069 6.79863 7.49065 8.09048 4.92554 9.6239L5.95176 11.3406ZM13.715 7.65985C23.613 4.09125 34.6852 4.09125 44.5832 7.65985L45.2616 5.77839C34.9251 2.05173 23.3731 2.05173 13.0366 5.77839L13.715 7.65985ZM44.5832 7.65985C47.291 8.63609 49.8913 9.87274 52.3478 11.3414L53.3741 9.62476C50.8085 8.09097 48.0919 6.79882 45.2616 5.77839L44.5832 7.65985Z" fill="#333333"/>
<path d="M44.3845 18.55L45.3562 18.3138C45.2926 18.0521 45.1261 17.8271 44.8944 17.6898L44.3845 18.55ZM44.7585 30.4553L45.743 30.6311L45.743 30.6311L44.7585 30.4553ZM34.6691 47.6919L35.307 48.462L35.307 48.462L34.6691 47.6919ZM29.1505 51.3094L28.6983 52.2012C28.9826 52.3454 29.3185 52.3454 29.6028 52.2012L29.1505 51.3094ZM23.632 47.6919L22.9941 48.462L22.9941 48.462L23.632 47.6919ZM13.5426 30.4553L12.5581 30.6311L13.5426 30.4553ZM13.9167 18.5494L13.4068 17.6892C13.1751 17.8265 13.0086 18.0515 12.945 18.3133L13.9167 18.5494ZM18.8926 16.206L18.5545 15.2649L18.5545 15.2649L18.8926 16.206ZM19.1013 16.131L19.4394 17.0721L19.4394 17.0721L19.1013 16.131ZM39.199 16.131L38.8609 17.0721L38.8609 17.0721L39.199 16.131ZM39.4077 16.206L39.7459 15.2649L39.7459 15.2649L39.4077 16.206ZM43.4128 18.7861C44.322 22.5272 44.4592 26.4444 43.7741 30.2794L45.743 30.6311C46.4776 26.5186 46.33 22.3208 45.3562 18.3138L43.4128 18.7861ZM43.7741 30.2794C42.6144 36.7721 39.1159 42.7101 34.0312 46.9217L35.307 48.462C40.7506 43.9531 44.4988 37.5964 45.743 30.6311L43.7741 30.2794ZM34.0312 46.9217C32.3846 48.2856 30.5929 49.4568 28.6983 50.4175L29.6028 52.2012C31.6284 51.1741 33.5448 49.9216 35.307 48.462L34.0312 46.9217ZM29.6028 50.4175C27.7082 49.4568 25.9165 48.2856 24.2699 46.9217L22.9941 48.462C24.7563 49.9216 26.6727 51.1741 28.6983 52.2012L29.6028 50.4175ZM24.2699 46.9217C19.1852 42.7101 15.6867 36.7721 14.527 30.2794L12.5581 30.6311C13.8023 37.5964 17.5505 43.9531 22.9941 48.462L24.2699 46.9217ZM14.527 30.2794C13.8419 26.4443 13.9791 22.5269 14.8884 18.7856L12.945 18.3133C11.9711 22.3204 11.8235 26.5184 12.5581 30.6311L14.527 30.2794ZM14.4266 19.4097C15.9453 18.5095 17.5529 17.7499 19.2307 17.1471L18.5545 15.2649C16.7561 15.911 15.0336 16.725 13.4068 17.6892L14.4266 19.4097ZM19.2307 17.1471L19.4394 17.0721L18.7632 15.1899L18.5545 15.2649L19.2307 17.1471ZM19.4394 17.0721C25.7168 14.8168 32.5835 14.8168 38.8609 17.0721L39.5372 15.1899C32.8226 12.7775 25.4777 12.7775 18.7632 15.1899L19.4394 17.0721ZM38.8609 17.0721L39.0696 17.1471L39.7459 15.2649L39.5372 15.1899L38.8609 17.0721ZM39.0696 17.1471C40.7477 17.75 42.3556 18.5098 43.8746 19.4102L44.8944 17.6898C43.2674 16.7253 41.5445 15.9112 39.7459 15.2649L39.0696 17.1471Z" fill="#333333"/>
</svg>
