<svg width="58" height="58" viewBox="0 0 58 58" fill="none" xmlns="http://www.w3.org/2000/svg">
<path d="M53.0404 34.5354V26.6783M53.0404 34.5354L56.2845 37.7541C56.6787 38.1452 56.6787 38.7827 56.2845 39.1738L55.5937 39.8592C55.0708 40.3781 55.4382 41.2701 56.1749 41.2701V41.2701C56.6306 41.2701 57 41.6395 57 42.0952V47.1797C57 47.6354 56.6306 48.0048 56.1749 48.0048V48.0048C55.4382 48.0048 55.0708 48.8968 55.5937 49.4156L56.2845 50.101C56.6787 50.4922 56.6787 51.1296 56.2845 51.5208L52.6134 55.1631C52.2235 55.5499 51.5946 55.5499 51.2048 55.1631L50.7851 54.7468C50.154 54.1206 49.0808 54.5676 49.0808 55.4566V55.9844C49.0808 56.5367 48.6331 56.9844 48.0808 56.9844H42.7273C42.175 56.9844 41.7273 56.5367 41.7273 55.9844V55.4566C41.7273 54.5676 40.654 54.1206 40.0229 54.7468L39.6033 55.1631C39.2134 55.5499 38.5845 55.5499 38.1947 55.1631L34.5236 51.5208C34.1293 51.1296 34.1293 50.4922 34.5236 50.101L34.913 49.7147C35.5468 49.0858 35.1015 48.0048 34.2087 48.0048H33.8081M53.0404 34.5354H49.6465M1 26.6783V33.5354C1 34.0877 1.44771 34.5354 2 34.5354H19.101M1 26.6783V2.98438C1 2.43209 1.44772 1.98438 2 1.98438H52.0404C52.5927 1.98438 53.0404 2.43209 53.0404 2.98437V26.6783M1 26.6783H53.0404M30.4141 4.7905L22.4949 22.1885M19.101 22.1885L11.8973 15.0412C11.5031 14.65 11.5031 14.0126 11.8973 13.6214L19.101 6.47417M32.6768 7.0354L39.3148 13.6214C39.7091 14.0126 39.7091 14.65 39.3148 15.0412L32.6768 21.6272M19.101 34.5354L15.7071 41.2701M19.101 34.5354H37.7677M15.7071 41.2701H11.0505C10.4982 41.2701 10.0505 41.7178 10.0505 42.2701V47.0048C10.0505 47.5571 10.4982 48.0048 11.0505 48.0048H33.8081M15.7071 41.2701H33.8081M33.8081 48.0048V41.2701M33.8081 41.2701H34.2087C35.1015 41.2701 35.5468 40.189 34.913 39.5602L34.5236 39.1738C34.1293 38.7827 34.1293 38.1452 34.5236 37.7541L37.7677 34.5354M37.7677 34.5354H39.4646M39.4646 34.5354L40.1337 35.1992C40.7238 35.7846 41.7273 35.3667 41.7273 34.5354V34.5354M39.4646 34.5354H41.7273M41.7273 34.5354H47.3838M47.3838 34.5354V34.5354C47.3838 35.3667 48.3874 35.7846 48.9774 35.1992L49.6465 34.5354M47.3838 34.5354H49.6465M50.7778 44.6374V44.6374C50.7778 41.5379 48.2208 39.0252 45.1212 39.0252V39.0252C42.0217 39.0252 39.4646 41.5379 39.4646 44.6374V44.6374C39.4646 47.737 42.0217 50.2497 45.1212 50.2497V50.2497C48.2208 50.2497 50.7778 47.737 50.7778 44.6374Z" stroke="#333333" stroke-width="2" stroke-linejoin="round"/>
</svg>
