<svg width="64" height="59" viewBox="0 0 64 59" fill="none" xmlns="http://www.w3.org/2000/svg">
<path d="M9.17528 20.2537L19.9865 9.28163M26.8592 8.94667L37.1406 17.642M44.2788 17.6422L54.5603 8.94683M54.2581 55.0357V27.5357C54.2581 26.4509 55.1246 25.5714 56.1935 25.5714H60.0645C61.1335 25.5714 62 26.4509 62 27.5357V55.0357C62 56.1206 61.1335 57 60.0645 57H56.1935C55.1246 57 54.2581 56.1206 54.2581 55.0357ZM36.8387 41.2857V55.0357C36.8387 56.1206 37.7053 57 38.7742 57H42.6452C43.7141 57 44.5806 56.1206 44.5806 55.0357V41.2857C44.5806 40.2009 43.7141 39.3214 42.6452 39.3214H38.7742C37.7053 39.3214 36.8387 40.2009 36.8387 41.2857ZM2 55.0357V45.2143C2 44.1294 2.86655 43.25 3.93548 43.25H7.80645C8.87539 43.25 9.74194 44.1294 9.74194 45.2143L9.74194 55.0357C9.74194 56.1206 8.87539 57 7.80645 57H3.93548C2.86655 57 2 56.1206 2 55.0357ZM19.4194 55.0357V27.5357C19.4194 26.4509 20.2859 25.5714 21.3548 25.5714H25.2258C26.2947 25.5714 27.1613 26.4509 27.1613 27.5357V55.0357C27.1613 56.1206 26.2947 57 25.2258 57H21.3548C20.2859 57 19.4194 56.1206 19.4194 55.0357ZM60.0645 9.85714H56.1935C55.1246 9.85714 54.2581 8.9777 54.2581 7.89286V3.96429C54.2581 2.87944 55.1246 2 56.1935 2H60.0645C61.1335 2 62 2.87944 62 3.96429V7.89286C62 8.9777 61.1335 9.85714 60.0645 9.85714ZM38.7742 24.5893H42.6452C43.7141 24.5893 44.5806 23.7098 44.5806 22.625V18.6964C44.5806 17.6116 43.7141 16.7321 42.6452 16.7321H38.7742C37.7053 16.7321 36.8387 17.6116 36.8387 18.6964V22.625C36.8387 23.7098 37.7053 24.5893 38.7742 24.5893ZM7.80645 27.5357H3.93548C2.86655 27.5357 2 26.6563 2 25.5714V21.6429C2 20.558 2.86655 19.6786 3.93548 19.6786H7.80645C8.87539 19.6786 9.74194 20.558 9.74194 21.6429V25.5714C9.74194 26.6563 8.87539 27.5357 7.80645 27.5357ZM25.2258 9.85714H21.3548C20.2859 9.85714 19.4194 8.9777 19.4194 7.89286V3.96429C19.4194 2.87944 20.2859 2 21.3548 2H25.2258C26.2947 2 27.1613 2.87944 27.1613 3.96429V7.89286C27.1613 8.9777 26.2947 9.85714 25.2258 9.85714Z" stroke="#333333" stroke-width="3" stroke-linecap="round" stroke-linejoin="round"/>
</svg>
