<svg width="57" height="58" viewBox="0 0 57 58" fill="none" xmlns="http://www.w3.org/2000/svg">
<g clip-path="url(#clip0_712_4979)">
<path d="M27.5491 3.90499C27.8489 2.98443 29.1512 2.98443 29.4509 3.905L35.1884 21.5278L35.2392 21.684C35.3733 22.0958 35.7571 22.3745 36.1901 22.3745H36.356H54.9173C55.8865 22.3745 56.289 23.6151 55.5044 24.184L40.4896 35.0711L40.3572 35.1671C40.006 35.4218 39.859 35.8738 39.9933 36.2863L40.0437 36.441L45.7799 54.0597C46.0797 54.9807 45.0261 55.7474 44.242 55.1789L29.2217 44.2879L29.087 44.1902C28.7368 43.9364 28.2632 43.9364 27.9131 44.1902L27.7783 44.2879L12.758 55.1789C11.9739 55.7474 10.9203 54.9807 11.2202 54.0597L16.9563 36.441L17.0067 36.2863C17.141 35.8738 16.994 35.4218 16.6428 35.1671L16.5104 35.0711L1.49565 24.184C0.711004 23.6151 1.11346 22.3745 2.08267 22.3745H20.644H20.8099C21.2429 22.3745 21.6267 22.0958 21.7608 21.684L21.8116 21.5278L27.5491 3.90499Z" stroke="#333333" stroke-width="2"/>
<path d="M31.675 27.7544H27.43L27.31 29.6294L28.795 29.8094C29.985 29.9394 30.825 30.2844 31.315 30.8444C31.815 31.4044 32.065 32.1794 32.065 33.1694C32.065 35.3994 30.86 36.5144 28.45 36.5144C27.45 36.5144 26.3 36.4044 25 36.1844L25.21 34.4144C26.32 34.5344 27.21 34.5944 27.88 34.5944C28.63 34.5944 29.13 34.4844 29.38 34.2644C29.64 34.0444 29.78 33.6644 29.8 33.1244C29.83 32.5044 29.685 32.1044 29.365 31.9244C29.045 31.7444 28.385 31.6094 27.385 31.5194L26.125 31.3694C25.905 31.3494 25.725 31.2594 25.585 31.0994C25.455 30.9394 25.395 30.7494 25.405 30.5294L25.66 25.9844H31.75L31.675 27.7544Z" fill="#333333"/>
</g>
<defs>
<clipPath id="clip0_712_4979">
<rect width="57" height="57" fill="white" transform="translate(0 0.484375)"/>
</clipPath>
</defs>
</svg>
