<svg width="69" height="61" viewBox="0 0 69 61" fill="none" xmlns="http://www.w3.org/2000/svg">
<path d="M14.1702 21.6124L14.9202 20.3133L14.1702 21.6124ZM19.5864 21.6124L18.8364 20.3133H18.8364L19.5864 21.6124ZM6.28577 28.2059L4.98673 28.9559L6.28577 28.2059ZM1.86752 20.5533L0.568479 21.3033L1.86752 20.5533ZM6.28577 5.63354L4.98673 4.88354L6.28577 5.63354ZM27.1106 29.2427L25.8116 28.4927L27.1106 29.2427ZM26.596 29.4015L25.9515 30.7559L26.596 29.4015ZM25.7687 29.0078L26.4132 27.6533L25.7687 29.0078ZM23 31.5706L21.5047 31.4515L23 31.5706ZM21.5852 30.4407L21.5047 31.4515L24.4952 31.6897L24.5757 30.6789L21.5852 30.4407ZM27.2405 28.047L26.4132 27.6533L25.1242 30.3623L25.9515 30.7559L27.2405 28.047ZM30.8284 19.8033L25.8116 28.4927L28.4097 29.9927L33.4265 21.3033L30.8284 19.8033ZM26.4102 6.38354L30.8284 14.0362L33.4265 12.5362L29.0083 4.88354L26.4102 6.38354ZM12.5792 3.5L21.4157 3.5V0.5L12.5792 0.5V3.5ZM3.16655 14.0362L7.5848 6.38354L4.98673 4.88354L0.568478 12.5362L3.16655 14.0362ZM7.58481 27.4559L3.16656 19.8033L0.568479 21.3033L4.98673 28.9559L7.58481 27.4559ZM22.7099 30.3394L12.5792 30.3394V33.3394H22.7099V30.3394ZM14.9202 13.5302C16.1319 12.8307 17.6248 12.8307 18.8364 13.5302L20.3364 10.9322C18.1966 9.69669 15.5601 9.69669 13.4202 10.9322L14.9202 13.5302ZM12.9621 16.9218C12.9621 15.5227 13.7085 14.2298 14.9202 13.5302L13.4202 10.9322C11.2803 12.1676 9.9621 14.4509 9.9621 16.9218H12.9621ZM14.9202 20.3133C13.7085 19.6138 12.9621 18.3209 12.9621 16.9218H9.9621C9.9621 19.3927 11.2803 21.676 13.4202 22.9114L14.9202 20.3133ZM18.8364 20.3133C17.6248 21.0129 16.1319 21.0129 14.9202 20.3133L13.4202 22.9114C15.5601 24.1469 18.1966 24.1469 20.3364 22.9114L18.8364 20.3133ZM20.7946 16.9218C20.7946 18.3209 20.0481 19.6138 18.8364 20.3133L20.3364 22.9114C22.4763 21.676 23.7946 19.3927 23.7946 16.9218H20.7946ZM18.8364 13.5302C20.0481 14.2298 20.7946 15.5227 20.7946 16.9218H23.7946C23.7946 14.4509 22.4763 12.1676 20.3364 10.9322L18.8364 13.5302ZM9.39708 30.4007C9.52927 32.0601 10.9145 33.3394 12.5792 33.3394V30.3394C12.479 30.3394 12.3956 30.2624 12.3876 30.1625L9.39708 30.4007ZM9.12285 30.2423C9.24449 30.1845 9.38639 30.2664 9.39708 30.4007L12.3876 30.1625C12.21 27.9327 9.85369 26.5723 7.83389 27.5334L9.12285 30.2423ZM4.98673 28.9559C5.81909 30.3976 7.61961 30.9576 9.12285 30.2423L7.83389 27.5334C7.74336 27.5764 7.63493 27.5427 7.58481 27.4559L4.98673 28.9559ZM1.52244 17.078C0.151385 18.0223 -0.263883 19.8616 0.568479 21.3033L3.16656 19.8033C3.11643 19.7164 3.14144 19.6057 3.224 19.5488L1.52244 17.078ZM1.52244 16.7614C1.63338 16.8378 1.63338 17.0016 1.52244 17.078L3.224 19.5488C5.06619 18.2801 5.06619 15.5593 3.224 14.2906L1.52244 16.7614ZM0.568478 12.5362C-0.263885 13.9779 0.151387 15.8172 1.52244 16.7614L3.224 14.2906C3.14144 14.2338 3.11643 14.123 3.16655 14.0362L0.568478 12.5362ZM9.12285 3.59709C7.61961 2.88183 5.81909 3.44185 4.98673 4.88354L7.5848 6.38354C7.63493 6.29672 7.74336 6.26299 7.83389 6.30607L9.12285 3.59709ZM9.39708 3.43876C9.38639 3.57304 9.24449 3.65496 9.12285 3.59709L7.83389 6.30607C9.85369 7.26711 12.21 5.90669 12.3876 3.67698L9.39708 3.43876ZM12.5792 0.5C10.9145 0.5 9.52927 1.77929 9.39708 3.43876L12.3876 3.67698C12.3956 3.57704 12.479 3.5 12.5792 3.5V0.5ZM24.5979 3.43876C24.4657 1.77929 23.0805 0.5 21.4157 0.5V3.5C21.516 3.5 21.5994 3.57704 21.6074 3.67698L24.5979 3.43876ZM24.8721 3.59709C24.7505 3.65496 24.6086 3.57303 24.5979 3.43876L21.6074 3.67698C21.785 5.90669 24.1413 7.26711 26.1611 6.30607L24.8721 3.59709ZM29.0083 4.88354C28.1759 3.44184 26.3754 2.88183 24.8721 3.59709L26.1611 6.30607C26.2516 6.26299 26.3601 6.29672 26.4102 6.38354L29.0083 4.88354ZM32.4726 16.7614C33.8436 15.8172 34.2589 13.9779 33.4265 12.5362L30.8284 14.0362C30.8786 14.123 30.8536 14.2338 30.771 14.2906L32.4726 16.7614ZM32.4726 17.078C32.3616 17.0016 32.3616 16.8378 32.4726 16.7614L30.771 14.2906C28.9288 15.5593 28.9288 18.2801 30.771 19.5488L32.4726 17.078ZM33.4265 21.3033C34.2589 19.8616 33.8436 18.0223 32.4726 17.078L30.771 19.5488C30.8536 19.6057 30.8786 19.7164 30.8284 19.8033L33.4265 21.3033ZM27.9575 30.5213C28.1423 30.3723 28.2945 30.1921 28.4097 29.9927L25.8116 28.4927C25.8777 28.3782 25.9659 28.2734 26.0745 28.1859L27.9575 30.5213ZM25.9515 30.7559C26.5985 31.0638 27.38 30.9869 27.9575 30.5213L26.0745 28.1859C26.4143 27.9119 26.8691 27.8703 27.2405 28.047L25.9515 30.7559ZM24.5757 30.6789C24.5971 30.4104 24.8809 30.2465 25.1242 30.3623L26.4132 27.6533C24.2717 26.6344 21.7735 28.0767 21.5852 30.4407L24.5757 30.6789ZM22.2578 30.4273C22.404 30.3683 22.5577 30.3394 22.7099 30.3394V33.3394C22.9369 33.3394 23.1647 33.2964 23.3804 33.2094L22.2578 30.4273ZM23.3804 33.2094C24.0184 32.9519 24.442 32.3575 24.4952 31.6897L21.5047 31.4515C21.5403 31.004 21.8247 30.6021 22.2578 30.4273L23.3804 33.2094Z" fill="#333333"/>
<path d="M52.7845 21.5649L48.2059 18.3564L26.9834 44.4643C25.0778 46.8086 25.5613 50.2774 28.0355 52.0112C30.5096 53.745 33.9352 53.0155 35.4883 50.4241L52.7845 21.5649Z" stroke="#333333" stroke-width="3" stroke-linecap="round" stroke-linejoin="round"/>
<path d="M61.9418 27.982C65.4859 22.9246 64.259 15.9517 59.2016 12.4076L52.3336 7.59484L51.5315 8.73951L48.0975 6.33311L48.8996 5.18844L45.4657 2.78204L39.0486 11.9393L42.4826 14.3457L43.2847 13.2011L46.7187 15.6075L45.9166 16.7521L61.9418 27.982Z" stroke="#333333" stroke-width="3" stroke-linecap="round" stroke-linejoin="round"/>
</svg>
