<svg width="66" height="58" viewBox="0 0 66 58" fill="none" xmlns="http://www.w3.org/2000/svg">
<path d="M58.8112 26.9706L47.8406 16C46.7335 14.8929 47.5176 13 49.0833 13L58.8112 13C60.468 13 61.8112 14.3431 61.8112 16V25.7279C61.8112 27.2936 59.9183 28.0776 58.8112 26.9706Z" fill="#43BEA2"/>
<path d="M1 45.5269L17.617 28.9099C19.1791 27.3478 21.7118 27.3478 23.2739 28.9099L31.7591 37.3952C33.3212 38.9573 35.8539 38.9573 37.416 37.3952L53.3259 21.4853M47.8406 16L58.8112 26.9706C59.9183 28.0776 61.8112 27.2936 61.8112 25.7279V16C61.8112 14.3431 60.468 13 58.8112 13L49.0833 13C47.5176 13 46.7335 14.8929 47.8406 16Z" stroke="#43BEA2" stroke-width="2" stroke-linecap="round" stroke-linejoin="round"/>
<path d="M1 1V55C1 56.1046 1.89543 57 3 57H65" stroke="#333333" stroke-width="2" stroke-linecap="round" stroke-linejoin="round"/>
</svg>
