<svg width="121" height="121" viewBox="0 0 121 121" fill="none" xmlns="http://www.w3.org/2000/svg">
<path d="M109.788 117.17L81.0645 87.8085L86.8091 81.4255L115.533 111.426L109.788 117.17Z" fill="#43BEA2"/>
<path d="M80.4258 87.1702L109.787 117.17L115.532 111.426L86.8088 81.4255" stroke="black" stroke-width="2"/>
<path d="M69.5745 93.5532C61.1242 96.8488 54.8935 98.0212 47.2346 96.7446C40.3985 95.6051 55.533 87.1701 61.2772 85.8935C67.0213 84.617 73.4041 80.1489 81.0644 72.4893C88.7247 64.8297 90.1754 47.6293 82.341 35.468C76.4598 26.3386 66.3828 20.1489 61.2772 20.1489C56.2618 20.1489 46.8393 9.936 51.8547 9.93608C54.2552 9.93612 56.053 9.68656 58.724 9.93608C65.5526 10.574 69.4744 12.0934 75.3197 15.6808C81.6841 19.5866 84.8017 22.9298 88.8152 29.2269C93.5969 36.7294 94.9564 42.0672 95.7452 50.929C96.6775 61.4021 95.9688 67.2559 90.6383 76.3191C85.3365 85.3337 79.3179 89.7533 69.5745 93.5532Z" fill="#43BEA2"/>
<path d="M61.9152 73.1277L55.5322 73.766C55.5322 73.766 58.0854 68.0213 61.9152 62.9149C64.9985 58.8038 56.8088 50.7872 56.8088 50.7872L61.9152 51.4255L67.0216 55.8936L68.9365 61.6383L67.6599 68.6596L61.9152 73.1277Z" fill="#43BEA2"/>
<path d="M8.29802 115.255L1.91504 117.17C1.91504 117.17 6.27954 112.375 8.29802 106.319C10.2129 100.574 3.19163 93.5532 3.19163 93.5532H8.29802L13.4044 97.383L15.3193 103.128L13.4044 110.787L8.29802 115.255Z" fill="#43BEA2"/>
<path d="M51.0637 108.234H28.085L39.5743 119.723L51.0637 108.234Z" fill="#43BEA2"/>
<circle cx="53.6174" cy="53.3404" r="43.6809" stroke="black" stroke-width="2"/>
<path d="M14.0426 29.0852L11.9008 26.7903C8.08659 22.7037 8.12221 16.3513 11.982 12.3077V12.3077C15.6975 8.41529 21.7471 7.94307 26.0216 11.2118L29.3618 13.766M73.4043 105.043H86.8086M60.0001 112.702H81.7022M28.7235 71.2128H41.4894" stroke="black" stroke-width="2"/>
<path d="M95.7451 11.2128C95.7451 11.2128 100.673 11.4915 102.766 9.29787C105.176 6.77351 103.405 1 103.405 1" stroke="black" stroke-width="2"/>
<path d="M118.075 11.2128C118.075 11.2128 113.147 11.4915 111.053 9.29787C108.644 6.77351 110.415 1 110.415 1" stroke="black" stroke-width="2"/>
<path d="M95.7451 16.3307C95.7451 16.3307 100.673 16.052 102.766 18.2456C105.176 20.7699 103.405 26.5435 103.405 26.5435" stroke="black" stroke-width="2"/>
<path d="M118.075 16.3307C118.075 16.3307 113.147 16.052 111.053 18.2456C108.644 20.7699 110.415 26.5435 110.415 26.5435" stroke="black" stroke-width="2"/>
<path d="M113.617 46.9574V36.7446M108.511 41.851H118.724" stroke="black" stroke-width="2"/>
<path d="M95.7451 11.2128C95.7451 11.2128 100.673 11.4915 102.766 9.29787C105.176 6.77351 103.405 1 103.405 1" stroke="black" stroke-width="2"/>
<path d="M118.075 11.2128C118.075 11.2128 113.147 11.4915 111.053 9.29787C108.644 6.77351 110.415 1 110.415 1" stroke="black" stroke-width="2"/>
<path d="M95.7451 16.3307C95.7451 16.3307 100.673 16.052 102.766 18.2456C105.176 20.7699 103.405 26.5435 103.405 26.5435" stroke="black" stroke-width="2"/>
<path d="M118.075 16.3307C118.075 16.3307 113.147 16.052 111.053 18.2456C108.644 20.7699 110.415 26.5435 110.415 26.5435" stroke="black" stroke-width="2"/>
<path d="M113.617 46.9574V36.7446M108.511 41.851H118.724" stroke="black" stroke-width="2"/>
<path d="M90.6384 121V113.34M86.8086 117.17H94.4682" stroke="black" stroke-width="2"/>
<path d="M3.82979 78.8723V71.2128M0 75.0426H7.65957" stroke="black" stroke-width="2"/>
<path d="M53.6173 86.5319C71.9484 86.5319 86.8088 71.6716 86.8088 53.3404C86.8088 35.0093 71.9484 20.1489 53.6173 20.1489C35.2861 20.1489 20.4258 35.0093 20.4258 53.3404H42.7662" stroke="black" stroke-width="2"/>
<circle cx="57.4466" cy="62.2766" r="11.766" stroke="black" stroke-width="2"/>
<path d="M49.1491 53.9787L30.0001 29.7234M68.9363 62.9149L107.872 71.851M107.872 71.851V71.851C108.602 66.0166 113.561 61.6383 119.441 61.6383H120.638M107.872 71.851V71.851C108.595 78.352 114.098 83.3404 120.638 83.3404V83.3404M49.1491 69.9362L15.3193 100.574M15.3193 100.574C15.3193 100.574 13.2453 96.3614 10.8512 94.8298C7.88168 92.93 1.91504 93.5532 1.91504 93.5532M15.3193 100.574C15.3193 100.574 15.6204 110.424 10.2129 113.979C7.23067 115.939 1.91504 118.447 1.91504 118.447" stroke="black" stroke-width="2"/>
</svg>
