<svg width="1920" height="512" viewBox="0 0 1920 512" fill="none" xmlns="http://www.w3.org/2000/svg">
<mask id="mask0_259_3526" style="mask-type:alpha" maskUnits="userSpaceOnUse" x="0" y="0" width="1920" height="512">
<rect y="0.164307" width="1920" height="511" fill="white"/>
</mask>
<g mask="url(#mask0_259_3526)">
<path d="M73.0662 114.556C57.324 131.43 59.1199 158.967 77.1266 173.421C106.183 196.745 143.16 190.823 183.625 234.937C216.795 270.054 217.055 302.757 244.283 342.627C256.484 360.492 288.648 360.987 304.723 343.757C320.465 326.884 318.669 299.347 300.663 284.892C271.606 261.568 234.629 267.49 194.164 223.376C160.994 188.259 160.735 155.557 133.506 115.687C121.305 97.8219 89.1407 97.3269 73.0662 114.556Z" fill="#F2F2FA"/>
<path d="M236.829 -70.0648C221.087 -53.1915 222.883 -25.6543 240.889 -11.1999C269.946 12.1243 306.923 6.20224 347.388 50.316C380.558 85.433 380.817 118.136 408.046 158.006C420.247 175.871 452.411 176.366 468.486 159.136C484.228 142.263 482.432 114.726 464.425 100.271C435.369 76.947 398.392 82.8691 357.927 38.7553C324.757 3.6383 324.497 -29.0643 297.269 -68.9343C285.068 -86.7992 252.903 -87.2942 236.829 -70.0648Z" fill="#F2F2FA"/>
<path d="M467.804 101.31C450.079 86.533 422.685 89.8608 409.257 108.645C387.588 138.956 395.562 175.546 353.772 218.407C320.558 253.482 287.921 255.564 249.63 284.972C232.473 298.149 233.771 330.292 251.87 345.381C269.594 360.158 296.988 356.83 310.417 338.046C332.085 307.735 324.112 271.145 365.902 228.285C399.116 193.209 431.753 191.128 470.043 161.719C487.201 148.542 485.902 116.4 467.804 101.31Z" fill="#F2F2FA"/>
<path d="M1439.57 114.556C1423.82 131.43 1425.62 158.967 1443.63 173.421C1472.68 196.745 1509.66 190.823 1550.13 234.937C1583.3 270.054 1583.56 302.757 1610.78 342.627C1622.98 360.492 1655.15 360.987 1671.22 343.757C1686.97 326.884 1685.17 299.347 1667.16 284.892C1638.11 261.568 1601.13 267.49 1560.66 223.376C1527.5 188.259 1527.24 155.557 1500.01 115.687C1487.81 97.8219 1455.64 97.3269 1439.57 114.556Z" fill="#F2F2FA"/>
<path d="M1834.3 101.31C1816.58 86.533 1789.19 89.8608 1775.76 108.645C1754.09 138.956 1762.06 175.546 1720.27 218.407C1687.06 253.482 1654.42 255.564 1616.13 284.972C1598.97 298.149 1600.27 330.292 1618.37 345.381C1636.1 360.158 1663.49 356.83 1676.92 338.046C1698.59 307.735 1690.61 271.145 1732.4 228.285C1765.62 193.209 1798.25 191.128 1836.54 161.719C1853.7 148.542 1852.4 116.4 1834.3 101.31Z" fill="#F2F2FA"/>
<path d="M758.153 347.094C742.411 330.22 744.207 302.683 762.214 288.229C791.27 264.905 828.247 270.827 868.712 226.713C901.882 191.596 902.142 158.893 929.37 119.023C941.571 101.158 973.735 100.663 989.81 117.893C1005.55 134.766 1003.76 162.303 985.749 176.758C956.693 200.082 919.716 194.16 879.251 238.274C846.081 273.391 845.821 306.093 818.593 345.963C806.392 363.828 774.228 364.323 758.153 347.094Z" fill="#F2F2FA"/>
<path d="M812.546 184.923C795.416 200.385 767.912 198.135 753.756 179.892C730.914 150.455 737.445 113.581 694.004 72.394C659.439 38.6498 626.745 37.851 587.33 9.9686C569.668 -2.52488 569.704 -34.6932 587.196 -50.4814C604.326 -65.9433 631.83 -63.6937 645.986 -45.4511C668.828 -16.014 662.297 20.8603 705.737 62.0472C740.303 95.7914 772.997 96.5902 812.412 124.473C830.074 136.966 830.038 169.134 812.546 184.923Z" fill="#F2F2FA"/>
<path d="M649.599 521.927C632.468 537.389 604.964 535.139 590.809 516.897C567.967 487.459 574.498 450.585 531.057 409.398C496.492 375.654 463.798 374.855 424.382 346.973C406.721 334.479 406.756 302.311 424.248 286.523C441.379 271.061 468.883 273.311 483.038 291.553C505.88 320.99 499.349 357.865 542.79 399.051C577.355 432.796 610.049 433.594 649.465 461.477C667.126 473.97 667.091 506.139 649.599 521.927Z" fill="#F2F2FA"/>
<path d="M1319.9 177.516C1302.77 192.978 1275.27 190.728 1261.11 172.486C1238.27 143.049 1244.8 106.174 1201.36 64.9874C1166.8 31.2432 1134.1 30.4444 1094.69 2.56199C1077.02 -9.93149 1077.06 -42.0998 1094.55 -57.888C1111.68 -73.3499 1139.19 -71.1003 1153.34 -52.8577C1176.18 -23.4206 1169.65 13.4537 1213.09 54.6406C1247.66 88.3848 1280.35 89.1836 1319.77 117.066C1337.43 129.559 1337.39 161.728 1319.9 177.516Z" fill="#F2F2FA"/>
<path d="M1087.85 521.205C1072.43 504.04 1074.74 476.541 1093.01 462.426C1122.5 439.649 1159.36 446.262 1200.64 402.912C1234.46 368.422 1235.33 335.73 1263.3 296.376C1275.84 278.743 1308.01 278.849 1323.75 296.376C1339.18 313.541 1336.87 341.04 1318.59 355.155C1289.11 377.932 1252.25 371.319 1210.96 414.668C1177.14 449.159 1176.27 481.851 1148.3 521.205C1135.77 538.838 1103.6 538.732 1087.85 521.205Z" fill="#F2F2FA"/>
<path d="M1152.89 360.338C1135.17 375.115 1107.77 371.787 1094.34 353.003C1072.67 322.692 1080.65 286.102 1038.86 243.242C1005.64 208.166 973.007 206.085 934.716 176.676C917.559 163.499 918.857 131.357 936.955 116.267C954.68 101.49 982.074 104.818 995.503 123.602C1017.17 153.913 1009.2 190.503 1050.99 233.364C1084.2 268.439 1116.84 270.521 1155.13 299.929C1172.29 313.106 1170.99 345.249 1152.89 360.338Z" fill="#F2F2FA"/>
<circle cx="101.81" cy="325.779" r="42.5884" fill="#F2F2FA"/>
<circle cx="186.987" cy="407.253" r="12.9617" fill="#F2F2FA"/>
<circle cx="357.34" cy="407.253" r="12.9617" fill="#F2F2FA"/>
<circle cx="186.987" cy="66.5451" r="12.9617" fill="#F2F2FA"/>
<circle cx="535.101" cy="66.5451" r="12.9617" fill="#F2F2FA"/>
<circle cx="535.101" cy="236.899" r="12.9617" fill="#F2F2FA"/>
<circle cx="705.454" cy="236.899" r="12.9617" fill="#F2F2FA"/>
<circle cx="705.454" cy="407.253" r="12.9617" fill="#F2F2FA"/>
<circle cx="868.402" cy="407.253" r="12.9617" fill="#F2F2FA"/>
<circle cx="868.402" cy="59.1384" r="12.9617" fill="#F2F2FA"/>
<circle cx="1046.16" cy="59.1384" r="12.9617" fill="#F2F2FA"/>
<circle cx="1046.16" cy="407.253" r="12.9617" fill="#F2F2FA"/>
<circle cx="1209.11" cy="236.899" r="12.9617" fill="#F2F2FA"/>
<circle cx="1383.17" cy="236.899" r="12.9617" fill="#F2F2FA"/>
<circle cx="1372.06" cy="70.2484" r="12.9617" fill="#F2F2FA"/>
<circle cx="1557.22" cy="59.1384" r="12.9617" fill="#F2F2FA"/>
<circle cx="1727.58" cy="70.2484" r="12.9617" fill="#F2F2FA"/>
<circle cx="1557.22" cy="392.439" r="12.9617" fill="#F2F2FA"/>
<circle cx="1727.58" cy="407.253" r="12.9617" fill="#F2F2FA"/>
<circle cx="1372.06" cy="418.363" r="12.9617" fill="#F2F2FA"/>
<circle cx="616.575" cy="144.315" r="42.5884" fill="#F2F2FA"/>
<circle cx="616.575" cy="314.669" r="42.5884" fill="#F2F2FA"/>
<circle cx="964.689" cy="314.669" r="42.5884" fill="#F2F2FA"/>
<circle cx="1123.93" cy="144.315" r="42.5884" fill="#F2F2FA"/>
<circle cx="1468.34" cy="322.076" r="42.5884" fill="#F2F2FA"/>
<circle cx="1816.46" cy="322.076" r="42.5884" fill="#F2F2FA"/>
</g>
</svg>
