<svg width="1023" height="372" viewBox="0 0 1023 372" fill="none" xmlns="http://www.w3.org/2000/svg">
<rect width="1023" height="372" fill="white"/>
<path d="M3.072 9.272L2.976 8.184C4.16 7.90667 5.28 7.768 6.336 7.768C7.49867 7.768 8.352 7.93333 8.896 8.264C9.45067 8.584 9.728 9.21333 9.728 10.152C9.728 10.8453 9.584 11.4853 9.296 12.072C9.008 12.648 8.496 13.3467 7.76 14.168L4.592 17.704C5.09333 17.6613 5.69067 17.64 6.384 17.64H10.128V19H2.88V18.12C2.88 17.864 2.94933 17.6613 3.088 17.512L6.288 13.896C7.01333 13.1173 7.536 12.44 7.856 11.864C8.176 11.2773 8.32533 10.728 8.304 10.216C8.29333 9.71467 8.12267 9.38933 7.792 9.24C7.472 9.09067 6.95467 9.016 6.24 9.016C5.17333 9.016 4.11733 9.10133 3.072 9.272ZM18.6004 9.16H13.9604L13.8004 12.168L14.9844 12.264C16.4564 12.3707 17.491 12.6747 18.0884 13.176C18.6964 13.6773 18.995 14.5147 18.9844 15.688C18.9844 16.072 18.9577 16.424 18.9044 16.744C18.851 17.0533 18.7444 17.368 18.5844 17.688C18.435 17.9973 18.2324 18.2587 17.9764 18.472C17.7204 18.6853 17.3737 18.8613 16.9364 19C16.5097 19.128 16.003 19.192 15.4164 19.192C14.3924 19.192 13.299 19.0587 12.1364 18.792L12.2964 17.656C13.3737 17.848 14.307 17.944 15.0964 17.944C16.0777 17.944 16.7337 17.768 17.0644 17.416C17.4057 17.064 17.587 16.488 17.6084 15.688C17.619 15.3467 17.5977 15.0587 17.5444 14.824C17.5017 14.5787 17.4004 14.376 17.2404 14.216C17.091 14.0453 16.9417 13.9173 16.7924 13.832C16.6537 13.736 16.403 13.656 16.0404 13.592C15.6884 13.528 15.3737 13.4853 15.0964 13.464C14.819 13.432 14.3977 13.4 13.8324 13.368L13.0964 13.32C12.9364 13.2987 12.803 13.2347 12.6964 13.128C12.6004 13.0107 12.5577 12.8667 12.5684 12.696L12.8244 7.96H18.6644L18.6004 9.16ZM22.0745 9.08C22.6398 8.19467 23.6212 7.752 25.0185 7.752C26.4158 7.752 27.3972 8.19467 27.9625 9.08C28.5385 9.96533 28.8265 11.432 28.8265 13.48C28.8265 15.528 28.5385 16.9947 27.9625 17.88C27.3972 18.7653 26.4158 19.208 25.0185 19.208C23.6212 19.208 22.6398 18.7653 22.0745 17.88C21.5092 16.9947 21.2265 15.528 21.2265 13.48C21.2265 11.432 21.5092 9.96533 22.0745 9.08ZM26.9065 9.992C26.5545 9.32 25.9252 8.984 25.0185 8.984C24.1118 8.984 23.4825 9.32 23.1305 9.992C22.7785 10.664 22.6025 11.8267 22.6025 13.48C22.6025 15.1333 22.7785 16.296 23.1305 16.968C23.4825 17.64 24.1118 17.976 25.0185 17.976C25.9252 17.976 26.5545 17.64 26.9065 16.968C27.2692 16.296 27.4505 15.1333 27.4505 13.48C27.4505 11.8267 27.2692 10.664 26.9065 9.992ZM32.0351 9.08C32.6005 8.19467 33.5818 7.752 34.9791 7.752C36.3765 7.752 37.3578 8.19467 37.9231 9.08C38.4991 9.96533 38.7871 11.432 38.7871 13.48C38.7871 15.528 38.4991 16.9947 37.9231 17.88C37.3578 18.7653 36.3765 19.208 34.9791 19.208C33.5818 19.208 32.6005 18.7653 32.0351 17.88C31.4698 16.9947 31.1871 15.528 31.1871 13.48C31.1871 11.432 31.4698 9.96533 32.0351 9.08ZM36.8671 9.992C36.5151 9.32 35.8858 8.984 34.9791 8.984C34.0725 8.984 33.4431 9.32 33.0911 9.992C32.7391 10.664 32.5631 11.8267 32.5631 13.48C32.5631 15.1333 32.7391 16.296 33.0911 16.968C33.4431 17.64 34.0725 17.976 34.9791 17.976C35.8858 17.976 36.5151 17.64 36.8671 16.968C37.2298 16.296 37.4111 15.1333 37.4111 13.48C37.4111 11.8267 37.2298 10.664 36.8671 9.992ZM41.9957 9.08C42.5611 8.19467 43.5424 7.752 44.9397 7.752C46.3371 7.752 47.3184 8.19467 47.8837 9.08C48.4597 9.96533 48.7477 11.432 48.7477 13.48C48.7477 15.528 48.4597 16.9947 47.8837 17.88C47.3184 18.7653 46.3371 19.208 44.9397 19.208C43.5424 19.208 42.5611 18.7653 41.9957 17.88C41.4304 16.9947 41.1477 15.528 41.1477 13.48C41.1477 11.432 41.4304 9.96533 41.9957 9.08ZM46.8277 9.992C46.4757 9.32 45.8464 8.984 44.9397 8.984C44.0331 8.984 43.4037 9.32 43.0517 9.992C42.6997 10.664 42.5237 11.8267 42.5237 13.48C42.5237 15.1333 42.6997 16.296 43.0517 16.968C43.4037 17.64 44.0331 17.976 44.9397 17.976C45.8464 17.976 46.4757 17.64 46.8277 16.968C47.1904 16.296 47.3717 15.1333 47.3717 13.48C47.3717 11.8267 47.1904 10.664 46.8277 9.992Z" fill="#333333"/>
<path d="M3.072 40.272L2.976 39.184C4.16 38.9067 5.28 38.768 6.336 38.768C7.49867 38.768 8.352 38.9333 8.896 39.264C9.45067 39.584 9.728 40.2133 9.728 41.152C9.728 41.8453 9.584 42.4853 9.296 43.072C9.008 43.648 8.496 44.3467 7.76 45.168L4.592 48.704C5.09333 48.6613 5.69067 48.64 6.384 48.64H10.128V50H2.88V49.12C2.88 48.864 2.94933 48.6613 3.088 48.512L6.288 44.896C7.01333 44.1173 7.536 43.44 7.856 42.864C8.176 42.2773 8.32533 41.728 8.304 41.216C8.29333 40.7147 8.12267 40.3893 7.792 40.24C7.472 40.0907 6.95467 40.016 6.24 40.016C5.17333 40.016 4.11733 40.1013 3.072 40.272ZM12.3764 40.272L12.2804 39.184C13.4644 38.9067 14.5844 38.768 15.6404 38.768C16.803 38.768 17.6564 38.9333 18.2004 39.264C18.755 39.584 19.0324 40.2133 19.0324 41.152C19.0324 41.8453 18.8884 42.4853 18.6004 43.072C18.3124 43.648 17.8004 44.3467 17.0644 45.168L13.8964 48.704C14.3977 48.6613 14.995 48.64 15.6884 48.64H19.4324V50H12.1844V49.12C12.1844 48.864 12.2537 48.6613 12.3924 48.512L15.5924 44.896C16.3177 44.1173 16.8404 43.44 17.1604 42.864C17.4804 42.2773 17.6297 41.728 17.6084 41.216C17.5977 40.7147 17.427 40.3893 17.0964 40.24C16.7764 40.0907 16.259 40.016 15.5444 40.016C14.4777 40.016 13.4217 40.1013 12.3764 40.272ZM27.9047 40.16H23.2647L23.1047 43.168L24.2887 43.264C25.7607 43.3707 26.7954 43.6747 27.3927 44.176C28.0007 44.6773 28.2994 45.5147 28.2887 46.688C28.2887 47.072 28.2621 47.424 28.2087 47.744C28.1554 48.0533 28.0487 48.368 27.8887 48.688C27.7394 48.9973 27.5367 49.2587 27.2807 49.472C27.0247 49.6853 26.6781 49.8613 26.2407 50C25.8141 50.128 25.3074 50.192 24.7207 50.192C23.6967 50.192 22.6034 50.0587 21.4407 49.792L21.6007 48.656C22.6781 48.848 23.6114 48.944 24.4007 48.944C25.3821 48.944 26.0381 48.768 26.3687 48.416C26.7101 48.064 26.8914 47.488 26.9127 46.688C26.9234 46.3467 26.9021 46.0587 26.8487 45.824C26.8061 45.5787 26.7047 45.376 26.5447 45.216C26.3954 45.0453 26.2461 44.9173 26.0967 44.832C25.9581 44.736 25.7074 44.656 25.3447 44.592C24.9927 44.528 24.6781 44.4853 24.4007 44.464C24.1234 44.432 23.7021 44.4 23.1367 44.368L22.4007 44.32C22.2407 44.2987 22.1074 44.2347 22.0007 44.128C21.9047 44.0107 21.8621 43.8667 21.8727 43.696L22.1287 38.96H27.9687L27.9047 40.16ZM31.3789 40.08C31.9442 39.1947 32.9255 38.752 34.3229 38.752C35.7202 38.752 36.7015 39.1947 37.2669 40.08C37.8429 40.9653 38.1309 42.432 38.1309 44.48C38.1309 46.528 37.8429 47.9947 37.2669 48.88C36.7015 49.7653 35.7202 50.208 34.3229 50.208C32.9255 50.208 31.9442 49.7653 31.3789 48.88C30.8135 47.9947 30.5309 46.528 30.5309 44.48C30.5309 42.432 30.8135 40.9653 31.3789 40.08ZM36.2109 40.992C35.8589 40.32 35.2295 39.984 34.3229 39.984C33.4162 39.984 32.7869 40.32 32.4349 40.992C32.0829 41.664 31.9069 42.8267 31.9069 44.48C31.9069 46.1333 32.0829 47.296 32.4349 47.968C32.7869 48.64 33.4162 48.976 34.3229 48.976C35.2295 48.976 35.8589 48.64 36.2109 47.968C36.5735 47.296 36.7549 46.1333 36.7549 44.48C36.7549 42.8267 36.5735 41.664 36.2109 40.992ZM41.3395 40.08C41.9048 39.1947 42.8862 38.752 44.2835 38.752C45.6808 38.752 46.6622 39.1947 47.2275 40.08C47.8035 40.9653 48.0915 42.432 48.0915 44.48C48.0915 46.528 47.8035 47.9947 47.2275 48.88C46.6622 49.7653 45.6808 50.208 44.2835 50.208C42.8862 50.208 41.9048 49.7653 41.3395 48.88C40.7742 47.9947 40.4915 46.528 40.4915 44.48C40.4915 42.432 40.7742 40.9653 41.3395 40.08ZM46.1715 40.992C45.8195 40.32 45.1902 39.984 44.2835 39.984C43.3768 39.984 42.7475 40.32 42.3955 40.992C42.0435 41.664 41.8675 42.8267 41.8675 44.48C41.8675 46.1333 42.0435 47.296 42.3955 47.968C42.7475 48.64 43.3768 48.976 44.2835 48.976C45.1902 48.976 45.8195 48.64 46.1715 47.968C46.5342 47.296 46.7155 46.1333 46.7155 44.48C46.7155 42.8267 46.5342 41.664 46.1715 40.992Z" fill="#333333"/>
<path d="M2.072 71.272L1.976 70.184C3.16 69.9067 4.28 69.768 5.336 69.768C6.49867 69.768 7.352 69.9333 7.896 70.264C8.45067 70.584 8.728 71.2133 8.728 72.152C8.728 72.8453 8.584 73.4853 8.296 74.072C8.008 74.648 7.496 75.3467 6.76 76.168L3.592 79.704C4.09333 79.6613 4.69067 79.64 5.384 79.64H9.128V81H1.88V80.12C1.88 79.864 1.94933 79.6613 2.088 79.512L5.288 75.896C6.01333 75.1173 6.536 74.44 6.856 73.864C7.176 73.2773 7.32533 72.728 7.304 72.216C7.29333 71.7147 7.12267 71.3893 6.792 71.24C6.472 71.0907 5.95467 71.016 5.24 71.016C4.17333 71.016 3.11733 71.1013 2.072 71.272ZM12.1764 71.08C12.7417 70.1947 13.723 69.752 15.1204 69.752C16.5177 69.752 17.499 70.1947 18.0644 71.08C18.6404 71.9653 18.9284 73.432 18.9284 75.48C18.9284 77.528 18.6404 78.9947 18.0644 79.88C17.499 80.7653 16.5177 81.208 15.1204 81.208C13.723 81.208 12.7417 80.7653 12.1764 79.88C11.611 78.9947 11.3284 77.528 11.3284 75.48C11.3284 73.432 11.611 71.9653 12.1764 71.08ZM17.0084 71.992C16.6564 71.32 16.027 70.984 15.1204 70.984C14.2137 70.984 13.5844 71.32 13.2324 71.992C12.8804 72.664 12.7044 73.8267 12.7044 75.48C12.7044 77.1333 12.8804 78.296 13.2324 78.968C13.5844 79.64 14.2137 79.976 15.1204 79.976C16.027 79.976 16.6564 79.64 17.0084 78.968C17.371 78.296 17.5524 77.1333 17.5524 75.48C17.5524 73.8267 17.371 72.664 17.0084 71.992ZM22.137 71.08C22.7023 70.1947 23.6837 69.752 25.081 69.752C26.4783 69.752 27.4597 70.1947 28.025 71.08C28.601 71.9653 28.889 73.432 28.889 75.48C28.889 77.528 28.601 78.9947 28.025 79.88C27.4597 80.7653 26.4783 81.208 25.081 81.208C23.6837 81.208 22.7023 80.7653 22.137 79.88C21.5717 78.9947 21.289 77.528 21.289 75.48C21.289 73.432 21.5717 71.9653 22.137 71.08ZM26.969 71.992C26.617 71.32 25.9877 70.984 25.081 70.984C24.1743 70.984 23.545 71.32 23.193 71.992C22.841 72.664 22.665 73.8267 22.665 75.48C22.665 77.1333 22.841 78.296 23.193 78.968C23.545 79.64 24.1743 79.976 25.081 79.976C25.9877 79.976 26.617 79.64 26.969 78.968C27.3317 78.296 27.513 77.1333 27.513 75.48C27.513 73.8267 27.3317 72.664 26.969 71.992ZM32.0976 71.08C32.663 70.1947 33.6443 69.752 35.0416 69.752C36.439 69.752 37.4203 70.1947 37.9856 71.08C38.5616 71.9653 38.8496 73.432 38.8496 75.48C38.8496 77.528 38.5616 78.9947 37.9856 79.88C37.4203 80.7653 36.439 81.208 35.0416 81.208C33.6443 81.208 32.663 80.7653 32.0976 79.88C31.5323 78.9947 31.2496 77.528 31.2496 75.48C31.2496 73.432 31.5323 71.9653 32.0976 71.08ZM36.9296 71.992C36.5776 71.32 35.9483 70.984 35.0416 70.984C34.135 70.984 33.5056 71.32 33.1536 71.992C32.8016 72.664 32.6256 73.8267 32.6256 75.48C32.6256 77.1333 32.8016 78.296 33.1536 78.968C33.5056 79.64 34.135 79.976 35.0416 79.976C35.9483 79.976 36.5776 79.64 36.9296 78.968C37.2923 78.296 37.4736 77.1333 37.4736 75.48C37.4736 73.8267 37.2923 72.664 36.9296 71.992ZM42.0582 71.08C42.6236 70.1947 43.6049 69.752 45.0022 69.752C46.3996 69.752 47.3809 70.1947 47.9462 71.08C48.5222 71.9653 48.8102 73.432 48.8102 75.48C48.8102 77.528 48.5222 78.9947 47.9462 79.88C47.3809 80.7653 46.3996 81.208 45.0022 81.208C43.6049 81.208 42.6236 80.7653 42.0582 79.88C41.4929 78.9947 41.2102 77.528 41.2102 75.48C41.2102 73.432 41.4929 71.9653 42.0582 71.08ZM46.8902 71.992C46.5382 71.32 45.9089 70.984 45.0022 70.984C44.0956 70.984 43.4662 71.32 43.1142 71.992C42.7622 72.664 42.5862 73.8267 42.5862 75.48C42.5862 77.1333 42.7622 78.296 43.1142 78.968C43.4662 79.64 44.0956 79.976 45.0022 79.976C45.9089 79.976 46.5382 79.64 46.8902 78.968C47.2529 78.296 47.4342 77.1333 47.4342 75.48C47.4342 73.8267 47.2529 72.664 46.8902 71.992Z" fill="#333333"/>
<path d="M10.576 112H9.168V103.248C9.168 102.875 9.19467 102.555 9.248 102.288L6.544 103.136L6.352 102.096L9.168 100.96H10.576V112ZM13.319 100.96H19.559C19.8897 100.96 20.119 101.045 20.247 101.216C20.375 101.387 20.391 101.627 20.295 101.936L16.855 112H15.447L18.551 102.976C18.647 102.688 18.759 102.416 18.887 102.16H13.383L13.319 100.96ZM28.4985 102.16H23.8585L23.6985 105.168L24.8825 105.264C26.3545 105.371 27.3892 105.675 27.9865 106.176C28.5945 106.677 28.8932 107.515 28.8825 108.688C28.8825 109.072 28.8558 109.424 28.8025 109.744C28.7492 110.053 28.6425 110.368 28.4825 110.688C28.3332 110.997 28.1305 111.259 27.8745 111.472C27.6185 111.685 27.2718 111.861 26.8345 112C26.4078 112.128 25.9012 112.192 25.3145 112.192C24.2905 112.192 23.1972 112.059 22.0345 111.792L22.1945 110.656C23.2718 110.848 24.2052 110.944 24.9945 110.944C25.9758 110.944 26.6318 110.768 26.9625 110.416C27.3038 110.064 27.4852 109.488 27.5065 108.688C27.5172 108.347 27.4958 108.059 27.4425 107.824C27.3998 107.579 27.2985 107.376 27.1385 107.216C26.9892 107.045 26.8398 106.917 26.6905 106.832C26.5518 106.736 26.3012 106.656 25.9385 106.592C25.5865 106.528 25.2718 106.485 24.9945 106.464C24.7172 106.432 24.2958 106.4 23.7305 106.368L22.9945 106.32C22.8345 106.299 22.7012 106.235 22.5945 106.128C22.4985 106.011 22.4558 105.867 22.4665 105.696L22.7225 100.96H28.5625L28.4985 102.16ZM31.9726 102.08C32.538 101.195 33.5193 100.752 34.9166 100.752C36.314 100.752 37.2953 101.195 37.8606 102.08C38.4366 102.965 38.7246 104.432 38.7246 106.48C38.7246 108.528 38.4366 109.995 37.8606 110.88C37.2953 111.765 36.314 112.208 34.9166 112.208C33.5193 112.208 32.538 111.765 31.9726 110.88C31.4073 109.995 31.1246 108.528 31.1246 106.48C31.1246 104.432 31.4073 102.965 31.9726 102.08ZM36.8046 102.992C36.4526 102.32 35.8233 101.984 34.9166 101.984C34.01 101.984 33.3806 102.32 33.0286 102.992C32.6766 103.664 32.5006 104.827 32.5006 106.48C32.5006 108.133 32.6766 109.296 33.0286 109.968C33.3806 110.64 34.01 110.976 34.9166 110.976C35.8233 110.976 36.4526 110.64 36.8046 109.968C37.1673 109.296 37.3486 108.133 37.3486 106.48C37.3486 104.827 37.1673 103.664 36.8046 102.992ZM41.9332 102.08C42.4986 101.195 43.4799 100.752 44.8772 100.752C46.2746 100.752 47.2559 101.195 47.8212 102.08C48.3972 102.965 48.6852 104.432 48.6852 106.48C48.6852 108.528 48.3972 109.995 47.8212 110.88C47.2559 111.765 46.2746 112.208 44.8772 112.208C43.4799 112.208 42.4986 111.765 41.9332 110.88C41.3679 109.995 41.0852 108.528 41.0852 106.48C41.0852 104.432 41.3679 102.965 41.9332 102.08ZM46.7652 102.992C46.4132 102.32 45.7839 101.984 44.8772 101.984C43.9706 101.984 43.3412 102.32 42.9892 102.992C42.6372 103.664 42.4612 104.827 42.4612 106.48C42.4612 108.133 42.6372 109.296 42.9892 109.968C43.3412 110.64 43.9706 110.976 44.8772 110.976C45.7839 110.976 46.4132 110.64 46.7652 109.968C47.1279 109.296 47.3092 108.133 47.3092 106.48C47.3092 104.827 47.1279 103.664 46.7652 102.992Z" fill="#333333"/>
<path d="M8.576 143H7.168V134.248C7.168 133.875 7.19467 133.555 7.248 133.288L4.544 134.136L4.352 133.096L7.168 131.96H8.576V143ZM17.991 133.16H13.351L13.191 136.168L14.375 136.264C15.847 136.371 16.8817 136.675 17.479 137.176C18.087 137.677 18.3857 138.515 18.375 139.688C18.375 140.072 18.3483 140.424 18.295 140.744C18.2417 141.053 18.135 141.368 17.975 141.688C17.8257 141.997 17.623 142.259 17.367 142.472C17.111 142.685 16.7643 142.861 16.327 143C15.9003 143.128 15.3937 143.192 14.807 143.192C13.783 143.192 12.6897 143.059 11.527 142.792L11.687 141.656C12.7643 141.848 13.6977 141.944 14.487 141.944C15.4683 141.944 16.1243 141.768 16.455 141.416C16.7963 141.064 16.9777 140.488 16.999 139.688C17.0097 139.347 16.9883 139.059 16.935 138.824C16.8923 138.579 16.791 138.376 16.631 138.216C16.4817 138.045 16.3323 137.917 16.183 137.832C16.0443 137.736 15.7937 137.656 15.431 137.592C15.079 137.528 14.7643 137.485 14.487 137.464C14.2097 137.432 13.7883 137.4 13.223 137.368L12.487 137.32C12.327 137.299 12.1937 137.235 12.087 137.128C11.991 137.011 11.9483 136.867 11.959 136.696L12.215 131.96H18.055L17.991 133.16ZM21.4651 133.08C22.0305 132.195 23.0118 131.752 24.4091 131.752C25.8065 131.752 26.7878 132.195 27.3531 133.08C27.9291 133.965 28.2171 135.432 28.2171 137.48C28.2171 139.528 27.9291 140.995 27.3531 141.88C26.7878 142.765 25.8065 143.208 24.4091 143.208C23.0118 143.208 22.0305 142.765 21.4651 141.88C20.8998 140.995 20.6171 139.528 20.6171 137.48C20.6171 135.432 20.8998 133.965 21.4651 133.08ZM26.2971 133.992C25.9451 133.32 25.3158 132.984 24.4091 132.984C23.5025 132.984 22.8731 133.32 22.5211 133.992C22.1691 134.664 21.9931 135.827 21.9931 137.48C21.9931 139.133 22.1691 140.296 22.5211 140.968C22.8731 141.64 23.5025 141.976 24.4091 141.976C25.3158 141.976 25.9451 141.64 26.2971 140.968C26.6598 140.296 26.8411 139.133 26.8411 137.48C26.8411 135.827 26.6598 134.664 26.2971 133.992ZM31.4257 133.08C31.9911 132.195 32.9724 131.752 34.3697 131.752C35.7671 131.752 36.7484 132.195 37.3137 133.08C37.8897 133.965 38.1777 135.432 38.1777 137.48C38.1777 139.528 37.8897 140.995 37.3137 141.88C36.7484 142.765 35.7671 143.208 34.3697 143.208C32.9724 143.208 31.9911 142.765 31.4257 141.88C30.8604 140.995 30.5777 139.528 30.5777 137.48C30.5777 135.432 30.8604 133.965 31.4257 133.08ZM36.2577 133.992C35.9057 133.32 35.2764 132.984 34.3697 132.984C33.4631 132.984 32.8337 133.32 32.4817 133.992C32.1297 134.664 31.9537 135.827 31.9537 137.48C31.9537 139.133 32.1297 140.296 32.4817 140.968C32.8337 141.64 33.4631 141.976 34.3697 141.976C35.2764 141.976 35.9057 141.64 36.2577 140.968C36.6204 140.296 36.8017 139.133 36.8017 137.48C36.8017 135.827 36.6204 134.664 36.2577 133.992ZM41.3864 133.08C41.9517 132.195 42.933 131.752 44.3304 131.752C45.7277 131.752 46.709 132.195 47.2744 133.08C47.8504 133.965 48.1384 135.432 48.1384 137.48C48.1384 139.528 47.8504 140.995 47.2744 141.88C46.709 142.765 45.7277 143.208 44.3304 143.208C42.933 143.208 41.9517 142.765 41.3864 141.88C40.821 140.995 40.5384 139.528 40.5384 137.48C40.5384 135.432 40.821 133.965 41.3864 133.08ZM46.2184 133.992C45.8664 133.32 45.237 132.984 44.3304 132.984C43.4237 132.984 42.7944 133.32 42.4424 133.992C42.0904 134.664 41.9144 135.827 41.9144 137.48C41.9144 139.133 42.0904 140.296 42.4424 140.968C42.7944 141.64 43.4237 141.976 44.3304 141.976C45.237 141.976 45.8664 141.64 46.2184 140.968C46.581 140.296 46.7624 139.133 46.7624 137.48C46.7624 135.827 46.581 134.664 46.2184 133.992Z" fill="#333333"/>
<path d="M9.576 174H8.168V165.248C8.168 164.875 8.19467 164.555 8.248 164.288L5.544 165.136L5.352 164.096L8.168 162.96H9.576V174ZM12.767 164.272L12.671 163.184C13.855 162.907 14.975 162.768 16.031 162.768C17.1937 162.768 18.047 162.933 18.591 163.264C19.1457 163.584 19.423 164.213 19.423 165.152C19.423 165.845 19.279 166.485 18.991 167.072C18.703 167.648 18.191 168.347 17.455 169.168L14.287 172.704C14.7883 172.661 15.3857 172.64 16.079 172.64H19.823V174H12.575V173.12C12.575 172.864 12.6443 172.661 12.783 172.512L15.983 168.896C16.7083 168.117 17.231 167.44 17.551 166.864C17.871 166.277 18.0203 165.728 17.999 165.216C17.9883 164.715 17.8177 164.389 17.487 164.24C17.167 164.091 16.6497 164.016 15.935 164.016C14.8683 164.016 13.8123 164.101 12.767 164.272ZM28.2954 164.16H23.6554L23.4954 167.168L24.6794 167.264C26.1514 167.371 27.186 167.675 27.7834 168.176C28.3914 168.677 28.69 169.515 28.6794 170.688C28.6794 171.072 28.6527 171.424 28.5994 171.744C28.546 172.053 28.4394 172.368 28.2794 172.688C28.13 172.997 27.9274 173.259 27.6714 173.472C27.4154 173.685 27.0687 173.861 26.6314 174C26.2047 174.128 25.698 174.192 25.1114 174.192C24.0874 174.192 22.994 174.059 21.8314 173.792L21.9914 172.656C23.0687 172.848 24.002 172.944 24.7914 172.944C25.7727 172.944 26.4287 172.768 26.7594 172.416C27.1007 172.064 27.282 171.488 27.3034 170.688C27.314 170.347 27.2927 170.059 27.2394 169.824C27.1967 169.579 27.0954 169.376 26.9354 169.216C26.786 169.045 26.6367 168.917 26.4874 168.832C26.3487 168.736 26.098 168.656 25.7354 168.592C25.3834 168.528 25.0687 168.485 24.7914 168.464C24.514 168.432 24.0927 168.4 23.5274 168.368L22.7914 168.32C22.6314 168.299 22.498 168.235 22.3914 168.128C22.2954 168.011 22.2527 167.867 22.2634 167.696L22.5194 162.96H28.3594L28.2954 164.16ZM31.7695 164.08C32.3348 163.195 33.3162 162.752 34.7135 162.752C36.1108 162.752 37.0922 163.195 37.6575 164.08C38.2335 164.965 38.5215 166.432 38.5215 168.48C38.5215 170.528 38.2335 171.995 37.6575 172.88C37.0922 173.765 36.1108 174.208 34.7135 174.208C33.3162 174.208 32.3348 173.765 31.7695 172.88C31.2042 171.995 30.9215 170.528 30.9215 168.48C30.9215 166.432 31.2042 164.965 31.7695 164.08ZM36.6015 164.992C36.2495 164.32 35.6202 163.984 34.7135 163.984C33.8068 163.984 33.1775 164.32 32.8255 164.992C32.4735 165.664 32.2975 166.827 32.2975 168.48C32.2975 170.133 32.4735 171.296 32.8255 171.968C33.1775 172.64 33.8068 172.976 34.7135 172.976C35.6202 172.976 36.2495 172.64 36.6015 171.968C36.9642 171.296 37.1455 170.133 37.1455 168.48C37.1455 166.827 36.9642 165.664 36.6015 164.992ZM41.7301 164.08C42.2955 163.195 43.2768 162.752 44.6741 162.752C46.0715 162.752 47.0528 163.195 47.6181 164.08C48.1941 164.965 48.4821 166.432 48.4821 168.48C48.4821 170.528 48.1941 171.995 47.6181 172.88C47.0528 173.765 46.0715 174.208 44.6741 174.208C43.2768 174.208 42.2955 173.765 41.7301 172.88C41.1648 171.995 40.8821 170.528 40.8821 168.48C40.8821 166.432 41.1648 164.965 41.7301 164.08ZM46.5621 164.992C46.2101 164.32 45.5808 163.984 44.6741 163.984C43.7675 163.984 43.1381 164.32 42.7861 164.992C42.4341 165.664 42.2581 166.827 42.2581 168.48C42.2581 170.133 42.4341 171.296 42.7861 171.968C43.1381 172.64 43.7675 172.976 44.6741 172.976C45.5808 172.976 46.2101 172.64 46.5621 171.968C46.9248 171.296 47.1061 170.133 47.1061 168.48C47.1061 166.827 46.9248 165.664 46.5621 164.992Z" fill="#333333"/>
<path d="M7.576 205H6.168V196.248C6.168 195.875 6.19467 195.555 6.248 195.288L3.544 196.136L3.352 195.096L6.168 193.96H7.576V205ZM11.567 195.08C12.1323 194.195 13.1137 193.752 14.511 193.752C15.9083 193.752 16.8897 194.195 17.455 195.08C18.031 195.965 18.319 197.432 18.319 199.48C18.319 201.528 18.031 202.995 17.455 203.88C16.8897 204.765 15.9083 205.208 14.511 205.208C13.1137 205.208 12.1323 204.765 11.567 203.88C11.0017 202.995 10.719 201.528 10.719 199.48C10.719 197.432 11.0017 195.965 11.567 195.08ZM16.399 195.992C16.047 195.32 15.4177 194.984 14.511 194.984C13.6043 194.984 12.975 195.32 12.623 195.992C12.271 196.664 12.095 197.827 12.095 199.48C12.095 201.133 12.271 202.296 12.623 202.968C12.975 203.64 13.6043 203.976 14.511 203.976C15.4177 203.976 16.047 203.64 16.399 202.968C16.7617 202.296 16.943 201.133 16.943 199.48C16.943 197.827 16.7617 196.664 16.399 195.992ZM21.5276 195.08C22.093 194.195 23.0743 193.752 24.4716 193.752C25.869 193.752 26.8503 194.195 27.4156 195.08C27.9916 195.965 28.2796 197.432 28.2796 199.48C28.2796 201.528 27.9916 202.995 27.4156 203.88C26.8503 204.765 25.869 205.208 24.4716 205.208C23.0743 205.208 22.093 204.765 21.5276 203.88C20.9623 202.995 20.6796 201.528 20.6796 199.48C20.6796 197.432 20.9623 195.965 21.5276 195.08ZM26.3596 195.992C26.0076 195.32 25.3783 194.984 24.4716 194.984C23.565 194.984 22.9356 195.32 22.5836 195.992C22.2316 196.664 22.0556 197.827 22.0556 199.48C22.0556 201.133 22.2316 202.296 22.5836 202.968C22.9356 203.64 23.565 203.976 24.4716 203.976C25.3783 203.976 26.0076 203.64 26.3596 202.968C26.7223 202.296 26.9036 201.133 26.9036 199.48C26.9036 197.827 26.7223 196.664 26.3596 195.992ZM31.4882 195.08C32.0536 194.195 33.0349 193.752 34.4322 193.752C35.8296 193.752 36.8109 194.195 37.3762 195.08C37.9522 195.965 38.2402 197.432 38.2402 199.48C38.2402 201.528 37.9522 202.995 37.3762 203.88C36.8109 204.765 35.8296 205.208 34.4322 205.208C33.0349 205.208 32.0536 204.765 31.4882 203.88C30.9229 202.995 30.6402 201.528 30.6402 199.48C30.6402 197.432 30.9229 195.965 31.4882 195.08ZM36.3202 195.992C35.9682 195.32 35.3389 194.984 34.4322 194.984C33.5256 194.984 32.8962 195.32 32.5442 195.992C32.1922 196.664 32.0162 197.827 32.0162 199.48C32.0162 201.133 32.1922 202.296 32.5442 202.968C32.8962 203.64 33.5256 203.976 34.4322 203.976C35.3389 203.976 35.9682 203.64 36.3202 202.968C36.6829 202.296 36.8642 201.133 36.8642 199.48C36.8642 197.827 36.6829 196.664 36.3202 195.992ZM41.4489 195.08C42.0142 194.195 42.9955 193.752 44.3929 193.752C45.7902 193.752 46.7715 194.195 47.3369 195.08C47.9129 195.965 48.2009 197.432 48.2009 199.48C48.2009 201.528 47.9129 202.995 47.3369 203.88C46.7715 204.765 45.7902 205.208 44.3929 205.208C42.9955 205.208 42.0142 204.765 41.4489 203.88C40.8835 202.995 40.6009 201.528 40.6009 199.48C40.6009 197.432 40.8835 195.965 41.4489 195.08ZM46.2809 195.992C45.9289 195.32 45.2995 194.984 44.3929 194.984C43.4862 194.984 42.8569 195.32 42.5049 195.992C42.1529 196.664 41.9769 197.827 41.9769 199.48C41.9769 201.133 42.1529 202.296 42.5049 202.968C42.8569 203.64 43.4862 203.976 44.3929 203.976C45.2995 203.976 45.9289 203.64 46.2809 202.968C46.6435 202.296 46.8249 201.133 46.8249 199.48C46.8249 197.827 46.6435 196.664 46.2809 195.992Z" fill="#333333"/>
<path d="M12.624 224.96H18.864C19.1947 224.96 19.424 225.045 19.552 225.216C19.68 225.387 19.696 225.627 19.6 225.936L16.16 236H14.752L17.856 226.976C17.952 226.688 18.064 226.416 18.192 226.16H12.688L12.624 224.96ZM27.8035 226.16H23.1635L23.0035 229.168L24.1875 229.264C25.6595 229.371 26.6942 229.675 27.2915 230.176C27.8995 230.677 28.1982 231.515 28.1875 232.688C28.1875 233.072 28.1608 233.424 28.1075 233.744C28.0542 234.053 27.9475 234.368 27.7875 234.688C27.6382 234.997 27.4355 235.259 27.1795 235.472C26.9235 235.685 26.5768 235.861 26.1395 236C25.7128 236.128 25.2062 236.192 24.6195 236.192C23.5955 236.192 22.5022 236.059 21.3395 235.792L21.4995 234.656C22.5768 234.848 23.5102 234.944 24.2995 234.944C25.2808 234.944 25.9368 234.768 26.2675 234.416C26.6088 234.064 26.7902 233.488 26.8115 232.688C26.8222 232.347 26.8008 232.059 26.7475 231.824C26.7048 231.579 26.6035 231.376 26.4435 231.216C26.2942 231.045 26.1448 230.917 25.9955 230.832C25.8568 230.736 25.6062 230.656 25.2435 230.592C24.8915 230.528 24.5768 230.485 24.2995 230.464C24.0222 230.432 23.6008 230.4 23.0355 230.368L22.2995 230.32C22.1395 230.299 22.0062 230.235 21.8995 230.128C21.8035 230.011 21.7608 229.867 21.7715 229.696L22.0275 224.96H27.8675L27.8035 226.16ZM31.2776 226.08C31.843 225.195 32.8243 224.752 34.2216 224.752C35.619 224.752 36.6003 225.195 37.1656 226.08C37.7416 226.965 38.0296 228.432 38.0296 230.48C38.0296 232.528 37.7416 233.995 37.1656 234.88C36.6003 235.765 35.619 236.208 34.2216 236.208C32.8243 236.208 31.843 235.765 31.2776 234.88C30.7123 233.995 30.4296 232.528 30.4296 230.48C30.4296 228.432 30.7123 226.965 31.2776 226.08ZM36.1096 226.992C35.7576 226.32 35.1283 225.984 34.2216 225.984C33.315 225.984 32.6856 226.32 32.3336 226.992C31.9816 227.664 31.8056 228.827 31.8056 230.48C31.8056 232.133 31.9816 233.296 32.3336 233.968C32.6856 234.64 33.315 234.976 34.2216 234.976C35.1283 234.976 35.7576 234.64 36.1096 233.968C36.4723 233.296 36.6536 232.133 36.6536 230.48C36.6536 228.827 36.4723 227.664 36.1096 226.992ZM41.2382 226.08C41.8036 225.195 42.7849 224.752 44.1822 224.752C45.5796 224.752 46.5609 225.195 47.1262 226.08C47.7022 226.965 47.9902 228.432 47.9902 230.48C47.9902 232.528 47.7022 233.995 47.1262 234.88C46.5609 235.765 45.5796 236.208 44.1822 236.208C42.7849 236.208 41.8036 235.765 41.2382 234.88C40.6729 233.995 40.3902 232.528 40.3902 230.48C40.3902 228.432 40.6729 226.965 41.2382 226.08ZM46.0702 226.992C45.7182 226.32 45.0889 225.984 44.1822 225.984C43.2756 225.984 42.6462 226.32 42.2942 226.992C41.9422 227.664 41.7662 228.827 41.7662 230.48C41.7662 232.133 41.9422 233.296 42.2942 233.968C42.6462 234.64 43.2756 234.976 44.1822 234.976C45.0889 234.976 45.7182 234.64 46.0702 233.968C46.4329 233.296 46.6142 232.133 46.6142 230.48C46.6142 228.827 46.4329 227.664 46.0702 226.992Z" fill="#333333"/>
<path d="M18.296 257.16H13.656L13.496 260.168L14.68 260.264C16.152 260.371 17.1867 260.675 17.784 261.176C18.392 261.677 18.6907 262.515 18.68 263.688C18.68 264.072 18.6533 264.424 18.6 264.744C18.5467 265.053 18.44 265.368 18.28 265.688C18.1307 265.997 17.928 266.259 17.672 266.472C17.416 266.685 17.0693 266.861 16.632 267C16.2053 267.128 15.6987 267.192 15.112 267.192C14.088 267.192 12.9947 267.059 11.832 266.792L11.992 265.656C13.0693 265.848 14.0027 265.944 14.792 265.944C15.7733 265.944 16.4293 265.768 16.76 265.416C17.1013 265.064 17.2827 264.488 17.304 263.688C17.3147 263.347 17.2933 263.059 17.24 262.824C17.1973 262.579 17.096 262.376 16.936 262.216C16.7867 262.045 16.6373 261.917 16.488 261.832C16.3493 261.736 16.0987 261.656 15.736 261.592C15.384 261.528 15.0693 261.485 14.792 261.464C14.5147 261.432 14.0933 261.4 13.528 261.368L12.792 261.32C12.632 261.299 12.4987 261.235 12.392 261.128C12.296 261.011 12.2533 260.867 12.264 260.696L12.52 255.96H18.36L18.296 257.16ZM21.7701 257.08C22.3355 256.195 23.3168 255.752 24.7141 255.752C26.1115 255.752 27.0928 256.195 27.6581 257.08C28.2341 257.965 28.5221 259.432 28.5221 261.48C28.5221 263.528 28.2341 264.995 27.6581 265.88C27.0928 266.765 26.1115 267.208 24.7141 267.208C23.3168 267.208 22.3355 266.765 21.7701 265.88C21.2048 264.995 20.9221 263.528 20.9221 261.48C20.9221 259.432 21.2048 257.965 21.7701 257.08ZM26.6021 257.992C26.2501 257.32 25.6208 256.984 24.7141 256.984C23.8075 256.984 23.1781 257.32 22.8261 257.992C22.4741 258.664 22.2981 259.827 22.2981 261.48C22.2981 263.133 22.4741 264.296 22.8261 264.968C23.1781 265.64 23.8075 265.976 24.7141 265.976C25.6208 265.976 26.2501 265.64 26.6021 264.968C26.9648 264.296 27.1461 263.133 27.1461 261.48C27.1461 259.827 26.9648 258.664 26.6021 257.992ZM31.7307 257.08C32.2961 256.195 33.2774 255.752 34.6747 255.752C36.0721 255.752 37.0534 256.195 37.6187 257.08C38.1947 257.965 38.4827 259.432 38.4827 261.48C38.4827 263.528 38.1947 264.995 37.6187 265.88C37.0534 266.765 36.0721 267.208 34.6747 267.208C33.2774 267.208 32.2961 266.765 31.7307 265.88C31.1654 264.995 30.8827 263.528 30.8827 261.48C30.8827 259.432 31.1654 257.965 31.7307 257.08ZM36.5627 257.992C36.2107 257.32 35.5814 256.984 34.6747 256.984C33.7681 256.984 33.1387 257.32 32.7867 257.992C32.4347 258.664 32.2587 259.827 32.2587 261.48C32.2587 263.133 32.4347 264.296 32.7867 264.968C33.1387 265.64 33.7681 265.976 34.6747 265.976C35.5814 265.976 36.2107 265.64 36.5627 264.968C36.9254 264.296 37.1067 263.133 37.1067 261.48C37.1067 259.827 36.9254 258.664 36.5627 257.992ZM41.6914 257.08C42.2567 256.195 43.238 255.752 44.6354 255.752C46.0327 255.752 47.014 256.195 47.5794 257.08C48.1554 257.965 48.4434 259.432 48.4434 261.48C48.4434 263.528 48.1554 264.995 47.5794 265.88C47.014 266.765 46.0327 267.208 44.6354 267.208C43.238 267.208 42.2567 266.765 41.6914 265.88C41.126 264.995 40.8434 263.528 40.8434 261.48C40.8434 259.432 41.126 257.965 41.6914 257.08ZM46.5234 257.992C46.1714 257.32 45.542 256.984 44.6354 256.984C43.7287 256.984 43.0994 257.32 42.7474 257.992C42.3954 258.664 42.2194 259.827 42.2194 261.48C42.2194 263.133 42.3954 264.296 42.7474 264.968C43.0994 265.64 43.7287 265.976 44.6354 265.976C45.542 265.976 46.1714 265.64 46.5234 264.968C46.886 264.296 47.0674 263.133 47.0674 261.48C47.0674 259.827 46.886 258.664 46.5234 257.992Z" fill="#333333"/>
<path d="M13.072 288.272L12.976 287.184C14.16 286.907 15.28 286.768 16.336 286.768C17.4987 286.768 18.352 286.933 18.896 287.264C19.4507 287.584 19.728 288.213 19.728 289.152C19.728 289.845 19.584 290.485 19.296 291.072C19.008 291.648 18.496 292.347 17.76 293.168L14.592 296.704C15.0933 296.661 15.6907 296.64 16.384 296.64H20.128V298H12.88V297.12C12.88 296.864 12.9493 296.661 13.088 296.512L16.288 292.896C17.0133 292.117 17.536 291.44 17.856 290.864C18.176 290.277 18.3253 289.728 18.304 289.216C18.2933 288.715 18.1227 288.389 17.792 288.24C17.472 288.091 16.9547 288.016 16.24 288.016C15.1733 288.016 14.1173 288.101 13.072 288.272ZM28.6004 288.16H23.9604L23.8004 291.168L24.9844 291.264C26.4564 291.371 27.491 291.675 28.0884 292.176C28.6964 292.677 28.995 293.515 28.9844 294.688C28.9844 295.072 28.9577 295.424 28.9044 295.744C28.851 296.053 28.7444 296.368 28.5844 296.688C28.435 296.997 28.2324 297.259 27.9764 297.472C27.7204 297.685 27.3737 297.861 26.9364 298C26.5097 298.128 26.003 298.192 25.4164 298.192C24.3924 298.192 23.299 298.059 22.1364 297.792L22.2964 296.656C23.3737 296.848 24.307 296.944 25.0964 296.944C26.0777 296.944 26.7337 296.768 27.0644 296.416C27.4057 296.064 27.587 295.488 27.6084 294.688C27.619 294.347 27.5977 294.059 27.5444 293.824C27.5017 293.579 27.4004 293.376 27.2404 293.216C27.091 293.045 26.9417 292.917 26.7924 292.832C26.6537 292.736 26.403 292.656 26.0404 292.592C25.6884 292.528 25.3737 292.485 25.0964 292.464C24.819 292.432 24.3977 292.4 23.8324 292.368L23.0964 292.32C22.9364 292.299 22.803 292.235 22.6964 292.128C22.6004 292.011 22.5577 291.867 22.5684 291.696L22.8244 286.96H28.6644L28.6004 288.16ZM32.0745 288.08C32.6398 287.195 33.6212 286.752 35.0185 286.752C36.4158 286.752 37.3972 287.195 37.9625 288.08C38.5385 288.965 38.8265 290.432 38.8265 292.48C38.8265 294.528 38.5385 295.995 37.9625 296.88C37.3972 297.765 36.4158 298.208 35.0185 298.208C33.6212 298.208 32.6398 297.765 32.0745 296.88C31.5092 295.995 31.2265 294.528 31.2265 292.48C31.2265 290.432 31.5092 288.965 32.0745 288.08ZM36.9065 288.992C36.5545 288.32 35.9252 287.984 35.0185 287.984C34.1118 287.984 33.4825 288.32 33.1305 288.992C32.7785 289.664 32.6025 290.827 32.6025 292.48C32.6025 294.133 32.7785 295.296 33.1305 295.968C33.4825 296.64 34.1118 296.976 35.0185 296.976C35.9252 296.976 36.5545 296.64 36.9065 295.968C37.2692 295.296 37.4505 294.133 37.4505 292.48C37.4505 290.827 37.2692 289.664 36.9065 288.992ZM42.0351 288.08C42.6005 287.195 43.5818 286.752 44.9791 286.752C46.3765 286.752 47.3578 287.195 47.9231 288.08C48.4991 288.965 48.7871 290.432 48.7871 292.48C48.7871 294.528 48.4991 295.995 47.9231 296.88C47.3578 297.765 46.3765 298.208 44.9791 298.208C43.5818 298.208 42.6005 297.765 42.0351 296.88C41.4698 295.995 41.1871 294.528 41.1871 292.48C41.1871 290.432 41.4698 288.965 42.0351 288.08ZM46.8671 288.992C46.5151 288.32 45.8858 287.984 44.9791 287.984C44.0725 287.984 43.4431 288.32 43.0911 288.992C42.7391 289.664 42.5631 290.827 42.5631 292.48C42.5631 294.133 42.7391 295.296 43.0911 295.968C43.4431 296.64 44.0725 296.976 44.9791 296.976C45.8858 296.976 46.5151 296.64 46.8671 295.968C47.2298 295.296 47.4111 294.133 47.4111 292.48C47.4111 290.827 47.2298 289.664 46.8671 288.992Z" fill="#333333"/>
<path d="M41.872 319.08C42.4373 318.195 43.4187 317.752 44.816 317.752C46.2133 317.752 47.1947 318.195 47.76 319.08C48.336 319.965 48.624 321.432 48.624 323.48C48.624 325.528 48.336 326.995 47.76 327.88C47.1947 328.765 46.2133 329.208 44.816 329.208C43.4187 329.208 42.4373 328.765 41.872 327.88C41.3067 326.995 41.024 325.528 41.024 323.48C41.024 321.432 41.3067 319.965 41.872 319.08ZM46.704 319.992C46.352 319.32 45.7227 318.984 44.816 318.984C43.9093 318.984 43.28 319.32 42.928 319.992C42.576 320.664 42.4 321.827 42.4 323.48C42.4 325.133 42.576 326.296 42.928 326.968C43.28 327.64 43.9093 327.976 44.816 327.976C45.7227 327.976 46.352 327.64 46.704 326.968C47.0667 326.296 47.248 325.133 47.248 323.48C47.248 321.827 47.0667 320.664 46.704 319.992Z" fill="#333333"/>
<path d="M82.4 362.768L82.544 363.824C81.6587 364.069 80.5813 364.192 79.312 364.192C77.7227 364.192 76.6027 363.765 75.952 362.912C75.3013 362.059 74.976 360.581 74.976 358.48C74.976 356.379 75.3013 354.901 75.952 354.048C76.6027 353.195 77.7227 352.768 79.312 352.768C80.4533 352.768 81.456 352.875 82.32 353.088L82.176 354.16C81.216 354.064 80.2613 354.016 79.312 354.016C78.2347 354.016 77.488 354.341 77.072 354.992C76.6667 355.632 76.464 356.795 76.464 358.48C76.464 360.165 76.6667 361.333 77.072 361.984C77.488 362.624 78.2347 362.944 79.312 362.944C80.5493 362.944 81.5787 362.885 82.4 362.768ZM89.413 360.768H85.781C85.8557 361.664 86.0743 362.267 86.437 362.576C86.7997 362.885 87.397 363.04 88.229 363.04C89.125 363.04 90.0317 362.976 90.949 362.848L91.077 363.76C90.3943 364.048 89.3863 364.192 88.053 364.192C86.709 364.192 85.7543 363.883 85.189 363.264C84.6237 362.635 84.341 361.573 84.341 360.08C84.341 358.576 84.6183 357.525 85.173 356.928C85.7277 356.32 86.6397 356.016 87.909 356.016C89.0717 356.016 89.9197 356.229 90.453 356.656C90.9863 357.072 91.2583 357.707 91.269 358.56C91.269 360.032 90.6503 360.768 89.413 360.768ZM85.765 359.712H89.061C89.637 359.712 89.9143 359.328 89.893 358.56C89.893 358.059 89.749 357.701 89.461 357.488C89.173 357.275 88.677 357.168 87.973 357.168C87.1517 357.168 86.581 357.349 86.261 357.712C85.941 358.075 85.7757 358.741 85.765 359.712ZM100.454 356.208V364H99.1096V360.384H95.0136V364H93.6696V356.208H95.0136V359.344H99.1096V356.208H100.454Z" fill="#333333"/>
<path d="M162.936 354.016C163.587 353.173 164.723 352.752 166.344 352.752C167.965 352.752 169.096 353.173 169.736 354.016C170.376 354.848 170.696 356.336 170.696 358.48C170.696 360.624 170.376 362.117 169.736 362.96C169.096 363.792 167.965 364.208 166.344 364.208C164.723 364.208 163.587 363.792 162.936 362.96C162.296 362.117 161.976 360.624 161.976 358.48C161.976 356.336 162.296 354.848 162.936 354.016ZM168.6 354.992C168.184 354.341 167.432 354.016 166.344 354.016C165.256 354.016 164.504 354.341 164.088 354.992C163.672 355.632 163.464 356.795 163.464 358.48C163.464 360.165 163.672 361.333 164.088 361.984C164.504 362.624 165.256 362.944 166.344 362.944C167.432 362.944 168.184 362.624 168.6 361.984C169.016 361.333 169.224 360.165 169.224 358.48C169.224 356.795 169.016 355.632 168.6 354.992ZM176.839 359.92V359.968C177.128 359.989 177.384 360.037 177.608 360.112C177.832 360.187 178.04 360.315 178.232 360.496C178.423 360.677 178.583 360.848 178.712 361.008C178.84 361.168 178.989 361.435 179.16 361.808C179.33 362.171 179.464 362.485 179.56 362.752C179.666 363.019 179.826 363.435 180.04 364H178.615C178.434 363.531 178.306 363.205 178.232 363.024C178.157 362.832 178.045 362.571 177.896 362.24C177.757 361.909 177.645 361.685 177.559 361.568C177.474 361.451 177.357 361.301 177.207 361.12C177.069 360.928 176.93 360.805 176.792 360.752C176.663 360.688 176.509 360.629 176.327 360.576C176.146 360.512 175.943 360.48 175.719 360.48H175.639H174.567C174.61 360.821 174.631 361.072 174.631 361.232V364H173.271V356.208H174.631V358.528C174.631 358.805 174.605 359.104 174.551 359.424H175.639C176.013 359.424 176.333 359.36 176.599 359.232C176.866 359.104 177.106 358.88 177.319 358.56C177.543 358.229 177.725 357.909 177.864 357.6C178.002 357.291 178.183 356.827 178.407 356.208H179.816C179.688 356.56 179.591 356.811 179.528 356.96C179.474 357.099 179.389 357.307 179.272 357.584C179.165 357.861 179.08 358.059 179.016 358.176C178.951 358.283 178.866 358.437 178.76 358.64C178.653 358.843 178.557 358.987 178.471 359.072C178.386 359.157 178.28 359.264 178.151 359.392C178.023 359.509 177.895 359.6 177.767 359.664C177.65 359.717 177.511 359.771 177.352 359.824C177.191 359.867 177.021 359.899 176.839 359.92ZM188.33 357.328H185.514V364H184.154V357.328H181.322V356.208H188.33V357.328Z" fill="#333333"/>
<path d="M257.296 352.96V364H255.888V358.704H250.8V364H249.392V352.96H250.8V357.488H255.888V352.96H257.296ZM263.583 356.016C264.917 356.016 265.861 356.325 266.416 356.944C266.97 357.563 267.248 358.619 267.248 360.112C267.248 361.605 266.97 362.661 266.416 363.28C265.861 363.899 264.917 364.208 263.583 364.208C262.239 364.208 261.29 363.899 260.735 363.28C260.181 362.661 259.903 361.605 259.903 360.112C259.903 358.619 260.181 357.563 260.735 356.944C261.29 356.325 262.239 356.016 263.583 356.016ZM263.583 357.168C262.719 357.168 262.127 357.376 261.807 357.792C261.487 358.208 261.327 358.981 261.327 360.112C261.327 361.243 261.487 362.016 261.807 362.432C262.127 362.848 262.719 363.056 263.583 363.056C264.437 363.056 265.024 362.848 265.344 362.432C265.664 362.016 265.824 361.243 265.824 360.112C265.824 358.981 265.664 358.208 265.344 357.792C265.024 357.376 264.437 357.168 263.583 357.168ZM271.332 360.672V360.608C270.703 360.523 270.249 360.304 269.972 359.952C269.695 359.589 269.556 359.083 269.556 358.432C269.556 357.664 269.769 357.088 270.196 356.704C270.633 356.32 271.385 356.128 272.452 356.128C273.977 356.128 275.124 356.165 275.892 356.24V364H274.564V361.12H272.468C271.711 361.12 271.257 361.387 271.108 361.92L270.516 364H269.108L269.812 361.664C269.993 361.088 270.5 360.757 271.332 360.672ZM274.564 360.096V357.232C274.404 357.232 274.089 357.232 273.62 357.232C273.161 357.221 272.783 357.216 272.484 357.216C271.855 357.216 271.428 357.323 271.204 357.536C270.991 357.739 270.884 358.101 270.884 358.624C270.884 359.168 270.996 359.552 271.22 359.776C271.455 359.989 271.892 360.096 272.532 360.096H274.564Z" fill="#333333"/>
<path d="M347.576 362.848V366.416H346.6L346.472 364H338.472L338.328 366.416H337.352V362.848H338.424C339.331 360.917 339.869 358.309 340.04 355.024C340.061 354.373 340.269 353.867 340.664 353.504C341.059 353.141 341.597 352.96 342.28 352.96H346.216V362.848H347.576ZM344.808 362.848V354.112H342.536C342.141 354.112 341.853 354.197 341.672 354.368C341.501 354.539 341.405 354.827 341.384 355.232C341.288 356.907 341.123 358.341 340.888 359.536C340.653 360.731 340.285 361.835 339.784 362.848H344.808ZM354.382 360.768H350.75C350.824 361.664 351.043 362.267 351.406 362.576C351.768 362.885 352.366 363.04 353.198 363.04C354.094 363.04 355 362.976 355.918 362.848L356.046 363.76C355.363 364.048 354.355 364.192 353.022 364.192C351.678 364.192 350.723 363.883 350.158 363.264C349.592 362.635 349.31 361.573 349.31 360.08C349.31 358.576 349.587 357.525 350.142 356.928C350.696 356.32 351.608 356.016 352.878 356.016C354.04 356.016 354.888 356.229 355.422 356.656C355.955 357.072 356.227 357.707 356.238 358.56C356.238 360.032 355.619 360.768 354.382 360.768ZM350.734 359.712H354.03C354.606 359.712 354.883 359.328 354.862 358.56C354.862 358.059 354.718 357.701 354.43 357.488C354.142 357.275 353.646 357.168 352.942 357.168C352.12 357.168 351.55 357.349 351.23 357.712C350.91 358.075 350.744 358.741 350.734 359.712ZM362.206 359.92V359.968C362.494 359.989 362.75 360.037 362.974 360.112C363.198 360.187 363.406 360.315 363.598 360.496C363.79 360.677 363.95 360.848 364.078 361.008C364.206 361.168 364.356 361.435 364.526 361.808C364.697 362.171 364.83 362.485 364.926 362.752C365.033 363.019 365.193 363.435 365.406 364H363.982C363.801 363.531 363.673 363.205 363.598 363.024C363.524 362.832 363.412 362.571 363.262 362.24C363.124 361.909 363.012 361.685 362.926 361.568C362.841 361.451 362.724 361.301 362.574 361.12C362.436 360.928 362.297 360.805 362.158 360.752C362.03 360.688 361.876 360.629 361.694 360.576C361.513 360.512 361.31 360.48 361.086 360.48H361.006H359.934C359.977 360.821 359.998 361.072 359.998 361.232V364H358.638V356.208H359.998V358.528C359.998 358.805 359.972 359.104 359.918 359.424H361.006C361.38 359.424 361.7 359.36 361.966 359.232C362.233 359.104 362.473 358.88 362.686 358.56C362.91 358.229 363.092 357.909 363.23 357.6C363.369 357.291 363.55 356.827 363.774 356.208H365.182C365.054 356.56 364.958 356.811 364.894 356.96C364.841 357.099 364.756 357.307 364.638 357.584C364.532 357.861 364.446 358.059 364.382 358.176C364.318 358.283 364.233 358.437 364.126 358.64C364.02 358.843 363.924 358.987 363.838 359.072C363.753 359.157 363.646 359.264 363.518 359.392C363.39 359.509 363.262 359.6 363.134 359.664C363.017 359.717 362.878 359.771 362.718 359.824C362.558 359.867 362.388 359.899 362.206 359.92Z" fill="#333333"/>
<path d="M428.216 359.072L428.2 358.992C426.813 358.8 426.131 357.819 426.152 356.048C426.152 354.885 426.424 354.059 426.968 353.568C427.512 353.067 428.408 352.816 429.656 352.816C431.277 352.816 432.531 352.864 433.416 352.96V364H432.008V359.504C431.848 359.504 431.501 359.509 430.968 359.52C430.435 359.52 429.981 359.52 429.608 359.52C428.872 359.52 428.387 359.909 428.152 360.688L427.192 364H425.688L426.712 360.624C426.968 359.771 427.469 359.253 428.216 359.072ZM432.008 358.304V354.048C431.603 354.037 430.824 354.032 429.672 354.032C428.893 354.032 428.349 354.181 428.04 354.48C427.731 354.779 427.571 355.328 427.56 356.128C427.56 356.864 427.715 357.413 428.024 357.776C428.333 358.128 428.861 358.304 429.608 358.304H432.008ZM443.181 356.208V364H441.837V360.384H437.74V364H436.396V356.208H437.74V359.344H441.837V356.208H443.181ZM450.797 359.968V360.016C451.501 360.069 452.002 360.267 452.301 360.608C452.6 360.939 452.749 361.429 452.749 362.08C452.749 362.859 452.514 363.392 452.045 363.68C451.586 363.968 450.781 364.112 449.629 364.112C448.114 364.112 446.914 364.08 446.029 364.016V356.224C446.808 356.16 447.864 356.128 449.197 356.128C450.434 356.128 451.288 356.272 451.757 356.56C452.237 356.848 452.477 357.397 452.477 358.208C452.477 358.763 452.344 359.184 452.077 359.472C451.81 359.76 451.384 359.925 450.797 359.968ZM447.309 359.504H449.357C450.04 359.504 450.514 359.424 450.781 359.264C451.048 359.093 451.181 358.779 451.181 358.32C451.181 357.883 451.032 357.589 450.733 357.44C450.445 357.28 449.917 357.2 449.149 357.2C448.413 357.189 447.8 357.189 447.309 357.2V359.504ZM447.309 360.48V363.024C447.469 363.024 447.789 363.029 448.269 363.04C448.749 363.04 449.138 363.04 449.437 363.04C450.173 363.04 450.68 362.955 450.957 362.784C451.245 362.613 451.389 362.283 451.389 361.792C451.389 361.301 451.24 360.96 450.941 360.768C450.642 360.576 450.114 360.48 449.357 360.48H447.309Z" fill="#333333"/>
<path d="M520.28 352.064V353.616C522.136 353.68 523.437 354.064 524.184 354.768C524.941 355.472 525.325 356.672 525.336 358.368C525.325 360.032 524.941 361.211 524.184 361.904C523.437 362.597 522.136 362.976 520.28 363.04V364.592H518.872V363.04C517.016 362.976 515.709 362.597 514.952 361.904C514.195 361.211 513.816 360.032 513.816 358.368C513.816 356.672 514.189 355.472 514.936 354.768C515.693 354.064 517.005 353.68 518.872 353.616V352.064H520.28ZM518.92 361.856V354.8C517.523 354.853 516.563 355.136 516.04 355.648C515.517 356.149 515.256 357.056 515.256 358.368C515.256 359.648 515.517 360.539 516.04 361.04C516.563 361.531 517.523 361.803 518.92 361.856ZM520.216 354.8V361.856C521.613 361.803 522.573 361.531 523.096 361.04C523.619 360.539 523.885 359.648 523.896 358.368C523.885 357.056 523.619 356.149 523.096 355.648C522.573 355.136 521.613 354.853 520.216 354.8ZM532.444 360.768H528.812C528.887 361.664 529.106 362.267 529.468 362.576C529.831 362.885 530.428 363.04 531.26 363.04C532.156 363.04 533.063 362.976 533.98 362.848L534.108 363.76C533.426 364.048 532.418 364.192 531.084 364.192C529.74 364.192 528.786 363.883 528.22 363.264C527.655 362.635 527.372 361.573 527.372 360.08C527.372 358.576 527.65 357.525 528.204 356.928C528.759 356.32 529.671 356.016 530.94 356.016C532.103 356.016 532.951 356.229 533.484 356.656C534.018 357.072 534.29 357.707 534.3 358.56C534.3 360.032 533.682 360.768 532.444 360.768ZM528.796 359.712H532.092C532.668 359.712 532.946 359.328 532.924 358.56C532.924 358.059 532.78 357.701 532.492 357.488C532.204 357.275 531.708 357.168 531.004 357.168C530.183 357.168 529.612 357.349 529.292 357.712C528.972 358.075 528.807 358.741 528.796 359.712ZM541.469 359.968V360.016C542.173 360.069 542.674 360.267 542.973 360.608C543.272 360.939 543.421 361.429 543.421 362.08C543.421 362.859 543.186 363.392 542.717 363.68C542.258 363.968 541.453 364.112 540.301 364.112C538.786 364.112 537.586 364.08 536.701 364.016V356.224C537.48 356.16 538.536 356.128 539.869 356.128C541.106 356.128 541.96 356.272 542.429 356.56C542.909 356.848 543.149 357.397 543.149 358.208C543.149 358.763 543.016 359.184 542.749 359.472C542.482 359.76 542.056 359.925 541.469 359.968ZM537.981 359.504H540.029C540.712 359.504 541.186 359.424 541.453 359.264C541.72 359.093 541.853 358.779 541.853 358.32C541.853 357.883 541.704 357.589 541.405 357.44C541.117 357.28 540.589 357.2 539.821 357.2C539.085 357.189 538.472 357.189 537.981 357.2V359.504ZM537.981 360.48V363.024C538.141 363.024 538.461 363.029 538.941 363.04C539.421 363.04 539.81 363.04 540.109 363.04C540.845 363.04 541.352 362.955 541.629 362.784C541.917 362.613 542.061 362.283 542.061 361.792C542.061 361.301 541.912 360.96 541.613 360.768C541.314 360.576 540.786 360.48 540.029 360.48H537.981Z" fill="#333333"/>
<path d="M614.24 352.96H615.824C616.208 352.96 616.4 353.157 616.4 353.552L616.864 364H615.456L615.056 354.128H614.72L612.256 362.272C612.171 362.592 611.968 362.752 611.648 362.752H610.384C610.053 362.752 609.84 362.592 609.744 362.272L607.28 354.128H606.96L606.576 364H605.168L605.6 353.552C605.621 353.157 605.819 352.96 606.192 352.96H607.792C608.091 352.96 608.288 353.12 608.384 353.44L610.448 360.176C610.512 360.368 610.592 360.656 610.688 361.04C610.795 361.413 610.853 361.621 610.864 361.664H611.152C611.184 361.547 611.243 361.317 611.328 360.976C611.424 360.624 611.504 360.347 611.568 360.144L613.632 353.44C613.717 353.12 613.92 352.96 614.24 352.96ZM619.663 357.376L619.535 356.368C620.986 356.133 622.245 356.016 623.311 356.016C624.218 356.016 624.885 356.208 625.311 356.592C625.749 356.965 625.967 357.605 625.967 358.512V364H624.895L624.735 362.72C624.362 363.104 623.893 363.44 623.327 363.728C622.773 364.005 622.17 364.144 621.519 364.144C620.805 364.144 620.239 363.957 619.823 363.584C619.407 363.2 619.199 362.661 619.199 361.968V361.12C619.199 360.512 619.386 360.043 619.759 359.712C620.143 359.371 620.677 359.2 621.359 359.2H624.607V358.512C624.597 358.021 624.479 357.675 624.255 357.472C624.031 357.269 623.621 357.168 623.023 357.168C622.266 357.168 621.146 357.237 619.663 357.376ZM620.575 361.312V361.808C620.575 362.213 620.671 362.512 620.863 362.704C621.066 362.885 621.375 362.976 621.791 362.976C622.207 362.987 622.671 362.891 623.183 362.688C623.695 362.485 624.17 362.192 624.607 361.808V360.24H621.599C620.917 360.272 620.575 360.629 620.575 361.312ZM629.883 356.208L629.995 357.456C630.422 357.008 630.923 356.656 631.499 356.4C632.086 356.144 632.662 356.016 633.227 356.016C634.166 356.016 634.849 356.357 635.275 357.04C635.702 357.723 635.915 358.757 635.915 360.144C635.915 361.616 635.681 362.661 635.211 363.28C634.742 363.888 633.995 364.192 632.971 364.192C631.926 364.192 630.966 363.925 630.091 363.392C630.134 363.84 630.145 364.363 630.123 364.96V367.216H628.779V356.208H629.883ZM630.123 358.4V362.528C631.211 362.848 632.043 363.008 632.619 363.008C633.323 363.008 633.814 362.811 634.091 362.416C634.369 362.021 634.507 361.264 634.507 360.144C634.507 359.056 634.374 358.293 634.107 357.856C633.851 357.419 633.414 357.2 632.795 357.2C632.081 357.2 631.19 357.6 630.123 358.4Z" fill="#333333"/>
<path d="M703.248 360.544H698.704L697.616 364H696.16L699.712 353.344C699.776 353.088 699.952 352.96 700.24 352.96H701.712C702 352.96 702.176 353.088 702.24 353.344L705.792 364H704.336L703.248 360.544ZM702.864 359.328L701.472 354.944C701.376 354.667 701.285 354.368 701.2 354.048H700.752L700.48 354.944L699.088 359.328H702.864ZM714.209 356.208V364H712.865V357.312H708.865V364H707.537V356.208H714.209ZM718.18 356.208L718.292 357.456C718.719 357.008 719.22 356.656 719.796 356.4C720.383 356.144 720.959 356.016 721.524 356.016C722.463 356.016 723.146 356.357 723.572 357.04C723.999 357.723 724.212 358.757 724.212 360.144C724.212 361.616 723.978 362.661 723.508 363.28C723.039 363.888 722.292 364.192 721.268 364.192C720.223 364.192 719.263 363.925 718.388 363.392C718.431 363.84 718.442 364.363 718.42 364.96V367.216H717.076V356.208H718.18ZM718.42 358.4V362.528C719.508 362.848 720.34 363.008 720.916 363.008C721.62 363.008 722.111 362.811 722.388 362.416C722.666 362.021 722.804 361.264 722.804 360.144C722.804 359.056 722.671 358.293 722.404 357.856C722.148 357.419 721.711 357.2 721.092 357.2C720.378 357.2 719.487 357.6 718.42 358.4Z" fill="#333333"/>
<path d="M795.24 352.96H796.824C797.208 352.96 797.4 353.157 797.4 353.552L797.864 364H796.456L796.056 354.128H795.72L793.256 362.272C793.171 362.592 792.968 362.752 792.648 362.752H791.384C791.053 362.752 790.84 362.592 790.744 362.272L788.28 354.128H787.96L787.576 364H786.168L786.6 353.552C786.621 353.157 786.819 352.96 787.192 352.96H788.792C789.091 352.96 789.288 353.12 789.384 353.44L791.448 360.176C791.512 360.368 791.592 360.656 791.688 361.04C791.795 361.413 791.853 361.621 791.864 361.664H792.152C792.184 361.547 792.243 361.317 792.328 360.976C792.424 360.624 792.504 360.347 792.568 360.144L794.632 353.44C794.717 353.12 794.92 352.96 795.24 352.96ZM800.663 357.376L800.535 356.368C801.986 356.133 803.245 356.016 804.311 356.016C805.218 356.016 805.885 356.208 806.311 356.592C806.749 356.965 806.967 357.605 806.967 358.512V364H805.895L805.735 362.72C805.362 363.104 804.893 363.44 804.327 363.728C803.773 364.005 803.17 364.144 802.519 364.144C801.805 364.144 801.239 363.957 800.823 363.584C800.407 363.2 800.199 362.661 800.199 361.968V361.12C800.199 360.512 800.386 360.043 800.759 359.712C801.143 359.371 801.677 359.2 802.359 359.2H805.607V358.512C805.597 358.021 805.479 357.675 805.255 357.472C805.031 357.269 804.621 357.168 804.023 357.168C803.266 357.168 802.146 357.237 800.663 357.376ZM801.575 361.312V361.808C801.575 362.213 801.671 362.512 801.863 362.704C802.066 362.885 802.375 362.976 802.791 362.976C803.207 362.987 803.671 362.891 804.183 362.688C804.695 362.485 805.17 362.192 805.607 361.808V360.24H802.599C801.917 360.272 801.575 360.629 801.575 361.312ZM814.483 352.752H815.523C815.566 353.381 815.369 353.904 814.931 354.32C814.494 354.736 813.897 354.944 813.139 354.944C812.371 354.944 811.763 354.736 811.315 354.32C810.878 353.904 810.681 353.381 810.723 352.752H811.763C811.763 353.211 811.881 353.568 812.115 353.824C812.361 354.069 812.702 354.192 813.139 354.192C813.566 354.192 813.897 354.069 814.131 353.824C814.366 353.568 814.483 353.211 814.483 352.752ZM816.611 364H815.379V358.832C815.379 358.704 815.385 358.517 815.395 358.272C815.417 358.016 815.427 357.856 815.427 357.792H815.395C815.278 358.08 815.097 358.384 814.851 358.704L810.883 364H809.763V356.208H810.995V361.376C810.995 361.685 810.979 362.032 810.947 362.416H810.979C811.15 362.064 811.337 361.765 811.539 361.52L815.507 356.208H816.611V364Z" fill="#333333"/>
<path d="M886.664 364H885.304V355.952C885.304 355.451 885.331 355.029 885.384 354.688H885.304C885.165 355.051 884.973 355.451 884.728 355.888L879.832 364H878.392V352.96H879.752V360.928C879.752 361.323 879.725 361.76 879.672 362.24H879.736C879.896 361.888 880.104 361.488 880.36 361.04L885.208 352.96H886.664V364ZM891.006 359.456H893.006C893.07 358.155 893.359 357.259 893.871 356.768C894.393 356.267 895.273 356.016 896.51 356.016C897.887 356.016 898.847 356.309 899.391 356.896C899.935 357.472 900.207 358.539 900.207 360.096C900.207 361.632 899.935 362.693 899.391 363.28C898.847 363.856 897.887 364.144 896.51 364.144C895.252 364.144 894.361 363.883 893.839 363.36C893.326 362.837 893.049 361.888 893.006 360.512H891.006V364H889.662V356.208H891.006V359.456ZM896.495 362.992C897.358 362.992 897.956 362.784 898.286 362.368C898.617 361.952 898.788 361.189 898.799 360.08C898.788 358.96 898.617 358.197 898.286 357.792C897.956 357.376 897.358 357.168 896.495 357.168C895.652 357.168 895.076 357.376 894.766 357.792C894.457 358.197 894.302 358.96 894.302 360.08C894.302 361.189 894.457 361.952 894.766 362.368C895.076 362.784 895.652 362.992 896.495 362.992ZM909.469 356.208V364H908.125V360.384H904.029V364H902.685V356.208H904.029V359.344H908.125V356.208H909.469Z" fill="#333333"/>
<path d="M979.664 364H978.304V355.952C978.304 355.451 978.331 355.029 978.384 354.688H978.304C978.165 355.051 977.973 355.451 977.728 355.888L972.832 364H971.392V352.96H972.752V360.928C972.752 361.323 972.725 361.76 972.672 362.24H972.736C972.896 361.888 973.104 361.488 973.36 361.04L978.208 352.96H979.664V364ZM984.006 359.456H986.006C986.07 358.155 986.359 357.259 986.871 356.768C987.393 356.267 988.273 356.016 989.51 356.016C990.887 356.016 991.847 356.309 992.391 356.896C992.935 357.472 993.207 358.539 993.207 360.096C993.207 361.632 992.935 362.693 992.391 363.28C991.847 363.856 990.887 364.144 989.51 364.144C988.252 364.144 987.361 363.883 986.839 363.36C986.326 362.837 986.049 361.888 986.006 360.512H984.006V364H982.662V356.208H984.006V359.456ZM989.495 362.992C990.358 362.992 990.956 362.784 991.286 362.368C991.617 361.952 991.788 361.189 991.799 360.08C991.788 358.96 991.617 358.197 991.286 357.792C990.956 357.376 990.358 357.168 989.495 357.168C988.652 357.168 988.076 357.376 987.766 357.792C987.457 358.197 987.302 358.96 987.302 360.08C987.302 361.189 987.457 361.952 987.766 362.368C988.076 362.784 988.652 362.992 989.495 362.992ZM1002.01 356.208V364H1000.65V357.28H998.952C998.622 357.28 998.382 357.355 998.232 357.504C998.094 357.643 997.998 357.893 997.944 358.256C997.688 360.325 997.438 361.691 997.192 362.352C996.798 363.493 995.982 364.069 994.744 364.08L994.6 363.04C995.016 362.944 995.32 362.816 995.512 362.656C995.704 362.485 995.859 362.251 995.976 361.952C996.232 361.301 996.462 359.995 996.664 358.032C996.739 357.413 996.936 356.955 997.256 356.656C997.576 356.357 998.056 356.208 998.696 356.208H1002.01Z" fill="#333333"/>
<path d="M74 13H1023" stroke="#AAAAAA"/>
<path d="M74 35H1023" stroke="#AAAAAA"/>
<path d="M74 57H1023" stroke="#AAAAAA"/>
<path d="M74 79H1023" stroke="#AAAAAA"/>
<path d="M74 101H1023" stroke="#AAAAAA"/>
<path d="M74 123H1023" stroke="#AAAAAA"/>
<path d="M74 145H1023" stroke="#AAAAAA"/>
<path d="M74 167H1023" stroke="#AAAAAA"/>
<path d="M74 189H1023" stroke="#AAAAAA"/>
<path d="M74 211H1023" stroke="#AAAAAA"/>
<path d="M74 233H1023" stroke="#AAAAAA"/>
<path d="M74 255H1023" stroke="#AAAAAA"/>
<path d="M74 277H1023" stroke="#AAAAAA"/>
<path d="M74 299H1023" stroke="#AAAAAA"/>
<path d="M96 275H182.5L268.5 271.5L354.5 255.5L441 275L526 209.5L613.5 188L698.5 216L784.5 112.5L871 48.5L959 36.5" stroke="#707070" stroke-width="2"/>
<circle cx="95.5" cy="275.5" r="6" fill="#43BEA2" stroke="#AAAAAA"/>
<circle cx="181.5" cy="274.5" r="6" fill="#43BEA2" stroke="#AAAAAA"/>
<circle cx="268.5" cy="271.5" r="6" fill="#43BEA2" stroke="#AAAAAA"/>
<circle cx="354.5" cy="255.5" r="6" fill="#43BEA2" stroke="#AAAAAA"/>
<circle cx="440.5" cy="274.5" r="6" fill="#43BEA2" stroke="#AAAAAA"/>
<circle cx="526.5" cy="209.5" r="6" fill="#43BEA2" stroke="#AAAAAA"/>
<circle cx="613.5" cy="187.5" r="6" fill="#43BEA2" stroke="#AAAAAA"/>
<circle cx="698.5" cy="215.5" r="6" fill="#43BEA2" stroke="#AAAAAA"/>
<circle cx="784.5" cy="112.5" r="6" fill="#43BEA2" stroke="#AAAAAA"/>
<circle cx="871.5" cy="49.5" r="6" fill="#43BEA2" stroke="#AAAAAA"/>
<circle cx="959.5" cy="36.5" r="6" fill="#43BEA2" stroke="#AAAAAA"/>
</svg>
