<svg width="62" height="61" viewBox="0 0 62 61" fill="none" xmlns="http://www.w3.org/2000/svg">
<path d="M30.507 1.26375L2.49178 17.139C1.82542 17.5166 1.81353 18.4725 2.47029 18.8666L30.4855 35.6757C30.8022 35.8657 31.1978 35.8657 31.5145 35.6757L59.5297 18.8666C60.1865 18.4725 60.1746 17.5166 59.5082 17.139L31.493 1.26375C31.1872 1.09045 30.8128 1.09044 30.507 1.26375Z" stroke="#333333" stroke-width="2"/>
<path d="M10.375 23.6719L8.5 24.7344L2.49178 28.139C1.82542 28.5166 1.81353 29.4725 2.47029 29.8666L30.4855 46.6757C30.8022 46.8657 31.1978 46.8657 31.5145 46.6757L59.5297 29.8666C60.1865 29.4725 60.1746 28.5166 59.5082 28.139L53.5 24.7344L51.625 23.6719" stroke="#333333" stroke-width="2"/>
<path d="M12.25 35.6094L8.5 37.7344L2.49178 41.139C1.82542 41.5166 1.81353 42.4725 2.47029 42.8666L30.4855 59.6757C30.8022 59.8657 31.1978 59.8657 31.5145 59.6757L59.5297 42.8666C60.1865 42.4725 60.1746 41.5166 59.5082 41.139L53.5 37.7344L49.75 35.6094" stroke="#333333" stroke-width="2"/>
<rect x="13.5" y="31.4844" width="1" height="1" fill="black"/>
<rect x="13.5" y="31.4844" width="1" height="1" fill="black"/>
<rect x="13.5" y="31.4844" width="1" height="1" stroke="#333333"/>
<rect x="16.5" y="34.4844" width="1" height="1" fill="black"/>
<rect x="16.5" y="34.4844" width="1" height="1" fill="black"/>
<rect x="16.5" y="34.4844" width="1" height="1" stroke="#333333"/>
<rect x="19.5" y="31.4844" width="1" height="1" fill="black"/>
<rect x="19.5" y="31.4844" width="1" height="1" fill="black"/>
<rect x="19.5" y="31.4844" width="1" height="1" stroke="#333333"/>
<rect x="23.5" y="34.4844" width="1" height="1" fill="black"/>
<rect x="23.5" y="34.4844" width="1" height="1" fill="black"/>
<rect x="23.5" y="34.4844" width="1" height="1" stroke="#333333"/>
<rect x="20.5" y="37.4844" width="1" height="1" fill="black"/>
<rect x="20.5" y="37.4844" width="1" height="1" fill="black"/>
<rect x="20.5" y="37.4844" width="1" height="1" stroke="#333333"/>
<rect x="26.5" y="38.4844" width="1" height="1" fill="black"/>
<rect x="26.5" y="38.4844" width="1" height="1" fill="black"/>
<rect x="26.5" y="38.4844" width="1" height="1" stroke="#333333"/>
<rect x="30.5" y="41.4844" width="1" height="1" fill="black"/>
<rect x="30.5" y="41.4844" width="1" height="1" fill="black"/>
<rect x="30.5" y="41.4844" width="1" height="1" stroke="#333333"/>
<rect x="33.5" y="38.4844" width="1" height="1" fill="black"/>
<rect x="33.5" y="38.4844" width="1" height="1" fill="black"/>
<rect x="33.5" y="38.4844" width="1" height="1" stroke="#333333"/>
<rect x="36.5" y="34.4844" width="1" height="1" fill="black"/>
<rect x="36.5" y="34.4844" width="1" height="1" fill="black"/>
<rect x="36.5" y="34.4844" width="1" height="1" stroke="#333333"/>
<rect x="41.5" y="31.4844" width="1" height="1" fill="black"/>
<rect x="41.5" y="31.4844" width="1" height="1" fill="black"/>
<rect x="41.5" y="31.4844" width="1" height="1" stroke="#333333"/>
<rect x="44.5" y="34.4844" width="1" height="1" fill="black"/>
<rect x="44.5" y="34.4844" width="1" height="1" fill="black"/>
<rect x="44.5" y="34.4844" width="1" height="1" stroke="#333333"/>
<rect x="47.5" y="31.4844" width="1" height="1" fill="black"/>
<rect x="47.5" y="31.4844" width="1" height="1" fill="black"/>
<rect x="47.5" y="31.4844" width="1" height="1" stroke="#333333"/>
<rect x="50.5" y="28.4844" width="1" height="1" fill="black"/>
<rect x="50.5" y="28.4844" width="1" height="1" fill="black"/>
<rect x="50.5" y="28.4844" width="1" height="1" stroke="#333333"/>
<rect x="16.5" y="28.4844" width="1" height="1" fill="black"/>
<rect x="16.5" y="28.4844" width="1" height="1" fill="black"/>
<rect x="16.5" y="28.4844" width="1" height="1" stroke="#333333"/>
<rect x="10.5" y="28.4844" width="1" height="1" fill="black" stroke="#333333"/>
</svg>
