<?xml version="1.0" encoding="UTF-8"?>
<!DOCTYPE svg PUBLIC "-//W3C//DTD SVG 1.1//EN" "http://www.w3.org/Graphics/SVG/1.1/DTD/svg11.dtd">
<!-- Creator: CorelDRAW 2020 (64-Bit) -->
<svg xmlns="http://www.w3.org/2000/svg" xml:space="preserve" width="300px" height="474px" version="1.1" style="shape-rendering:geometricPrecision; text-rendering:geometricPrecision; image-rendering:optimizeQuality; fill-rule:evenodd; clip-rule:evenodd"
viewBox="0 0 286.55 452.51"
 xmlns:xlink="http://www.w3.org/1999/xlink"
 xmlns:xodm="http://www.corel.com/coreldraw/odm/2003">
 <defs>
  <style type="text/css">
   <![CDATA[
    .fil0 {fill:#2B2A29}
   ]]>
  </style>
 </defs>
 <g id="Слой_x0020_1">
  <metadata id="CorelCorpID_0Corel-Layer"/>
  <polygon class="fil0" points="161.21,390.35 161.45,390.35 167.83,390.35 167.83,409.49 167.83,410.25 "/>
  <path class="fil0" d="M107.34 390.35l53.87 0 6.62 19.9 0 42.26 -41.64 0c-5.4,-17.85 -11.81,-39 -18.85,-62.16z"/>
  <path class="fil0" d="M105.67 452.51l0 -62.16 0.66 0 1.01 0c7.04,23.16 13.45,44.31 18.85,62.16l-0.52 0 -20 0z"/>
  <path class="fil0" d="M27.91 132.08l-2.03 -0.25 -25.88 -3.16c2.03,-16.62 5.64,-31.69 10.83,-45.21 0.3,-0.78 0.6,-1.56 0.91,-2.33 4.82,14.96 10.27,32.18 16.17,50.95z"/>
  <path class="fil0" d="M64.88 100.62c-3.92,10.18 -6.9,21.8 -8.94,34.88l-28.03 -3.42c-5.9,-18.77 -11.35,-35.99 -16.17,-50.95 7.41,-18.37 17.82,-33.79 31.29,-46.23l21.85 65.72z"/>
  <path class="fil0" d="M99.22 56.97c-4.45,2.78 -8.66,6.03 -12.61,9.75 -9.06,8.51 -16.27,19.77 -21.69,33.79l-0.04 0.11 -21.85 -65.72 0.03 -0.03c0.63,-0.58 1.26,-1.15 1.9,-1.72 11.28,-9.97 24.2,-17.7 38.75,-23.18l15.51 47z"/>
  <path class="fil0" d="M131.33 45.63c-11.84,1.6 -22.51,5.37 -32.04,11.3l-0.07 0.04 -15.51 -47 0.04 -0.02c10.28,-3.86 21.38,-6.6 33.3,-8.22l14.28 43.9z"/>
  <path class="fil0" d="M173.95 49.3c-9.01,-3.03 -18.71,-4.55 -29.12,-4.55 -4.58,0 -9.01,0.29 -13.29,0.86l-0.21 0.02 -14.28 -43.9 0.23 -0.03c8.46,-1.13 17.33,-1.7 26.62,-1.7 4.49,0 8.89,0.13 13.19,0.38l16.86 48.92z"/>
  <path class="fil0" d="M235.7 25.76l0.3 0.22c4.12,2.93 8.05,6.12 11.8,9.55 25.8,23.73 38.75,52.42 38.75,86.09 0,7.97 -0.77,15.68 -2.29,23.13l-0.03 0.13 -48.53 -119.12z"/>
  <path class="fil0" d="M197.17 7.19l0.26 0.08c14.15,4.27 26.9,10.43 38.27,18.49l48.53 119.12c-2.21,10.71 -5.99,20.88 -11.36,30.51 -2.36,4.27 -5.31,8.78 -8.85,13.51l-0.05 0.07 -66.8 -181.78z"/>
  <path class="fil0" d="M214.9 168.12l0.09 -0.11c2.99,-3.69 5.37,-7.07 7.12,-10.13 5.7,-10.05 8.5,-20.82 8.5,-32.63 0,-21.34 -8.29,-40.09 -24.87,-56.25 -9.33,-9.11 -19.85,-15.65 -31.56,-19.62l-0.23 -0.08 -16.86 -48.92 0.25 0.02c14.32,0.86 27.6,3.12 39.83,6.79l66.8 181.78c-7.5,10.03 -17.61,21.1 -30.34,33.25l-0.07 0.06 -18.66 -54.16z"/>
  <path class="fil0" d="M181.82 200.79l0.1 -0.09c1.08,-0.96 2.19,-1.94 3.31,-2.93 13.07,-11.5 22.93,-21.37 29.67,-29.65l18.66 54.16c-4.4,4.2 -9.11,8.53 -14.14,12.99 -7.98,7.05 -14.72,13.27 -20.21,18.66l-0.08 0.07 -17.31 -53.21z"/>
  <path class="fil0" d="M155 225.95l0.13 -0.13c6.76,-6.87 15.67,-15.21 26.69,-25.03l17.31 53.21c-6.73,6.61 -11.6,11.97 -14.63,16.08 -3.73,5.07 -6.79,10.67 -9.19,16.8l-0.1 0.28 -20.21 -61.21z"/>
  <path class="fil0" d="M122.95 275.28l0.09 -0.26c0.44,-1.25 0.9,-2.49 1.38,-3.7 4.45,-11.81 11.6,-23.62 21.55,-35.54 2.38,-2.85 5.39,-6.13 9.03,-9.83l20.21 61.21c-1.08,2.79 -2.02,5.7 -2.83,8.71 -2.59,9.64 -4.14,25.38 -4.55,47.24l-22.11 0 -0.22 0 -22.55 -67.83z"/>
  <path class="fil0" d="M115.61 343.11c-0.2,-7.25 -0.31,-12.74 -0.31,-16.37 0,-19.65 2.53,-36.77 7.65,-51.46l22.55 67.83 -29.89 0z"/>
 </g>
</svg>
