<svg width="58" height="58" viewBox="0 0 58 58" fill="none" xmlns="http://www.w3.org/2000/svg">
<path d="M4.75139 42.9999C6.57256 46.1543 9.00901 48.9535 11.9547 51.2138C17.8462 55.7345 25.2922 57.7296 32.6547 56.7603C40.0172 55.7911 46.6931 51.9367 51.2138 46.0453C55.7345 40.1538 57.7296 32.7078 56.7603 25.3453C56.2757 21.664 55.0698 18.1544 53.2486 15.0001L40.811 22.1809C42.6195 25.3134 43.1096 29.036 42.1734 32.5298C41.2373 36.0236 38.9516 39.0024 35.8191 40.8109C32.6867 42.6194 28.9641 43.1095 25.4703 42.1733C21.9765 41.2372 18.9977 38.9515 17.1891 35.819M4.75139 42.9999L17.1891 35.819M4.75139 42.9999C2.93021 39.8456 1.7243 36.336 1.23965 32.6547C0.270361 25.2922 2.26551 17.8462 6.78619 11.9547C11.3069 6.06328 17.9828 2.20894 25.3453 1.23965C26.9318 1.03078 28.5223 0.959562 30.1002 1.02161L29.5359 15.3724C27.0984 15.2766 24.6797 15.8363 22.5321 16.9932C20.3844 18.1501 18.5864 19.8619 17.3254 21.9502C16.0644 24.0384 15.3866 26.4266 15.3626 28.866C15.3387 31.3053 15.9694 33.7064 17.1891 35.819M30.0881 1.02114C35.8368 1.24471 41.4201 3.23718 46.0453 6.78619C48.9826 9.04013 51.4136 11.8298 53.2331 14.9733L40.8035 22.1679C39.6504 20.1759 38.0121 18.5081 36.0409 17.3199C34.0697 16.1316 31.8299 15.4616 29.53 15.3722L30.0881 1.02114Z" stroke="#333333" stroke-width="2" stroke-linecap="round" stroke-linejoin="round"/>
</svg>
