<svg width="127" height="120" viewBox="0 0 127 120" fill="none" xmlns="http://www.w3.org/2000/svg">
<path d="M85.1668 80.0001H41.8335C41.8335 80.0001 47.7236 74.3323 52.3891 72.2223C59.1566 69.1616 66.7912 75.9192 71.2779 70.0001C75.3492 64.629 69.7156 59.5024 70.1668 52.7778C70.5657 46.8337 72.9446 37.7778 72.9446 37.7778H85.1668V80.0001Z" fill="#43BEA2"/>
<path d="M45.7218 37.2223H41.2774V43.8889M45.7218 37.2223V18.3334M45.7218 37.2223H58.7774M71.833 37.2223V18.3334M71.833 37.2223H78.4996M71.833 37.2223H58.7774M78.4996 37.2223H85.1663V45.5556M78.4996 37.2223L89.0552 22.2223H105.722M85.1663 45.5556H102.389M85.1663 45.5556V56.1112M85.1663 56.1112H112.389M85.1663 56.1112V72.2223M85.1663 72.2223V80.0001H81.8329M85.1663 72.2223H101.277M81.8329 80.0001V98.8889M81.8329 80.0001H70.7218M70.7218 80.0001V95.0001M70.7218 80.0001H60.7218M60.7218 80.0001V105M60.7218 80.0001H48.4996M48.4996 80.0001H41.2774V74.4445M48.4996 80.0001V91.1112H30.7218L26.833 95.0001M41.2774 74.4445H25.7218M41.2774 74.4445V62.2223M41.2774 62.2223H14.0552M41.2774 62.2223V43.8889M41.2774 43.8889H25.7218M58.7774 37.2223V25.0001M106.277 103.333H118.5M112.389 97.7778V109.445M25.1663 23.3334H31.2774M31.2774 23.3334H37.3885M31.2774 23.3334V17.7778M31.2774 23.3334V29.4445" stroke="#333333" stroke-width="2"/>
<path d="M4.05518 27.7778V0L17.9441 13.8889L4.05518 27.7778Z" fill="#43BEA2"/>
<path d="M0.722168 120V104.444H7.38883V114.444H16.2777V120H0.722168Z" fill="#43BEA2"/>
<path d="M63.4997 72.2227C63.4997 72.2227 60.1769 75.1341 57.9442 74.4449C55.7018 73.7527 56.2702 71.1043 54.6108 69.4449C54.1035 68.9376 53.527 68.6299 52.9442 68.3857M63.4997 72.2227V64.445M63.4997 72.2227C63.4997 72.2227 66.6458 75.2796 69.0553 75C72.1183 74.6445 72.0455 71.2275 74.0553 68.8889M63.4997 72.2227V58.6116M63.4997 45.0004C63.4997 45.0004 60.3536 41.943 57.9442 42.2227C54.8812 42.5781 54.9539 45.9952 52.9442 48.3338M63.4997 45.0004V58.6116M63.4997 45.0004C63.4997 45.0004 66.8225 42.0886 69.0553 42.7778C71.2976 43.47 70.7292 46.1184 72.3886 47.7778C72.8959 48.2851 73.4724 48.5928 74.0553 48.8369M63.4997 45.0004V52.7777M52.9442 48.3338C51.0417 50.5475 48.2877 50.9907 47.9442 53.8893C47.7736 55.3286 48.5517 56.248 49.3309 57.2228M52.9442 48.3338C52.9442 48.3338 54.7466 50.2338 56.2776 50.5561C57.1268 50.7349 58.4998 50.5561 58.4998 50.5561M49.3309 57.2228C49.961 58.0111 50.5918 58.8355 50.7219 60.0004C50.9912 62.4111 48.6387 63.8892 49.6108 66.1116C50.2638 67.6043 51.6204 67.8312 52.9442 68.3857M49.3309 57.2228H56.2776M52.9442 68.3857L54.6108 65.0005M63.4997 58.6116C63.4997 58.6116 60.436 57.5597 59.0554 58.6116C57.2433 59.9921 57.2433 63.0644 59.0554 64.445C60.436 65.4968 63.4997 64.445 63.4997 64.445M63.4997 58.6116V64.445M63.4997 58.6116C63.4997 58.6116 66.5634 59.6629 67.944 58.6111C69.7561 57.2305 69.7561 54.1583 67.944 52.7777C66.5634 51.7259 63.4997 52.7777 63.4997 52.7777M63.4997 58.6116V52.7777M74.0553 68.8889C75.9577 66.6752 78.7117 66.2319 79.0553 63.3333C79.2258 61.894 78.4477 60.9746 77.6685 59.9999M74.0553 68.8889C74.0553 68.8889 72.2528 66.9889 70.7218 66.6666C69.8726 66.4878 68.4996 66.6666 68.4996 66.6666M77.6685 59.9999C77.0384 59.2116 76.4076 58.3871 76.2775 57.2222C76.0082 54.8116 78.3607 53.3335 77.3886 51.1111C76.7356 49.6183 75.379 49.3915 74.0553 48.8369M77.6685 59.9999H70.7218M74.0553 48.8369L72.3886 52.2221" stroke="#333333" stroke-width="2"/>
<circle cx="72.3887" cy="11.6667" r="6.22222" stroke="#333333" stroke-width="2"/>
<circle cx="112.389" cy="22.7778" r="6.22222" stroke="#333333" stroke-width="2"/>
<circle cx="119.056" cy="56.1111" r="6.22222" stroke="#333333" stroke-width="2"/>
<circle cx="107.944" cy="72.7778" r="6.22222" stroke="#333333" stroke-width="2"/>
<circle cx="81.8332" cy="104.444" r="5.66667" stroke="#333333" stroke-width="2"/>
<circle cx="60.7218" cy="111.111" r="5.66667" stroke="#333333" stroke-width="2"/>
<circle cx="24.0558" cy="100" r="5.66667" stroke="#333333" stroke-width="2"/>
<circle cx="8.50016" cy="62.2222" r="5.66667" stroke="#333333" stroke-width="2"/>
<circle cx="19.6115" cy="43.3333" r="5.66667" stroke="#333333" stroke-width="2"/>
<circle cx="45.7217" cy="11.6667" r="6.22222" stroke="#333333" stroke-width="2"/>
</svg>
