<svg width="51" height="55" viewBox="0 0 51 55" fill="none" xmlns="http://www.w3.org/2000/svg">
<path d="M17.4908 27.292C17.4908 31.8459 13.7992 35.5375 9.24541 35.5375C4.6916 35.5375 1 31.8459 1 27.292C1 22.7382 4.6916 19.0466 9.24541 19.0466C13.7992 19.0466 17.4908 22.7382 17.4908 27.292ZM49.034 9.34502C49.034 13.8988 45.3424 17.5904 40.7886 17.5904C36.2348 17.5904 32.5432 13.8988 32.5432 9.34502C32.5432 4.79121 36.2348 1.09961 40.7886 1.09961C45.3424 1.09961 49.034 4.79121 49.034 9.34502ZM49.034 45.239C49.034 49.7928 45.3424 53.4844 40.7886 53.4844C36.2348 53.4844 32.5432 49.7928 32.5432 45.239C32.5432 40.6852 36.2348 36.9936 40.7886 36.9936C45.3424 36.9936 49.034 40.6852 49.034 45.239Z" stroke="#333333" stroke-width="2"/>
<path d="M16.3164 23.4849L33.7195 12.6079M16.3164 31.0987L33.7195 41.9757" stroke="#333333" stroke-width="2" stroke-linejoin="round"/>
</svg>
