<svg width="61" height="49" viewBox="0 0 61 49" fill="none" xmlns="http://www.w3.org/2000/svg">
<path d="M0 47.2824H9.59551M61 47.2824H49.3483M9.59551 47.2824V33.542V31.1069M9.59551 47.2824H13.7079H33.2416H37.6966M9.59551 31.1069H6.85393V26.2977H11.6517M9.59551 31.1069H37.6966M41.1236 26.2977V31.1069H37.6966M41.1236 26.2977H27.4157M41.1236 26.2977L47.9775 18.4275C47.9775 18.4275 48.9653 17.4769 48.8705 16.3664M37.6966 31.1069V33.542M37.6966 47.2824V38.3512M37.6966 47.2824H44.8933M37.6966 33.542C37.6966 33.542 44.2079 33.542 46.6067 33.542C49.3921 33.542 49.3567 24.8139 49.1067 19.8015M37.6966 33.542V38.3512M11.6517 26.2977C11.6517 26.2977 11.6517 22.8931 11.6517 20.4886C11.6517 18.084 18.5056 17.0534 18.5056 17.0534M11.6517 26.2977H27.4157M18.5056 17.0534C18.5056 17.0534 19.5337 19.458 21.5899 19.458C23.6461 19.458 24.6742 17.0534 24.6742 17.0534M18.5056 17.0534V14.3359M24.6742 17.0534C24.6742 17.0534 31.1854 18.4275 31.1854 20.4886C31.1854 21.5191 31.1854 21.8626 31.1854 21.8626M24.6742 17.0534V14.3359M31.1854 21.8626H27.4157V26.2977M31.1854 21.8626H38.382L44.8933 15.6794C44.8933 15.6794 47.7348 13.9618 48.6629 15.6794C48.7879 15.9106 48.8514 16.1418 48.8705 16.3664M48.8705 16.3664C48.8705 16.3664 49.006 17.7825 49.1067 19.8015M49.1067 19.8015H54.1461C54.1461 19.8015 56.2022 38.3512 49.691 38.3512C49.2695 38.3512 48.8084 38.3512 48.3202 38.3512M37.6966 38.3512C37.6966 38.3512 40.6384 38.3512 43.8652 38.3512M43.8652 38.3512L44.8933 47.2824M43.8652 38.3512C45.3789 38.3512 46.9553 38.3512 48.3202 38.3512M44.8933 47.2824H49.3483M48.3202 38.3512L49.3483 47.2824M45.236 2.28244V2.28244C42.397 2.28244 40.0955 4.5839 40.0955 7.42289V9.85193C40.0955 12.6909 42.397 14.9924 45.236 14.9924V14.9924C48.0749 14.9924 50.3764 12.6909 50.3764 9.85193V7.42289C50.3764 4.5839 48.0749 2.28244 45.236 2.28244ZM26.7303 9.22597V7.14045C26.7303 4.30146 24.4289 2 21.5899 2V2C18.7509 2 16.4494 4.30146 16.4494 7.14045V9.22597C16.4494 12.065 18.7509 14.3664 21.5899 14.3664V14.3664C24.4289 14.3664 26.7303 12.065 26.7303 9.22597Z" stroke="#333333" stroke-width="3"/>
</svg>
