<svg width="54" height="56" viewBox="0 0 54 56" fill="none" xmlns="http://www.w3.org/2000/svg">
<path d="M23 32.9844L42.6333 12.3742M42.6333 12.3742V6.80817C42.6333 6.55136 42.7321 6.30438 42.9093 6.11843L46.0759 2.79421C46.6985 2.14064 47.8 2.5813 47.8 3.48395V5.95048C47.8 6.50276 48.2477 6.95048 48.8 6.95048H51.6663C52.5455 6.95048 52.9968 8.00359 52.3903 8.64022L49.1289 12.0639C48.9401 12.2621 48.6785 12.3742 48.4048 12.3742H42.6333Z" stroke="#333333" stroke-width="2" stroke-linejoin="round"/>
<path d="M36.5259 15.8585C35.5585 15.0505 34.5198 14.3269 33.4218 13.6983C29.8928 11.6779 25.7507 10.6376 21.389 10.9229C9.57618 11.6955 0.626304 21.898 1.39889 33.7108C2.17148 45.5236 12.374 54.4734 24.1868 53.7009C35.9996 52.9283 44.9495 42.7258 44.1769 30.913C43.9514 27.4656 42.9228 24.2621 41.2855 21.4729" stroke="#333333" stroke-width="2"/>
<path d="M23 18.9844C15.268 18.9844 9 25.0285 9 32.4844C9 39.9402 15.268 45.9844 23 45.9844C30.732 45.9844 37 39.9402 37 32.4844C37 30.5027 36.5572 28.6208 35.7618 26.9256" stroke="#333333" stroke-width="2"/>
<path d="M23 29.9844C21.3431 29.9844 20 31.3275 20 32.9844C20 34.6412 21.3431 35.9844 23 35.9844C24.6569 35.9844 26 34.6412 26 32.9844C26 32.544 25.9051 32.1258 25.7347 31.7491" stroke="#333333" stroke-width="2"/>
</svg>
