<svg width="71" height="95" viewBox="0 0 71 95" fill="none" xmlns="http://www.w3.org/2000/svg">
<g clip-path="url(#clip0_422_1435)">
<path d="M48.5627 31.5684H26.8289V34.5468H48.5627V31.5684Z" fill="url(#paint0_linear_422_1435)"/>
<path d="M7.32105 56.7641C7.32105 56.7641 8.41014 55.6768 9.78319 57.6624C10.4458 58.6552 11.6774 61.4913 12.7186 61.9171C13.0504 62.0594 14.2342 62.2006 14.7075 60.0738C15.37 56.8597 14.8021 54.9686 12.7186 51.5644C9.07271 45.7032 5.47361 43.1973 5.80546 39.8887L2.77539 46.7427C2.77539 46.7427 1.9235 48.7283 4.48029 52.7462C5.90011 54.9208 7.32105 56.7641 7.32105 56.7641Z" fill="url(#paint1_linear_422_1435)"/>
<path d="M6.65852 37.9967C6.65852 37.9967 8.07945 36.0589 9.49927 38.517C10.2565 39.7933 10.0672 41.9679 12.1039 43.2909C13.0037 43.8579 14.0449 42.8651 14.1396 42.3926C14.3289 41.3998 14.4714 39.084 13.0037 36.8616C12.0572 35.443 10.7309 34.687 10.7788 34.498C10.7788 34.498 7.60617 32.2289 6.61174 31.8031C5.61731 31.3773 3.77098 31.2361 3.24982 32.2289C2.91797 32.9382 2.91798 34.4035 4.67076 36.0578C6.0427 37.383 6.65852 37.9967 6.65852 37.9967Z" fill="url(#paint2_linear_422_1435)"/>
<path d="M17.6908 32.3243C19.6797 34.0731 21.8099 34.3566 21.8099 34.3566L21.6206 34.1676C21.9046 34.5456 26.8289 34.1676 26.8289 34.1676C26.8289 34.1676 23.183 33.6006 19.7264 27.9272C17.4536 24.2395 15.8434 24.0038 15.418 24.0983L9.07275 25.8004C9.07275 25.8004 10.3512 25.7526 12.7665 27.7382C16.0806 30.481 15.8912 30.7167 17.6908 32.3243Z" fill="url(#paint3_linear_422_1435)"/>
<path d="M11.5348 44.4735C8.83543 42.4879 8.88332 40.5501 8.59935 39.7463C8.2675 38.8013 7.41561 38.0442 7.13165 38.9425C6.51583 41.1171 11.2987 47.0261 11.2987 47.0261L13.145 44.8515C12.4345 45.0405 11.8666 44.757 11.5348 44.4735Z" fill="url(#paint4_linear_422_1435)"/>
<path d="M9.64185 60.3096C8.22091 57.8037 7.74764 57.757 7.13183 58.0405C6.89464 58.1828 7.79441 60.4041 9.02604 62.0117C10.2577 63.666 12.2454 64.8478 12.2454 64.9423C12.2454 65.2258 13.4292 63.477 13.4292 63.477C12.1508 63.666 10.967 62.7199 9.64185 60.3096Z" fill="url(#paint5_linear_422_1435)"/>
<path d="M6.65841 71.9384C5.99583 74.1597 4.10161 75.0113 4.29092 75.3415C4.52812 75.814 5.75863 76.7123 7.13169 75.2937C8.50474 73.8284 9.02589 73.1191 9.78313 72.4576C11.0615 71.4181 12.4346 71.5593 12.8132 72.4576C12.8132 72.4576 12.9078 70.6143 12.6707 69.2435C12.2442 66.6431 11.0136 65.9349 9.30875 64.2328C5.61498 60.4984 6.08937 58.6551 6.23079 57.8979L3.34326 63.0032C3.34326 63.0032 2.53814 65.5558 4.7642 67.4469C6.98914 69.338 7.03703 70.6143 6.65841 71.9384Z" fill="url(#paint6_linear_422_1435)"/>
<path d="M10.0205 73.593C8.97928 74.5858 8.03163 76.2879 6.6118 76.9016C5.28552 77.4685 4.57617 76.6647 4.57617 76.6647L6.51715 80.2568C6.51715 80.2568 9.73653 78.508 11.1575 76.3801C12.4359 74.3945 12.2465 73.5907 12.2465 73.5907C11.8189 73.2149 10.967 72.6946 10.0205 73.593Z" fill="url(#paint7_linear_422_1435)"/>
<path d="M10.6351 86.498C13.1919 84.4657 14.6596 81.6763 14.6596 81.6763L13.0494 74.2075C13.0494 74.2075 12.8122 75.247 12.3868 76.2398C11.5349 78.2254 9.07276 80.0687 6.32554 81.7708C3.53156 83.4729 3.39014 85.931 3.39014 85.931L3.57945 94.4405C4.24314 91.7444 8.07833 88.5303 10.6351 86.498Z" fill="url(#paint8_linear_422_1435)"/>
<path d="M11.8187 30.7642C13.5236 31.757 13.2864 32.9388 13.2864 32.9388L15.3221 31.6147C12.008 27.8325 9.64055 26.793 8.93008 26.6985C8.55146 26.6507 8.0303 26.2727 8.0303 27.4078C7.98353 28.7786 10.1149 29.7714 11.8187 30.7642Z" fill="url(#paint9_linear_422_1435)"/>
<path d="M10.635 31.5205C9.92453 31.1425 7.79425 29.8662 7.79425 29.8662C7.79425 29.8662 5.61607 30.7645 5.85326 30.7645C8.36328 30.6222 10.1617 33.4116 11.772 33.4116C12.4346 33.4116 11.6294 32.0408 10.635 31.5205Z" fill="url(#paint10_linear_422_1435)"/>
<path d="M10.2097 92.4074C9.5939 92.0761 9.26316 91.6514 9.26316 91.6514L5.42798 93.637C6.56384 93.4002 7.65292 93.5425 8.41127 93.9683C9.64289 94.6298 9.87898 95.1979 10.8734 95.3391C12.0572 95.5281 12.4837 94.9133 12.5783 94.4408C12.6719 93.4947 11.2041 92.9266 10.2097 92.4074Z" fill="url(#paint11_linear_422_1435)"/>
<path d="M10.1618 88.8619C10.1618 88.8619 9.16735 89.9492 10.2564 90.753C11.3455 91.5568 13.0972 92.1716 13.6184 92.8798C14.3288 93.7781 13.8555 94.5819 12.9079 95.5747L16.5538 93.0688C16.6017 93.021 14.6607 88.7195 10.1618 88.8619Z" fill="url(#paint12_linear_422_1435)"/>
<path d="M21.2888 92.076C19.0639 90.8464 18.8267 90.2327 18.6374 89.4756C18.2588 87.9157 20.4369 87.2543 20.4369 87.2543C16.6018 84.8428 15.9392 85.6 15.9392 85.6L11.0149 87.8212C11.1095 87.8212 11.3935 87.8691 12.4358 88.1047C14.1407 88.4361 16.6496 89.8069 17.692 92.5485C18.7332 95.2901 22.4737 95.9994 22.4737 95.9994C22.4737 95.9994 23.5149 95.1956 23.4681 94.6753C23.467 94.3451 23.8935 93.4946 21.2888 92.076Z" fill="url(#paint13_linear_422_1435)"/>
<path d="M20.7687 88.3413C20.5315 88.3413 20.1061 88.5303 20.2008 89.1918C20.438 90.4681 22.2843 91.1296 23.5627 91.7922C24.8411 92.4548 25.0304 93.4465 24.7464 94.2036C24.5571 94.8184 24.4146 94.9129 24.4146 94.9129L26.9246 92.8328C26.9235 92.8317 23.2776 88.6248 20.7687 88.3413Z" fill="url(#paint14_linear_422_1435)"/>
<path d="M63.9513 51.2811C61.8678 54.6842 60.6372 56.4341 61.2998 59.6482C61.7731 61.775 62.5782 62.1063 62.9101 61.964C63.9513 61.5382 65.135 58.7021 65.8455 57.7093C67.1718 55.7715 68.3076 56.811 68.3076 56.811C68.3076 56.811 67.2664 56.0072 70.2018 52.4151C73.8009 48.0659 72.4747 45.7501 72.4747 45.7501L69.8232 39.9355C70.1061 43.1975 67.5025 45.4188 63.9513 51.2811Z" fill="url(#paint15_linear_422_1435)"/>
<path d="M64.7554 34.5467C64.8033 34.689 63.477 35.4917 62.5304 36.9103C61.1095 39.1316 61.2042 41.4952 61.3946 42.4413C61.4892 42.8671 62.5304 43.9066 63.4302 43.3396C65.4659 42.0155 65.2766 39.842 66.0349 38.5657C67.4558 36.1076 68.8757 38.0454 68.8757 38.0454C68.8757 38.0454 69.4915 37.3839 70.8166 36.1076C72.5683 34.4533 72.5683 32.988 72.2376 32.2787C71.7643 31.2859 69.8701 31.4282 68.8757 31.8529C67.928 32.2298 64.7554 34.5467 64.7554 34.5467Z" fill="url(#paint16_linear_422_1435)"/>
<path d="M54.1027 34.1207H54.7185C54.7185 34.1207 55.5704 34.2152 57.9379 32.3241C60.1628 30.5753 59.5002 30.4808 62.8154 27.7392C65.2307 25.7536 66.5091 25.8014 66.5091 25.8014L60.1639 24.0993C59.7853 24.0515 57.9857 24.8086 55.8555 27.9282C52.6829 32.6554 48.8477 34.3097 48.8477 34.3097C48.8477 34.3097 54.1973 34.0729 54.1027 34.1207Z" fill="url(#paint17_linear_422_1435)"/>
<path d="M68.4492 38.9426C68.0227 38.1388 67.3133 38.8481 66.9815 39.7464C66.6975 40.5502 66.6975 42.488 64.0461 44.4736C63.7142 44.7104 63.1463 45.0406 62.4358 44.8049L64.8512 47.7833C64.8512 47.83 69.9169 41.6842 68.4492 38.9426Z" fill="url(#paint18_linear_422_1435)"/>
<path d="M65.9391 60.3096C64.6128 62.721 63.429 63.666 62.1506 63.477C62.1506 63.477 63.6662 65.3681 63.9502 65.4148C64.4713 65.5093 65.7965 63.855 67.1696 62.2952C68.8745 60.3096 68.6373 58.1828 68.448 58.0883C67.8333 57.757 67.36 57.757 65.9391 60.3096Z" fill="url(#paint19_linear_422_1435)"/>
<path d="M69.7754 58.3706C69.9179 59.1266 71.007 60.3084 66.4613 64.7999C64.7097 66.502 63.7152 68.1563 63.3366 70.0941C63.0994 71.4649 63.3366 72.3632 63.3366 72.3632C63.7152 71.4649 64.5683 71.4649 65.8466 72.5055C66.6039 73.167 67.125 73.8763 68.4981 75.3416C69.8711 76.8069 70.6763 75.5306 70.9135 75.0581C71.1028 74.7268 68.9725 75.5306 68.1195 72.4577C67.8355 71.3704 68.1674 70.0463 70.3444 68.014C72.8544 65.6504 72.0014 62.5308 72.0014 62.5308L69.7754 58.3706Z" fill="url(#paint20_linear_422_1435)"/>
<path d="M69.1117 80.2578L71.0527 76.6657C71.0527 76.6657 70.3422 77.4695 69.017 76.9025C67.5961 76.2877 66.6017 74.5867 65.6084 73.5939C64.6618 72.6489 63.8088 73.1681 63.3834 73.5461C63.3834 73.5461 63.1941 74.3499 64.4725 76.3355C65.8444 78.4612 69.1117 80.2578 69.1117 80.2578Z" fill="url(#paint21_linear_422_1435)"/>
<path d="M69.2541 81.723C66.4134 80.3044 64.0927 78.1776 63.1929 76.192C62.7664 75.1992 62.5303 74.1597 62.5303 74.1597L61.1094 80.589C60.9201 82.1488 61.7252 84.1344 64.9925 85.8365C68.0704 87.4441 71.1484 90.1379 71.8109 92.785L72.4268 85.4574C72.4268 85.5052 71.5737 82.9048 69.2541 81.723Z" fill="url(#paint22_linear_422_1435)"/>
<path d="M60.3054 31.6149L62.341 32.939C62.341 32.939 62.1039 31.7572 63.8088 30.7644C65.5137 29.7716 67.644 28.7788 67.644 27.408C67.644 26.274 67.076 26.652 66.7442 26.6987C65.9869 26.841 63.6195 27.8338 60.3054 31.6149Z" fill="url(#paint23_linear_422_1435)"/>
<path d="M63.8089 33.4116C65.4191 33.4116 67.2176 30.6222 69.7276 30.7645C69.9169 30.7645 67.7866 29.8662 67.7866 29.8662C67.7866 29.8662 66.5082 30.5755 64.9459 31.5205C63.9982 32.0886 63.1463 33.4116 63.8089 33.4116Z" fill="url(#paint24_linear_422_1435)"/>
<path d="M65.4191 92.407C64.3779 92.9273 62.9091 93.4943 63.0516 94.4393C63.0995 94.9118 63.5728 95.5266 64.7565 95.3376C65.751 95.1486 65.9882 94.6283 67.2187 93.9668C67.9759 93.541 69.1129 93.3998 70.202 93.6355L66.3668 91.6499C66.3189 91.6499 65.987 92.0757 65.4191 92.407Z" fill="url(#paint25_linear_422_1435)"/>
<path d="M61.9625 92.8319C62.4837 92.1704 64.2354 91.5556 65.3244 90.7051C66.4135 89.9013 65.4191 88.814 65.4191 88.814C60.9213 88.6717 58.9792 92.9742 58.9792 92.9742L62.6251 95.4801C61.7253 94.534 61.2521 93.7302 61.9625 92.8319Z" fill="url(#paint26_linear_422_1435)"/>
<path d="M63.1462 88.0581C64.1874 87.8691 64.4725 87.7746 64.5671 87.7746L59.6429 85.5533C59.6429 85.5533 58.9803 84.7973 55.1451 87.2076C55.1451 87.2076 57.3232 87.8224 56.9446 89.4289C56.7553 90.1849 56.5181 90.8475 54.2932 92.0293C52.0682 93.1633 51.8778 93.6369 52.115 94.6297C52.3043 95.4802 53.1094 95.9538 53.1094 95.9538C53.1094 95.9538 56.8979 95.2923 57.8912 92.5029C58.9324 89.7602 61.4892 88.4361 63.1462 88.0581Z" fill="url(#paint27_linear_422_1435)"/>
<path d="M52.0194 91.7922C53.2978 91.1307 55.0973 90.4681 55.3813 89.1918C55.5238 88.577 55.0494 88.3413 54.8133 88.3413C52.3033 88.6248 48.7053 92.785 48.7053 92.785L51.1675 94.9118C51.1675 94.9118 51.0249 94.8173 50.8356 94.2025C50.5517 93.4465 50.741 92.4537 52.0194 91.7922Z" fill="url(#paint28_linear_422_1435)"/>
<path d="M49.7463 90.1849C52.351 87.7268 54.8132 87.2543 54.8132 87.2543C54.8132 87.2543 49.7463 85.6467 48.6105 85.411C47.4746 85.1742 46.1005 85.5533 43.6862 87.8691C40.3722 90.9887 37.8154 90.5162 37.8154 90.5162C37.8154 90.5162 35.0214 90.942 31.9446 87.8691C29.5771 85.5055 28.1094 85.1742 27.0203 85.411C25.8844 85.6478 20.8176 87.2543 20.8176 87.2543C20.8176 87.2543 23.2798 87.7268 25.8844 90.1849C28.5838 92.6908 31.4245 96.5664 37.8165 96.5664C44.8689 96.5664 47.047 92.6908 49.7463 90.1849Z" fill="url(#paint29_linear_422_1435)"/>
<path d="M37.1987 89.0032L36.4882 86.1193C36.4882 86.0248 35.8724 83.7079 33.7421 83.7079H20.8156C17.5015 83.7079 15.0862 81.3921 15.0862 78.2247V33.9321H59.1686V78.4626C59.1686 81.4877 56.6118 83.7101 53.1073 83.7101H40.4659C38.2877 83.7101 37.8145 85.9792 37.7666 86.0737L37.1987 89.0032Z" fill="url(#paint30_linear_422_1435)"/>
<path d="M35.5882 50.3831L35.3989 50.4776L35.4468 50.3352C35.2575 50.1929 34.5002 50.0518 34.1684 49.9573C33.6951 49.8628 33.6472 49.8628 33.6472 49.7204V49.6259H33.7419C34.2631 49.5781 34.5938 49.4836 34.7363 49.4369C34.0259 49.3424 32.9847 48.9644 32.9368 48.7276V48.6331L33.0314 48.5853C33.1261 48.5375 33.174 48.5375 33.2207 48.5375C32.7942 48.4897 32.4635 48.1595 32.1795 47.876C31.753 47.4035 31.3276 47.2612 30.4279 47.498L30.2853 47.2612L30.2374 47.1667C30.1896 47.0244 30.1896 47.0244 30.6639 46.8832C30.8532 46.8354 31.0904 46.6942 31.3265 46.6464C30.9479 46.5519 30.7586 46.3629 30.5693 46.3151C30.2374 46.1728 30.0481 46.1728 28.7697 46.5986L28.4858 46.4563C29.4323 45.747 29.812 44.9432 29.812 44.6597C29.7174 44.7542 29.5281 44.8487 29.2909 44.991C29.1016 45.0855 28.0593 45.1333 27.8232 44.991C27.6339 44.8965 27.586 44.5652 27.586 44.3295C27.302 44.3773 26.8288 44.802 26.5448 45.1333L26.4501 45.2278L25.7397 44.424L25.1717 45.0388H24.5092L25.0303 45.9371L24.6985 45.8426C24.4145 45.7481 23.8466 45.6536 23.6573 45.7481L23.6094 45.7959C24.4613 46.2684 24.4145 46.3629 24.4145 46.4574C24.4145 46.5052 24.3666 46.5519 24.2252 46.5519C23.8933 46.5519 23.7519 46.6942 23.5626 46.8354C23.4201 46.9777 23.2308 47.1189 22.9468 47.1667C23.1361 47.4035 23.6573 47.6392 24.1784 47.6392C24.7463 47.687 24.9357 47.6392 24.9835 47.6392L25.1261 47.5914L25.2207 47.7804L25.2686 47.6859C25.2207 47.7337 25.1261 47.8282 24.1795 47.9227C23.5169 47.9705 22.9011 47.5914 22.7118 47.3079C22.6172 47.1656 22.6172 47.0711 22.6639 47.0244L22.7118 46.9299H22.8065C23.0904 46.9299 23.2798 46.7876 23.4223 46.6464C23.5648 46.5041 23.7541 46.3629 24.0381 46.3151C23.8956 46.2206 23.6595 46.0783 23.4223 45.9838L23.3276 45.936V45.8415C23.3276 45.6992 23.4223 45.6047 23.5169 45.5102C23.7541 45.3679 24.1795 45.4157 24.4635 45.4624L24.037 44.7531L25.0314 44.7053L25.694 43.9493L26.4045 44.7053C26.6417 44.4218 27.2564 43.807 27.6829 43.9493L27.7775 43.9971V44.0916C27.7775 44.3284 27.8254 44.5641 27.8722 44.6119C28.0147 44.6597 28.9613 44.6597 29.1038 44.6119C29.4357 44.4696 29.6717 44.2806 29.7196 44.2339L29.7675 43.9504L29.9568 44.1872C29.9568 44.235 30.2887 44.7542 29.4835 45.6058C30.0993 45.369 30.3833 45.5113 30.7152 45.7481C30.9524 45.8904 31.1884 46.0794 31.7564 46.0794H31.851L31.8989 46.2217C31.8989 46.3162 31.8989 46.364 31.1884 46.6475C31.7096 46.742 32.0882 47.12 32.4201 47.4513C32.7519 47.7826 32.988 48.0661 33.4145 48.0661C33.6038 48.0661 33.841 48.2085 33.841 48.2085C33.841 48.2085 33.6517 48.4453 33.4145 48.5864C33.7931 48.7754 34.5504 49.0589 35.1662 49.0589H35.2608V49.1534C35.2608 49.1534 35.2608 49.2479 35.2129 49.2958C35.1183 49.4381 34.8811 49.5326 34.4557 49.6271C35.2129 49.8161 35.5916 49.9106 35.6873 50.0996C35.7352 50.1474 35.6394 50.1474 35.6394 50.1941L35.5882 50.3831Z" fill="white"/>
<path d="M35.4469 53.6916L35.2576 53.5026L36.8667 51.895L37.056 52.084L35.4469 53.6916Z" fill="#721521"/>
<path d="M33.6474 68.11L33.2688 62.9092H33.7421L33.9793 68.0622L34.3579 68.3457L33.8846 69.8588L33.3635 68.3457L33.6474 68.11Z" fill="url(#paint31_linear_422_1435)"/>
<path d="M36.5827 5.52104C36.4402 5.37873 36.3455 5.18973 36.3455 5.00073C36.3455 4.81173 36.4402 4.62274 36.5348 4.48043C36.6774 4.33812 36.8667 4.24362 37.056 4.24362C37.2453 4.24362 37.4346 4.33812 37.5771 4.43262C37.7197 4.57493 37.7665 4.76393 37.7665 4.95293C37.7665 5.14193 37.6718 5.37873 37.5293 5.47323C37.3867 5.61554 37.2453 5.66223 37.056 5.66223C36.8667 5.71115 36.6774 5.61554 36.5827 5.52104ZM36.4881 4.38704L34.1685 4.00904V5.94684L36.5838 5.52104H36.4892L36.1106 7.93245H38.0048L37.6261 5.52104L39.9457 5.89904V4.00904L37.6261 4.38704L38.0048 2.02344H36.1106L36.4881 4.38704Z" fill="url(#paint32_linear_422_1435)"/>
<path d="M37.056 25.0448C37.0081 25.0448 36.9613 25.0448 36.9613 24.997C33.7887 20.7901 30.664 15.7794 33.5994 10.8632C33.6473 10.8153 33.6941 10.7687 33.742 10.8153C36.1094 11.5246 35.4468 14.6921 36.1094 16.3931C36.1573 15.7316 35.5415 11.429 36.9613 10.862C37.0092 10.8142 37.056 10.8142 37.056 10.8142H37.1039C38.4302 11.1455 38.2876 15.5881 38.3355 16.2974C38.8088 14.7376 38.0983 12.3262 40.419 10.8142C40.4669 10.7664 40.5616 10.8142 40.5616 10.862C43.497 15.6838 40.5137 20.6 37.1529 24.9959C37.1039 25.0448 37.1039 25.0448 37.056 25.0448Z" fill="url(#paint33_linear_422_1435)"/>
<path d="M35.967 26.2744H27.634C27.5862 26.2744 27.5862 26.2744 27.5394 26.2266C27.4915 26.1788 23.8935 23.3905 23.9414 18.521C23.9893 13.179 29.0082 11.0044 31.1385 11.0044C31.1864 11.0044 31.2331 11.0044 31.281 11.0044C31.3289 11.0044 31.3757 11.0522 31.3757 11.0989C31.3757 11.1467 31.3757 11.1934 31.3757 11.2412C31.3757 11.2412 29.8133 13.179 30.9024 17.576C31.849 21.4527 36.0639 25.9909 36.1107 26.0376C36.1574 26.0843 36.1585 26.1321 36.1585 26.1799C36.1574 26.2266 36.0149 26.2744 35.967 26.2744Z" fill="url(#paint34_linear_422_1435)"/>
<path d="M46.574 26.2744H38.241C38.1931 26.2744 38.1463 26.2266 38.0984 26.1799C38.0506 26.1321 38.0984 26.0854 38.1463 26.0376C38.1942 25.9898 42.408 21.4049 43.3546 17.576C44.4436 13.1323 42.8813 11.2412 42.8813 11.2412C42.8334 11.1934 42.8334 11.1467 42.8813 11.0989C42.8813 11.0511 42.9292 11.0044 42.9759 11.0044C43.0227 11.0044 43.0706 11.0044 43.1185 11.0044C45.202 11.0044 50.2677 13.179 50.3156 18.521C50.3635 23.3905 46.7644 26.2266 46.7165 26.2266C46.6207 26.2744 46.6207 26.2744 46.574 26.2744Z" fill="url(#paint35_linear_422_1435)"/>
<path d="M37.0559 30.717L33.8833 29.0149L37.0559 27.2661L37.1038 27.3139L40.1817 29.0627L37.0559 30.717Z" fill="#F58320"/>
<path d="M43.1639 30.1032C42.6428 30.1032 42.2642 29.6774 42.2642 29.2049C42.2642 28.6846 42.6907 28.3066 43.1639 28.3066C43.6851 28.3066 44.0637 28.7324 44.0637 29.2049C44.0637 29.6774 43.6851 30.1032 43.1639 30.1032Z" fill="#F58320"/>
<path d="M46.7151 30.1036C46.4779 30.1036 46.2418 30.0091 46.0525 29.8201C45.8632 29.6311 45.7686 29.4421 45.7686 29.1586C45.7686 28.6383 46.1951 28.2603 46.6683 28.2603C47.1895 28.2603 47.5681 28.6861 47.5681 29.1586C47.6149 29.6778 47.1895 30.1036 46.7151 30.1036Z" fill="#F58320"/>
<path d="M28.0604 30.1032C27.5393 30.1032 27.1606 29.6774 27.1606 29.2049C27.1606 28.6846 27.5871 28.3066 28.0604 28.3066C28.5816 28.3066 28.9602 28.7324 28.9602 29.2049C29.007 29.6774 28.5805 30.1032 28.0604 30.1032Z" fill="#F58320"/>
<path d="M31.5637 30.1036C31.3265 30.1036 31.0905 30.0091 30.9012 29.8201C30.7118 29.6311 30.6172 29.4421 30.6172 29.1586C30.6172 28.6383 31.0437 28.2603 31.517 28.2603C32.0381 28.2603 32.4167 28.6861 32.4167 29.1586C32.4635 29.6778 32.0849 30.1036 31.5637 30.1036Z" fill="#F58320"/>
<path d="M39.4715 45.1354C39.1875 44.9464 38.9503 44.3316 38.9036 44.2849L39.1408 44.1904C39.1887 44.3794 38.9036 44.9942 39.8034 44.9942L39.4715 45.1354Z" fill="#808080"/>
<path d="M25.1719 47.4042C24.84 46.8839 24.2253 46.6482 24.2253 46.6482L24.32 46.3169C24.3679 46.3169 24.9358 46.7427 25.3144 47.3564L25.1719 47.4042Z" fill="white"/>
<path d="M25.5982 47.1674C25.1717 46.0334 24.7463 45.8911 24.7463 45.8911L24.7942 45.6543C24.8421 45.6543 25.2675 45.7488 25.694 47.1196L25.5982 47.1674Z" fill="white"/>
<path d="M26.1185 46.8372C26.0706 46.7894 25.2187 45.7032 25.124 44.8994L25.408 44.6626C25.5026 45.4186 26.2131 46.7427 26.2131 46.7427L26.1185 46.8372Z" fill="white"/>
<path d="M50.4089 46.8373L47.0002 45.8445L47.2363 45.561L50.7408 46.3637L50.4089 46.8373Z" fill="#3166B1"/>
<path d="M56.3745 66.928C56.3266 66.7857 55.9959 65.8885 55.1907 65.5094C54.7175 65.2726 54.0549 65.2259 53.4391 65.3671C52.2553 65.6039 51.5927 66.6434 51.4502 67.6829C51.3556 68.5334 51.6395 69.385 51.8767 70.0943C52.5393 71.9376 52.9658 72.8837 52.2553 73.9232C51.4981 74.9627 49.272 74.4435 47.0939 73.0727C44.9636 71.7019 43.2108 71.2294 41.1752 71.5596C37.6239 72.1744 37.6718 74.3012 34.6885 74.727C33.742 74.7748 32.2732 74.8215 31.5638 74.16C32.1317 74.2078 32.9369 74.5858 33.4101 74.16L33.5527 74.1122C33.5527 74.1122 34.3578 74.1122 34.9736 73.7809L34.595 73.4496C34.595 73.4496 35.3055 73.6386 35.6841 72.9293C35.6841 72.9293 35.4948 72.598 35.5415 72.409C35.5894 72.2667 36.0627 71.7942 36.2041 71.653C36.3466 71.5107 37.2453 70.7547 38.3823 70.0454C38.3823 70.0454 38.193 69.714 37.9558 69.525C37.7665 69.3827 37.34 69.525 37.34 69.525C37.2921 69.4305 37.0081 69.0047 36.6774 69.0525C36.4402 69.1004 35.4936 69.5729 34.5939 69.9975C35.0671 69.4305 35.1618 69.0047 35.1618 69.0047L35.4458 69.147L35.3511 68.202L34.546 68.8169L34.8778 68.9114C34.6406 69.6207 34.2153 70.0454 33.8366 70.2822C33.5994 70.3767 33.4101 70.4712 33.2208 70.519C33.3155 70.0932 33.2687 69.6207 32.4636 69.2894C32.4636 69.2894 33.2208 70.519 31.2319 71.086C30.7587 70.8492 30.0482 70.4712 29.4803 70.3767C28.0593 70.0932 26.497 71.3695 26.2609 72.8348C26.1663 73.4496 26.1663 74.0644 26.3088 74.6781C25.693 74.3001 24.9825 73.8743 24.7464 73.7331C24.4146 73.4963 23.7052 73.3073 22.6629 73.4018C21.6217 73.4963 21.1952 73.8276 20.9112 74.0633H21.2899C21.2899 74.0633 20.9112 74.3946 20.7219 74.7726C20.7219 74.7726 21.3845 74.3468 21.8578 74.3468L21.6206 74.7726C21.6206 74.7726 21.9524 74.6781 22.3778 74.7248C22.8043 74.7726 23.2297 75.1506 23.5616 75.1028C23.8455 75.0549 23.8934 74.8193 24.0348 74.7714C24.1774 74.7236 24.4135 74.9138 24.7453 75.2439C25.0772 75.5741 26.497 76.9461 27.0649 76.9927C27.3489 76.9927 27.5861 76.9449 27.7754 76.8982C27.87 76.9461 27.9647 76.9461 28.1072 76.9461C28.1072 76.9461 28.1072 77.4186 27.9179 77.8444C27.9179 77.8444 27.0181 77.702 26.1663 77.6554C25.3144 77.6076 24.556 77.7977 24.3667 77.7977C24.0827 77.7977 23.6562 77.2774 22.1885 77.2774C21.0527 77.2774 20.1529 77.8922 20.1529 77.8922L21.0527 77.9867C21.0527 77.9867 20.0115 78.318 19.821 78.8372C19.821 78.8372 20.6729 78.5059 21.0527 78.5059C21.0527 78.5059 20.3422 78.9317 20.3422 79.4042C20.3422 79.4042 20.674 78.9784 21.242 78.9317C21.8099 78.8839 22.615 79.3097 22.9936 79.3097C23.7509 79.3575 23.9881 78.9317 24.0827 78.9784C24.2253 78.9784 24.9825 79.5932 26.6874 79.5932C28.4391 79.5932 28.6763 79.2619 29.2442 79.2619C29.86 79.2619 30.3801 79.4509 30.4758 79.4042C30.5705 79.3564 30.7598 78.9784 30.8545 78.4114V78.6004C30.8545 78.6004 35.0215 79.3097 37.3411 78.5059C40.6083 77.3241 40.9391 76.0944 41.0349 76.0477C41.1774 76.0477 41.3667 76.6147 42.7397 77.0406C43.5916 77.3241 44.35 77.4186 44.9647 77.3241C45.7219 77.2296 46.1963 77.2762 46.1963 77.891C46.1963 78.3635 45.6752 78.647 45.2498 78.6004C44.8233 78.5059 44.066 77.9855 43.2609 78.6004L44.0182 78.6949C44.0182 78.6949 43.2609 78.8372 43.0237 79.1674C43.0237 79.1674 43.7342 79.025 44.0182 78.9784C44.0182 78.9784 43.6395 79.2152 43.5449 79.3564C43.5449 79.3564 43.8767 79.2619 44.2075 79.3085C44.4914 79.3564 45.0126 79.6398 45.5337 79.6398C46.0549 79.6398 47.0961 79.214 47.7587 77.7487C47.7587 77.7487 47.0014 77.0394 47.0014 76.8504C47.0014 76.8504 46.7642 75.8109 47.1907 76.0466C48.1373 76.5191 49.3689 76.8504 50.458 76.8504C53.3466 76.8982 55.9981 74.7703 54.1039 71.3672C53.6306 70.5167 52.6362 68.9091 52.683 67.7751C52.7776 66.6411 53.5348 66.1208 54.2453 66.1675C54.9558 66.2153 55.2865 66.7345 55.2865 66.9713C55.2865 66.9713 54.5293 66.829 54.4346 67.5861C54.34 68.1531 55.0972 68.3899 55.4758 69.3349C55.4758 69.3349 56.0437 68.4844 56.2331 68.1053C56.517 67.7785 56.4224 67.117 56.3745 66.928ZM33.6473 71.9854C33.8366 71.8909 34.1685 71.8909 34.3099 71.8431C34.4524 71.7953 34.8311 71.5596 35.0671 71.5596C35.0671 71.5596 34.4992 72.3634 34.2153 72.5046C33.8834 72.6469 33.5994 72.7414 33.0315 72.5991C32.9369 72.6469 33.458 72.0799 33.6473 71.9854Z" fill="url(#paint36_linear_422_1435)"/>
<path d="M29.007 54.0696C27.3021 53.7861 26.782 52.2263 26.7341 52.1785L26.9713 52.084C26.9234 52.1318 27.5871 53.4081 29.1495 53.6438L29.007 54.0696Z" fill="white"/>
<path d="M27.6339 46.4594L27.4446 46.2704C27.4446 46.2226 27.4925 46.1281 27.5392 46.0336C27.7285 45.6078 28.1072 44.7573 28.8655 44.7573L29.1495 44.9941C28.2029 45.1364 27.6818 45.9391 27.4925 46.3649C27.4913 46.5061 27.6818 46.4116 27.6339 46.4594Z" fill="white"/>
<path d="M37.056 10.4382C36.5349 10.4382 36.1562 10.0124 36.1562 9.53991C36.1562 9.0196 36.5828 8.6416 37.056 8.6416C37.5772 8.6416 37.9558 9.06741 37.9558 9.53991C37.9558 10.0591 37.5304 10.4382 37.056 10.4382Z" fill="#FEBE10"/>
<path d="M39.0449 43.6699C39.0449 43.6699 39.2342 44.8039 40.0393 45.0407C40.2765 45.0885 39.0449 45.3242 39.0449 45.3242C38.7609 45.4665 38.8556 45.4187 38.7609 45.372C38.477 45.2775 38.3823 44.7572 38.3823 44.7572C38.6663 44.5682 39.0449 43.6699 39.0449 43.6699Z" fill="#EFB77F"/>
<path d="M34.6418 50.902C34.0739 50.4295 33.1263 50.4295 33.1263 50.4295L33.0784 50.2872C33.1263 50.2872 34.2621 50.0982 34.9726 50.713L34.6418 50.902Z" fill="white"/>
<path d="M32.6062 48.9176L32.4636 48.6808C32.6529 48.5385 33.1741 48.5385 33.4581 48.5863L33.4102 48.8698C33.1262 48.7753 32.7476 48.8231 32.6062 48.9176Z" fill="white"/>
<path d="M32.9847 49.8626H32.7954C33.1273 49.4846 33.7898 49.5313 33.8845 49.5791L33.7898 49.8159C33.6005 49.7681 33.174 49.6736 32.9847 49.8626Z" fill="white"/>
<path d="M33.3154 51.2811C33.5993 51.2333 33.8833 51.1866 33.9312 51.1866C33.9312 51.1866 33.41 50.4306 33.2207 49.957L32.5103 48.6807L32.6996 50.713C32.9368 50.6663 33.2207 50.6185 33.3154 51.2811Z" fill="white"/>
<path d="M25.0293 47.9248C24.4614 47.0265 23.2776 47.1688 23.2776 47.1688L23.2297 46.932C23.2776 46.932 24.4614 46.6952 25.1239 47.877L25.0293 47.9248Z" fill="white"/>
<path d="M26.6394 46.5062C25.9769 46.4117 25.6929 44.7096 25.645 44.3794L25.9769 44.5217C26.1183 45.2777 26.2608 46.4117 26.6394 46.5062Z" fill="white"/>
<path d="M27.9658 46.3639C27.8712 45.6079 29.5282 45.1821 29.7175 45.1343L29.5282 45.5123C29.007 45.5123 28.0126 45.9381 28.0605 46.3628H27.9658V46.3639Z" fill="white"/>
<path d="M29.5282 46.6482L29.4336 46.5537C29.4336 46.5537 30.0015 46.1279 31.0906 46.1279L31.4225 46.4592C30.3801 46.2691 29.5282 46.6482 29.5282 46.6482Z" fill="white"/>
<path d="M40.4658 80.0689C40.3712 79.8799 39.9925 79.7854 39.8032 79.3129C39.7086 78.9816 39.566 78.2734 39.6607 77.7998C39.6607 77.7998 39.5182 77.9888 38.8088 78.3201C38.193 78.6036 37.6729 78.7926 37.6729 78.7926C38.0994 79.1706 38.3834 79.9744 38.3834 79.9744C38.0516 79.8321 37.5783 79.8321 37.1997 79.8321C36.4892 79.7843 35.6841 80.1634 35.6841 80.2101L36.1106 80.2579C35.7787 80.5414 35.448 80.9672 35.448 80.9672C36.0159 80.6837 36.7264 80.4469 36.7264 80.4469C36.2052 80.7782 36.0638 81.4864 36.0638 81.4864C36.821 80.7771 37.5315 80.7771 38.1941 80.8249C38.8567 80.8727 39.4725 80.8727 40.0404 80.6826C40.5605 80.4947 40.5605 80.2579 40.4658 80.0689Z" fill="url(#paint37_linear_422_1435)"/>
<path d="M42.6907 54.1171C41.8856 53.5501 41.5548 52.6518 41.3644 52.3205C41.2219 52.0837 40.9858 51.3755 40.8911 50.7607C40.8432 50.4772 40.8911 49.7679 40.8432 49.4366C40.8432 49.0586 40.2753 48.9641 40.5114 48.4438C40.7486 47.8768 40.6539 47.3098 40.7007 46.884C40.7007 46.4582 40.2352 45.8478 39.9045 45.6588C39.5727 45.422 39.1862 45.2297 38.3332 45.7022C37.6383 45.9812 37.2931 45.3086 37.2931 45.3086C37.2931 45.3086 37.3399 45.4654 37.0548 45.4187C36.7709 45.3709 35.7286 46.0335 35.7286 46.0335C35.7286 46.0335 35.4446 46.7895 35.6807 47.4043C35.9179 48.0191 36.1072 47.8301 36.2486 47.8768C36.4379 47.8768 36.4379 48.3971 36.4379 48.9641C36.39 49.5311 37.0537 50.3827 37.1951 50.6184C37.3366 50.8541 37.1005 50.8552 36.9112 51.3277C36.7686 51.8002 34.8277 52.982 34.8277 52.982L35.6038 54.0782L35.2174 54.5151L35.2063 54.5407L33.7898 56.2439L34.9735 59.9783L35.3522 62.8144L34.8655 63.6615C34.8655 63.6615 34.4056 64.5154 35.4 64.2319C36.5359 63.9006 37.341 63.2391 37.341 63.2391L38.3355 62.9078L37.1517 60.3552L37.3889 57.8493L37.6729 56.4785C37.9101 56.7153 38.0994 56.9043 38.2408 56.9988C38.5248 57.2356 40.7029 56.6208 40.7029 56.6675C40.7029 56.7153 43.0225 54.3984 43.0225 54.3984C43.0225 54.3984 42.9746 54.3061 42.6907 54.1171Z" fill="url(#paint38_linear_422_1435)"/>
<path d="M35.2098 53.4546L34.2154 51.8003C33.6474 51.8948 33.9782 51.9426 33.6942 51.9426C33.5517 52.0849 33.4102 52.2261 33.2677 52.3206C33.1252 52.3684 32.9837 52.4629 32.7944 52.4629C32.7944 52.4629 32.8423 53.0299 32.937 53.9282C33.7421 53.9282 34.4047 53.7392 35.2098 53.4546Z" fill="white"/>
<path d="M35.2098 53.5493C34.31 53.9273 33.6942 54.1163 32.9849 54.2108C33.0795 55.3448 33.2221 56.8112 33.2688 57.5672C33.5528 57.4727 33.8368 57.3304 34.1207 57.2359C34.0261 56.9991 33.9314 56.6689 33.9782 56.4321C34.0728 55.8173 35.6831 54.0207 35.6831 54.0207L35.2098 53.5493Z" fill="white"/>
<path d="M35.6364 61.0657C35.3524 60.5454 34.7366 58.8911 34.4048 57.9928C34.3569 57.8505 34.2623 57.6148 34.1676 57.4258C33.8836 57.5203 33.5518 57.6626 33.2678 57.7571C33.2678 57.9461 33.3157 58.0884 33.3157 58.0884C33.4104 59.3647 33.7422 62.9579 33.7422 62.9579L35.4471 63.1947C35.4471 63.1947 35.8736 62.4387 36.015 62.2019C36.0629 62.0118 35.8257 61.4915 35.6364 61.0657Z" fill="white"/>
<path d="M37.9557 62.7681C37.861 62.8626 37.5292 63.0049 37.2931 63.0516C36.9613 63.0994 36.7252 63.2884 36.488 63.4774C36.2987 63.6197 36.1094 63.7609 35.9201 63.8554C35.6829 63.9499 35.3989 64.0922 35.1628 64.0922C35.0682 64.0922 34.9735 64.0444 34.9256 63.9977C34.8777 63.9499 34.8777 63.8554 34.9735 63.7609L35.0214 63.7131C35.1639 63.5708 35.2586 63.6653 35.4479 63.1461L35.0693 63.0038C34.9267 63.4763 34.9746 63.3818 34.88 63.5241C34.8321 63.5719 34.7853 63.6186 34.7853 63.6186C34.6907 63.8076 34.6907 63.9499 34.7374 64.1389C34.8321 64.2812 34.9746 64.3757 35.1639 64.3757H35.2118C35.4958 64.3279 35.7797 64.2334 36.0637 64.0922C36.3009 63.9977 36.537 63.8087 36.7263 63.6664C36.9635 63.4774 37.1528 63.3351 37.4368 63.2884C37.7686 63.2406 38.3833 63.0516 38.478 62.7681" fill="white"/>
<path d="M36.0627 42.8663C36.0627 42.8663 36.2521 43.3866 36.2521 43.5278C36.2999 43.6223 36.4892 43.8591 36.4892 43.8591C36.7264 44.0959 36.7732 44.2371 36.8679 44.4261C36.9625 44.6151 37.1051 44.8519 37.2465 44.8986C37.4837 45.2299 37.9091 45.1821 38.7621 43.8591C38.7621 43.8591 38.3835 42.535 38.4302 42.3938C38.4781 42.2515 36.0627 42.7718 36.0627 42.7718V42.8663Z" fill="#EFB77F"/>
<path d="M37.1986 44.615C37.2465 44.615 37.3411 44.615 37.3879 44.5672C37.4825 44.5194 37.5304 44.5672 37.5304 44.6617C37.4358 44.7562 37.3879 44.7562 37.2932 44.7095C37.2465 44.6628 37.2465 44.615 37.1986 44.615ZM37.1039 44.5683C37.2932 44.4738 37.4358 44.426 37.6718 44.3793C37.624 44.3793 37.6718 44.3315 37.624 44.2848C37.5293 44.2848 37.4346 44.2848 37.34 44.3326C37.2921 44.3326 37.2921 44.3804 37.2453 44.3804C37.0093 44.3793 37.0093 44.426 37.1039 44.5683ZM36.3467 43.1975C36.4892 43.1975 36.6785 43.1975 36.82 43.2453C36.9146 43.2453 36.9625 43.2931 36.9146 43.3876C36.9146 43.4354 36.9625 43.5299 36.9625 43.5766C37.0104 44.0024 36.9625 44.0024 36.82 43.6711C36.82 43.6233 36.7721 43.6233 36.7721 43.5766C36.6774 43.6244 36.5828 43.6711 36.4881 43.5766C36.536 43.5288 36.536 43.4343 36.5828 43.3876C36.5349 43.3876 36.4402 43.3876 36.3934 43.3876C36.3934 43.3387 36.3467 43.292 36.3467 43.1975ZM37.909 42.8662C37.7197 42.9607 37.4825 43.0552 37.3411 43.1497C37.2932 43.2442 37.2465 43.292 37.4358 43.3387C37.4836 43.4332 37.4836 43.481 37.5783 43.4332C37.673 43.3387 37.8155 43.3387 38.0048 43.2909C38.0527 43.2431 38.0527 43.1964 37.9101 43.1486C37.8155 43.1964 37.7208 43.2431 37.5783 43.2431C37.6262 43.1486 37.8155 43.0541 38.0048 43.0063C38.0037 42.9607 37.9558 42.914 37.909 42.8662Z" fill="#D63229"/>
<path d="M37.8611 56.5276C36.8667 56.1962 34.7831 54.7788 34.6885 54.7309L34.831 54.4941C34.831 54.4941 36.8254 55.6815 37.8199 56.0128L37.8611 56.5276Z" fill="white"/>
<path d="M37.4826 40.4559C37.4826 40.4559 37.7198 40.3136 37.7666 40.1246C37.9091 39.6521 37.6719 39.7933 37.3401 39.4631C38.5717 39.1318 39.5183 39.2741 40.0862 40.1724C40.4648 40.7872 40.4648 41.0707 40.418 42.158C40.3702 43.0563 40.8445 43.3876 41.3646 42.914C41.5539 42.6772 41.6964 42.3937 41.9325 42.2047C42.359 41.9212 42.7376 42.1102 42.8791 42.347C43.1163 42.7728 43.2109 43.292 43.9682 42.5838C43.9203 42.8206 43.4002 43.1986 43.0684 43.0563C42.8791 43.0085 42.7844 42.8195 42.7365 42.725C42.31 42.158 41.9314 43.0085 41.6474 43.292C41.0795 43.9068 40.1319 44.0013 39.8479 43.2442C39.6586 42.7239 39.8479 41.9679 39.4693 41.7311" fill="#BAC5CC"/>
<path d="M36.1094 42.8189C36.8198 42.9612 37.5303 42.7244 38.2397 42.3931C38.3343 43.2914 38.5715 44.0952 39.3287 44.1419C39.0916 43.6216 39.0916 43.0079 39.1394 42.3453C39.0916 41.3058 38.7608 40.5486 37.6717 40.502C36.5359 40.6454 36.1094 41.5426 36.1094 42.8189Z" fill="#BAC5CC"/>
<path d="M39.3288 44.2851C38.4769 44.1906 38.2397 43.3867 38.1451 42.5829C37.6239 42.7719 37.056 42.9609 36.5348 42.9609C36.3923 42.9609 36.2509 42.9609 36.1083 42.9131C36.0604 42.9131 36.0137 42.8653 36.0137 42.7708C36.0137 41.3055 36.5348 40.5017 37.6707 40.4072C38.7598 40.455 39.5649 41.2577 39.6117 42.534C39.517 43.2433 39.2798 43.6213 39.4691 44.0938C39.4691 44.1416 39.4691 44.1883 39.4691 44.2361C39.4235 44.2851 39.3767 44.2851 39.3288 44.2851Z" fill="#BAC5CC"/>
<path d="M32.4167 52.6519L32.8009 52.6852L33.7419 62.909L33.2208 63.0035L32.4167 52.6519Z" fill="#EB252C"/>
<path d="M32.1318 48.0659L32.5116 48.3027L32.7009 50.8553L32.4169 51.0443L32.1318 48.0659Z" fill="#EB252C"/>
<path d="M36.6463 63.4029C36.3145 62.7414 35.731 62.4368 35.731 62.4368V62.3423C35.7788 62.3423 36.5829 62.3423 36.9626 63.1928L36.6463 63.4029Z" fill="white"/>
<path d="M37.0561 59.6481C36.4402 58.9388 36.0616 58.7976 35.4937 58.9866H35.4458L35.3979 58.9388C35.3501 58.891 35.1607 58.513 34.7354 58.9388V58.7498C35.114 58.4663 35.3512 58.6075 35.5405 58.702C36.4402 58.4652 36.6296 58.5597 37.1975 59.0333L37.0561 59.6481Z" fill="white"/>
<path d="M36.536 49.9568C36.252 49.0585 36.2041 48.1135 36.3934 47.0729C36.4881 46.5526 36.9146 45.8911 37.0092 45.6543L37.2932 45.2285L37.3879 45.323C37.5772 45.6543 37.9558 45.6543 38.4291 45.512L38.3344 45.7955C37.8132 45.9845 37.5772 45.7477 37.2932 45.4642L37.1507 45.7955C37.056 46.0323 36.7242 46.646 36.6295 47.1196C36.4402 48.1124 36.5816 48.9162 36.8188 49.7667L36.536 49.9568Z" fill="#E4F0F6"/>
<path d="M38.0984 52.9354L36.4414 51.8003L36.7209 51.6035L38.0984 52.6519L39.898 51.9426L40.0394 52.1316L38.0984 52.9354Z" fill="#E4F0F6"/>
<path d="M38.0982 52.1317L37.0559 51.4224L37.1985 51.1855L38.0982 51.8482L39.5659 51.2289L39.6138 51.5169L38.0982 52.1317Z" fill="#E4F0F6"/>
<path d="M38.673 51.7136L38.4536 49.6568L38.7365 49.6279L38.9558 51.6858L38.673 51.7136Z" fill="#E4F0F6"/>
<path d="M54.9547 57.6624C55.8544 55.4878 55.9491 53.0297 53.2976 52.4627C51.1674 52.0847 50.0304 54.0703 49.6518 54.3538C49.2731 54.6373 49.1306 54.6851 49.1306 54.6851L49.5571 55.1576C50.7887 54.2593 53.2976 54.1181 52.919 56.2916C52.2086 58.892 51.6406 61.7748 53.9135 61.8693C53.487 61.349 53.5348 60.6875 53.7242 60.0727C54.1495 59.0799 54.8121 58.0404 54.9547 57.6624Z" fill="url(#paint39_linear_422_1435)"/>
<path d="M45.2954 65.3203C45.2954 65.0835 43.4491 64.233 42.7854 62.2007C42.7854 62.2007 42.3121 62.532 41.7442 62.721C41.3177 62.91 40.7498 63.0045 40.7498 63.0045L40.9391 63.6193C41.1284 64.1863 41.4123 64.7066 41.8856 65.0846C42.3589 65.4626 43.0693 65.6994 43.5426 66.5032C43.6373 66.6455 43.7319 66.7867 43.8266 66.9757C44.2999 67.8262 44.2531 68.7245 43.8266 69.6228C43.4947 70.0486 43.3533 70.1431 42.9747 70.9469C42.9747 70.9469 44.1106 71.1837 44.3477 71.1359C44.6796 71.0881 44.9157 70.8991 44.7264 70.5211C45.0582 69.1025 45.4368 68.4888 45.8622 68.1097C45.5315 67.2581 45.2475 66.4543 45.2954 65.3203Z" fill="url(#paint40_linear_422_1435)"/>
<path d="M29.0071 54.0693C28.9592 54.3061 28.7699 54.9198 28.3913 55.4401C28.0127 56.0071 27.8701 56.2439 27.634 56.7164C28.0127 57.1422 30.3334 58.135 32.8423 57.7092L32.5583 54.3061C32.1318 54.3539 31.7532 54.3539 31.3746 54.3539C29.9536 54.3528 29.1017 54.1171 29.0071 54.0693Z" fill="white"/>
<path d="M31.0906 58.0408C29.1496 58.0408 27.7765 57.3793 27.3968 57.1903C27.1596 57.7106 27.0182 58.0886 26.9703 58.3721C26.9224 58.5144 26.9224 58.6556 26.9224 58.8446L26.8745 58.6556C26.2587 58.0886 24.9803 57.4738 24.2231 57.048C23.7019 56.7167 23.3233 56.3387 22.9914 55.914C22.9435 55.8662 22.9435 55.8662 22.8968 55.8662C22.5182 55.8662 22.1863 55.9607 21.9023 56.1497C21.8545 56.1497 21.8545 56.1975 21.8545 56.1975C21.5226 57.0013 21.3333 57.6628 21.1919 58.2776C20.9547 58.8924 20.7186 59.4116 20.4346 59.7907C20.056 60.2165 19.6295 60.7835 20.056 61.1615C20.1507 61.3505 20.1039 61.5395 20.1039 61.7285C20.056 61.9175 20.056 62.1065 20.1039 62.2488C20.0093 62.4378 19.8667 62.7691 19.8667 62.8636V63.2416C19.8188 63.8086 19.9146 63.9976 20.056 64.2811C20.1039 64.3289 20.1039 64.4234 20.1507 64.4701C20.1507 64.5179 20.1986 64.5646 20.2932 64.5646C20.2932 64.5646 20.2932 64.5646 20.3411 64.5646C20.7676 64.4701 21.0516 64.0443 21.2876 63.6663C21.4302 63.4773 21.5248 63.2883 21.6663 63.146C21.7142 63.0982 21.7142 63.0037 21.6663 62.957L21.6184 62.9092C21.8077 62.6257 21.5705 62.3422 21.4291 62.1054L21.3812 62.0576C21.3333 61.9631 21.144 61.7263 21.6184 61.2071C21.6663 61.1593 21.6663 61.1593 21.6663 61.1126C21.5716 60.2621 21.9502 59.4583 22.3767 58.749C22.4714 58.6067 22.5193 58.4655 22.5661 58.3232C22.7086 57.9919 22.8032 57.7562 23.134 57.7562C23.8912 58.9858 24.6496 59.9775 25.8333 60.7346C25.8333 60.7346 26.0226 60.9236 26.3066 60.9714C26.5905 61.0192 27.1585 60.8769 27.4903 60.8291C27.5382 60.9236 27.585 61.0181 27.6796 61.1126C27.9636 61.5384 26.7331 61.5384 26.2119 61.6796C25.6908 61.9631 25.0761 62.0109 24.4124 62.0109C23.6073 61.8686 23.4658 62.2477 23.4179 62.6257C22.9914 63.902 22.3767 64.8003 21.713 65.6986C21.3812 65.9821 21.1451 66.3134 20.9079 66.6436C20.86 66.7381 20.8133 66.7859 20.8133 66.8804C20.8133 66.9749 20.8611 67.0227 20.9079 67.1172C21.0505 67.354 20.7654 67.4485 20.7186 67.6842C20.4814 68.2045 20.3868 68.7715 20.34 69.2918V69.4341C20.2453 69.8121 20.1028 70.5214 20.2453 70.5214C20.3879 70.5214 21.8556 70.238 21.9023 70.049C21.9502 69.86 21.8077 69.3875 21.8077 69.3875C21.8077 69.0561 21.8077 68.726 21.8077 68.4425C21.8556 68.2057 21.8556 68.0167 21.997 67.97C22.4235 67.8755 22.7075 67.3552 22.6596 66.7403C22.6596 66.3145 22.8489 65.8899 23.3222 65.5107C23.654 65.0382 23.8433 64.5657 24.1741 64.0921C24.3166 64.1866 24.6006 63.7608 24.9792 63.5251C25.1685 63.3828 25.4525 63.3828 25.7364 63.4773C27.4413 63.9031 29.5248 64.2333 31.4179 63.9498C31.8912 64.0921 31.5605 63.2883 31.8912 63.0048C31.9859 62.9103 33.1228 62.768 33.4536 62.8158L33.0271 57.7573C32.2264 57.993 31.6117 58.0408 31.0906 58.0408Z" fill="url(#paint41_linear_422_1435)"/>
<path d="M23.988 53.2656L24.6506 53.8326C24.6506 53.8326 24.6985 54.1639 24.6985 54.3529C24.7931 54.5897 25.0303 54.6364 25.3143 54.6364C25.4568 54.6364 26.1194 54.3996 26.3555 54.3051C26.4034 54.3051 26.4501 54.2573 26.498 54.2573C26.6405 54.2095 26.7352 54.0683 26.8299 53.8793C26.8777 53.7848 26.9245 53.737 27.0192 53.6903C26.8766 53.3123 26.782 52.8398 27.0192 52.414C27.0192 52.414 27.8711 51.7047 28.2508 51.3745C29.4345 50.3817 28.9134 50.3817 29.1506 50.1449C29.4824 49.7669 29.3399 53.1233 29.1985 53.5958C29.1985 53.5958 30.5247 54.0683 32.5604 53.9271L32.4178 52.414C32.1806 52.414 32.2753 52.4618 32.1339 52.414C32.1339 52.5085 31.8499 51.1377 32.0392 51.0899L32.4178 50.9476L32.1806 48.3472C32.1806 48.3472 31.2341 47.3544 30.7129 47.0709C30.3343 46.8819 29.0559 46.2671 28.7241 46.1726C28.5348 46.1247 27.2085 46.0302 27.2085 46.0302C27.2085 46.0302 28.0604 44.8484 27.6817 44.0924C27.6339 43.9501 26.3555 44.0924 26.3087 45.2264C26.3087 45.7934 26.1662 46.4082 26.1662 46.4082C26.1662 46.4082 25.2664 46.9286 25.0771 47.3532C24.8878 47.779 24.3666 48.535 24.2719 49.291C24.2719 49.4333 24.4613 49.669 24.4145 49.9525C24.3198 51.1388 23.8933 52.8409 23.988 53.2656ZM25.1238 49.6735V49.579V49.5312V49.4834V49.4356V49.3878V49.34V49.2922V49.2444V49.1965H25.1717H25.2196H25.2675H25.3154H25.3633H25.4112H25.459H25.5069H25.5548H25.6027H25.6506H25.6985H25.7463L25.7942 49.1487L25.8421 49.1009L25.89 49.0531L25.9379 49.0053V49.0531V49.1009V49.1487V49.1965V49.2444V49.2922V49.34V49.3878V49.4356V49.4834V49.5312V49.579L25.89 49.6268L25.8421 49.6746L25.7942 49.7224L25.7463 49.7702L25.6985 49.818L25.6506 49.8658L25.6027 49.9136L25.5548 49.9614L25.5069 50.0092L25.459 50.057L25.4112 50.1049L25.3633 50.1527L25.3154 50.2005L25.2675 50.2483L25.2196 50.2961L25.1717 50.3439L25.1238 50.3917L25.076 50.4395L25.0281 50.4873L24.9802 50.5351L24.9323 50.5829L24.8844 50.6307L24.8365 50.6785L24.7887 50.7263L24.7408 50.7741V50.7274V50.6796V50.6318V50.584V50.5362V50.4884V50.4406V50.3928V50.345V50.2972V50.2494V50.2016V50.1538V50.106L25.1238 49.6735Z" fill="white"/>
<path d="M48.4681 54.495C46.4324 53.1242 43.8756 54.117 43.2598 54.306C43.1652 54.3538 43.0705 54.3538 43.0705 54.3538C43.0705 54.3538 42.7865 54.4483 42.644 54.4961L40.4179 56.3861L40.0861 55.7713L38.1451 56.7163V56.1015L37.8133 56.007C37.2921 56.4328 36.6295 56.5273 36.3923 56.8108C36.3923 56.8108 37.2442 57.5668 37.1028 59.3634C37.0081 60.6875 37.2453 61.1122 37.2921 61.4902C37.2921 61.4902 37.5761 61.8682 37.7654 62.1995C37.9547 62.483 37.9547 62.8143 37.9547 62.8143C40.3701 63.0978 42.9269 61.727 42.9269 61.727C44.016 63.9961 45.5783 64.9411 45.5783 64.9411C48.4191 66.2174 48.0404 67.5882 47.8511 69.148C47.7086 70.3298 46.2409 71.5594 46.2409 71.5594L47.5672 72.2687L47.8044 71.9374L48.5148 71.7951C48.6574 68.8167 49.6039 67.7772 49.9825 67.3514C50.3612 66.8789 50.0304 66.8789 50.0304 66.8789C50.0304 66.8789 48.0894 64.7521 49.2732 62.3407C50.7876 58.5129 50.5037 55.818 48.4681 54.495ZM43.6852 55.0153C43.6852 55.2521 43.6852 55.5356 43.6373 55.7713C43.9213 55.6768 44.4425 55.5823 44.4425 55.5823V56.0081L43.5906 56.1971C43.5427 56.3394 43.4959 56.4806 43.448 56.6696C43.8745 56.5751 44.4425 56.6218 44.4425 56.6218L44.585 56.8108L44.2531 57.0476C43.9692 57.0954 43.5427 56.9531 43.3534 56.8586C43.2587 57.1421 43.1162 57.4734 42.9747 57.7091L43.7799 57.8514L43.9224 57.9937L43.6852 58.136L42.8801 57.8992C42.7375 58.136 42.5482 58.3717 42.3589 58.6085C42.8801 58.7975 43.2587 59.081 43.2587 59.081L42.9747 59.2233L42.9269 59.3178L42.2164 58.7508C42.0271 58.9398 41.8378 59.1288 41.6006 59.3178L42.311 59.8381L42.1217 59.9326L41.8845 60.0749C41.5527 59.7914 41.4113 59.6024 41.3634 59.5079C41.1741 59.6502 40.9848 59.7447 40.7955 59.8392C40.6529 59.887 40.5583 59.9337 40.4168 59.9815L40.7008 60.2184L40.8433 60.5019L40.6061 60.6442L40.3689 60.5019L40.2264 60.0294C39.9892 60.1239 39.7531 60.1717 39.5638 60.2184C39.6585 60.4074 39.9425 60.5497 39.9425 60.5497V60.7387H39.7053C39.5627 60.5497 39.4681 60.4074 39.4213 60.2662C39.1841 60.314 38.948 60.3607 38.7587 60.3607L38.948 60.5975L39.0906 60.881H38.9013C38.8534 60.7865 38.7587 60.7865 38.7119 60.7865C38.7119 60.7865 38.6173 60.503 38.5694 60.4085C38.3322 60.4085 38.0961 60.4563 37.9068 60.4563H37.8589C37.9536 60.5986 38.1429 60.7398 38.1429 60.7398L38.0004 60.8343L37.7632 60.692C37.7153 60.5975 37.6685 60.503 37.6685 60.4552C37.526 60.4552 37.4313 60.4552 37.3845 60.4552L37.4324 60.2184C37.4324 60.2184 39.1373 60.4074 40.8411 59.6514C42.3088 58.9899 43.7765 56.9564 43.5872 54.8296H43.6351C43.9191 54.7351 44.2977 54.6873 44.6295 54.5461L44.9135 54.6885C44.9135 54.6885 44.9614 54.8775 44.9614 54.9253C44.7275 54.873 44.0638 54.9675 43.6852 55.0153Z" fill="url(#paint42_linear_422_1435)"/>
<path d="M38.6664 55.5824L38.6196 53.0765L38.4303 53.3133L37.7666 55.5346L36.4882 54.8731L37.4826 53.0765L37.3412 52.982L36.0628 54.5896L35.2577 53.7391L34.594 52.982L34.9258 52.793L35.447 53.6446L35.9203 54.2116L37.1987 52.793L37.7198 53.0298L36.7254 54.8264L37.5305 55.1566L38.1452 53.1243L38.8557 52.8875V55.3456L39.4236 55.0621L39.1396 52.7463L39.7555 52.415L40.9392 55.0621L41.9804 54.1171L42.3123 54.3528L40.8924 55.3456L39.614 52.793H39.5662L39.898 55.1099L38.6664 55.5824Z" fill="#E4F0F6"/>
<path d="M42.6907 54.1174C42.4068 53.8806 42.0126 53.5226 41.8712 53.2391C41.8712 53.2391 41.5671 52.8767 41.1195 51.7104L40.0393 52.1785C40.3712 52.5565 40.7498 53.029 40.9391 53.3603C40.9391 53.3603 41.507 54.0218 42.1228 54.4943L42.6907 54.1174Z" fill="#E4F0F6"/>
<path d="M34.6983 52.9397L34.8533 53.1772L36.7579 51.939L36.6029 51.7014L34.6983 52.9397Z" fill="#E4F0F6"/>
<path d="M48.1839 49.579C45.6739 49.579 42.2184 48.0192 40.7975 47.0264C40.6549 47.7824 40.5603 48.8697 40.5603 48.8697C41.1761 49.2955 46.5737 51.8948 46.6683 51.4701C46.7162 51.2333 46.5258 50.6196 47.0002 50.4773C47.2374 50.4295 47.5213 50.6196 47.9467 50.5251C48.3732 50.4306 48.6572 49.8636 48.4679 49.6746C48.2786 49.579 48.1839 49.579 48.1839 49.579Z" fill="#3166B1"/>
<path d="M44.3009 46.317C44.9167 45.3242 46.0526 44.6627 47.0003 44.0957C46.1484 44.1902 44.7753 44.3325 43.2118 44.5215L39.566 44.994L39.5181 45.0885C39.5181 45.0885 39.566 45.1363 39.6127 45.2308C39.6606 45.2308 39.7074 45.2308 39.7553 45.2786C42.6439 45.75 43.9223 46.0802 44.3009 46.317Z" fill="#3166B1"/>
<path d="M50.2197 46.3639C49.5092 46.6952 47.4257 47.2144 47.095 46.5529C46.7631 45.9381 47.5215 45.1821 47.8054 44.8986C48.3266 44.3316 48.184 44.0481 48.0894 43.9536C48.0415 43.9536 47.9947 43.9536 47.9468 43.9536C46.9524 43.9536 45.1529 45.5134 44.3477 46.8842C44.3477 46.932 44.2999 46.932 44.2531 46.932C44.2052 46.932 44.2052 46.932 44.1584 46.8842C44.1584 46.8842 43.1172 46.0804 39.8967 45.4656C40.1807 45.8436 40.5593 46.4106 40.7019 46.7897C41.9803 47.5457 45.3422 49.1533 47.899 49.2011C47.899 49.0121 47.9469 48.9176 48.1829 48.6808C48.5616 48.3028 49.1774 48.2083 49.556 48.1138C49.9346 48.0193 50.2665 48.0193 50.7397 47.499C51.3555 46.932 50.9769 46.0337 50.2197 46.3639Z" fill="#3166B1"/>
<path d="M39.2341 48.586C39.282 48.586 39.4234 48.6339 39.566 48.6339C39.7553 48.6339 39.9446 48.586 40.0871 48.4915C40.4658 48.3025 40.703 48.208 40.6551 47.5932C40.6072 47.0729 40.1818 46.0801 39.9446 45.7499C39.8967 45.7021 39.7074 45.6554 39.4713 45.6076C39.1874 45.6076 38.7141 45.7021 38.5716 45.7499L38.2876 45.9389C38.0983 46.1279 37.6718 46.7894 37.625 47.3576C37.5771 47.6889 37.7197 47.7356 37.8143 47.8301C37.8622 47.8301 37.909 47.8301 37.9569 47.8301C38.4769 47.8767 39.0927 48.4437 39.2341 48.586ZM39.5181 48.9174C39.2809 48.9174 39.0916 48.8695 39.0916 48.8695H39.0437V48.8217C39.0437 48.8217 38.3811 48.1602 37.86 48.1602C37.8121 48.1602 37.7653 48.1602 37.7174 48.1602H37.6695L37.6217 48.1124C37.6217 48.1124 37.1484 48.0646 37.2898 47.2141C37.3845 46.6938 38.0003 45.9845 38.047 45.9378L38.4257 45.512H38.4736C38.4736 45.512 39.0894 45.323 39.4201 45.3697C39.8934 45.4175 40.0359 45.5587 40.0359 45.5587L40.0838 45.6065C40.1785 45.701 41.0303 46.7405 40.9357 47.3553C40.841 47.9223 40.6985 48.4426 40.2252 48.7261C39.9925 48.8229 39.7553 48.9174 39.5181 48.9174Z" fill="#E4F0F6"/>
<path d="M40.8724 50.4894C40.9203 49.6856 40.7031 48.3492 40.8924 47.3564C40.8924 47.3564 40.7031 48.5861 39.8034 48.7272C39.3768 48.7751 39.3301 48.6327 39.3301 48.6327L39.5673 51.2332L40.8724 50.4894Z" fill="#E4F0F6"/>
<path d="M39.8979 51.8947L41.0338 51.4222C40.9859 51.2799 40.9859 51.2332 40.9391 51.0442C40.9391 50.9497 40.8912 50.9019 40.8912 50.7607L39.6017 51.5245L39.5649 51.3755C39.5661 51.5167 39.6607 51.659 39.8979 51.8947Z" fill="#E4F0F6"/>
<path d="M39.4234 45.3719C39.3288 45.3719 38.8254 45.4486 38.8254 45.4486C38.8254 45.4486 39.282 44.9939 39.6606 44.9461C40.0392 44.8983 40.3711 45.2296 40.0392 45.2296C39.7085 45.2774 39.4234 45.3719 39.4234 45.3719Z" fill="#3166B1"/>
<path d="M38.5717 50.0994C38.4292 50.4307 37.672 50.9032 37.6252 51.0444C37.5305 51.2334 37.5305 51.2334 37.5305 51.2334C37.5305 51.2334 37.3412 51.2334 37.0573 51.3279C36.7733 51.4224 36.2521 51.8004 34.5472 52.0372C34.074 52.085 33.79 52.0372 33.6474 52.1317C33.5049 52.2262 33.3156 52.463 32.7477 52.6042C32.1797 52.7465 31.6118 52.4619 31.6118 52.3207C31.6597 52.1784 31.7065 52.2262 31.7544 52.1784C31.8022 52.1306 31.6118 52.1306 31.6118 51.8949C31.6118 51.7526 31.7544 51.8471 31.7544 51.7526C31.7544 51.6581 31.5172 51.5636 31.8022 51.4213C31.9448 51.3735 31.6597 51.1378 31.8501 51.0433C32.0394 50.9488 32.6074 50.9488 32.6074 50.9488C32.6074 50.9488 32.7499 50.712 32.6552 50.712C32.5606 50.712 32.9392 50.523 33.1764 50.8543C33.4136 51.1856 33.1764 51.2323 33.4136 51.1856C33.6976 51.1378 34.1708 51.0911 34.408 50.9488C34.976 50.6175 36.5383 49.8615 36.7755 49.8148L37.6274 48.1605C37.6274 48.1605 38.29 47.877 39.0483 48.822C39.0929 48.8231 38.7143 49.7681 38.5717 50.0994Z" fill="#EFB77F"/>
<path d="M35.5415 46.317C35.5415 46.317 35.3989 46.9318 35.4468 47.2153C35.4947 47.4988 35.9201 47.8768 35.968 47.9713C36.0159 48.1136 34.4524 47.829 34.2631 47.9235C34.1205 48.018 33.9312 48.0658 33.7419 47.9713C33.6472 47.9235 33.5526 47.7345 33.4101 47.5455C33.0314 47.1197 32.5103 46.3159 32.2742 45.1341L32.2263 44.2357C32.2263 44.2357 32.5103 43.9044 32.5582 43.6209C32.606 43.4786 32.3689 43.2896 32.4156 43.1951C32.5103 42.7693 32.3677 42.6748 32.3677 42.6748C32.3677 42.6748 32.6517 42.5325 32.841 43.0061C32.9357 43.1951 32.9836 43.2896 32.9836 43.8099C32.9836 44.3302 33.4568 44.8972 33.7408 45.4176C34.0248 45.9379 34.0726 46.3625 34.3566 46.457C34.6885 46.506 35.5415 46.317 35.5415 46.317Z" fill="#EFB77F"/>
<path d="M31.8011 42.6772L31.8958 42.7717C31.9437 42.7717 31.9904 42.7717 32.0383 42.7717C32.2755 42.7717 32.4169 42.8662 32.4169 42.9607C32.4169 43.0086 32.3223 43.1031 32.2276 43.1031C32.0851 43.1031 31.8958 43.1031 31.7543 43.0552V43.1497C31.8969 43.1497 32.0383 43.1497 32.1808 43.1497C32.2755 43.1976 32.3234 43.2442 32.3234 43.2921C32.3234 43.3399 32.2755 43.3865 32.1808 43.4344C32.0383 43.4822 31.849 43.4344 31.7076 43.3866L31.6597 43.481C31.8022 43.481 31.9915 43.481 32.1808 43.481C32.2755 43.5289 32.3234 43.5755 32.3234 43.6234C32.3234 43.7657 32.0394 43.7657 31.9448 43.7657C31.8969 43.7657 31.8022 43.7657 31.7555 43.7657V43.8135H31.8033C31.8512 43.8135 31.898 43.8135 31.9459 43.8135C32.1831 43.8135 32.3245 43.8613 32.3245 43.9558C32.3245 44.0503 32.1352 44.1448 31.9459 44.1448C31.898 44.1448 31.8033 44.1448 31.7566 44.097L31.6619 44.1448C31.7098 44.1448 31.9938 44.2871 32.0884 44.2871C32.0884 44.3816 32.0884 44.5706 32.0884 44.5706C31.7098 44.4283 31.2833 44.0981 31.4258 43.4366C31.5205 43.1998 31.6151 43.0108 31.7098 42.7751C31.7065 42.7239 31.7532 42.7239 31.8011 42.6772Z" fill="#EFB77F"/>
<path d="M32.2265 42.6293H31.9893V42.487L31.8467 39.6031L31.1841 38.8938L31.3267 38.5624L31.8 39.0828L31.7521 38.2789L30.8523 38.3268V38.0444H30.9002L31.7053 37.9966V37.6186L31.1841 37.6664V37.3829L31.7053 37.3351L31.6574 36.7681H31.8946L31.9425 37.3351L32.369 37.2873L32.4637 37.5708H31.9904V37.9488L32.9848 37.8543L33.0795 38.1378L32.0383 38.1856L32.1329 39.3196L32.7955 40.0289L32.653 40.3124L32.1797 39.7921L32.2265 42.6293Z" fill="#FEBE10"/>
<path d="M31.9902 44.2846L32.1795 48.4437L32.5582 48.775L32.2742 44.2368L31.9902 44.2846Z" fill="#FEBE10"/>
<path d="M36.2988 48.1606C36.2988 48.1606 35.115 48.1606 35.4936 46.2695L35.683 46.3173C35.3043 47.7359 36.4402 47.4513 36.4402 47.5936L36.2988 48.1606Z" fill="#E4F0F6"/>
<path d="M37.4824 45.1822C37.3878 45.0877 36.8666 45.0877 36.0147 45.5135C35.8254 45.608 35.5882 45.8448 35.4468 46.1283L35.4624 46.4996C35.5103 46.4996 35.5414 46.3651 35.5414 46.3651H35.6361L35.684 46.3173C35.7786 46.0805 36.0158 45.8448 36.1573 45.797C36.9624 45.3712 37.3889 45.419 37.3889 45.419L37.3677 45.3812L37.4368 45.419L37.5737 45.5646L37.6261 45.1822H37.4824Z" fill="#E4F0F6"/>
</g>
<defs>
<linearGradient id="paint0_linear_422_1435" x1="26.8287" y1="33.0576" x2="48.5627" y2="33.0576" gradientUnits="userSpaceOnUse">
<stop offset="0.00524155" stop-color="#FEC846"/>
<stop offset="1" stop-color="#F3B610"/>
</linearGradient>
<linearGradient id="paint1_linear_422_1435" x1="8.80454" y1="61.9883" x2="8.80454" y2="39.8888" gradientUnits="userSpaceOnUse">
<stop stop-color="#F58320"/>
<stop offset="1" stop-color="#F29527"/>
</linearGradient>
<linearGradient id="paint2_linear_422_1435" x1="8.66775" y1="43.485" x2="8.66775" y2="31.5024" gradientUnits="userSpaceOnUse">
<stop stop-color="#F58320"/>
<stop offset="1" stop-color="#F29527"/>
</linearGradient>
<linearGradient id="paint3_linear_422_1435" x1="17.9508" y1="34.3304" x2="17.9508" y2="24.0812" gradientUnits="userSpaceOnUse">
<stop stop-color="#F58320"/>
<stop offset="1" stop-color="#F29527"/>
</linearGradient>
<linearGradient id="paint4_linear_422_1435" x1="10.1112" y1="47.0005" x2="10.1112" y2="38.5442" gradientUnits="userSpaceOnUse">
<stop stop-color="#F58320"/>
<stop offset="1" stop-color="#F29527"/>
</linearGradient>
<linearGradient id="paint5_linear_422_1435" x1="10.2617" y1="64.9542" x2="10.2617" y2="57.9147" gradientUnits="userSpaceOnUse">
<stop stop-color="#F58320"/>
<stop offset="1" stop-color="#F29527"/>
</linearGradient>
<linearGradient id="paint6_linear_422_1435" x1="8.01659" y1="76.091" x2="8.01659" y2="57.9295" gradientUnits="userSpaceOnUse">
<stop stop-color="#F58320"/>
<stop offset="1" stop-color="#F29527"/>
</linearGradient>
<linearGradient id="paint7_linear_422_1435" x1="8.41624" y1="80.2345" x2="8.41624" y2="73.0733" gradientUnits="userSpaceOnUse">
<stop stop-color="#F58320"/>
<stop offset="1" stop-color="#F29527"/>
</linearGradient>
<linearGradient id="paint8_linear_422_1435" x1="9.02519" y1="94.416" x2="9.02519" y2="74.1829" gradientUnits="userSpaceOnUse">
<stop stop-color="#F58320"/>
<stop offset="1" stop-color="#F29527"/>
</linearGradient>
<linearGradient id="paint9_linear_422_1435" x1="11.6759" y1="32.9689" x2="11.6759" y2="26.6019" gradientUnits="userSpaceOnUse">
<stop stop-color="#F58320"/>
<stop offset="1" stop-color="#F29527"/>
</linearGradient>
<linearGradient id="paint10_linear_422_1435" x1="8.92468" y1="33.4119" x2="8.92468" y2="29.8526" gradientUnits="userSpaceOnUse">
<stop stop-color="#F58320"/>
<stop offset="1" stop-color="#F29527"/>
</linearGradient>
<linearGradient id="paint11_linear_422_1435" x1="9.00528" y1="95.3553" x2="9.00528" y2="91.6442" gradientUnits="userSpaceOnUse">
<stop stop-color="#F58320"/>
<stop offset="1" stop-color="#F29527"/>
</linearGradient>
<linearGradient id="paint12_linear_422_1435" x1="13.1506" y1="95.5196" x2="13.1506" y2="88.8408" gradientUnits="userSpaceOnUse">
<stop stop-color="#F58320"/>
<stop offset="1" stop-color="#F29527"/>
</linearGradient>
<linearGradient id="paint13_linear_422_1435" x1="17.2544" y1="95.9997" x2="17.2544" y2="85.4875" gradientUnits="userSpaceOnUse">
<stop stop-color="#F58320"/>
<stop offset="1" stop-color="#F29527"/>
</linearGradient>
<linearGradient id="paint14_linear_422_1435" x1="23.5559" y1="94.8966" x2="23.5559" y2="88.3246" gradientUnits="userSpaceOnUse">
<stop stop-color="#F58320"/>
<stop offset="1" stop-color="#F29527"/>
</linearGradient>
<linearGradient id="paint15_linear_422_1435" x1="66.9165" y1="61.949" x2="66.9165" y2="39.892" gradientUnits="userSpaceOnUse">
<stop stop-color="#F58320"/>
<stop offset="1" stop-color="#F29527"/>
</linearGradient>
<linearGradient id="paint16_linear_422_1435" x1="66.8478" y1="43.4848" x2="66.8478" y2="31.5087" gradientUnits="userSpaceOnUse">
<stop stop-color="#F58320"/>
<stop offset="1" stop-color="#F29527"/>
</linearGradient>
<linearGradient id="paint17_linear_422_1435" x1="57.6783" y1="34.3302" x2="57.6783" y2="24.0847" gradientUnits="userSpaceOnUse">
<stop stop-color="#F58320"/>
<stop offset="1" stop-color="#F29527"/>
</linearGradient>
<linearGradient id="paint18_linear_422_1435" x1="65.5762" y1="47.8089" x2="65.5762" y2="38.5748" gradientUnits="userSpaceOnUse">
<stop stop-color="#F58320"/>
<stop offset="1" stop-color="#F29527"/>
</linearGradient>
<linearGradient id="paint19_linear_422_1435" x1="65.3652" y1="65.3836" x2="65.3652" y2="57.9147" gradientUnits="userSpaceOnUse">
<stop stop-color="#F58320"/>
<stop offset="1" stop-color="#F29527"/>
</linearGradient>
<linearGradient id="paint20_linear_422_1435" x1="67.6865" y1="75.9762" x2="67.6865" y2="58.3744" gradientUnits="userSpaceOnUse">
<stop stop-color="#F58320"/>
<stop offset="1" stop-color="#F29527"/>
</linearGradient>
<linearGradient id="paint21_linear_422_1435" x1="67.213" y1="80.2343" x2="67.213" y2="73.0789" gradientUnits="userSpaceOnUse">
<stop stop-color="#F58320"/>
<stop offset="1" stop-color="#F29527"/>
</linearGradient>
<linearGradient id="paint22_linear_422_1435" x1="66.7552" y1="92.8362" x2="66.7552" y2="74.2108" gradientUnits="userSpaceOnUse">
<stop stop-color="#F58320"/>
<stop offset="1" stop-color="#F29527"/>
</linearGradient>
<linearGradient id="paint23_linear_422_1435" x1="63.9748" y1="32.969" x2="63.9748" y2="26.6021" gradientUnits="userSpaceOnUse">
<stop stop-color="#F58320"/>
<stop offset="1" stop-color="#F29527"/>
</linearGradient>
<linearGradient id="paint24_linear_422_1435" x1="66.6569" y1="33.4119" x2="66.6569" y2="29.8526" gradientUnits="userSpaceOnUse">
<stop stop-color="#F58320"/>
<stop offset="1" stop-color="#F29527"/>
</linearGradient>
<linearGradient id="paint25_linear_422_1435" x1="66.6221" y1="95.3549" x2="66.6221" y2="91.6438" gradientUnits="userSpaceOnUse">
<stop stop-color="#F58320"/>
<stop offset="1" stop-color="#F29527"/>
</linearGradient>
<linearGradient id="paint26_linear_422_1435" x1="62.4069" y1="95.5195" x2="62.4069" y2="88.8407" gradientUnits="userSpaceOnUse">
<stop stop-color="#F58320"/>
<stop offset="1" stop-color="#F29527"/>
</linearGradient>
<linearGradient id="paint27_linear_422_1435" x1="58.3021" y1="95.9936" x2="58.3021" y2="85.4805" gradientUnits="userSpaceOnUse">
<stop stop-color="#F58320"/>
<stop offset="1" stop-color="#F29527"/>
</linearGradient>
<linearGradient id="paint28_linear_422_1435" x1="52.0567" y1="94.8966" x2="52.0567" y2="88.3258" gradientUnits="userSpaceOnUse">
<stop stop-color="#F58320"/>
<stop offset="1" stop-color="#F29527"/>
</linearGradient>
<linearGradient id="paint29_linear_422_1435" x1="37.8156" y1="96.5666" x2="37.8156" y2="85.3326" gradientUnits="userSpaceOnUse">
<stop stop-color="#F58320"/>
<stop offset="1" stop-color="#F29527"/>
</linearGradient>
<linearGradient id="paint30_linear_422_1435" x1="37.1273" y1="33.9323" x2="37.1273" y2="89.0035" gradientUnits="userSpaceOnUse">
<stop offset="0.010782" stop-color="#DC4528"/>
<stop offset="1" stop-color="#D63229"/>
</linearGradient>
<linearGradient id="paint31_linear_422_1435" x1="33.8133" y1="62.9092" x2="33.8133" y2="69.8375" gradientUnits="userSpaceOnUse">
<stop offset="0.00524155" stop-color="#FEC846"/>
<stop offset="1" stop-color="#EEB310"/>
</linearGradient>
<linearGradient id="paint32_linear_422_1435" x1="37.0574" y1="2.02364" x2="37.0574" y2="7.97737" gradientUnits="userSpaceOnUse">
<stop offset="0.00524155" stop-color="#FEC846"/>
<stop offset="1" stop-color="#F3B610"/>
</linearGradient>
<linearGradient id="paint33_linear_422_1435" x1="37.0925" y1="25.0449" x2="37.0925" y2="10.8112" gradientUnits="userSpaceOnUse">
<stop stop-color="#F58320"/>
<stop offset="1" stop-color="#F29527"/>
</linearGradient>
<linearGradient id="paint34_linear_422_1435" x1="30.0499" y1="11.0398" x2="30.0499" y2="26.2914" gradientUnits="userSpaceOnUse">
<stop offset="0.00524155" stop-color="#FEC846"/>
<stop offset="1" stop-color="#F3B610"/>
</linearGradient>
<linearGradient id="paint35_linear_422_1435" x1="44.1974" y1="11.0403" x2="44.1974" y2="26.2914" gradientUnits="userSpaceOnUse">
<stop offset="0.00524155" stop-color="#FEC846"/>
<stop offset="1" stop-color="#F3B610"/>
</linearGradient>
<linearGradient id="paint36_linear_422_1435" x1="38.1251" y1="65.3024" x2="38.1251" y2="79.7235" gradientUnits="userSpaceOnUse">
<stop offset="0.00524155" stop-color="#FEC846"/>
<stop offset="1" stop-color="#EEB310"/>
</linearGradient>
<linearGradient id="paint37_linear_422_1435" x1="37.9813" y1="77.8141" x2="37.9813" y2="81.5053" gradientUnits="userSpaceOnUse">
<stop offset="0.00524155" stop-color="#FEC846"/>
<stop offset="1" stop-color="#F3B610"/>
</linearGradient>
<linearGradient id="paint38_linear_422_1435" x1="38.4061" y1="45.2515" x2="38.4061" y2="64.2324" gradientUnits="userSpaceOnUse">
<stop offset="0.0177974" stop-color="#BAC5CC"/>
<stop offset="1" stop-color="#ABB5BC"/>
</linearGradient>
<linearGradient id="paint39_linear_422_1435" x1="52.328" y1="52.3819" x2="52.328" y2="61.8187" gradientUnits="userSpaceOnUse">
<stop stop-color="white"/>
<stop offset="1" stop-color="#FFF3E1"/>
</linearGradient>
<linearGradient id="paint40_linear_422_1435" x1="43.3062" y1="62.1812" x2="43.3062" y2="71.1023" gradientUnits="userSpaceOnUse">
<stop stop-color="white"/>
<stop offset="1" stop-color="#FFF3E1"/>
</linearGradient>
<linearGradient id="paint41_linear_422_1435" x1="26.654" y1="55.8967" x2="26.654" y2="70.5962" gradientUnits="userSpaceOnUse">
<stop stop-color="white"/>
<stop offset="1" stop-color="#FFF3E1"/>
</linearGradient>
<linearGradient id="paint42_linear_422_1435" x1="43.3127" y1="53.7818" x2="43.3127" y2="72.2688" gradientUnits="userSpaceOnUse">
<stop stop-color="white"/>
<stop offset="1" stop-color="#FFF3E1"/>
</linearGradient>
<clipPath id="clip0_422_1435">
<rect width="71" height="95" fill="white"/>
</clipPath>
</defs>
</svg>
