<svg xmlns="http://www.w3.org/2000/svg" width="39" height="39" viewBox="0 0 39 39">
  <defs>
    <style>
      .cls-1 {
        fill-rule: evenodd;
      }
    </style>
  </defs>
  <path id="Forma_1_копия" data-name="Forma 1 копия" class="cls-1" d="M703.616,2721.96l-14.3-9.75a0.648,0.648,0,0,0-1.016.54v19.5a0.641,0.641,0,0,0,.346.57,0.66,0.66,0,0,0,.3.08,0.688,0.688,0,0,0,.366-0.11l14.3-9.75a0.662,0.662,0,0,0,.284-0.54A0.649,0.649,0,0,0,703.616,2721.96Zm-14.016,9.06v-17.04l12.5,8.52Zm3.9-28.02a19.5,19.5,0,1,0,19.5,19.5A19.524,19.524,0,0,0,693.5,2703Zm0,37.7a18.2,18.2,0,1,1,18.2-18.2A18.224,18.224,0,0,1,693.5,2740.7Z" transform="translate(-674 -2703)"/>
</svg>
