<svg width="62" height="62" viewBox="0 0 62 62" fill="none" xmlns="http://www.w3.org/2000/svg">
<path d="M5 22.9844H2C1.44772 22.9844 1 23.4321 1 23.9844V29.4844M5 22.9844H27C27.5523 22.9844 28 23.4321 28 23.9844V29.4844M5 22.9844V2.98437C5 2.43209 5.44772 1.98438 6 1.98438H56C56.5523 1.98438 57 2.43209 57 2.98437V30.9844M57 30.9844H46C45.4477 30.9844 45 31.4321 45 31.9844V44.9844M57 30.9844H60C60.5523 30.9844 61 31.4321 61 31.9844V36.4844M28 36.4844H61M28 36.4844V29.4844M28 36.4844V44.9844M61 36.4844V54.4844M1 29.4844H28M1 29.4844V54.4844M1 54.4844V59.9844C1 60.5367 1.44771 60.9844 2 60.9844H27C27.5523 60.9844 28 60.5367 28 59.9844V57.9844M1 54.4844H28M28 54.4844V52.4844M28 54.4844V57.9844M45 54.4844V59.9844C45 60.5367 45.4477 60.9844 46 60.9844H60C60.5523 60.9844 61 60.5367 61 59.9844V54.4844M45 54.4844H61M45 54.4844V44.9844M28 52.4844H39.5M28 52.4844V44.9844M39.5 52.4844L36.5 44.9844M39.5 52.4844V56.9844C39.5 57.5367 39.0523 57.9844 38.5 57.9844H28M36.5 44.9844H28M36.5 44.9844H45" stroke="#333333" stroke-width="2"/>
<path d="M7 45.9844L10.125 42.8594M19.5 33.4844L13.25 39.7344M11 48.9844L17.5 42.4844L24 35.9844" stroke="#333333" stroke-width="2"/>
<path d="M28 20.4844L31.125 17.3594M40.5 7.98438L34.25 14.2344M32 23.4844L35.25 20.2344M45 10.4844L38.5 16.9844" stroke="#333333" stroke-width="2"/>
</svg>
