<svg width="123" height="116" viewBox="0 0 123 116" fill="none" xmlns="http://www.w3.org/2000/svg">
<path d="M77.4761 89.6353C80.3875 86.1418 80.7884 83.1737 79.2229 80.319C74.2625 71.2736 40.7931 44.8006 47.7804 40.1424C36.9654 27.5892 30.8945 20.9277 30.8945 20.9277C30.8945 20.9277 49.5213 15.5294 57.6789 22.0922C65.7593 28.5928 64.6662 47.7121 64.6662 47.7121L86.7924 69.8383C86.7924 69.8383 107.145 68.6451 113.577 77.4078C119.766 85.8403 113.577 104.192 113.577 104.192L96.1087 86.1418C96.1087 86.1418 91.6703 86.6775 89.7038 88.4709C87.5196 90.4628 86.7924 95.4582 86.7924 95.4582L103.678 114.091C103.678 114.091 90.0411 116.966 82.1343 114.091C69.3243 109.433 69.3243 93.7114 69.3243 93.7114C69.3243 93.7114 74.6759 92.9954 77.4761 89.6353Z" fill="#43BEA2"/>
<path d="M87.375 69.8382L65.2487 47.7119C65.2487 47.7119 66.2432 30.5928 59.426 23.8389C51.4516 15.9384 30.8948 20.3453 30.8948 20.3453C30.8948 20.3453 39.6288 27.9148 46.6161 37.2311C49.9019 41.6121 43.0708 48.9265 38.4643 45.9651C30.3125 40.7247 20.9962 30.2438 20.9962 30.2438C20.9962 30.2438 16.5185 49.0342 23.3253 57.0282C28.2057 62.7599 40.7934 65.18 40.7934 65.18M92.6154 69.8382C92.6154 69.8382 107.535 70.906 112.995 77.4077C119.728 85.4256 114.159 104.192 114.159 104.192C114.159 104.192 103.679 91.9644 96.6913 86.724C92.4445 83.5389 83.4849 93.0104 87.375 96.6226C95.5267 104.192 103.679 113.508 103.679 113.508C103.679 113.508 82.0699 118.12 74.565 109.433C69.9092 104.043 69.3246 91.9644 69.3246 91.9644M46.6161 65.18L57.6792 75.0786M57.6792 75.0786H65.2487M57.6792 75.0786H26.8189M52.4388 86.724H72.8182" stroke="#333333" stroke-width="2"/>
<rect x="79.7041" y="0.712646" width="43.088" height="10.4809" fill="#43BEA2"/>
<path d="M9.55078 97.9254C9.55078 97.9254 14.4782 98.2041 16.5721 96.0105C18.9817 93.4862 17.2104 87.7126 17.2104 87.7126" stroke="black" stroke-width="2"/>
<path d="M31.8809 97.9254C31.8809 97.9254 26.9535 98.2041 24.8596 96.0105C22.45 93.4862 24.2213 87.7126 24.2213 87.7126" stroke="black" stroke-width="2"/>
<path d="M9.55078 103.043C9.55078 103.043 14.4782 102.765 16.5721 104.958C18.9817 107.483 17.2104 113.256 17.2104 113.256" stroke="black" stroke-width="2"/>
<path d="M31.8809 103.043C31.8809 103.043 26.9535 102.765 24.8596 104.958C22.45 107.483 24.2213 113.256 24.2213 113.256" stroke="black" stroke-width="2"/>
<path d="M8.65716 73.9254V63.7126M3.55078 68.819H13.7635" stroke="black" stroke-width="2"/>
<path d="M102.551 62.7126V46.7126M94.5508 54.7126H110.551" stroke="black" stroke-width="2"/>
<path d="M0.550781 15.7126H16.5508" stroke="black" stroke-width="2"/>
</svg>
