<svg width="176" height="324" viewBox="0 0 176 324" fill="none" xmlns="http://www.w3.org/2000/svg">
<path d="M77.95 0.0899793C92.2833 0.0899793 105.47 1.66665 117.51 4.82C129.55 7.97332 139.87 12.56 148.47 18.58C157.07 24.3133 163.807 31.6233 168.68 40.51C173.553 49.11 175.99 59 175.99 70.18C175.99 80.2133 173.84 89.53 169.54 98.13C165.527 106.73 160.51 115.043 154.49 123.07C148.47 130.81 141.733 138.407 134.28 145.86C127.113 153.027 120.52 160.48 114.5 168.22C108.48 175.673 103.32 183.557 99.02 191.87C95.0067 199.897 93 208.64 93 218.1H42.26C42.26 205.2 43.98 193.733 47.42 183.7C51.1467 173.38 55.59 164.207 60.75 156.18C66.1967 148.153 72.0733 140.843 78.38 134.25C84.6867 127.37 90.42 120.92 95.58 114.9C101.027 108.593 105.47 102.43 108.91 96.41C112.637 90.39 114.5 83.7967 114.5 76.63C114.5 66.8833 110.773 59.1433 103.32 53.41C95.8667 47.6767 85.9767 44.81 73.65 44.81C69.6367 44.81 65.6233 44.9533 61.61 45.24C57.5967 45.5267 53.2967 46.2433 48.71 47.39C44.41 48.25 39.5367 49.54 34.09 51.26C28.93 52.98 22.91 55.2733 16.03 58.14L0.55 17.72C16.6033 10.5533 30.5067 5.82332 42.26 3.52999C54.0133 1.23665 65.91 0.0899793 77.95 0.0899793ZM31.94 287.76C31.94 282.887 32.8 278.3 34.52 274C36.5267 269.413 39.1067 265.543 42.26 262.39C45.4133 258.95 49.14 256.37 53.44 254.65C57.74 252.643 62.47 251.64 67.63 251.64C77.6633 251.64 85.9767 255.223 92.57 262.39C99.45 269.27 102.89 277.727 102.89 287.76C102.89 297.793 99.45 306.25 92.57 313.13C85.9767 319.723 77.6633 323.02 67.63 323.02C57.5967 323.02 49.14 319.723 42.26 313.13C35.38 306.25 31.94 297.793 31.94 287.76Z" fill="black"/>
</svg>
