<svg width="65" height="65" viewBox="0 0 65 65" fill="none" xmlns="http://www.w3.org/2000/svg">
<path d="M1 34.3026C1 50.704 14.296 64 30.6974 64C47.0988 64 60.3947 50.704 60.3947 34.3026C60.3947 30.0168 59.4869 25.943 57.8529 22.2631M1 34.3026C1 17.9012 14.296 4.60522 30.6974 4.60522M1 34.3026H27.5M30.6974 4.60522C34.8647 4.60522 38.8315 5.46357 42.4306 7.01312M30.6974 4.60522V34.3026L50.5 55" stroke="black" stroke-width="2"/>
<path d="M7.4209 39.9211H10.6314M10.6314 46.3422H13.842M13.842 49.5527H17.0525M17.0525 52.7632H20.263M21.8683 55.9738H25.0788M26.6841 57.579H29.8946M33.1051 57.579H36.3156M37.9209 55.9738H41.1314" stroke="black" stroke-width="2"/>
<path d="M46.1526 1.56816L36.7104 29.8947L63.4815 18.8714C63.7704 18.7524 63.9122 18.4241 63.8025 18.1315C60.8762 10.3281 54.7062 4.13656 46.9028 1.21029C46.5965 1.09543 46.2561 1.25784 46.1526 1.56816Z" stroke="black" stroke-width="2"/>
</svg>
