<svg width="59" height="58" viewBox="0 0 59 58" fill="none" xmlns="http://www.w3.org/2000/svg">
<path d="M24.5974 23.8571L21.6375 20.5273C19.9059 18.5792 19.9612 15.6277 21.7646 13.7459L23.6245 11.8052M24.5974 23.8571L2 47.2078L2.75325 53.2338H5.76623M24.5974 23.8571L28.3636 27.6234M5.76623 53.2338V55.4935H8.77922V57H11.7922L34.3896 33.6493L38.4275 36.8797C40.417 38.4712 43.285 38.3124 45.0865 36.5109L47.1948 34.4026M5.76623 53.2338L28.3636 30.6364M23.6245 11.8052L32.4743 2.57054C34.3702 0.59228 37.505 0.508369 39.504 2.38238L56.2327 18.0656C58.2934 19.9975 58.3459 23.2515 56.3486 25.2488L47.1948 34.4026M23.6245 11.8052L26.5708 14.6299L28.0439 16.0422M47.1948 34.4026L44.2485 31.5779M35.4096 23.1039L36.8828 24.5162M32.4633 20.2792L30.9902 18.8669M41.3022 28.7532L39.8291 27.3409M40.8488 9.06697L47.8316 15.6391C49.5444 17.2511 49.5854 19.96 47.9223 21.6232V21.6232C46.2789 23.2666 43.6091 23.2489 41.9875 21.584L35.2969 14.7146C33.7436 13.1197 33.8095 10.5583 35.4428 9.04543V9.04543C36.9703 7.63055 39.3326 7.63996 40.8488 9.06697Z" stroke="black" stroke-width="2"/>
</svg>
