<svg width="62" height="52" viewBox="0 0 62 52" fill="none" xmlns="http://www.w3.org/2000/svg">
<path d="M1 39.3333V51H61V39.3333M1 39.3333V1H61V39.3333M1 39.3333H11M61 39.3333H52.6667M11 39.3333V36H19.3333M11 39.3333H19.3333M19.3333 36V39.3333M19.3333 36V32.6667H25.1667H31M19.3333 39.3333H25.1667H31M31 32.6667V39.3333M31 32.6667V29.3333H39.3333V31.8333V39.3333M31 39.3333H39.3333M39.3333 39.3333H44.3333M44.3333 39.3333V31.8333V24.3333H52.6667V39.3333M44.3333 39.3333H52.6667M11 27.6667L21 16L27 23.5L36 12.6667L42.6667 17.5L51 7.66667M51 7.66667L42.6667 9.33333M51 7.66667L51.8333 16M7.66667 42.6667V47.6667M14.3333 42.6667V47.6667M21 47.6667V42.6667M27.6667 42.6667V47.6667M34.3333 42.6667V47.6667M41 47.6667V42.6667M47.6667 42.6667V47.6667M54.3333 47.6667V42.6667" stroke="black" stroke-width="2"/>
</svg>
