<svg width="58" height="59" viewBox="0 0 58 59" fill="none" xmlns="http://www.w3.org/2000/svg">
<path d="M14.9869 58C14.9869 58 17.1381 56.5973 17.7843 55.1852C18.5644 53.4807 17.7843 50.3801 17.7843 50.3801M17.7843 50.3801C20.4126 51.4024 23.2382 52.0804 26.1765 52.3701C42.158 53.9454 58.0283 41.0471 56.9478 24.9258C55.9259 9.6793 41.3631 0.999836 26.1765 1C10.7909 1.00017 0.999697 10.852 1 27.0369C1.00021 38.0573 8.03452 46.5878 17.7843 50.3801ZM9.39217 15.778C9.39217 15.778 9.66229 16.2734 10.0915 16.7927M19.183 18.5928C17.8724 18.5396 16.7246 18.5284 15.6863 18.491M19.183 18.5928C20.0336 18.6274 18.2087 18.5172 19.183 18.5928ZM19.183 18.5928C19.6533 18.6293 22.9215 18.8426 23.3791 18.8826M19.183 18.5928C19.183 18.5928 19.8824 22.1113 17.085 21.4076C14.3711 20.7249 15.6863 18.491 15.6863 18.491M27.5752 15.0743C27.5752 15.0743 28.4423 17.7718 27.2313 18.8826C26.0145 19.9987 25.6363 19.08 23.3791 18.8826M10.0915 16.7927C10.4627 17.2418 10.9529 17.7089 11.4902 17.8891C12.76 18.315 14.0945 18.4337 15.6863 18.491M10.0915 16.7927C10.0915 16.7927 9.81137 20.0812 11.4902 22.1113C13.9421 25.0762 17.5771 25.2102 20.5817 22.815C22.0529 21.6423 23.3791 18.8826 23.3791 18.8826M49.255 19.2965C49.255 19.2965 49.7666 21.994 48.5556 23.1048C47.3388 24.2209 47.316 23.3022 45.0589 23.1048M31.0719 20.0002C31.0719 20.0002 31.3421 20.4956 31.7713 21.0149M31.7713 21.0149C32.1425 21.464 32.6326 21.9311 33.17 22.1113C34.4397 22.5372 35.7743 22.6559 37.3661 22.7132M31.7713 21.0149C31.7713 21.0149 31.4911 24.3034 33.17 26.3335C35.6219 29.2984 39.2568 29.4324 42.2615 27.0372C43.7327 25.8645 45.0589 23.1048 45.0589 23.1048M45.0589 23.1048C44.6012 23.0648 41.3331 22.8515 40.8628 22.815M37.3661 22.7132C38.4044 22.7506 39.5522 22.7618 40.8628 22.815M37.3661 22.7132C37.3661 22.7132 36.0509 24.9471 38.7647 25.6298C41.5621 26.3335 40.8628 22.815 40.8628 22.815M10.7909 32.6668C10.7909 32.6668 10.3987 35.0926 9 36.5C7.87393 37.6331 10.7909 41.1112 10.7909 41.1112M37 40C37 40 35.268 41.8149 35.9674 43.2223C36.6796 44.6556 32.4706 46.7408 32.4706 46.7408M13.5882 37.5927C13.5882 37.5927 19.4012 35.4907 22.6798 36.889C24.8335 37.8076 25.1747 39.6857 27.2313 40.8072C29.3523 41.9639 33.17 42.5186 33.17 42.5186" stroke="black" stroke-width="2"/>
</svg>
