<svg width="60" height="55" viewBox="0 0 60 55" fill="none" xmlns="http://www.w3.org/2000/svg">
<path d="M15.7038 34.9678C14.4273 34.9678 13.3882 36.0097 13.3882 37.2905C13.3882 38.5709 14.427 39.6131 15.7038 39.6131C16.9803 39.6131 18.0194 38.5712 18.0194 37.2905C18.0194 36.0101 16.9806 34.9678 15.7038 34.9678ZM15.7038 38.0645C15.2779 38.0645 14.9321 37.7177 14.9321 37.2904C14.9321 36.8632 15.2779 36.5163 15.7038 36.5163C16.1297 36.5163 16.4755 36.8632 16.4755 37.2904C16.4759 37.7177 16.1301 38.0645 15.7038 38.0645Z" fill="black"/>
<path d="M44.261 34.8255V36.5164H45.8047V34.9679H47.3485V32.6452C47.3485 31.3648 46.3098 30.3225 45.0329 30.3225C44.607 30.3225 44.2612 29.9757 44.2612 29.5484V28.7743H45.0329C45.4589 28.7743 45.8047 29.1212 45.8047 29.5484V30.3225H47.3484V29.5484C47.3484 28.5403 46.7009 27.6889 45.8047 27.3684L45.8043 25.6775H44.2606V27.226H42.7168V29.5487C42.7168 30.8291 43.7555 31.8714 45.0324 31.8714C45.4583 31.8714 45.8041 32.2183 45.8041 32.6455V33.4196H45.0324C44.6064 33.4196 44.2606 33.0727 44.2606 32.6455V31.8714H42.7169V32.6455C42.7172 33.6533 43.3648 34.5051 44.261 34.8255Z" fill="black"/>
<path d="M30.3682 39.7549V38.064H28.8244V39.6125H27.2806V41.9352C27.2806 43.2156 28.3194 44.2579 29.5962 44.2579C30.0221 44.2579 30.3679 44.6047 30.3679 45.032V45.8061H29.5962C29.1703 45.8061 28.8245 45.4592 28.8245 45.032V44.2579H27.2807V45.032C27.2807 46.0401 27.9283 46.8915 28.8245 47.212L28.8248 48.9029H30.3686V47.3544H31.9123V45.0317C31.9123 43.7513 30.8736 42.709 29.5968 42.709C29.1709 42.709 28.825 42.3621 28.825 41.9349V41.1608H29.5968C30.0227 41.1608 30.3685 41.5077 30.3685 41.9349V42.709H31.9123V41.9349C31.9119 40.9271 31.2651 40.0757 30.3682 39.7549Z" fill="black"/>
<path d="M14.058 27.2262H11.8443V19.4842H10.3009V28.7747H11.1745L9.52885 31.2501L7.88356 28.7747H8.75713V4.00073H7.21371V27.2267H5L9.52893 34.042L14.058 27.2262Z" fill="black"/>
<path d="M10.3008 4H11.8446V17.9354H10.3008V4Z" fill="black"/>
<path d="M44.2609 19.4834C45.1121 19.4834 45.8047 18.789 45.8047 17.9349V16.3864H46.0994L47.6432 19.4832H54L52.0703 15.6123L54 11.7415L47.6428 11.7418L46.0991 14.8386H41.1348C40.7343 8.79571 35.7197 4 29.5963 4C23.4729 4 18.4586 8.79597 18.0587 14.8386H14.932C14.0808 14.8386 13.3882 15.533 13.3882 16.3871V17.9356C13.3882 18.7894 14.0805 19.4841 14.932 19.4841H15.2985C19.3044 25.2263 21.7734 31.9247 22.4533 38.8993C22.3622 39.0426 22.2721 39.1865 22.1893 39.3352L20.8999 38.7583C21.0317 38.2906 21.1068 37.7991 21.1068 37.2897C21.1068 34.3022 18.6825 31.8703 15.704 31.8703C12.7255 31.8703 10.3011 34.3021 10.3011 37.2897C10.3011 38.9458 11.0475 40.4283 12.2185 41.4231L8.48664 47.4124C8.32508 47.3769 8.15852 47.3542 7.98561 47.3542C6.70914 47.3542 5.67004 48.3961 5.67004 49.6769C5.67004 50.9573 6.70879 51.9995 7.98561 51.9995C9.26209 51.9995 10.3012 50.9576 10.3012 49.6769C10.3012 49.1318 10.1052 48.6372 9.79113 48.2408L13.526 42.2455C14.1932 42.5412 14.9289 42.7093 15.7036 42.7093C17.6256 42.7093 19.312 41.6944 20.2696 40.173L21.5631 40.7499C21.2714 41.6093 21.1061 42.5267 21.1061 43.4837C21.1061 48.1792 24.9151 51.9999 29.5962 51.9999C34.2773 51.9999 38.0862 48.1792 38.0862 43.4837C38.0862 41.7517 37.5652 40.1409 36.6763 38.7945L38.9213 36.9928C40.4668 38.6044 42.6332 39.6124 45.0328 39.6124C49.714 39.6124 53.5229 35.7918 53.5229 31.0963C53.5229 26.4008 49.714 22.5801 45.0328 22.5801C43.7754 22.5801 42.5848 22.8634 41.5103 23.3576C42.2349 22.0237 43.03 20.7275 43.8982 19.4834L44.2609 19.4834ZM7.985 50.4512C7.55908 50.4512 7.21327 50.1043 7.21327 49.6771C7.21327 49.2498 7.55909 48.903 7.985 48.903C8.41093 48.903 8.75673 49.2498 8.75673 49.6771C8.75673 50.1046 8.41092 50.4512 7.985 50.4512ZM15.703 41.1606C13.5751 41.1606 11.844 39.4242 11.844 37.2897C11.844 35.1553 13.5751 33.4189 15.703 33.4189C17.8309 33.4189 19.562 35.1553 19.562 37.2897C19.5623 39.4242 17.8309 41.1606 15.703 41.1606ZM44.2609 17.9354H40.9407C41.0435 17.4315 41.1006 16.9119 41.1353 16.3869H44.262L44.2616 17.9354H44.2609ZM48.5969 17.9354L47.8252 16.3869H50.7302L51.5019 17.9354H48.5969ZM48.5969 13.2902H51.5019L50.7302 14.8387H47.8252L48.5969 13.2902ZM29.5959 5.54844C34.8675 5.54844 39.1938 9.65098 39.5903 14.839H38.0465C37.6557 10.5051 34.0173 7.09695 29.5961 7.09695C24.915 7.09695 21.1061 10.9176 21.1061 15.6131C21.1061 20.3086 24.915 24.1292 29.5961 24.1292C34.0172 24.1292 37.6556 20.7211 38.0469 16.3872H39.5906C39.1938 21.5749 34.8677 25.6778 29.5962 25.6778C24.0639 25.6778 19.5625 21.1627 19.5625 15.6132C19.5622 10.0639 24.0634 5.54861 29.5954 5.54861L29.5959 5.54844ZM33.3771 14.839C33.0183 13.0745 31.4597 11.7422 29.5959 11.7422C27.468 11.7422 25.7369 13.4786 25.7369 15.6131C25.7369 17.7476 27.468 19.484 29.5959 19.484C31.4592 19.484 33.0183 18.1517 33.3771 16.3872H36.4968C36.1116 19.8656 33.1655 22.5807 29.5959 22.5807C25.7653 22.5807 22.6496 19.4552 22.6496 15.6131C22.6496 11.7707 25.7656 8.64546 29.5959 8.64546C33.1654 8.64546 36.1116 11.3606 36.4968 14.839H33.3771ZM31.7693 16.3872C31.4498 17.2862 30.6006 17.9357 29.5959 17.9357C28.3194 17.9357 27.2803 16.8938 27.2803 15.613C27.2803 14.3326 28.3191 13.2903 29.5959 13.2903C30.601 13.2903 31.4498 13.9399 31.7693 14.8388H28.8238V16.3874L31.7693 16.3872ZM14.931 16.3872H18.0577C18.0924 16.9122 18.1495 17.4315 18.2523 17.9357H14.9321L14.9317 16.3872H14.931ZM35.3787 37.2663C33.8606 35.845 31.8305 34.9678 29.5954 34.9678C27.3626 34.9678 25.3342 35.8434 23.8167 37.2626C23.6445 35.9699 23.4161 34.6868 23.1268 33.4196H36.0692C35.7792 34.6909 35.5499 35.9766 35.3786 37.2663H35.3787ZM36.5604 31.4615C36.5226 31.5971 36.4909 31.7347 36.4545 31.871H22.7396C22.5997 31.3513 22.4495 30.8361 22.2903 30.3225H36.5803C36.5573 30.5779 36.541 30.8351 36.541 31.0966C36.542 31.2201 36.5553 31.34 36.5606 31.4615L36.5604 31.4615ZM29.5954 50.4515C25.7647 50.4515 22.6491 47.3259 22.6491 43.4839C22.6491 39.6415 25.7651 36.5162 29.5954 36.5162C33.426 36.5162 36.5416 39.6418 36.5416 43.4839C36.5416 47.3263 33.426 50.4515 29.5954 50.4515ZM37.0426 36.5161C37.1368 35.9191 37.2456 35.3245 37.3654 34.7315C37.5383 35.0968 37.7306 35.4514 37.9519 35.7859L37.0426 36.5161ZM51.9787 31.0966C51.9787 34.939 48.8627 38.0642 45.0324 38.0642C41.2018 38.0642 38.0862 34.9387 38.0862 31.0966C38.0862 27.2542 41.2022 24.129 45.0324 24.129C48.8627 24.129 51.9787 27.2542 51.9787 31.0966ZM38.7833 25.352C37.9011 26.3167 37.2382 27.4812 36.8717 28.7739H21.7775C20.6283 25.5091 19.0847 22.3852 17.1681 19.4834H18.6933C20.2878 23.9867 24.5661 27.2254 29.5952 27.2254C34.6244 27.2254 38.9026 23.987 40.4971 19.4834H42.0329C40.7989 21.3517 39.7037 23.3157 38.7828 25.3518L38.7833 25.352Z" fill="black"/>
</svg>
