<svg width="400" height="400" viewBox="0 0 400 400" fill="none" xmlns="http://www.w3.org/2000/svg">
<path opacity="0.7" d="M249.505 231.432L193.064 199.054C181.204 192.25 163.161 191.546 152.867 197.49L91.1025 233.113L46.9517 258.569C36.6577 264.513 37.9493 274.875 49.809 281.679L97.1301 308.817L96.2691 309.325C77.7164 320.039 80.0256 338.613 101.436 350.892C113.648 357.891 129.382 361.293 144.138 360.98C152.514 361.137 162.73 358.908 175.686 352.612L218.114 328.134C236.667 317.419 234.358 298.846 212.948 286.567C210.208 285.003 207.233 283.595 204.18 282.383L225.473 270.105L255.415 252.43C262.226 246.369 260.112 237.493 249.505 231.432Z" fill="#1A8E74" fill-opacity="0.3"/>
<path d="M340.194 39.3971C336.437 37.2073 331.231 37.5201 325.477 40.8439L208.133 108.531C196.704 115.101 187.467 131.094 187.506 144.193L187.702 206.407C187.702 212.898 190.011 217.473 193.729 219.623L207.35 227.522L353.815 47.2959L340.194 39.3971Z" fill="url(#paint0_linear_283_4718)"/>
<path d="M360 122.726L359.804 60.5133C359.765 47.4138 350.489 42.1349 339.06 48.7042L270.642 88.1593L221.716 116.392C210.287 122.961 201.049 138.954 201.089 152.054L201.284 214.267C201.323 227.366 210.6 232.645 222.029 226.076L309.469 175.633C317.65 180.521 335.42 188.889 355.89 184.744C355.381 184.197 346.027 173.873 343.013 155.886C352.72 148.3 360.039 134.379 360 122.726Z" fill="url(#paint1_linear_283_4718)"/>
<path opacity="0.6" d="M216.392 167.499L201.166 176.258L201.284 214.266C201.323 227.366 210.599 232.645 222.028 226.075L249.779 210.043C252.284 202.848 253.693 195.575 253.654 188.693C253.654 165.153 236.941 155.651 216.392 167.499Z" fill="#5FB09E"/>
<path d="M163.63 286.177C163.983 304.986 153.689 328.37 153.141 329.621L166.762 337.52C167.31 336.307 177.604 312.885 177.251 294.076L163.63 286.177Z" fill="url(#paint2_linear_283_4718)"/>
<path d="M262.344 165.896C255.572 161.986 246.218 162.533 235.885 168.477L186.724 196.826C166.175 208.675 149.618 237.376 149.658 260.916C149.697 272.608 153.846 280.859 160.499 284.73L174.12 292.629L275.965 173.756L262.344 165.896Z" fill="url(#paint3_linear_283_4718)"/>
<path d="M249.466 176.375L225.003 190.491L200.306 204.725C179.757 216.573 163.2 245.275 163.239 268.815C163.278 282.266 168.719 291.103 177.213 294.036C177.565 312.845 167.271 336.228 166.723 337.48C182.653 322.308 196.391 299.902 202.693 288.796L249.701 261.698C270.25 249.85 286.807 221.148 286.767 197.569C286.689 174.029 270.015 164.527 249.466 176.375Z" fill="url(#paint4_linear_283_4718)"/>
<path d="M213.299 241.286C213.299 244.454 210.755 248.481 207.585 250.319C204.414 252.157 201.87 251.062 201.87 247.895C201.87 244.727 204.414 240.7 207.585 238.862C210.716 237.024 213.299 238.119 213.299 241.286Z" fill="#1A8E74"/>
<path d="M232.243 230.339C232.243 233.506 229.698 237.534 226.528 239.372C223.358 241.21 220.813 240.115 220.813 236.948C220.813 233.78 223.358 229.753 226.528 227.915C229.698 226.077 232.243 227.172 232.243 230.339Z" fill="#1A8E74"/>
<path d="M251.227 219.389C251.227 222.557 248.682 226.584 245.512 228.422C242.342 230.26 239.797 229.165 239.797 225.998C239.797 222.831 242.342 218.803 245.512 216.965C248.643 215.166 251.227 216.261 251.227 219.389Z" fill="#1A8E74"/>
<path d="M267.471 145.953C267.471 149.628 264.496 154.36 260.778 156.472C257.099 158.583 254.085 157.332 254.085 153.656C254.085 149.98 257.06 145.249 260.778 143.137C264.457 141.026 267.471 142.277 267.471 145.953Z" fill="#1A8E74"/>
<path d="M289.626 133.205C289.626 136.881 286.652 141.612 282.933 143.724C279.254 145.836 276.24 144.584 276.24 140.909C276.24 137.233 279.215 132.501 282.933 130.39C286.612 128.239 289.626 129.49 289.626 133.205Z" fill="#1A8E74"/>
<path d="M311.778 120.419C311.778 124.095 308.804 128.826 305.085 130.938C301.406 133.049 298.392 131.798 298.392 128.122C298.392 124.447 301.367 119.715 305.085 117.604C308.804 115.453 311.778 116.704 311.778 120.419Z" fill="#1A8E74"/>
<path d="M339.098 48.7036C290.955 77.9137 260.738 95.0408 221.754 116.391C259.76 93.3203 289.781 75.6848 339.098 48.7036Z" fill="url(#paint5_radial_283_4718)"/>
<path d="M249.466 176.375C228.878 188.849 209.816 200.189 200.305 204.725C208.916 198.82 234.24 183.687 249.466 176.375Z" fill="url(#paint6_radial_283_4718)"/>
<defs>
<linearGradient id="paint0_linear_283_4718" x1="187.464" y1="132.764" x2="353.798" y2="132.764" gradientUnits="userSpaceOnUse">
<stop stop-color="#115142"/>
<stop offset="0.4557" stop-color="#609F91"/>
<stop offset="1" stop-color="#FFDEFF"/>
<stop offset="1" stop-color="#AAEADC"/>
</linearGradient>
<linearGradient id="paint1_linear_283_4718" x1="201.124" y1="137.385" x2="360.012" y2="137.385" gradientUnits="userSpaceOnUse">
<stop stop-color="#43BEA2"/>
<stop offset="0.765625" stop-color="#E2F8F3"/>
</linearGradient>
<linearGradient id="paint2_linear_283_4718" x1="153.135" y1="311.849" x2="177.258" y2="311.849" gradientUnits="userSpaceOnUse">
<stop offset="0.416667" stop-color="#115142"/>
<stop offset="0.869792" stop-color="#609F91"/>
<stop offset="1" stop-color="#FFDEFF"/>
<stop offset="1" stop-color="#AAEADC"/>
</linearGradient>
<linearGradient id="paint3_linear_283_4718" x1="149.626" y1="228.015" x2="275.952" y2="228.015" gradientUnits="userSpaceOnUse">
<stop stop-color="#115142"/>
<stop offset="0.4557" stop-color="#609F91"/>
<stop offset="1" stop-color="#FFDEFF"/>
<stop offset="1" stop-color="#AAEADC"/>
</linearGradient>
<linearGradient id="paint4_linear_283_4718" x1="163.267" y1="254.373" x2="286.777" y2="254.373" gradientUnits="userSpaceOnUse">
<stop stop-color="#43BEA2"/>
<stop offset="0.765625" stop-color="#E2F8F3"/>
</linearGradient>
<radialGradient id="paint5_radial_283_4718" cx="0" cy="0" r="1" gradientUnits="userSpaceOnUse" gradientTransform="translate(280.414 82.5669) scale(91.177 90.4489)">
<stop stop-color="#FFEC3D"/>
<stop offset="0.2167" stop-color="#8AE0CC"/>
<stop offset="0.2615" stop-color="#4DE3C0"/>
<stop offset="0.3398" stop-color="#2DD1AB"/>
<stop offset="0.4216" stop-color="#1B8F74"/>
<stop offset="0.5054" stop-color="#18725D"/>
<stop offset="0.5917" stop-color="#0D4236"/>
<stop offset="0.6811" stop-color="#07241E"/>
<stop offset="0.7752" stop-color="#04120F"/>
<stop offset="0.8768" stop-color="#030A08"/>
<stop offset="1" stop-color="#000202"/>
</radialGradient>
<radialGradient id="paint6_radial_283_4718" cx="0" cy="0" r="1" gradientUnits="userSpaceOnUse" gradientTransform="translate(224.88 190.558) scale(38.1982 37.883)">
<stop stop-color="#FFEC3D"/>
<stop offset="0.2167" stop-color="#8AE0CC"/>
<stop offset="0.2615" stop-color="#4DE3C0"/>
<stop offset="0.3398" stop-color="#2DD1AB"/>
<stop offset="0.4216" stop-color="#1B8F74"/>
<stop offset="0.5054" stop-color="#18725D"/>
<stop offset="0.5917" stop-color="#0D4236"/>
<stop offset="0.6811" stop-color="#07241E"/>
<stop offset="0.7752" stop-color="#04120F"/>
<stop offset="0.8768" stop-color="#030A08"/>
<stop offset="1" stop-color="#000202"/>
</radialGradient>
</defs>
</svg>
