<svg width="400" height="400" viewBox="0 0 400 400" fill="none" xmlns="http://www.w3.org/2000/svg">
<path opacity="0.7" d="M302.731 254.003L241.635 257.886L206.602 287.732L303.645 291.615L302.731 254.003Z" fill="#257361"/>
<path opacity="0.7" d="M213.032 192.892L40 292.56L69.448 309.509L189.745 313.965L188.831 276.354L213.032 192.892Z" fill="#1A8E74" fill-opacity="0.3"/>
<path d="M282.996 86.6755L243.225 111.592L284.587 223.888L282.996 86.6755Z" fill="#36A088"/>
<path d="M206.6 159.231L202.979 140.324L160.533 156.328L152.714 292.662L189.744 314L206.6 159.231Z" fill="#66B9A6"/>
<path d="M160.533 156.329L153.154 292.933L179.115 283.074L188.593 154.269L160.533 156.329Z" fill="#95ECD8"/>
<path d="M184.87 170.339L189.237 313.696L189.744 314L190.658 174.29L184.87 170.339Z" fill="#59C5AD"/>
<path d="M307.435 100.754L186.123 171.082L189.744 314L314.103 241.916L307.435 100.754Z" fill="url(#paint0_linear_283_4324)"/>
<path d="M160.533 156.328L152.714 292.662L153.154 292.932L161.616 156.969L161.921 156.328H160.533Z" fill="#59C5AD"/>
<path d="M281.845 86L160.533 156.328L161.616 156.969L188.593 154.268L184.87 170.339L186.122 171.082L257.982 129.419L307.434 100.754L306.148 100.012L281.202 101.058L282.996 86.6752L281.845 86Z" fill="url(#paint1_linear_283_4324)"/>
<path d="M189.642 153.323L162.53 156.125L282.183 86.7764L280.288 101.902L305.539 100.923L185.648 170.407L189.642 153.323Z" fill="#36A088"/>
<path opacity="0.5" d="M179.115 283.073L153.154 292.932L189.236 313.696L179.115 283.073Z" fill="#AFD3CB"/>
<path d="M280.289 101.902L282.252 114.428L305.539 100.923L280.289 101.902Z" fill="#26B493"/>
<path d="M185.648 170.407L188.254 168.921L189.642 153.323L185.648 170.407Z" fill="#26B493"/>
<path opacity="0.6" d="M266.783 140.189C266.546 139.48 265.801 139.108 265.09 139.378C264.379 139.649 264.007 140.459 264.244 141.202C264.312 141.438 271.86 168.516 255.579 181.109C253.751 182.527 251.889 183.439 250.095 183.81C236.319 186.815 231.851 161.054 231.817 160.818C231.682 160.075 230.971 159.602 230.26 159.805C229.55 159.974 229.076 160.75 229.211 161.493C229.38 162.472 233.611 186.781 247.32 186.883C248.335 186.883 249.385 186.781 250.502 186.545C252.668 186.072 254.868 184.992 257.034 183.338C275.042 169.495 266.884 140.459 266.783 140.189Z" fill="#669D90"/>
<path d="M267.629 139.344C268.069 140.627 267.46 142.248 266.309 142.957C265.158 143.7 263.838 143.261 263.398 141.978C262.958 140.695 263.567 139.074 264.718 138.365C265.903 137.656 267.223 138.061 267.629 139.344Z" fill="#36A088"/>
<path d="M232.867 159.366C233.307 160.649 232.698 162.269 231.547 162.978C230.396 163.721 229.076 163.282 228.636 161.999C228.196 160.716 228.805 159.096 229.956 158.386C231.141 157.677 232.427 158.116 232.867 159.366Z" fill="#36A088"/>
<path d="M266.784 140.189C266.513 139.48 265.7 139.143 265.023 139.413C264.313 139.683 263.974 140.459 264.245 141.168C264.347 141.405 273.316 164.701 257.272 176.957C255.444 178.341 253.617 179.253 251.823 179.624C237.877 182.629 232.089 160.582 232.055 160.379C231.886 159.67 231.141 159.198 230.397 159.4C229.686 159.569 229.246 160.312 229.415 161.055C229.652 162 235.102 182.629 249.149 182.629C250.198 182.629 251.281 182.528 252.398 182.291C254.598 181.819 256.798 180.772 258.931 179.118C276.6 165.613 266.885 140.426 266.784 140.189Z" fill="#C2FFF1"/>
<path d="M186.123 171.081C186.123 171.081 193.671 166.625 204.976 159.906C216.315 153.255 231.445 144.409 246.576 135.563C261.773 126.818 276.971 118.107 288.378 111.524C299.819 105.041 307.435 100.72 307.435 100.72C307.435 100.72 299.887 105.176 288.581 111.895C277.242 118.546 262.112 127.392 246.982 136.238C231.784 144.983 216.586 153.693 205.179 160.277C193.738 166.76 186.123 171.081 186.123 171.081Z" fill="url(#paint2_radial_283_4324)"/>
<path opacity="0.3" d="M284.553 259.067L291.83 179.083L235.981 211.259L234.018 288.34L284.553 259.067Z" fill="#6D8882"/>
<path d="M335.629 137.117L304.489 156.631L336.882 244.617L335.629 137.117Z" fill="#36A088"/>
<path d="M316.809 170.304L314 155.516L280.727 168.042L274.601 274.902L303.642 291.614L316.809 170.304Z" fill="#66B9A6"/>
<path d="M280.727 168.042L274.939 275.104L295.316 267.373L302.729 166.422L280.727 168.042Z" fill="#95ECD8"/>
<path d="M299.784 179.051L303.236 291.379L303.642 291.616L304.353 182.123L299.784 179.051Z" fill="#59C5AD"/>
<path d="M354.787 148.158L327.336 164.128L300.765 179.625L303.642 291.616L360 258.799L354.787 148.158Z" fill="url(#paint3_linear_283_4324)"/>
<path d="M280.727 168.043L274.601 274.902L274.939 275.105L281.573 168.549L281.81 168.043H280.727Z" fill="#59C5AD"/>
<path d="M334.749 136.576L280.728 168.043L281.574 168.55L302.729 166.423L299.784 179.05L300.766 179.624L354.787 148.157L353.772 147.549L334.242 148.393L335.629 137.117L334.749 136.576Z" fill="url(#paint4_linear_283_4324)"/>
<path d="M303.541 165.714L282.284 167.875L334.986 137.184L333.497 149.069L353.298 148.259L300.427 179.084L303.541 165.714Z" fill="#36A088"/>
<path opacity="0.5" d="M295.316 267.373L274.939 275.105L303.237 291.378L295.316 267.373Z" fill="#AFD3CB"/>
<path d="M333.496 149.068L335.053 158.859L353.297 148.258L333.496 149.068Z" fill="#26B493"/>
<path d="M300.426 179.083L302.457 177.901L303.54 165.713L300.426 179.083Z" fill="#26B493"/>
<path opacity="0.6" d="M344.193 166.287C343.99 165.679 343.346 165.375 342.771 165.612C342.162 165.848 341.857 166.523 342.026 167.131C342.094 167.334 348.39 189.685 334.309 200.252C332.718 201.434 331.127 202.211 329.604 202.548C317.791 205.148 315.185 183.303 315.151 183.101C315.049 182.459 314.44 182.088 313.831 182.257C313.222 182.426 312.815 183.067 312.917 183.675C313.052 184.485 315.489 205.148 327.201 205.148C328.081 205.148 328.995 205.047 329.943 204.844C331.804 204.439 333.7 203.527 335.595 202.109C351.064 190.461 344.26 166.49 344.193 166.287Z" fill="#669D90"/>
<path d="M344.938 165.579C345.31 166.626 344.802 168.01 343.821 168.618C342.839 169.226 341.756 168.854 341.384 167.808C341.011 166.761 341.519 165.377 342.501 164.769C343.482 164.127 344.565 164.499 344.938 165.579Z" fill="#36A088"/>
<path d="M315.862 182.324C316.234 183.371 315.727 184.755 314.745 185.363C313.763 185.971 312.68 185.599 312.308 184.553C311.936 183.506 312.443 182.122 313.425 181.514C314.406 180.873 315.49 181.244 315.862 182.324Z" fill="#36A088"/>
<path d="M344.227 166.254C343.99 165.68 343.313 165.376 342.772 165.612C342.196 165.848 341.892 166.49 342.129 167.064C342.196 167.267 349.711 186.748 336.307 196.978C334.784 198.126 333.26 198.869 331.737 199.206C320.06 201.738 315.253 183.304 315.185 183.101C315.016 182.494 314.407 182.122 313.798 182.291C313.188 182.46 312.816 183.068 312.985 183.675C313.188 184.452 317.724 201.738 329.469 201.738C330.349 201.738 331.229 201.637 332.177 201.434C334.039 201.029 335.867 200.151 337.661 198.801C352.452 187.524 344.295 166.456 344.227 166.254Z" fill="#C2FFF1"/>
<path d="M354.788 148.158C354.788 148.158 351.471 150.184 346.462 153.256C341.418 156.261 334.716 160.245 327.98 164.229C321.211 168.112 314.407 171.994 309.33 174.898C304.219 177.734 300.8 179.625 300.8 179.625C300.8 179.625 304.117 177.599 309.127 174.527C314.17 171.522 320.872 167.538 327.608 163.554C334.378 159.671 341.181 155.788 346.258 152.885C351.37 150.049 354.788 148.158 354.788 148.158Z" fill="url(#paint5_radial_283_4324)"/>
<defs>
<linearGradient id="paint0_linear_283_4324" x1="186.112" y1="207.38" x2="314.099" y2="207.38" gradientUnits="userSpaceOnUse">
<stop stop-color="#43BEA2"/>
<stop offset="1" stop-color="#A2DCCF"/>
</linearGradient>
<linearGradient id="paint1_linear_283_4324" x1="160.517" y1="128.549" x2="307.419" y2="128.549" gradientUnits="userSpaceOnUse">
<stop stop-color="#59C5AD"/>
<stop offset="1" stop-color="#A2DED1"/>
</linearGradient>
<radialGradient id="paint2_radial_283_4324" cx="0" cy="0" r="1" gradientUnits="userSpaceOnUse" gradientTransform="translate(246.766 135.921) scale(94.2602 94.0223)">
<stop stop-color="#FFEC3D"/>
<stop offset="0.2167" stop-color="#8AE0CC"/>
<stop offset="0.2615" stop-color="#4DE3C0"/>
<stop offset="0.3398" stop-color="#2DD1AB"/>
<stop offset="0.4216" stop-color="#1B8F74"/>
<stop offset="0.5054" stop-color="#18725D"/>
<stop offset="0.5917" stop-color="#0D4236"/>
<stop offset="0.6811" stop-color="#07241E"/>
<stop offset="0.7752" stop-color="#04120F"/>
<stop offset="0.8768" stop-color="#030A08"/>
<stop offset="1" stop-color="#000202"/>
</radialGradient>
<linearGradient id="paint3_linear_283_4324" x1="300.774" y1="219.881" x2="360.014" y2="219.881" gradientUnits="userSpaceOnUse">
<stop stop-color="#43BEA2"/>
<stop offset="1" stop-color="#A2DCCF"/>
</linearGradient>
<linearGradient id="paint4_linear_283_4324" x1="280.716" y1="158.099" x2="354.78" y2="158.099" gradientUnits="userSpaceOnUse">
<stop stop-color="#59C5AD"/>
<stop offset="1" stop-color="#A2DED1"/>
</linearGradient>
<radialGradient id="paint5_radial_283_4324" cx="0" cy="0" r="1" gradientUnits="userSpaceOnUse" gradientTransform="translate(327.789 163.9) scale(41.949 42.0484)">
<stop stop-color="#FFEC3D"/>
<stop offset="0.2167" stop-color="#8AE0CC"/>
<stop offset="0.2615" stop-color="#4DE3C0"/>
<stop offset="0.3398" stop-color="#2DD1AB"/>
<stop offset="0.4216" stop-color="#1B8F74"/>
<stop offset="0.5054" stop-color="#18725D"/>
<stop offset="0.5917" stop-color="#0D4236"/>
<stop offset="0.6811" stop-color="#07241E"/>
<stop offset="0.7752" stop-color="#04120F"/>
<stop offset="0.8768" stop-color="#030A08"/>
<stop offset="1" stop-color="#000202"/>
</radialGradient>
</defs>
</svg>
