<svg width="741" height="496" viewBox="0 0 741 496" fill="none" xmlns="http://www.w3.org/2000/svg">
<path d="M449.222 15.6555C568.607 74.1366 685 120 722 174.5C759 229 727.5 256 736.5 305C746.276 358.222 704 431.521 704 431.521C704 431.521 674.005 496 602.075 496C530.144 496 515.658 483.504 460.211 441.018C404.765 398.532 245.418 372.54 176.984 431.521C108.55 490.502 63.0937 505.497 20.6349 398.532C-21.824 291.566 11.144 196.097 31.6245 131.618C52.105 67.139 146.014 114.124 213.949 97.1292C281.883 80.1346 329.837 -42.8256 449.222 15.6555Z" fill="#E9EBF7"/>
</svg>
