<svg width="707" height="455" viewBox="0 0 707 455" fill="none" xmlns="http://www.w3.org/2000/svg">
<path d="M367.007 25.0384C412.507 -20.4622 618.269 6.36771 646.506 25.038C674.743 43.7083 684.243 59.2085 694.743 94.2085C705.243 129.208 711.243 151.708 702.243 187.208C693.243 222.708 646.506 355.539 646.506 355.539C646.506 355.539 604.438 412.038 532.507 412.038C460.577 412.038 398.954 483.524 343.507 441.038C288.061 398.552 217.007 387.539 158.007 387.539C99.0074 387.539 103.007 372.038 34.0073 333.038C-34.9928 294.038 14.5072 89.1677 63.5071 60.5386C112.507 31.9094 197.507 97.0384 251.507 86.0386C305.507 75.0387 321.507 70.5389 367.007 25.0384Z" fill="#E9EBF7"/>
</svg>
