<svg width="400" height="400" viewBox="0 0 400 400" fill="none" xmlns="http://www.w3.org/2000/svg">
<path opacity="0.7" d="M181.4 351.618C259.493 351.618 322.8 323.553 322.8 288.933C322.8 254.312 259.493 226.247 181.4 226.247C103.307 226.247 40 254.312 40 288.933C40 323.553 103.307 351.618 181.4 351.618Z" fill="#1A8E74" fill-opacity="0.3"/>
<path d="M121.575 206.456C120.639 213.163 120.592 223.222 121.294 234.26C125.129 294.524 176.909 341.282 237.389 337.183C237.81 337.137 238.231 337.137 238.652 337.09C282.854 333.784 308.627 321.07 330.097 294.011C341.977 279.062 331.453 231.605 288.841 201.939C277.615 194.115 268.728 183.543 263.63 170.875C255.21 149.825 249.831 127.145 243.142 111.636C227.286 96.7797 209.698 84.997 182.99 96.9194C140.986 115.641 127.609 161.84 121.575 206.456Z" fill="#1A8E74"/>
<path opacity="0.3" d="M181.166 142.884C185.469 161.14 188.463 174.692 187.901 189.13C187.387 202.216 183.972 225.409 190.1 240.266C201.513 267.883 235.752 269.978 240.429 269.885C261.899 269.419 295.53 249.58 299.366 241.104C301.564 236.26 297.729 231.696 293.004 230.532C253.667 220.845 248.802 210.04 250.813 176.835C251 173.901 247.025 144.7 245.668 138.879C242.441 125.233 234.021 109.771 229.344 107.582C227.239 106.604 224.807 106.884 222.515 107.023C215.919 107.396 198.051 95.1943 183.411 110.051C174.804 118.806 179.201 134.454 181.166 142.884Z" fill="#591D93"/>
<path d="M225.648 90.4458C225.133 96.1276 231.12 141.395 231.12 141.395L260.635 182.705C263.676 187.036 278.316 177.768 274.621 172.645L256.566 136.133C256.566 136.133 255.069 104.185 255.022 90.9582C253.292 83.2272 250.953 80.0604 247.679 78.4769C244.779 77.0798 241.411 77.1729 238.324 78.0112C233.412 79.3618 226.303 82.6683 225.648 90.4458Z" fill="#342135"/>
<path d="M315.271 306.862C315.364 308.539 315.318 314.779 316.674 316.037C319.901 318.971 322.848 318.785 326.918 321.579C329.677 323.488 337.442 328.891 340.763 329.683C356.666 333.501 359.52 330.334 359.987 325.398C360.268 322.464 355.778 319.53 355.497 319.297C353.158 317.574 343.71 316.829 338.798 314.36C333.653 311.752 328.414 309.284 323.456 306.49C321.211 305.279 315.411 306.257 315.271 306.862Z" fill="#43BEA2"/>
<path d="M356.899 319.95C351.38 314.362 340.061 308.913 338.423 305.513C337.862 304.349 337.441 303.091 337.114 301.834C336.786 300.577 336.272 299.412 335.477 298.388C332.436 294.476 326.683 287.164 325.28 285.813L315.644 286.931C316.299 290.051 316.767 293.125 316.486 296.292C315.925 302.02 313.399 308.82 317.609 312.685C319.105 314.082 321.21 314.641 323.035 315.526C327.759 317.762 329.256 320.09 333.746 322.791C338.47 325.586 346.375 327.774 352.783 328.333C357.414 328.706 363.541 326.61 356.899 319.95Z" fill="#121414"/>
<path d="M243.845 340.211C243.845 340.211 242.91 339.093 242.769 339.745C242.863 341.375 242.676 347.849 243.658 349.339C249.458 357.908 259.374 366.99 266.671 368.992C274.857 371.228 281.078 369.458 282.434 366.478C282.949 365.313 282.808 363.683 282.2 361.727C281.265 358.56 276.354 352.506 273.173 351.668C270.974 351.062 268.542 350.177 266.391 348.175C262.228 344.309 256.287 342.679 251.376 339.932C249.224 338.674 243.05 335.6 243.845 340.211Z" fill="#43BEA2"/>
<path d="M245.576 346.963C241.18 343.377 243.331 336.531 243.565 330.896C243.752 325.493 247.26 320.883 252.499 319.998L261.293 318.461C261.527 320.464 261.807 322.42 262.041 324.422C262.602 329.359 263.211 334.389 265.596 338.766C267.561 342.399 278.412 350.27 282.295 361.68C283.511 365.219 277.009 365.592 274.109 365.545C270.461 365.452 262.228 362.797 257.738 359.398C250.956 354.275 246.512 347.708 245.576 346.963Z" fill="#121414"/>
<path d="M241.692 265.555C239.774 280.551 239.821 292.66 240.897 307.563C241.973 322.606 242.534 335.972 242.534 335.972C242.908 342.864 265.173 342.352 264.939 336.298C264.939 336.298 269.008 297.038 273.218 259.873C273.499 257.405 273.826 254.006 273.826 254.006C273.031 238.683 243.142 246.88 241.692 265.555Z" fill="#2C1B2D"/>
<path d="M317.279 243.063C316.203 238.965 314.425 233.842 312.134 231.699C299.785 220.103 258.062 202.452 258.062 202.452C258.062 202.452 258.53 200.356 254.975 196.631C249.034 190.39 238.791 193.883 230.558 192.113C219.519 189.785 197.068 201.847 196.132 213.024C195.664 218.799 195.15 231.187 199.219 239.896C203.101 248.232 231.307 263.834 242.158 271.099C242.158 271.099 266.107 258.012 271.206 251.492C272.001 250.468 271.86 248.884 270.878 247.999C266.668 244.46 256.799 237.94 256.799 237.94C256.799 237.94 288.559 251.166 289.167 250.934C301.001 246.276 313.443 244.46 317.279 243.063Z" fill="#2C1B2D"/>
<path d="M314.662 235.422C314.475 234.91 314.195 234.397 313.867 233.978C303.764 221.264 280.283 232.488 286.831 249.533C292.772 266.439 303.857 277.337 315.504 307.189C318.17 314.035 340.342 309.285 338.611 303.929C336.834 298.247 327.058 269.839 314.662 235.422Z" fill="#2C1B2D"/>
<path d="M252.451 197.887C253.48 193.742 241.225 150.104 242.207 135.527C242.347 128.029 242.3 120.717 242.02 114.244C241.505 103.206 242.347 103.672 238.839 92.9605C236.781 86.6733 234.442 80.9916 224.807 83.6928C222.421 84.3448 220.223 85.6022 218.118 86.9527C216.808 87.791 215.452 88.2569 214.002 88.9554C212.131 89.7937 210.634 91.1908 208.95 92.3551C203.571 95.9877 209.324 109.82 213.487 119.367C214.282 122.441 196.602 205.385 197.677 209.763C200.39 210.834 210.447 217.028 234.068 210.694C249.223 206.596 252.497 200.402 252.451 197.887Z" fill="#E8ECED"/>
<path d="M221.019 137.111C218.353 129.707 217.464 121.556 214.19 114.338C211.758 109.867 209.512 105.024 209.092 100.18C208.764 96.1749 209.84 92.7284 211.617 89.5615C201.327 95.6159 189.961 104.139 186.359 107.119C183.646 114.012 194.451 134.597 195.293 171.994C195.106 188.573 195.433 191.694 192.159 220.335C193.001 223.083 210.401 231.047 228.176 226.855C228.176 201.939 226.772 188.014 227.193 176.185C227.474 162.912 224.2 149.732 221.019 137.111Z" fill="#342135"/>
<path d="M261.15 202.126C260.449 191.74 256.005 180.423 254.929 162.307C254.134 149.267 253.152 133.758 254.415 117.598C254.742 106.653 255.21 93.7996 252.544 84.6715C251.421 80.8061 248.241 77.6392 244.218 77.2666C243.657 77.22 243.095 77.22 242.581 77.2666C238.231 77.546 232.103 79.3623 224.573 82.7621C231.168 84.2524 237.763 86.3016 240.382 93.0079C243.049 99.9937 243.002 102.555 242.44 121.137C242.721 130.685 242.721 140.045 242.019 149.5C241.692 153.738 241.786 158.022 242.44 162.214C245.294 180.377 254.976 211.906 255.257 212.791C258.905 209.577 261.244 203.29 261.15 202.126Z" fill="#342135"/>
<path d="M235.239 107.91C236.127 105.861 237.016 103.066 236.782 100.831C236.595 98.9213 236.782 96.779 234.818 97.4776C232.853 98.1762 229.579 99.62 228.176 100.877C226.305 102.554 226.632 104.137 226.959 106.233C227.474 109.866 233.602 111.729 235.239 107.91Z" fill="#43BEA2"/>
<path d="M240.71 175.672L234.162 103.672L230.42 105.907L232.852 179.956C232.852 179.956 236.781 186.244 238.325 187.78C238.371 187.78 239.821 182.238 240.71 175.672Z" fill="#43BEA2"/>
<path d="M242.302 87.6041C239.356 84.2043 235.567 81.8292 231.544 83.9715C231.544 83.9715 241.507 95.9869 241.507 99.2004C241.227 125.886 237.672 133.291 243.098 166.59C244.781 134.548 245.483 120.065 246.325 104.649C246.652 98.5019 246.419 92.2612 242.302 87.6041Z" fill="#462F49"/>
<path d="M210.026 102.23C206.378 96.6879 208.529 91.4254 209.371 90.8666C200.671 94.9183 200.858 104.419 202.776 108.704C206.892 117.925 214.236 131.244 218.586 140.372C224.012 151.689 225.976 160.957 227.005 177.909C229.812 162.075 219.568 115.27 210.026 102.23Z" fill="#462F49"/>
<path d="M235.004 90.0732C234.957 89.8404 234.864 89.6074 234.817 89.4212C234.536 88.6294 232.619 85.6023 232.665 84.764C232.759 83.9257 235.285 84.3915 237.483 87.4652C238.933 89.561 244.266 102.554 244.266 102.554C244.266 102.554 231.683 98.4562 231.59 98.1302C231.403 97.2919 235.098 94.2181 235.238 93.2401C235.378 92.2155 235.285 91.0978 235.004 90.0732Z" fill="#F2F2F2"/>
<path d="M209.84 76.3341C211.009 74.4246 214.47 75.1699 216.622 75.1233C219.943 75.0767 223.264 75.0301 226.538 75.2164C227.333 75.263 231.45 75.1232 231.683 76.3341C232.151 78.4298 234.911 82.8076 235.098 84.9499C236.454 91.9357 235.8 96.4066 231.543 98.1763L228.55 100.039C218.914 106.699 211.804 96.7791 210.214 95.708C210.869 87.9305 208.951 80.2927 209.419 77.3587C209.559 76.893 209.653 76.5669 209.84 76.3341Z" fill="#EFB289"/>
<path d="M231.638 98.1758L221.768 112.054C214.705 109.353 212.32 106.466 209.232 103.252C206.379 100.271 204.929 95.5678 206.005 93.5652C208.25 89.4669 210.355 88.5355 210.308 88.2095C210.449 99.2004 225.136 100.691 231.638 98.1758Z" fill="#F2F2F2"/>
<path d="M238.606 85.6491C237.811 89.0022 236.641 93.1472 233.414 93.8457C227.427 95.1032 214.61 91.8897 213.02 87.4654C210.307 80.0139 207.734 72.3296 211.102 62.7358C212.459 58.8703 214.844 54.9582 218.259 52.1639C220.691 50.1613 223.498 48.8108 226.211 47.5999C234.256 44.1071 241.225 44.5261 241.646 52.7693C241.88 56.9142 242.254 60.8729 241.974 65.0178C241.132 78.2442 239.775 80.759 238.606 85.6491Z" fill="#F3BC97"/>
<path d="M242.068 52.7685C237.811 55.1903 226.725 51.7905 221.066 58.4503C216.762 63.4801 218.587 67.299 217.698 70.4193C217.558 70.9782 216.762 71.0713 216.435 70.559C215.359 68.8824 213.208 67.2059 211.009 69.3016C208.717 71.4905 210.916 84.2045 210.916 84.2045C206.706 82.6677 203.011 75.3093 201.186 68.5099C199.409 61.8501 195.667 46.295 202.496 45.1773C202.403 45.1773 201.888 34.3262 218.446 30.7402C222.89 29.7622 227.567 29.6689 231.917 30.973C234.069 31.625 236.034 32.5099 237.905 33.8139C247.681 40.6134 246.605 50.2071 242.068 52.7685Z" fill="#121414"/>
<path d="M281.31 194.021L225.695 226.202L261.384 246.693L316.999 214.559L281.31 194.021Z" fill="url(#paint0_linear_283_4214)"/>
<path d="M261.897 245.248L317.512 213.067C317.746 212.927 318.121 212.927 318.495 213.16L262.88 245.341C262.505 245.108 262.131 245.062 261.897 245.248Z" fill="#4FA28F"/>
<g opacity="0.4">
<path opacity="0.3" d="M276.681 212.136L261.947 220.612L252.358 215.117L267.092 206.641L276.681 212.136Z" fill="#293734"/>
</g>
<path d="M261.851 243.153L259.606 241.896C259.419 241.803 259.325 241.663 259.325 241.477C259.325 241.29 259.419 241.151 259.606 241.058L262.225 239.567L264.47 240.825C264.657 240.918 264.751 241.057 264.751 241.244C264.751 241.43 264.657 241.57 264.47 241.663L261.851 243.153ZM258.202 241.104L255.957 239.847C255.77 239.753 255.676 239.614 255.676 239.427C255.676 239.241 255.77 239.102 255.957 239.008L258.577 237.518L260.822 238.775C261.009 238.869 261.102 239.008 261.102 239.195C261.102 239.381 261.009 239.521 260.822 239.614L258.202 241.104ZM265.733 240.918L263.488 239.66C263.301 239.567 263.207 239.427 263.207 239.241C263.207 239.055 263.301 238.915 263.488 238.822L266.107 237.332L268.352 238.589C268.54 238.682 268.633 238.822 268.633 239.008C268.633 239.195 268.54 239.334 268.352 239.427L265.733 240.918ZM254.18 238.915L252.075 237.704C251.935 237.611 251.841 237.471 251.841 237.332C251.841 237.192 251.935 237.006 252.075 236.959L255.443 235.003L252.683 233.466C252.496 233.373 252.356 233.187 252.356 233.001C252.356 232.814 252.449 232.628 252.683 232.488L258.857 228.902H259.278L264.798 232.023C264.985 232.116 265.125 232.302 265.125 232.488C265.125 232.674 265.031 232.861 264.798 233.001L254.601 238.869H254.18V238.915ZM262.085 238.869L259.839 237.611C259.652 237.518 259.559 237.378 259.559 237.192C259.559 237.006 259.652 236.866 259.839 236.773L262.459 235.283L264.704 236.54C264.891 236.633 264.985 236.773 264.985 236.959C264.985 237.145 264.891 237.285 264.704 237.378L262.085 238.869ZM269.615 238.682L267.37 237.425C267.183 237.332 267.09 237.192 267.09 237.006C267.09 236.819 267.183 236.68 267.37 236.587L269.99 235.096L272.235 236.354C272.422 236.447 272.515 236.587 272.515 236.773C272.515 236.959 272.422 237.099 272.235 237.192L269.615 238.682ZM250.906 236.959L248.66 235.702C248.473 235.609 248.38 235.469 248.38 235.283C248.38 235.096 248.473 234.957 248.66 234.863L251.28 233.373L253.525 234.631C253.712 234.724 253.806 234.863 253.806 235.05C253.806 235.236 253.712 235.376 253.525 235.469L250.906 236.959ZM265.967 236.633L263.722 235.376C263.535 235.283 263.441 235.143 263.441 234.956C263.441 234.77 263.535 234.631 263.722 234.537L266.341 233.047L268.586 234.305C268.773 234.398 268.867 234.537 268.867 234.724C268.867 234.91 268.773 235.05 268.586 235.143L265.967 236.633ZM275.556 235.143L273.311 233.885C273.124 233.792 273.03 233.653 273.03 233.466C273.03 233.28 273.124 233.14 273.311 233.047L277.193 230.858L279.438 232.116C279.625 232.209 279.719 232.349 279.719 232.535C279.719 232.721 279.625 232.861 279.438 232.954L275.556 235.143ZM247.257 234.91L245.012 233.652C244.825 233.559 244.731 233.42 244.731 233.233C244.731 233.047 244.825 232.907 245.012 232.814L247.631 231.324L249.876 232.581C250.064 232.675 250.157 232.814 250.157 233.001C250.157 233.187 250.064 233.327 249.876 233.42L247.257 234.91ZM271.907 233.14L269.662 231.883C269.475 231.79 269.382 231.65 269.382 231.464C269.382 231.277 269.475 231.138 269.662 231.044L272.282 229.554L274.527 230.812C274.714 230.905 274.807 231.045 274.807 231.231C274.807 231.417 274.714 231.557 274.527 231.65L271.907 233.14ZM251.139 232.675L248.894 231.417C248.707 231.324 248.614 231.184 248.614 230.998C248.614 230.812 248.707 230.672 248.894 230.579L251.514 229.089L253.759 230.346C253.946 230.439 254.039 230.579 254.039 230.765C254.039 230.951 253.946 231.091 253.759 231.184L251.139 232.675ZM280.701 232.209L278.456 230.951C278.269 230.858 278.175 230.719 278.175 230.532C278.175 230.346 278.269 230.206 278.456 230.113L296.698 219.634L298.943 220.892C299.13 220.985 299.224 221.125 299.224 221.311C299.224 221.497 299.13 221.637 298.943 221.73L280.701 232.209ZM268.306 231.044L266.06 229.787C265.873 229.694 265.78 229.554 265.78 229.368C265.78 229.182 265.873 229.042 266.06 228.949L269.943 226.76L272.188 228.017C272.375 228.11 272.469 228.25 272.469 228.436C272.469 228.623 272.375 228.762 272.188 228.856L268.306 231.044ZM275.836 230.905L273.591 229.647C273.404 229.554 273.311 229.415 273.311 229.228C273.311 229.042 273.404 228.902 273.591 228.809L276.211 227.319L278.456 228.576C278.643 228.669 278.736 228.809 278.736 228.995C278.736 229.182 278.643 229.321 278.456 229.415L275.836 230.905ZM255.022 230.439L252.776 229.182C252.589 229.088 252.496 228.949 252.496 228.763C252.496 228.576 252.589 228.437 252.776 228.343L255.396 226.853L257.641 228.11C257.828 228.204 257.922 228.343 257.922 228.53C257.922 228.716 257.828 228.856 257.641 228.949L255.022 230.439ZM264.657 229.042L262.412 227.785C262.225 227.691 262.131 227.552 262.131 227.365C262.131 227.179 262.225 227.039 262.412 226.946L265.031 225.456L267.277 226.713C267.464 226.806 267.557 226.946 267.557 227.132C267.557 227.319 267.464 227.458 267.277 227.552L264.657 229.042ZM279.719 228.669L277.474 227.412C277.286 227.319 277.193 227.179 277.193 226.993C277.193 226.806 277.286 226.667 277.474 226.574L280.093 225.083L282.338 226.341C282.525 226.434 282.619 226.574 282.619 226.76C282.619 226.946 282.525 227.086 282.338 227.179L279.719 228.669ZM273.451 228.064L271.206 226.806C271.019 226.713 270.925 226.574 270.925 226.387C270.925 226.201 271.019 226.061 271.206 225.968L273.825 224.478L276.07 225.735C276.257 225.829 276.351 225.968 276.351 226.154C276.351 226.341 276.257 226.48 276.07 226.574L273.451 228.064ZM261.056 226.946L258.81 225.689C258.623 225.596 258.53 225.456 258.53 225.27C258.53 225.083 258.623 224.944 258.81 224.85L262.693 222.662L264.938 223.919C265.125 224.012 265.219 224.152 265.219 224.338C265.219 224.524 265.125 224.664 264.938 224.757L261.056 226.946ZM268.54 226.806L266.294 225.549C266.107 225.456 266.014 225.316 266.014 225.13C266.014 224.944 266.107 224.804 266.294 224.711L268.914 223.22L271.159 224.478C271.346 224.571 271.44 224.711 271.44 224.897C271.44 225.083 271.346 225.223 271.159 225.316L268.54 226.806ZM283.601 226.387L281.356 225.13C281.169 225.037 281.075 224.897 281.075 224.711C281.075 224.524 281.169 224.385 281.356 224.292L283.975 222.801L286.22 224.059C286.408 224.152 286.501 224.292 286.501 224.478C286.501 224.664 286.408 224.804 286.22 224.897L283.601 226.387ZM277.333 225.828L275.088 224.571C274.901 224.478 274.807 224.338 274.807 224.152C274.807 223.966 274.901 223.826 275.088 223.733L277.707 222.242L279.953 223.5C280.14 223.593 280.233 223.733 280.233 223.919C280.233 224.105 280.14 224.245 279.953 224.338L277.333 225.828ZM272.469 224.571L270.223 223.314C270.036 223.22 269.943 223.081 269.943 222.894C269.943 222.708 270.036 222.568 270.223 222.475L272.843 220.985L275.088 222.242C275.275 222.336 275.369 222.475 275.369 222.662C275.369 222.848 275.275 222.988 275.088 223.081L272.469 224.571ZM287.483 224.152L285.238 222.894C285.051 222.801 284.958 222.662 284.958 222.475C284.958 222.289 285.051 222.149 285.238 222.056L287.858 220.566L290.103 221.823C290.29 221.916 290.383 222.056 290.383 222.242C290.383 222.429 290.29 222.568 290.103 222.662L287.483 224.152ZM266.201 223.966L263.956 222.708C263.769 222.615 263.675 222.475 263.675 222.289C263.675 222.103 263.769 221.963 263.956 221.87L266.575 220.38L268.82 221.637C269.007 221.73 269.101 221.87 269.101 222.056C269.101 222.242 269.007 222.382 268.82 222.475L266.201 223.966ZM281.262 223.593L279.017 222.336C278.83 222.242 278.736 222.103 278.736 221.916C278.736 221.73 278.83 221.59 279.017 221.497L281.637 220.007L283.882 221.265C284.069 221.358 284.162 221.497 284.162 221.684C284.162 221.87 284.069 222.01 283.882 222.103L281.262 223.593ZM276.351 222.289L274.106 221.032C273.919 220.938 273.825 220.799 273.825 220.612C273.825 220.426 273.919 220.286 274.106 220.193L276.725 218.703L278.97 219.96C279.157 220.054 279.251 220.193 279.251 220.38C279.251 220.566 279.157 220.706 278.97 220.799L276.351 222.289ZM291.412 221.916L289.167 220.659C288.98 220.566 288.887 220.426 288.887 220.24C288.887 220.054 288.98 219.914 289.167 219.821L291.787 218.33L294.032 219.588C294.219 219.681 294.313 219.821 294.313 220.007C294.313 220.193 294.219 220.333 294.032 220.426L291.412 221.916ZM270.083 221.73L267.838 220.473C267.651 220.38 267.557 220.24 267.557 220.054C267.557 219.867 267.651 219.728 267.838 219.634L270.457 218.144L272.703 219.402C272.89 219.495 272.983 219.634 272.983 219.821C272.983 220.007 272.89 220.147 272.703 220.24L270.083 221.73ZM285.145 221.311L282.899 220.054C282.712 219.96 282.619 219.821 282.619 219.634C282.619 219.448 282.712 219.308 282.899 219.215L285.519 217.725L287.764 218.982C287.951 219.076 288.045 219.215 288.045 219.402C288.045 219.588 287.951 219.728 287.764 219.821L285.145 221.311ZM300.159 220.938L297.914 219.681C297.727 219.588 297.633 219.448 297.633 219.262C297.633 219.076 297.727 218.936 297.914 218.843L300.534 217.352L302.779 218.61C302.966 218.703 303.059 218.843 303.059 219.029C303.059 219.215 302.966 219.355 302.779 219.448L300.159 220.938ZM280.233 220.054L277.988 218.796C277.801 218.703 277.707 218.563 277.707 218.377C277.707 218.191 277.801 218.051 277.988 217.958L280.607 216.467L282.853 217.725C283.04 217.818 283.133 217.958 283.133 218.144C283.133 218.33 283.04 218.47 282.853 218.563L280.233 220.054ZM295.295 219.681L293.05 218.424C292.862 218.33 292.769 218.191 292.769 218.004C292.769 217.818 292.862 217.678 293.05 217.585L295.669 216.095L297.914 217.352C298.101 217.445 298.195 217.585 298.195 217.772C298.195 217.958 298.101 218.098 297.914 218.191L295.295 219.681ZM273.965 219.495L271.72 218.237C271.533 218.144 271.44 218.004 271.44 217.818C271.44 217.632 271.533 217.492 271.72 217.399L274.34 215.909L276.585 217.166C276.772 217.259 276.865 217.399 276.865 217.585C276.865 217.772 276.772 217.911 276.585 218.004L273.965 219.495ZM289.027 219.076L286.782 217.818C286.595 217.725 286.501 217.585 286.501 217.399C286.501 217.213 286.595 217.073 286.782 216.98L289.401 215.49L291.646 216.747C291.833 216.84 291.927 216.98 291.927 217.166C291.927 217.352 291.833 217.492 291.646 217.585L289.027 219.076ZM304.088 218.703L301.843 217.446C301.656 217.352 301.563 217.213 301.563 217.026C301.563 216.84 301.656 216.7 301.843 216.607L304.463 215.117L306.708 216.374C306.895 216.468 306.988 216.607 306.988 216.794C306.988 216.98 306.895 217.119 306.708 217.213L304.088 218.703ZM284.116 217.818L281.87 216.561C281.683 216.468 281.59 216.328 281.59 216.142C281.59 215.955 281.683 215.816 281.87 215.722L284.49 214.232L286.735 215.49C286.922 215.583 287.016 215.722 287.016 215.909C287.016 216.095 286.922 216.235 286.735 216.328L284.116 217.818ZM299.177 217.446L296.932 216.188C296.745 216.095 296.651 215.955 296.651 215.769C296.651 215.583 296.745 215.443 296.932 215.35L299.551 213.859L301.796 215.117C301.984 215.21 302.077 215.35 302.077 215.536C302.077 215.722 301.984 215.862 301.796 215.955L299.177 217.446ZM277.895 217.213L275.649 215.955C275.462 215.862 275.369 215.722 275.369 215.536C275.369 215.35 275.462 215.21 275.649 215.117L278.269 213.627L280.514 214.884C280.701 214.977 280.795 215.117 280.795 215.303C280.795 215.489 280.701 215.629 280.514 215.722L277.895 217.213ZM292.909 216.84L290.664 215.583C290.477 215.49 290.383 215.35 290.383 215.163C290.383 214.977 290.477 214.837 290.664 214.744L293.283 213.254L295.529 214.512C295.716 214.605 295.809 214.744 295.809 214.931C295.809 215.117 295.716 215.257 295.529 215.35L292.909 216.84ZM307.971 216.467L305.726 215.21C305.538 215.117 305.445 214.977 305.445 214.791C305.445 214.605 305.538 214.465 305.726 214.372L308.345 212.881L310.59 214.139C310.777 214.232 310.871 214.372 310.871 214.558C310.871 214.744 310.777 214.884 310.59 214.977L307.971 216.467ZM288.045 215.583L285.799 214.325C285.612 214.232 285.519 214.092 285.519 213.906C285.519 213.72 285.612 213.58 285.799 213.487L288.419 211.997L290.664 213.254C290.851 213.347 290.945 213.487 290.945 213.673C290.945 213.86 290.851 213.999 290.664 214.092L288.045 215.583ZM303.059 215.163L300.814 213.906C300.627 213.813 300.534 213.673 300.534 213.487C300.534 213.301 300.627 213.161 300.814 213.068L303.434 211.577L305.679 212.835C305.866 212.928 305.959 213.068 305.959 213.254C305.959 213.44 305.866 213.58 305.679 213.673L303.059 215.163ZM281.777 214.977L279.532 213.72C279.345 213.627 279.251 213.487 279.251 213.301C279.251 213.114 279.345 212.975 279.532 212.881L282.151 211.391L284.396 212.649C284.583 212.742 284.677 212.882 284.677 213.068C284.677 213.254 284.583 213.394 284.396 213.487L281.777 214.977ZM296.838 214.605L294.593 213.347C294.406 213.254 294.313 213.114 294.313 212.928C294.313 212.742 294.406 212.602 294.593 212.509L297.213 211.019L299.458 212.276C299.645 212.369 299.738 212.509 299.738 212.695C299.738 212.881 299.645 213.021 299.458 213.114L296.838 214.605ZM311.853 214.186L309.608 212.928C309.421 212.835 309.327 212.695 309.327 212.509C309.327 212.323 309.421 212.183 309.608 212.09L312.227 210.6L314.472 211.857C314.66 211.95 314.753 212.09 314.753 212.276C314.753 212.462 314.66 212.602 314.472 212.695L311.853 214.186ZM291.927 213.301L289.682 212.043C289.495 211.95 289.401 211.81 289.401 211.624C289.401 211.438 289.495 211.298 289.682 211.205L292.301 209.715L294.546 210.972C294.733 211.065 294.827 211.205 294.827 211.391C294.827 211.577 294.733 211.717 294.546 211.81L291.927 213.301ZM306.988 212.928L304.743 211.671C304.556 211.577 304.463 211.438 304.463 211.251C304.463 211.065 304.556 210.925 304.743 210.832L308.626 208.643L310.871 209.901C311.058 209.994 311.151 210.134 311.151 210.32C311.151 210.506 311.058 210.646 310.871 210.739L306.988 212.928ZM285.659 212.742L283.414 211.484C283.227 211.391 283.133 211.252 283.133 211.065C283.133 210.879 283.227 210.739 283.414 210.646L286.033 209.156L288.279 210.413C288.466 210.506 288.559 210.646 288.559 210.832C288.559 211.019 288.466 211.158 288.279 211.251L285.659 212.742ZM300.721 212.369L298.475 211.112C298.288 211.019 298.195 210.879 298.195 210.693C298.195 210.506 298.288 210.367 298.475 210.273L301.095 208.783L303.34 210.041C303.527 210.134 303.621 210.274 303.621 210.46C303.621 210.646 303.527 210.786 303.34 210.879L300.721 212.369ZM295.809 211.065L293.564 209.808C293.377 209.715 293.283 209.575 293.283 209.389C293.283 209.202 293.377 209.063 293.564 208.969L296.183 207.479L298.429 208.737C298.616 208.83 298.709 208.97 298.709 209.156C298.709 209.342 298.616 209.482 298.429 209.575L295.809 211.065ZM289.541 210.506L287.296 209.249C287.109 209.156 287.016 209.016 287.016 208.83C287.016 208.643 287.109 208.504 287.296 208.411L289.916 206.92L292.161 208.178C292.348 208.271 292.441 208.411 292.441 208.597C292.441 208.783 292.348 208.923 292.161 209.016L289.541 210.506ZM304.603 210.087L302.358 208.83C302.171 208.737 302.077 208.597 302.077 208.411C302.077 208.224 302.171 208.085 302.358 207.992L304.977 206.501L307.222 207.759C307.409 207.852 307.503 207.991 307.503 208.178C307.503 208.364 307.409 208.504 307.222 208.597L304.603 210.087ZM299.692 208.83L297.446 207.572C297.259 207.479 297.166 207.339 297.166 207.153C297.166 206.967 297.259 206.827 297.446 206.734L301.329 204.545L303.574 205.803C303.761 205.896 303.855 206.035 303.855 206.222C303.855 206.408 303.761 206.548 303.574 206.641L299.692 208.83ZM293.471 208.271L291.225 207.013C291.038 206.92 290.945 206.781 290.945 206.594C290.945 206.408 291.038 206.268 291.225 206.175L293.845 204.685L296.09 205.942C296.277 206.035 296.371 206.175 296.371 206.361C296.371 206.548 296.277 206.687 296.09 206.781L293.471 208.271ZM297.353 205.989L295.108 204.731C294.921 204.638 294.827 204.499 294.827 204.312C294.827 204.126 294.921 203.986 295.108 203.893L297.727 202.403L299.972 203.66C300.159 203.753 300.253 203.893 300.253 204.079C300.253 204.266 300.159 204.405 299.972 204.499L297.353 205.989Z" fill="#669D91"/>
<path d="M314.331 212.135L311.852 213.532L309.747 212.368C309.747 212.042 312.226 210.644 312.226 210.644L314.331 211.809C314.471 212.041 314.424 212.088 314.331 212.135ZM310.729 210.132L306.987 212.228L304.882 211.064C304.882 210.738 308.624 208.595 308.624 208.595L310.729 209.76C310.822 210.039 310.776 210.086 310.729 210.132ZM310.448 214.37L307.969 215.767L305.864 214.603C305.864 214.277 308.343 212.88 308.343 212.88L310.448 214.044C310.542 214.277 310.542 214.324 310.448 214.37ZM307.08 208.036L304.601 209.434L302.497 208.269C302.497 207.943 304.976 206.546 304.976 206.546L307.08 207.71C307.221 207.943 307.174 207.99 307.08 208.036ZM306.566 216.606L304.087 218.003L301.982 216.838C301.982 216.512 304.461 215.115 304.461 215.115L306.566 216.28C306.659 216.512 306.613 216.606 306.566 216.606ZM305.537 213.113L303.058 214.51L300.953 213.346C300.953 213.02 303.432 211.622 303.432 211.622L305.537 212.787C305.677 213.02 305.63 213.066 305.537 213.113ZM303.432 206.034L299.69 208.13L297.585 206.965C297.585 206.639 301.327 204.497 301.327 204.497L303.432 205.661C303.572 205.941 303.526 205.987 303.432 206.034ZM303.198 210.272L300.719 211.669L298.614 210.505C298.614 210.179 301.093 208.781 301.093 208.781L303.198 209.946C303.292 210.179 303.292 210.225 303.198 210.272ZM302.637 218.888L300.158 220.285L298.053 219.12C298.053 218.794 300.532 217.397 300.532 217.397L302.637 218.562C302.777 218.748 302.73 218.841 302.637 218.888ZM301.655 215.348L299.176 216.745L297.071 215.581C297.071 215.255 299.55 213.858 299.55 213.858L301.655 215.022C301.795 215.255 301.748 215.302 301.655 215.348ZM299.83 203.938L297.351 205.335L295.246 204.171C295.246 203.845 297.726 202.448 297.726 202.448L299.83 203.612C299.924 203.845 299.924 203.892 299.83 203.938ZM299.316 212.554L296.837 213.951L294.732 212.787C294.732 212.461 297.211 211.064 297.211 211.064L299.316 212.228C299.409 212.414 299.363 212.507 299.316 212.554ZM298.801 221.123L280.699 231.509L278.595 230.344C278.595 230.018 296.696 219.586 296.696 219.586L298.801 220.75C298.942 221.03 298.895 221.076 298.801 221.123ZM298.287 209.014L295.808 210.411L293.703 209.247C293.703 208.921 296.182 207.524 296.182 207.524L298.287 208.688C298.427 208.921 298.38 208.968 298.287 209.014ZM297.772 217.63L295.293 219.027L293.188 217.863C293.188 217.537 295.667 216.14 295.667 216.14L297.772 217.304C297.866 217.49 297.819 217.584 297.772 217.63ZM295.948 206.173L293.469 207.571L291.364 206.406C291.364 206.08 293.843 204.683 293.843 204.683L295.948 205.847C296.042 206.08 295.995 206.127 295.948 206.173ZM295.387 214.789L292.908 216.186L290.803 215.022C290.803 214.696 293.282 213.299 293.282 213.299L295.387 214.463C295.527 214.696 295.48 214.743 295.387 214.789ZM294.404 211.25L291.925 212.647L289.821 211.483C289.821 211.157 292.3 209.76 292.3 209.76L294.404 210.924C294.498 211.157 294.451 211.203 294.404 211.25ZM293.89 219.866L291.411 221.263L289.306 220.099C289.306 219.773 291.785 218.375 291.785 218.375L293.89 219.54C293.984 219.726 293.937 219.819 293.89 219.866ZM292.019 208.456L289.54 209.853L287.435 208.688C287.435 208.362 289.914 206.965 289.914 206.965L292.019 208.13C292.159 208.316 292.113 208.409 292.019 208.456ZM291.504 217.025L289.025 218.422L286.921 217.258C286.921 216.932 289.4 215.534 289.4 215.534L291.504 216.699C291.645 216.932 291.598 216.978 291.504 217.025ZM290.522 213.485L288.043 214.882L285.938 213.718C285.938 213.392 288.417 211.995 288.417 211.995L290.522 213.159C290.616 213.392 290.569 213.485 290.522 213.485ZM289.961 222.101L287.482 223.498L285.377 222.334C285.377 222.008 287.856 220.611 287.856 220.611L289.961 221.775C290.101 222.008 290.054 222.055 289.961 222.101ZM288.137 210.691L285.658 212.088L283.553 210.924C283.553 210.598 286.032 209.201 286.032 209.201L288.137 210.365C288.277 210.551 288.23 210.644 288.137 210.691ZM287.622 219.26L285.143 220.657L283.038 219.493C283.038 219.167 285.517 217.77 285.517 217.77L287.622 218.934C287.716 219.167 287.716 219.214 287.622 219.26ZM286.593 215.767L284.114 217.164L282.009 216C282.009 215.674 284.488 214.277 284.488 214.277L286.593 215.441C286.733 215.628 286.687 215.721 286.593 215.767ZM286.079 224.336L283.6 225.734L281.495 224.569C281.495 224.243 283.974 222.846 283.974 222.846L286.079 224.011C286.219 224.243 286.172 224.29 286.079 224.336ZM284.254 212.926L281.775 214.324L279.67 213.159C279.67 212.833 282.15 211.436 282.15 211.436L284.254 212.6C284.348 212.833 284.348 212.88 284.254 212.926ZM283.74 221.496L281.261 222.893L279.156 221.728C279.156 221.402 281.635 220.005 281.635 220.005L283.74 221.17C283.833 221.402 283.787 221.496 283.74 221.496ZM282.711 218.003L280.232 219.4L278.127 218.236C278.127 217.91 280.606 216.512 280.606 216.512L282.711 217.677C282.851 217.91 282.804 217.956 282.711 218.003ZM282.196 226.572L279.717 227.969L277.612 226.805C277.612 226.479 280.091 225.082 280.091 225.082L282.196 226.246C282.29 226.479 282.29 226.525 282.196 226.572ZM280.372 215.162L277.893 216.559L275.788 215.395C275.788 215.069 278.267 213.672 278.267 213.672L280.372 214.836C280.466 215.069 280.419 215.115 280.372 215.162ZM279.811 223.778L277.332 225.175L275.227 224.011C275.227 223.685 277.706 222.287 277.706 222.287L279.811 223.452C279.951 223.638 279.904 223.731 279.811 223.778ZM279.296 232.347L275.554 234.443L273.449 233.278C273.449 232.952 277.191 230.81 277.191 230.81L279.296 231.974C279.437 232.207 279.39 232.3 279.296 232.347ZM278.829 220.238L276.349 221.635L274.245 220.471C274.245 220.145 276.724 218.748 276.724 218.748L278.829 219.912C278.922 220.145 278.922 220.192 278.829 220.238ZM278.314 228.854L275.835 230.251L273.73 229.087C273.73 228.761 276.209 227.364 276.209 227.364L278.314 228.528C278.408 228.714 278.361 228.807 278.314 228.854ZM276.443 217.397L273.964 218.794L271.859 217.63C271.859 217.304 274.338 215.907 274.338 215.907L276.443 217.071C276.583 217.304 276.537 217.351 276.443 217.397ZM275.928 226.013L273.449 227.41L271.345 226.246C271.345 225.92 273.824 224.523 273.824 224.523L275.928 225.687C276.069 225.92 276.022 225.967 275.928 226.013ZM274.946 222.474L272.467 223.871L270.362 222.707C270.362 222.381 272.841 220.983 272.841 220.983L274.946 222.148C275.04 222.38 274.993 222.427 274.946 222.474ZM274.385 231.089L271.906 232.486L269.801 231.322C269.801 230.996 272.28 229.599 272.28 229.599L274.385 230.763C274.525 230.996 274.478 231.043 274.385 231.089ZM272.561 219.679L270.082 221.076L267.977 219.912C267.977 219.586 270.456 218.189 270.456 218.189L272.561 219.353C272.701 219.54 272.654 219.633 272.561 219.679ZM272.046 228.249L268.304 230.344L266.199 229.18C266.199 228.854 269.941 226.712 269.941 226.712L272.046 227.876C272.14 228.155 272.14 228.202 272.046 228.249ZM272.093 236.631L269.614 238.029L267.509 236.864C267.509 236.538 269.988 235.141 269.988 235.141L272.093 236.305C272.233 236.492 272.187 236.585 272.093 236.631ZM271.017 224.756L268.538 226.153L266.433 224.989C266.433 224.663 268.912 223.265 268.912 223.265L271.017 224.43C271.157 224.616 271.111 224.709 271.017 224.756ZM268.678 221.915L266.199 223.312L264.094 222.148C264.094 221.822 266.573 220.424 266.573 220.424L268.678 221.589C268.772 221.822 268.772 221.868 268.678 221.915ZM268.445 234.536L265.965 235.933L263.861 234.769C263.861 234.443 266.34 233.045 266.34 233.045L268.445 234.21C268.585 234.443 268.538 234.489 268.445 234.536ZM268.211 238.867L265.732 240.264L263.627 239.1C263.627 238.774 266.106 237.377 266.106 237.377L268.211 238.541C268.304 238.774 268.304 238.82 268.211 238.867ZM267.135 226.991L264.656 228.388L262.551 227.224C262.551 226.898 265.03 225.501 265.03 225.501L267.135 226.665C267.275 226.851 267.228 226.944 267.135 226.991ZM264.796 224.15L261.054 226.246L258.949 225.082C258.949 224.756 262.691 222.613 262.691 222.613L264.796 223.778C264.89 224.057 264.843 224.104 264.796 224.15ZM264.656 232.486L254.506 238.355H254.225L252.167 237.19C252.167 236.957 255.535 234.955 255.535 234.955C255.628 234.908 255.722 234.815 255.722 234.722C255.722 234.629 255.675 234.536 255.535 234.489L252.775 232.952C252.681 232.906 252.588 232.813 252.588 232.719C252.588 232.626 252.635 232.533 252.728 232.486L258.856 228.947H259.136L264.609 232.021C264.703 232.067 264.796 232.161 264.796 232.254C264.843 232.3 264.749 232.393 264.656 232.486ZM264.562 236.818L262.083 238.215L259.978 237.051C259.978 236.725 262.457 235.327 262.457 235.327L264.562 236.492C264.656 236.678 264.609 236.771 264.562 236.818ZM264.328 241.102L261.849 242.5L259.744 241.335C259.744 241.009 262.223 239.612 262.223 239.612L264.328 240.776C264.422 241.009 264.375 241.056 264.328 241.102ZM260.68 239.053L258.201 240.45L256.096 239.239C256.096 238.913 258.575 237.516 258.575 237.516L260.68 238.681C260.773 238.913 260.727 239.007 260.68 239.053ZM257.499 228.388L255.02 229.785L252.915 228.621C252.915 228.295 255.394 226.898 255.394 226.898L257.499 228.062C257.639 228.249 257.593 228.342 257.499 228.388ZM253.617 230.624L251.138 232.021L249.033 230.857C249.033 230.531 251.512 229.133 251.512 229.133L253.617 230.298C253.71 230.53 253.664 230.577 253.617 230.624ZM253.383 234.908L250.904 236.305L248.799 235.141C248.799 234.815 251.278 233.418 251.278 233.418L253.383 234.582C253.477 234.815 253.43 234.862 253.383 234.908ZM249.735 232.859L247.256 234.256L245.151 233.092C245.151 232.766 247.63 231.369 247.63 231.369L249.735 232.533C249.828 232.766 249.781 232.813 249.735 232.859Z" fill="#A2E8D8" fill-opacity="0.8"/>
<path d="M328.881 179.443L273.265 211.625L264.051 246.74C264.238 247.205 264.378 247.718 264.378 248.183C264.378 248.789 264.191 249.208 263.864 249.394L319.479 217.213C319.806 217.027 319.993 216.608 319.993 216.002C319.993 215.537 319.853 215.024 319.666 214.559L328.881 179.443Z" fill="#43BEA2"/>
<path d="M272.657 210.973L328.225 178.791L328.88 179.443L273.265 211.625L272.657 210.973Z" fill="url(#paint1_linear_283_4214)"/>
<path d="M272.656 210.974L273.265 211.579L264.05 246.694C264.237 247.16 264.377 247.672 264.377 248.138C264.377 249.209 263.722 249.721 262.927 249.256L225.695 227.832V226.156L261.384 246.694V246.415C261.384 245.344 262.039 244.831 262.881 245.297L272.656 210.974Z" fill="#115142"/>
<path d="M297.727 210.926C295.482 212.044 293.424 214.419 293.05 216.235C292.676 218.051 294.172 218.61 296.324 217.492C298.522 216.375 300.627 214 301.048 212.183C301.423 210.414 299.973 209.808 297.727 210.926ZM300.253 212.602C299.926 214.046 298.242 215.956 296.464 216.887C294.687 217.772 293.518 217.306 293.845 215.863C294.126 214.419 295.81 212.509 297.587 211.578C299.364 210.693 300.534 211.159 300.253 212.602Z" fill="#669D91"/>
<path d="M273.874 173.903C269.15 170.876 259.701 179.817 261.525 181.96L262.648 183.357C265.408 186.757 276.493 177.815 274.763 175.067C274.622 174.881 274.201 174.136 273.874 173.903Z" fill="#F2F2F2"/>
<path d="M282.807 201.846C284.117 201.147 283.836 199.796 283.977 198.586C284.164 197.049 284.631 195.884 284.304 194.301C283.602 191.041 282.339 188.573 280.468 185.266C279.58 183.729 275.23 177.163 274.014 176.045C270.178 173.716 261.946 180.329 263.349 182.705C263.817 183.543 267.465 189.318 269.57 194.115C270.131 195.372 272.797 201.846 273.733 202.87C274.528 203.755 275.931 203.895 277.054 203.802C277.896 203.755 278.785 203.708 279.627 203.662C279.954 203.662 280.328 203.615 280.609 203.476C281.17 203.196 281.404 202.544 281.918 202.172C282.199 202.079 282.527 202.032 282.807 201.846Z" fill="#F3BC97"/>
<path d="M179.622 121.277C180.136 125.841 184.112 156.299 185.702 168.315C186.123 171.481 187.62 174.369 189.912 176.511L220.363 204.874C224.104 208.599 236.874 196.91 232.337 192.485L205.441 162.26C204.132 152.573 204.225 125.422 202.541 112.289C201.793 108.004 196.367 103.859 190.38 104.232C190.333 104.185 178.031 107.725 179.622 121.277Z" fill="#342135"/>
<path d="M232.57 194.488C228.033 191.973 219.707 202.87 222.186 204.873L223.215 205.758C226.536 208.599 235.844 197.841 233.692 195.466C233.458 195.279 232.85 194.627 232.57 194.488Z" fill="#F2F2F2"/>
<path d="M247.305 218.704C247.632 216.934 248.287 215.583 248.007 213.674C247.726 211.764 247.118 207.899 245.995 206.455C245.34 205.617 233.179 196.209 233.179 196.209C229.671 193.927 221.859 202.636 224.338 205.105C225.274 206.036 233.6 213.348 234.676 215.257C234.863 215.583 236.406 221.684 237.202 222.895C238.043 224.199 240.335 224.385 241.692 224.385C242.113 224.385 242.534 224.385 242.908 224.246C243.563 223.966 243.937 223.175 244.545 222.802C244.873 222.616 245.294 222.523 245.668 222.383C247.258 221.731 247.071 220.101 247.305 218.704Z" fill="#F3BC97"/>
<defs>
<linearGradient id="paint0_linear_283_4214" x1="225.697" y1="220.366" x2="316.993" y2="220.366" gradientUnits="userSpaceOnUse">
<stop stop-color="#43BEA2"/>
<stop offset="0.4557" stop-color="#31B99A"/>
<stop offset="1" stop-color="#69C6B1" stop-opacity="0.2"/>
</linearGradient>
<linearGradient id="paint1_linear_283_4214" x1="272.643" y1="195.208" x2="328.875" y2="195.208" gradientUnits="userSpaceOnUse">
<stop stop-color="#115142"/>
<stop offset="0.4557" stop-color="#609F91"/>
<stop offset="1" stop-color="#FFDEFF"/>
<stop offset="1" stop-color="#AAEADC"/>
</linearGradient>
</defs>
</svg>
