<svg width="60" height="55" viewBox="0 0 60 55" fill="none" xmlns="http://www.w3.org/2000/svg">
<path d="M28.8182 37.3579V45.5191C28.8182 45.7847 29.0331 46 29.2989 46H31.7015C31.9669 46 32.1821 45.7847 32.1821 45.5191V37.3579C34.945 36.6141 36.9873 34.0928 36.9873 31.0973C36.9873 28.1015 34.945 25.5804 32.1821 24.8366V19.5599H34.104C34.2773 19.5599 34.4369 19.4666 34.522 19.3161C34.6075 19.1655 34.6051 18.9804 34.516 18.8319L30.9121 12.8228C30.7384 12.533 30.2618 12.533 30.0882 12.8228L26.4843 18.8319C26.3951 18.9804 26.3928 19.1655 26.4783 19.3161C26.5634 19.4666 26.7229 19.5599 26.8962 19.5599H28.8181V24.8366C26.0552 25.5804 24.0129 28.1017 24.0129 31.0973C24.0129 34.0931 26.0553 36.6142 28.8182 37.3579ZM31.2208 45.0383H29.7792L29.7795 37.5447C30.0165 37.5709 30.2561 37.5873 30.5001 37.5873C30.7441 37.5873 30.9838 37.5712 31.2208 37.5447L31.2208 45.0383ZM27.7453 18.5982L30.5001 14.0045L33.2549 18.5982H31.7014C31.4359 18.5982 31.2208 18.8135 31.2208 19.0791V24.65C30.9838 24.6238 30.7441 24.6074 30.5001 24.6074C30.2561 24.6074 30.0164 24.6235 29.7795 24.65V19.0791C29.7795 18.8135 29.5646 18.5982 29.2988 18.5982H27.7453ZM28.8182 25.8326C28.9754 25.7823 29.136 25.7407 29.2989 25.7042C29.4564 25.669 29.6169 25.6425 29.7795 25.6213C30.0158 25.5905 30.2555 25.569 30.5002 25.569C30.7448 25.569 30.9845 25.5905 31.2208 25.6217C31.383 25.6431 31.5436 25.6696 31.7015 25.7045C31.8644 25.7407 32.0249 25.7823 32.1821 25.8329C34.4087 26.5465 36.0264 28.6359 36.0264 31.0976C36.0264 33.5593 34.4091 35.6484 32.1821 36.3623C32.0249 36.4126 31.8644 36.4542 31.7015 36.4907C31.5439 36.5259 31.3834 36.5524 31.2208 36.5735C30.9845 36.604 30.7448 36.6255 30.5002 36.6255C30.2555 36.6255 30.0158 36.604 29.7795 36.5729C29.6173 36.5514 29.4567 36.5249 29.2989 36.49C29.136 36.4538 28.9754 36.4122 28.8182 36.3616C26.5916 35.648 24.974 33.5586 24.974 31.0969C24.9743 28.6356 26.5916 26.5465 28.8182 25.8326Z" fill="black"/>
<path d="M29.7791 33.0203H28.0972C27.8317 33.0203 27.6165 33.2356 27.6165 33.5012C27.6165 33.7668 27.8313 33.982 28.0972 33.982H30.0191V34.703C30.0191 34.9686 30.2339 35.1839 30.4997 35.1839C30.7652 35.1839 30.9804 34.9686 30.9804 34.703V33.982H31.7014C31.879 33.982 32.0359 33.9565 32.182 33.919C33.0505 33.6943 33.383 32.8785 33.383 32.2994C33.383 31.3547 32.8577 30.9406 32.1817 30.7589C32.0278 30.7176 31.8663 30.6881 31.701 30.6673C31.5428 30.6476 31.3812 30.6352 31.2204 30.6278C31.1399 30.6241 31.0598 30.6217 30.98 30.6201L30.9804 29.1748H32.9023C33.1677 29.1748 33.3829 28.9595 33.3829 28.6939C33.3829 28.4283 33.1681 28.2131 32.9023 28.2131H30.9804V27.4921C30.9804 27.2265 30.7655 27.0112 30.4997 27.0112C30.2342 27.0112 30.019 27.2265 30.019 27.4921V28.2131H29.2981C29.1204 28.2131 28.9636 28.2385 28.8174 28.2761C27.949 28.5008 27.6165 29.3166 27.6165 29.8957C27.6165 30.8404 28.1417 31.2545 28.8178 31.4362C28.9716 31.4774 29.1332 31.507 29.2984 31.5277C29.4566 31.5475 29.6182 31.5599 29.7791 31.5673C29.8595 31.571 29.9396 31.5733 30.0194 31.575L30.0191 33.0203H29.7791ZM30.9804 31.5841C31.0649 31.5865 31.1454 31.5892 31.2208 31.5932C31.4071 31.6026 31.5657 31.617 31.7014 31.6374C31.9156 31.6696 32.0718 31.7176 32.1821 31.786C32.3597 31.8963 32.4217 32.0596 32.4217 32.2994C32.4217 32.3805 32.401 32.6763 32.1814 32.8627C32.0752 32.9533 31.9253 33.0203 31.7011 33.0203H30.9805L30.9804 31.5841ZM29.7791 30.602C29.5928 30.5926 29.4342 30.5782 29.2985 30.5577C29.0843 30.5255 28.9281 30.4776 28.8178 30.4092C28.6398 30.2988 28.5778 30.1355 28.5778 29.8958C28.5778 29.8146 28.5986 29.5189 28.8182 29.3324C28.9244 29.2419 29.0742 29.1748 29.2985 29.1748H30.0191V30.611C29.9347 30.6086 29.8546 30.606 29.7791 30.602Z" fill="black"/>
<path d="M16.8053 44.5687V45.519C16.8053 45.7846 17.0201 45.9998 17.2859 45.9998H19.6885C19.954 45.9998 20.1692 45.7846 20.1692 45.519V44.5687C22.9321 43.8249 24.9744 41.3036 24.9744 38.308C24.9744 35.3122 22.9321 32.7912 20.1692 32.0474V24.367H22.0911C22.2644 24.367 22.4239 24.2738 22.5091 24.1232C22.5945 23.9727 22.5922 23.7875 22.503 23.639L18.8991 17.6299C18.7255 17.3402 18.2489 17.3402 18.0752 17.6299L14.4713 23.639C14.3822 23.7876 14.3798 23.9727 14.4653 24.1232C14.5505 24.2738 14.71 24.367 14.8833 24.367H16.8052V32.0474C14.0423 32.7912 12 35.3125 12 38.308C12 41.3038 14.0424 43.8249 16.8053 44.5687ZM19.2079 45.0381H17.7662V44.7551C18.0035 44.7816 18.2432 44.798 18.4872 44.798C18.7312 44.798 18.9709 44.782 19.2078 44.7555L19.2079 45.0381ZM15.7323 23.4054L18.4872 18.8116L21.242 23.4054H19.6885C19.423 23.4054 19.2078 23.6206 19.2078 23.8862V31.8607C18.9708 31.8346 18.7312 31.8181 18.4872 31.8181C18.2432 31.8181 18.0035 31.8342 17.7665 31.8607V23.8862C17.7665 23.6206 17.5517 23.4054 17.2859 23.4054H15.7323ZM16.8053 33.0431C16.9625 32.9928 17.123 32.9512 17.2859 32.9147C17.4435 32.8795 17.604 32.853 17.7666 32.8318C18.0029 32.801 18.2425 32.7795 18.4872 32.7795C18.7319 32.7795 18.9716 32.801 19.2079 32.8322C19.3701 32.8536 19.5306 32.8801 19.6885 32.915C19.8514 32.9512 20.012 32.9928 20.1692 33.0434C22.3958 33.757 24.0134 35.8464 24.0134 38.3081C24.0134 40.7698 22.3961 42.8589 20.1692 43.5728C20.012 43.6231 19.8514 43.6647 19.6885 43.7012C19.531 43.7364 19.3704 43.7629 19.2079 43.784C18.9716 43.8145 18.7319 43.836 18.4872 43.836C18.2425 43.836 18.0029 43.8145 17.7666 43.7834C17.6044 43.7619 17.4438 43.7354 17.2859 43.7005C17.123 43.6643 16.9625 43.6227 16.8053 43.5721C14.5787 42.8585 12.961 40.7691 12.961 38.3074C12.9614 35.8461 14.5787 33.757 16.8053 33.0431Z" fill="black"/>
<path d="M17.7662 40.2312H16.0842C15.8187 40.2312 15.6036 40.4465 15.6036 40.7121C15.6036 40.9777 15.8184 41.193 16.0842 41.193H18.0061V41.9139C18.0061 42.1795 18.221 42.3948 18.4868 42.3948C18.7522 42.3948 18.9674 42.1795 18.9674 41.9139V41.193H19.6884C19.8661 41.193 20.0229 41.1675 20.1691 41.1299C21.0375 40.9053 21.37 40.0894 21.37 39.5103C21.37 38.5657 20.8448 38.1516 20.1687 37.9698C20.0149 37.9286 19.8533 37.8991 19.6881 37.8783C19.5299 37.8585 19.3683 37.8461 19.2074 37.8387C19.127 37.835 19.0469 37.8327 18.9671 37.831L18.9674 36.3857H20.8893C21.1548 36.3857 21.37 36.1704 21.37 35.9049C21.37 35.6393 21.1551 35.424 20.8893 35.424H18.9674V34.703C18.9674 34.4374 18.7526 34.2222 18.4868 34.2222C18.2213 34.2222 18.0061 34.4374 18.0061 34.703V35.424H17.2851C17.1075 35.424 16.9506 35.4495 16.8045 35.487C15.936 35.7117 15.6035 36.5276 15.6035 37.1067C15.6035 38.0513 16.1287 38.4654 16.8048 38.6471C16.9587 38.6884 17.1202 38.7179 17.2855 38.7387C17.4437 38.7585 17.6052 38.7709 17.7661 38.7782C17.8466 38.7819 17.9267 38.7843 18.0065 38.786L18.0061 40.2312H17.7662ZM18.9675 38.7951C19.052 38.7974 19.1324 38.8001 19.2078 38.8041C19.3942 38.8135 19.5527 38.8279 19.6885 38.8484C19.9027 38.8806 20.0589 38.9285 20.1691 38.9969C20.3468 39.1073 20.4088 39.2706 20.4088 39.5103C20.4088 39.5915 20.388 39.8872 20.1685 40.0737C20.0622 40.1642 19.9124 40.2313 19.6882 40.2313H18.9675L18.9675 38.7951ZM17.7662 37.8129C17.5798 37.8035 17.4213 37.7891 17.2855 37.7687C17.0714 37.7365 16.9152 37.6885 16.8049 37.6201C16.6269 37.5098 16.5649 37.3465 16.5649 37.1067C16.5649 37.0256 16.5857 36.7298 16.8052 36.5434C16.9115 36.4528 17.0613 36.3857 17.2855 36.3857H18.0062V37.8219C17.9217 37.8196 17.8416 37.8169 17.7662 37.8129Z" fill="black"/>
<path d="M44.1949 17.6257V15.9544H46.1168C46.2901 15.9544 46.4497 15.8612 46.5348 15.7106C46.6203 15.5601 46.6179 15.3749 46.5288 15.2264L42.9249 9.21729C42.7513 8.92757 42.2746 8.92757 42.101 9.21729L38.4971 15.2264C38.4079 15.375 38.4056 15.5601 38.4911 15.7106C38.5762 15.8612 38.7358 15.9544 38.909 15.9544H40.831V17.6257C38.0681 18.3695 36.0258 20.8908 36.0258 23.8863C36.0258 26.8821 38.0681 29.4032 40.831 30.147V45.5191C40.831 45.7847 41.0458 46 41.3116 46H43.7142C43.9797 46 44.1949 45.7847 44.1949 45.5191V30.147C46.9578 29.4032 49.0001 26.8819 49.0001 23.8863C49.0001 20.8905 46.9578 18.3695 44.1949 17.6257ZM39.7581 14.9927L42.5129 10.399L45.2678 14.9927H43.7142C43.4488 14.9927 43.2336 15.208 43.2336 15.4736V17.439C42.9966 17.4128 42.757 17.3964 42.5129 17.3964C42.2689 17.3964 42.0293 17.4125 41.7923 17.439V15.4736C41.7923 15.208 41.5774 14.9927 41.3116 14.9927H39.7581ZM43.2336 45.0382H41.792L41.7923 30.3339C42.0293 30.3601 42.269 30.3765 42.513 30.3765C42.757 30.3765 42.9966 30.3604 43.2336 30.3339L43.2336 45.0382ZM44.1949 29.151C44.0377 29.2013 43.8772 29.2429 43.7143 29.2794C43.5567 29.3146 43.3962 29.3411 43.2336 29.3623C42.9973 29.3931 42.7577 29.4146 42.513 29.4146C42.2683 29.4146 42.0286 29.3931 41.7923 29.3619C41.6301 29.3405 41.4696 29.314 41.3117 29.2791C41.1488 29.2429 40.9882 29.2013 40.831 29.1507C38.6044 28.4371 36.9868 26.3477 36.9868 23.886C36.9868 21.4243 38.6041 19.3352 40.831 18.6213C40.9882 18.571 41.1488 18.5295 41.3117 18.4929C41.4692 18.4577 41.6298 18.4312 41.7923 18.4101C42.0286 18.3796 42.2683 18.3581 42.513 18.3581C42.7577 18.3581 42.9973 18.3796 43.2336 18.4107C43.3958 18.4322 43.5564 18.4587 43.7143 18.4936C43.8772 18.5298 44.0377 18.5714 44.1949 18.622C46.4215 19.3356 48.0392 21.425 48.0392 23.8867C48.0388 26.348 46.4215 28.4371 44.1949 29.151Z" fill="black"/>
<path d="M43.2337 21.9634H44.9157C45.1812 21.9634 45.3963 21.7481 45.3963 21.4825C45.3963 21.2169 45.1815 21.0016 44.9157 21.0016H42.9938V20.2807C42.9938 20.0151 42.7789 19.7998 42.5131 19.7998C42.2477 19.7998 42.0325 20.0151 42.0325 20.2807V21.0016H41.3115C41.1338 21.0016 40.977 21.0271 40.8308 21.0647C39.9624 21.2893 39.6299 22.1052 39.6299 22.6843C39.6299 23.6289 40.1551 24.043 40.8312 24.2248C40.985 24.266 41.1466 24.2955 41.3118 24.3163C41.47 24.3361 41.6316 24.3485 41.7925 24.3559C41.8729 24.3596 41.953 24.3619 42.0328 24.3636L42.0325 25.8089H40.1106C39.8451 25.8089 39.6299 26.0242 39.6299 26.2897C39.6299 26.5553 39.8448 26.7706 40.1106 26.7706H42.0325V27.4916C42.0325 27.7572 42.2473 27.9724 42.5131 27.9724C42.7786 27.9724 42.9938 27.7572 42.9938 27.4916V26.7706H43.7148C43.8924 26.7706 44.0493 26.7451 44.1954 26.7076C45.0639 26.4829 45.3964 25.667 45.3964 25.0879C45.3964 24.1433 44.8712 23.7292 44.1951 23.5475C44.0412 23.5062 43.8797 23.4767 43.7144 23.4559C43.5562 23.4361 43.3947 23.4237 43.2338 23.4163C43.1533 23.4127 43.0732 23.4103 42.9934 23.4086L42.9938 21.9634H43.2337ZM42.0324 23.3995C41.9479 23.3972 41.8675 23.3945 41.7921 23.3905C41.6057 23.3811 41.4472 23.3667 41.3114 23.3462C41.0972 23.314 40.941 23.2661 40.8308 23.1977C40.6531 23.0873 40.5911 22.924 40.5911 22.6843C40.5911 22.6031 40.6119 22.3074 40.8314 22.1209C40.938 22.0304 41.0875 21.9633 41.3118 21.9633H42.0324L42.0324 23.3995ZM43.2337 24.3817C43.4201 24.3911 43.5786 24.4055 43.7144 24.4259C43.9285 24.4581 44.0847 24.5061 44.195 24.5745C44.373 24.6848 44.435 24.8481 44.435 25.0879C44.435 25.169 44.4142 25.4648 44.1947 25.6512C44.0881 25.7418 43.9386 25.8088 43.7144 25.8088H42.9937V24.3727C43.0782 24.375 43.1583 24.3777 43.2337 24.3817Z" fill="black"/>
</svg>
