<svg width="60" height="55" viewBox="0 0 60 55" fill="none" xmlns="http://www.w3.org/2000/svg">
<path d="M28.4103 31.1431C28.4103 30.9768 28.344 30.8171 28.2257 30.6992C28.1074 30.5817 27.9471 30.5157 27.7798 30.516C27.2149 30.516 26.6839 30.2481 26.3493 29.7946C26.0151 29.3411 25.9177 28.7561 26.087 28.2194C26.256 27.6825 26.6719 27.2582 27.2065 27.0764V26.7142C27.2258 26.4137 27.4761 26.18 27.7784 26.18C28.0807 26.18 28.3313 26.4137 28.3506 26.7142V27.0747C28.7009 27.1939 29.0048 27.4193 29.2204 27.7194C29.4357 28.0192 29.5517 28.3787 29.5524 28.7476C29.5524 29.063 29.2954 29.3186 28.9788 29.3186C28.6622 29.3186 28.4056 29.063 28.4056 28.7476C28.4049 28.494 28.2506 28.2656 28.015 28.1693C27.7793 28.0733 27.5087 28.1278 27.3294 28.308C27.1501 28.488 27.0975 28.7582 27.1961 28.9919C27.2948 29.226 27.5251 29.3774 27.7797 29.376C28.3446 29.376 28.8758 29.6439 29.2101 30.0974C29.5444 30.5509 29.6417 31.1359 29.4727 31.6727C29.3034 32.2095 28.8875 32.634 28.3529 32.8157V33.1759C28.3633 33.3336 28.3076 33.4883 28.1993 33.6035C28.0906 33.7187 27.9393 33.7841 27.781 33.7841C27.6224 33.7841 27.4711 33.7187 27.3628 33.6035C27.2541 33.4883 27.1985 33.3335 27.2088 33.1759V32.8157C26.8585 32.6965 26.5546 32.4711 26.339 32.1713C26.1237 31.8715 26.0077 31.512 26.0071 31.1431C25.9971 30.9858 26.0527 30.831 26.161 30.7159C26.2694 30.6007 26.421 30.5353 26.5793 30.5353C26.7379 30.5353 26.8892 30.6007 26.9975 30.7159C27.1059 30.8311 27.1618 30.9858 27.1515 31.1431C27.1515 31.4894 27.4331 31.7699 27.7807 31.7699C28.1283 31.7699 28.4099 31.4894 28.4099 31.1431H28.4103ZM50.9998 37.1115C50.9998 40.9868 48.9322 44.5702 45.5704 46.5205C42.2088 48.4708 38.0599 48.4945 34.6763 46.5822V47.1034C34.6763 47.4188 34.4193 47.6744 34.1027 47.6744H8.57321C8.25661 47.6744 7.99998 47.4188 7.99998 47.1034V29.234C7.99998 28.9186 8.2566 28.6626 8.57321 28.6626H12.5144V23.8589H10.6784C10.4628 23.8579 10.2655 23.7367 10.1685 23.5449C10.0715 23.353 10.0905 23.1229 10.2182 22.9499L15.033 16.462C15.1409 16.3169 15.3116 16.2316 15.4929 16.2316C15.6742 16.2316 15.8448 16.3169 15.9531 16.462L20.7683 22.9479C20.8956 23.1212 20.9149 23.3509 20.8179 23.5428C20.7206 23.7347 20.5236 23.8562 20.308 23.8569H18.473V28.6656H21.2761H21.2758C21.6767 26.6688 22.9768 24.9667 24.8018 24.0491V19.5953H22.9668C22.7511 19.5946 22.5542 19.4734 22.4569 19.2815C22.3599 19.0897 22.3789 18.8596 22.5065 18.6863L27.3213 12.1984C27.4293 12.0536 27.5999 11.9683 27.7812 11.9683C27.9625 11.9683 28.1331 12.0536 28.2415 12.1984L33.0566 18.6863C33.1842 18.8596 33.2032 19.0897 33.1063 19.2815C33.0093 19.4734 32.812 19.5946 32.5963 19.5953H30.7613V24.0491C32.3657 24.8565 33.5745 26.2748 34.1137 27.9827C35.0316 27.3852 36.0353 26.9303 37.0905 26.6339V15.6247H35.2552C35.0396 15.6243 34.8423 15.5028 34.7449 15.3109C34.6476 15.119 34.6669 14.889 34.7946 14.7157L39.6097 8.23039C39.718 8.08532 39.8887 8 40.07 8C40.2513 8 40.4219 8.08532 40.5299 8.23039L45.345 14.7163C45.4723 14.8896 45.4913 15.1193 45.3943 15.3112C45.297 15.5027 45.1001 15.6239 44.8844 15.6246H43.0498V26.6347C45.3373 27.2837 47.3506 28.6575 48.7851 30.5474C50.2194 32.4377 50.997 34.7417 51 37.1113L50.9998 37.1115ZM38.2346 15.0539V26.3751C38.8412 26.2738 39.4551 26.223 40.0699 26.223C40.6848 26.223 41.2987 26.2748 41.905 26.3774V15.0537C41.905 14.7383 42.1616 14.4827 42.4782 14.4827H43.7506L40.0716 9.52553L36.3927 14.4827H37.6651C37.9804 14.4847 38.2347 14.7396 38.2347 15.0537L38.2346 15.0539ZM25.9463 19.0238V23.5978C27.1451 23.2518 28.4179 23.2518 29.6167 23.5978V19.025C29.6167 18.7096 29.8733 18.454 30.1899 18.454H31.4627L27.7801 13.4976L24.1011 18.455H25.3735C25.6895 18.455 25.9457 18.7103 25.9464 19.025L25.9463 19.0238ZM22.294 29.9463C22.294 31.3961 22.8726 32.7868 23.9017 33.8119C24.9309 34.837 26.3269 35.413 27.7826 35.4127C29.2381 35.4127 30.6341 34.8364 31.6629 33.8109C32.692 32.7854 33.2699 31.395 33.2696 29.945C33.2692 28.4952 32.6907 27.1045 31.6612 26.0797C30.6317 25.0549 29.2356 24.4793 27.7799 24.4799C26.3255 24.4819 24.9311 25.0589 23.9027 26.0834C22.8745 27.1083 22.296 28.4972 22.294 29.9463ZM23.5328 35.8111H24.7356C24.3067 35.59 23.9034 35.3225 23.5331 35.014L23.5328 35.8111ZM22.1164 33.3773H9.14643V35.8108H22.3885V33.784C22.2935 33.6519 22.2019 33.5168 22.1163 33.3773L22.1164 33.3773ZM20.0098 36.9515H9.1472V39.3849H20.0098V36.9515ZM9.1472 42.9587H20.0098V40.5253H9.1472V42.9587ZM21.1573 42.9587H33.5317V40.5253H21.1548L21.1573 42.9587ZM33.5317 36.9515H21.1548V39.3849H33.5317V36.9515ZM13.6579 23.2872V28.6653H17.3283V23.2872C17.3283 22.9718 17.5849 22.7162 17.9015 22.7162H19.1743L15.4953 17.7594L11.8133 22.7162H13.0858H13.0854C13.4017 22.7169 13.6579 22.9722 13.6579 23.2872ZM9.14677 29.8037V32.2372H21.5639C21.2906 31.5041 21.1509 30.7283 21.1516 29.9462C21.1516 29.8987 21.1546 29.8509 21.1553 29.8034L9.14677 29.8037ZM9.14677 46.5326H20.0094V44.0988H9.14677V46.5326ZM33.5347 46.5326L33.5344 44.0988H21.1549V46.5326H33.5347ZM49.8585 37.1092C49.8555 34.1251 48.4817 31.3065 46.1295 29.4584C43.7773 27.6106 40.7056 26.9363 37.7917 27.6289L37.7731 27.6332C36.5473 27.9257 35.3908 28.4542 34.3687 29.1889C34.5254 30.5205 34.2704 31.868 33.6375 33.0511C33.005 34.2343 32.0249 35.1971 30.828 35.8106H34.104C34.4206 35.8106 34.6773 36.0662 34.6773 36.3816V45.2441C36.6532 46.5441 39.0355 47.0863 41.382 46.7699C43.7286 46.4538 45.8805 45.3009 47.4385 43.5247C48.9969 41.7486 49.8557 39.4699 49.8561 37.1111L49.8585 37.1092ZM36.8186 36.0051C36.275 36.0051 35.7541 35.7903 35.3699 35.4075C34.9853 35.0251 34.7693 34.5059 34.7693 33.9647C34.7693 33.4232 34.985 32.904 35.3692 32.5213C35.7535 32.1385 36.2747 31.9237 36.8179 31.9233C37.3611 31.9233 37.8824 32.1385 38.2666 32.5213C38.6509 32.904 38.8668 33.4229 38.8668 33.9643C38.8662 34.5051 38.6502 35.024 38.2663 35.4065C37.8823 35.7889 37.3615 36.0044 36.8186 36.0051ZM36.8186 34.8628C37.1842 34.8628 37.5135 34.6433 37.6534 34.3067C37.7931 33.9701 37.7158 33.583 37.4571 33.3257C37.1985 33.0681 36.8099 32.991 36.472 33.1305C36.1344 33.2699 35.9141 33.5982 35.9141 33.9624C35.9137 34.2014 36.0091 34.4312 36.1787 34.6002C36.3483 34.7695 36.5786 34.8647 36.8186 34.8647L36.8186 34.8628ZM45.3708 40.2561C45.3708 40.7973 45.1552 41.3165 44.7709 41.6992C44.3867 42.082 43.8654 42.2968 43.3222 42.2968C42.779 42.2968 42.2577 42.082 41.8735 41.6992C41.4894 41.3164 41.2737 40.7972 41.2737 40.2561C41.2737 39.715 41.4893 39.1957 41.8735 38.813C42.2578 38.4303 42.779 38.2155 43.3222 38.2155C43.8658 38.2161 44.3867 38.4316 44.7707 38.8147C45.1546 39.1975 45.3705 39.7167 45.3705 40.2581L45.3708 40.2561ZM44.224 40.2561H44.2244C44.2244 39.8916 44.0041 39.563 43.6661 39.4235C43.3282 39.2838 42.939 39.3608 42.6803 39.6187C42.4217 39.8763 42.3444 40.2638 42.4843 40.6008C42.6243 40.9374 42.9543 41.1568 43.3202 41.1565C43.8191 41.1568 44.224 40.7548 44.2257 40.2582L44.224 40.2561ZM43.3602 31.8799H43.3605C43.0926 31.7132 42.74 31.7939 42.5717 32.0601L36.5975 41.5566C36.5045 41.6848 36.4692 41.8454 36.4995 42.0005C36.5299 42.1555 36.6232 42.2913 36.7575 42.3753C36.8921 42.4593 37.0554 42.4838 37.2087 42.4433C37.362 42.4032 37.4917 42.3013 37.567 42.1622L43.5429 32.6648C43.7102 32.3982 43.6292 32.0467 43.3619 31.8794L43.3602 31.8799Z" fill="black"/>
</svg>
