<svg width="400" height="400" viewBox="0 0 400 400" fill="none" xmlns="http://www.w3.org/2000/svg">
<path opacity="0.7" d="M352.455 268.774L186.9 173.221C182.572 170.718 176.893 169.446 171.175 169.406H151.359C145.403 169.327 139.367 170.559 134.8 173.221L46.6418 224.156C37.826 229.242 37.7863 237.546 46.5226 242.631L212.077 338.185C216.564 340.807 222.481 342.039 228.359 341.999H248.413C254.131 341.959 259.81 340.688 264.178 338.185L352.336 287.249C361.191 282.164 361.231 273.9 352.455 268.774Z" fill="#1A8E74" fill-opacity="0.3"/>
<path d="M339.668 273.504L243.012 329.327C241.464 330.201 239.597 330.201 238.048 329.327L57.1258 224.794C53.8298 222.887 49.6998 218.278 54.7431 212.557L144.49 160.111C150.407 156.536 159.064 154.311 165.894 155.185C168.912 155.582 172.724 156.337 174.471 157.33L344.037 255.069C351.185 259.161 346.816 269.372 339.668 273.504Z" fill="#43BEA2"/>
<path d="M359.921 268.299C359.921 271.676 357.697 275.014 353.249 277.596L265.091 328.532C256.275 333.617 242.019 333.657 233.203 328.532L58.039 227.455C53.6708 224.912 51.4867 221.615 51.4867 218.277L51.5263 226.224C51.5263 229.561 53.7104 232.859 58.0786 235.401L233.283 336.518C242.059 341.603 256.315 341.603 265.171 336.518L353.329 285.582C357.776 283 360 279.662 360 276.285L359.921 268.299Z" fill="url(#paint0_linear_283_4571)"/>
<path d="M353.369 259.16L178.165 158.044C169.389 152.959 155.132 152.959 146.277 158.044L58.1188 208.98C49.303 214.065 49.2633 222.369 57.9997 227.455L233.204 328.571C241.98 333.656 256.236 333.656 265.092 328.571L353.25 277.635C362.105 272.51 362.145 264.246 353.369 259.16ZM230.504 323.763L56.6495 223.362C52.4799 220.978 52.4799 214.939 56.6495 212.555L76.783 200.914L92.9056 199.047L129.598 177.83L135.793 166.825L148.223 159.633C157.078 154.508 167.999 154.508 176.854 159.633L344.633 256.538C346.062 257.372 346.062 259.438 344.633 260.233L234.753 323.723C233.442 324.518 231.814 324.518 230.504 323.763Z" fill="#1A1F1E"/>
<path d="M312.784 291.503L308.733 289.158C306.708 288.006 303.333 288.125 300.99 289.436L286.495 297.82C285.741 298.257 285.145 298.813 284.788 299.409C283.993 300.76 284.47 302.27 285.979 303.144L290.029 305.488C292.055 306.64 295.43 306.521 297.773 305.21L312.267 296.826C313.022 296.389 313.618 295.833 313.975 295.237C314.769 293.886 314.293 292.377 312.784 291.503Z" fill="#13322B"/>
<path d="M312.785 293.011L308.735 290.667C306.709 289.515 303.334 289.634 300.991 290.945L286.496 299.329C285.742 299.766 285.146 300.322 284.789 300.918C284.67 301.116 284.63 301.315 284.59 301.554C284.829 302.189 285.305 302.745 286.02 303.183L290.07 305.527C292.096 306.679 295.471 306.56 297.814 305.249L312.309 296.865C313.063 296.428 313.659 295.872 314.016 295.276C314.135 295.077 314.175 294.879 314.215 294.64C313.976 294.005 313.5 293.448 312.785 293.011Z" fill="#2AA086"/>
<path d="M115.621 179.301L97.7113 189.631C96.8377 190.148 96.7583 190.903 97.5128 191.34C98.2673 191.777 99.5777 191.737 100.451 191.22L118.361 180.89C119.235 180.374 119.314 179.619 118.56 179.182C117.805 178.745 116.495 178.785 115.621 179.301Z" fill="#191414"/>
<path d="M89.4499 249.069C89.2911 248.632 89.0528 248.195 88.7748 247.798C88.4571 247.361 88.06 247.003 87.6629 246.765L73.089 238.342C72.533 238.024 72.0566 237.984 71.6992 238.183L70.2695 239.017C70.6269 238.819 71.1035 238.858 71.6594 239.137L86.2334 247.56C86.6305 247.798 87.0276 248.155 87.3453 248.593C87.6232 248.99 87.8614 249.427 88.0203 249.864C88.1394 250.222 88.2189 250.619 88.2189 250.976V251.612C88.2189 252.248 87.9806 252.685 87.6232 252.884L89.0528 252.049C89.4102 251.85 89.6484 251.374 89.6484 250.738V250.102C89.6484 249.824 89.5691 249.467 89.4499 249.069Z" fill="url(#paint1_linear_283_4571)"/>
<path d="M86.2343 247.598L71.6603 239.175C70.5484 238.54 69.6748 239.056 69.6748 240.328V240.963C69.6748 242.235 70.5484 243.784 71.6603 244.38L86.2343 252.803C87.3065 253.439 88.2198 252.922 88.2198 251.651V251.015C88.2198 249.744 87.3065 248.234 86.2343 247.598Z" fill="#0D6753"/>
<path d="M111.648 261.902C111.49 261.465 111.251 261.028 110.973 260.631C110.656 260.194 110.258 259.836 109.861 259.598L95.2876 251.175C94.7316 250.857 94.2551 250.817 93.8977 251.016L92.468 251.85C92.8254 251.652 93.302 251.691 93.8579 251.969L108.432 260.393C108.829 260.631 109.226 260.989 109.544 261.426C109.822 261.823 110.06 262.26 110.219 262.697C110.338 263.055 110.417 263.452 110.417 263.809V264.445C110.417 265.081 110.179 265.518 109.822 265.717L111.251 264.882C111.609 264.683 111.847 264.207 111.847 263.571V262.935C111.847 262.657 111.807 262.3 111.648 261.902Z" fill="url(#paint2_linear_283_4571)"/>
<path d="M108.432 260.431L93.8585 252.008C92.7466 251.373 91.8729 251.889 91.8729 253.161V253.796C91.8729 255.068 92.7466 256.617 93.8585 257.213L108.432 265.636C109.505 266.272 110.418 265.755 110.418 264.484V263.848C110.418 262.577 109.544 261.067 108.432 260.431Z" fill="#0D6753"/>
<path d="M90.8405 196.98C89.8477 197.536 88.2593 197.536 87.2666 196.98C86.2738 196.424 86.2738 195.47 87.2666 194.914C88.2593 194.358 89.8477 194.358 90.8405 194.914C91.8333 195.47 91.8333 196.424 90.8405 196.98Z" fill="#191414"/>
<path opacity="0.1" d="M87.7835 196.742C88.538 197.139 89.7294 197.1 90.4442 196.663C91.159 196.226 91.1589 195.55 90.4044 195.113C89.6499 194.716 88.4585 194.756 87.7437 195.193C87.0289 195.63 87.029 196.305 87.7835 196.742Z" fill="#CFD5D5"/>
<path opacity="0.1" d="M88.3401 196.305C88.7372 196.543 89.3725 196.503 89.7696 196.265C90.1667 196.027 90.1667 195.669 89.7298 195.431C89.3327 195.192 88.6974 195.232 88.3003 195.47C87.9032 195.709 87.9429 196.106 88.3401 196.305Z" fill="#CFD5D5"/>
<path opacity="0.2" d="M88.7774 196.026C88.9363 196.106 89.1747 196.106 89.2939 196.026C89.4528 195.947 89.4528 195.788 89.2939 195.709C89.135 195.629 88.8966 195.629 88.7774 195.709C88.6185 195.828 88.6185 195.947 88.7774 196.026Z" fill="#CFD5D5"/>
<path d="M312.269 307.672L301.944 313.632C300.752 314.307 299.76 313.91 299.76 312.718C299.76 311.526 300.752 309.977 301.944 309.262L312.269 303.302C313.46 302.626 314.453 303.024 314.453 304.216C314.453 305.447 313.46 306.997 312.269 307.672Z" fill="#1A5A4C"/>
<mask id="mask0_283_4571" style="mask-type:luminance" maskUnits="userSpaceOnUse" x="299" y="302" width="16" height="12">
<path d="M312.269 307.672L301.944 313.632C300.752 314.307 299.76 313.91 299.76 312.718C299.76 311.526 300.752 309.977 301.944 309.262L312.269 303.302C313.46 302.626 314.453 303.024 314.453 304.216C314.453 305.447 313.46 306.997 312.269 307.672Z" fill="white"/>
</mask>
<g mask="url(#mask0_283_4571)">
<path d="M298.013 309.301L296.583 310.135L301.666 313.075L303.096 312.241L298.013 309.301ZM301.189 307.473L299.76 308.307L304.843 311.248L306.272 310.413L301.189 307.473ZM304.327 305.646L302.897 306.48L307.98 309.42L309.41 308.586L304.327 305.646ZM307.504 303.818L306.074 304.652L311.157 307.592L312.587 306.758L307.504 303.818Z" fill="#98782E"/>
</g>
<g opacity="0.4">
<path d="M337.722 237.665L173.12 142.588L65.6626 204.649L230.264 299.725C231.654 300.52 233.878 300.52 235.228 299.725L337.722 240.526C339.112 239.731 339.112 238.46 337.722 237.665Z" fill="#115142"/>
<path d="M176.218 144.377L68.7608 206.437L57.3241 199.842C55.9343 199.047 55.9343 197.776 57.3241 196.981L159.818 137.782C161.208 136.987 163.432 136.987 164.782 137.782L176.218 144.377Z" fill="#247A67"/>
</g>
<g opacity="0.7">
<path d="M337.722 216.329L173.12 121.252L65.6626 183.312L230.264 278.389C231.654 279.184 233.878 279.184 235.228 278.389L337.722 219.189C339.112 218.395 339.112 217.123 337.722 216.329Z" fill="#33A78C"/>
<path d="M176.218 123.04L68.7608 185.1L57.3241 178.505C55.9343 177.71 55.9343 176.439 57.3241 175.644L159.818 116.445C161.208 115.65 163.432 115.65 164.782 116.445L176.218 123.04Z" fill="#1E846D"/>
</g>
<path d="M337.722 194.995L173.12 99.918L65.6626 161.978L230.264 257.055C231.654 257.85 233.878 257.85 235.228 257.055L337.722 197.855C339.112 197.061 339.112 195.789 337.722 194.995Z" fill="#43BEA2"/>
<path d="M176.218 101.665L68.7608 163.726L57.3241 157.13C55.9343 156.336 55.9343 155.064 57.3241 154.27L159.818 95.0701C161.208 94.2755 163.432 94.2755 164.782 95.0701L176.218 101.665Z" fill="#115142"/>
<path d="M149.214 114.062L140.637 119.028L132.02 114.062L140.637 109.096L149.214 114.062Z" fill="#196453"/>
<path d="M159.897 107.903L151.279 112.869L142.702 107.903L151.279 102.937L159.897 107.903Z" fill="#196453"/>
<path d="M145.403 107.904L151.28 111.321L157.157 107.904L151.28 104.527L145.403 107.904ZM155.171 107.904L151.319 110.129L147.468 107.904L151.319 105.679L155.171 107.904Z" fill="#FFFFF7"/>
<path d="M170.579 101.745L161.962 106.712L153.345 101.745L161.962 96.7788L170.579 101.745Z" fill="#196453"/>
<path d="M156.878 102.143H161.485V104.805H162.954V102.143H167.56V101.309H162.954V98.647H161.485V101.309H156.878V102.143Z" fill="#FFFFF7"/>
<path d="M146.395 114.142L140.875 117.36L139.803 116.724L145.323 113.546L146.395 114.142Z" fill="#FFFFF7"/>
<path opacity="0.3" d="M331.17 196.147L232.608 253.122L77.8947 163.726L176.497 106.792L331.17 196.147Z" fill="#FFBBFA"/>
<path opacity="0.5" d="M331.17 196.147L232.608 253.122L77.8947 163.726L176.497 106.792L331.17 196.147Z" fill="#F4EEF4"/>
<path d="M183.486 110.844L84.9234 167.779L77.8947 163.726L176.497 106.792L183.486 110.844Z" fill="#33A78C"/>
<path d="M222.641 247.359L232.608 253.12L331.171 196.145L321.243 190.424L222.641 247.359Z" fill="#33A78C"/>
<path d="M179.275 128.562L189.402 122.682L189.282 104.524L179.196 110.405L179.275 128.562Z" fill="#95ECD8"/>
<path d="M179.196 110.406L189.283 104.526L177.489 97.6924L167.362 103.573L179.196 110.406Z" fill="#95ECD8"/>
<path d="M167.362 103.573L167.482 121.77L179.276 128.564L179.196 110.407L167.362 103.573Z" fill="#66B9A6"/>
<path d="M192.977 136.469L203.103 130.589L203.023 103.016L192.897 108.936L192.977 136.469Z" fill="#95ECD8"/>
<path d="M192.895 108.935L203.021 103.015L191.227 96.2212L181.101 102.101L192.895 108.935Z" fill="#95ECD8"/>
<path d="M181.101 102.102L181.18 129.676L192.975 136.47L192.895 108.936L181.101 102.102Z" fill="#66B9A6"/>
<path d="M206.676 144.415L216.803 138.535L216.763 93.9561L206.637 99.8363L206.676 144.415Z" fill="#95ECD8"/>
<path d="M206.635 99.837L216.761 93.9568L204.967 87.123L194.841 93.0033L206.635 99.837Z" fill="#D2F2EB"/>
<path d="M194.841 93.0034L194.88 137.582L206.674 144.416L206.635 99.8372L194.841 93.0034Z" fill="#66B9A6"/>
<path d="M220.376 152.322L230.502 146.442L230.542 64.7939L220.455 70.6742L220.376 152.322Z" fill="#95ECD8"/>
<path d="M220.455 70.6743L230.542 64.794L218.787 58L208.661 63.8802L220.455 70.6743Z" fill="#D2F2EB"/>
<path d="M208.661 63.8799L208.582 145.488L220.376 152.322L220.455 70.6739L208.661 63.8799Z" fill="#66B9A6"/>
<path d="M234.075 160.229L244.162 154.348L244.202 87.9575L234.075 93.8377V160.229Z" fill="#95ECD8"/>
<path d="M234.076 93.8374L244.203 87.9571L232.408 81.1631L222.282 87.0433L234.076 93.8374Z" fill="#95ECD8"/>
<path d="M222.282 87.0444V153.396L234.076 160.229V93.8385L222.282 87.0444Z" fill="#66B9A6"/>
<path d="M247.778 168.134L257.745 162.254L257.864 113.742L247.738 119.622L247.778 168.134Z" fill="#95ECD8"/>
<path d="M246.069 106.948L235.943 112.828L247.737 119.623L257.863 113.742L246.069 106.948Z" fill="#95ECD8"/>
<path d="M235.943 112.829L235.982 161.34L247.776 168.134L247.737 119.623L235.943 112.829Z" fill="#66B9A6"/>
<path d="M261.478 176.041L271.564 170.161L271.524 133.171L261.398 139.051L261.478 176.041Z" fill="#95ECD8"/>
<path d="M261.397 139.053L271.523 133.173L259.729 126.339L249.603 132.219L261.397 139.053Z" fill="#95ECD8"/>
<path d="M249.603 132.218L249.643 169.248L261.477 176.042L261.397 139.052L249.603 132.218Z" fill="#66B9A6"/>
<path d="M275.138 183.948L285.264 178.068L285.184 159.911L275.058 165.791L275.138 183.948Z" fill="#95ECD8"/>
<path d="M275.057 165.791L285.183 159.911L273.349 153.077L263.262 158.957L275.057 165.791Z" fill="#95ECD8"/>
<path d="M263.262 158.958L263.342 177.154L275.136 183.948L275.057 165.791L263.262 158.958Z" fill="#66B9A6"/>
<path d="M288.837 191.854L298.963 185.974L298.884 158.44L288.758 164.321L288.837 191.854Z" fill="#95ECD8"/>
<path d="M288.759 164.321L298.885 158.441L287.091 151.607L276.964 157.488L288.759 164.321Z" fill="#95ECD8"/>
<path d="M276.964 157.487L277.044 185.06L288.838 191.854L288.759 164.321L276.964 157.487Z" fill="#66B9A6"/>
<path d="M302.536 199.8L312.663 193.92L312.623 156.334L302.497 162.254L302.536 199.8Z" fill="#95ECD8"/>
<path d="M302.498 162.255L312.624 156.335L300.83 149.541L290.704 155.421L302.498 162.255Z" fill="#95ECD8"/>
<path d="M290.704 155.421L290.744 192.967L302.538 199.801L302.498 162.255L290.704 155.421Z" fill="#66B9A6"/>
<path d="M131.901 182.955L129.756 184.226L103.388 168.969L105.532 167.738L131.901 182.955Z" fill="#F5EFF5"/>
<path d="M134.205 181.645L131.902 182.956L108.314 169.328L110.617 167.977L134.205 181.645Z" fill="#6ACAB5"/>
<path d="M140.479 178.029L138.335 179.261L113.357 164.799L115.501 163.567L140.479 178.029Z" fill="#F5EFF5"/>
<path d="M142.823 176.679L140.519 177.99L113.357 162.336L115.66 160.985L142.823 176.679Z" fill="#6ACAB5"/>
<path d="M149.095 173.022L146.95 174.254L112.521 154.388L114.705 153.156L149.095 173.022Z" fill="#F5EFF5"/>
<path d="M151.437 171.711L149.134 173.022L132.971 163.725L135.275 162.374L151.437 171.711Z" fill="#6ACAB5"/>
<path d="M157.712 168.056L155.568 169.327L126.499 152.521L128.644 151.289L157.712 168.056Z" fill="#F5EFF5"/>
<path d="M160.015 166.745L157.712 168.056L131.106 152.68L133.409 151.369L160.015 166.745Z" fill="#6ACAB5"/>
<path d="M183.526 153.158L181.381 154.389L151.757 137.305L153.901 136.073L183.526 153.158Z" fill="#F5EFF5"/>
<path d="M185.829 151.806L183.526 153.157L164.901 142.39L167.204 141.079L185.829 151.806Z" fill="#6ACAB5"/>
<path d="M192.102 148.191L189.957 149.422L166.051 135.596L168.196 134.364L192.102 148.191Z" fill="#F5EFF5"/>
<path d="M194.444 146.84L192.14 148.191L172.206 136.669L174.509 135.357L194.444 146.84Z" fill="#6ACAB5"/>
<path d="M166.291 163.091L164.147 164.362L153.743 158.323L155.927 157.091L166.291 163.091Z" fill="#F5EFF5"/>
<path d="M168.633 161.779L166.33 163.09L148.063 152.562L150.366 151.25L168.633 161.779Z" fill="#6ACAB5"/>
<path d="M174.908 158.125L172.764 159.396L162.359 153.357L164.504 152.125L174.908 158.125Z" fill="#F5EFF5"/>
<path d="M177.211 156.813L174.908 158.124L167.363 153.794L169.666 152.443L177.211 156.813Z" fill="#6ACAB5"/>
<path d="M199.172 146.205L128.05 187.287L126.104 186.135L197.226 145.092L199.172 146.205Z" fill="#1D876F"/>
<path d="M162.874 197.418C157.95 200.279 149.928 200.279 145.004 197.418C140.08 194.557 140.08 189.949 145.004 187.088C149.928 184.227 157.95 184.227 162.874 187.088C167.758 189.949 167.758 194.597 162.874 197.418Z" fill="#1D876F"/>
<path d="M161.642 187.802C165.891 190.265 165.891 194.278 161.642 196.742C157.393 199.205 150.443 199.205 146.194 196.742C141.945 194.278 141.945 190.265 146.194 187.802C150.483 185.339 157.393 185.339 161.642 187.802Z" fill="#6ACAB5"/>
<path d="M146.195 187.802L153.979 192.292V185.935C151.159 185.975 148.34 186.571 146.195 187.802Z" fill="#F5EFF5"/>
<path d="M189.243 182.2C184.319 185.061 176.297 185.061 171.373 182.2C166.449 179.34 166.449 174.731 171.373 171.87C176.297 169.009 184.319 169.009 189.243 171.87C194.167 174.731 194.167 179.34 189.243 182.2Z" fill="#1D876F"/>
<path d="M188.051 172.585C192.3 175.048 192.3 179.061 188.051 181.524C183.802 183.988 176.853 183.988 172.604 181.524C168.355 179.061 168.355 175.048 172.604 172.585C176.853 170.121 183.802 170.121 188.051 172.585Z" fill="#6ACAB5"/>
<path d="M188.052 172.584C185.948 171.352 183.168 170.756 180.388 170.756C177.569 170.756 174.749 171.352 172.605 172.584L180.388 177.074H191.269C191.269 175.445 190.236 173.855 188.132 172.624C188.092 172.584 188.052 172.584 188.052 172.584Z" fill="#F5EFF5"/>
<path d="M215.213 167.183C210.289 170.044 202.268 170.044 197.344 167.183C192.419 164.322 192.419 159.714 197.344 156.853C202.268 153.992 210.289 153.992 215.213 156.853C220.138 159.714 220.138 164.362 215.213 167.183Z" fill="#1D876F"/>
<path d="M214.023 157.568C218.272 160.031 218.272 164.044 214.023 166.507C209.774 168.971 202.824 168.971 198.575 166.507C194.326 164.044 194.326 160.031 198.575 157.568C202.824 155.104 209.734 155.104 214.023 157.568Z" fill="#6ACAB5"/>
<path d="M198.576 157.568L214.023 166.507C218.272 164.044 218.272 160.031 214.023 157.568C209.735 155.104 202.825 155.104 198.576 157.568Z" fill="#F5EFF5"/>
<path d="M174.906 201.746C176.376 202.62 176.376 204.011 174.906 204.845C173.437 205.72 171.015 205.72 169.545 204.845C168.076 203.971 168.076 202.581 169.545 201.746C171.015 200.872 173.437 200.872 174.906 201.746Z" fill="#1D876F"/>
<path d="M187.971 209.296C189.44 210.17 189.44 211.56 187.971 212.395C186.502 213.269 184.079 213.269 182.61 212.395C181.141 211.521 181.141 210.13 182.61 209.296C184.079 208.461 186.502 208.461 187.971 209.296Z" fill="#1D876F"/>
<path d="M200.878 216.765C202.347 217.64 202.347 219.03 200.878 219.864C199.408 220.739 196.986 220.739 195.517 219.864C194.047 218.99 194.047 217.6 195.517 216.765C196.986 215.891 199.408 215.891 200.878 216.765Z" fill="#1D876F"/>
<path d="M211.203 228.01C213.309 228.01 215.015 227.032 215.015 225.825C215.015 224.618 213.309 223.64 211.203 223.64C209.098 223.64 207.391 224.618 207.391 225.825C207.391 227.032 209.098 228.01 211.203 228.01Z" fill="#1D876F"/>
<path d="M226.769 231.703C228.238 232.578 228.238 233.968 226.769 234.802C225.3 235.677 222.877 235.677 221.408 234.802C219.939 233.928 219.939 232.538 221.408 231.703C222.877 230.829 225.26 230.829 226.769 231.703Z" fill="#1D876F"/>
<path d="M210.011 184.742L219.899 179.021L218.907 178.425L209.019 184.146L210.011 184.742ZM208.622 185.537L207.629 184.941L182.929 199.204L183.921 199.8L208.622 185.537ZM180.069 197.416L188.21 192.688L187.217 192.092L179.077 196.82L180.069 197.416ZM224.307 171.869L232.091 167.38L231.098 166.784L223.315 171.273L224.307 171.869ZM213.268 178.266L222.957 172.664L221.964 172.068L212.275 177.67L213.268 178.266ZM189.6 191.934L211.918 179.061L210.925 178.465L188.607 191.338L189.6 191.934Z" fill="#66B9A6"/>
<path d="M234.989 178.743L235.982 179.339L243.567 174.969L242.574 174.373L234.989 178.743ZM234.632 180.134L233.639 179.538L217.437 188.914L218.43 189.51L234.632 180.134ZM234.87 183.471L235.863 184.067L243.487 179.657L242.494 179.061L234.87 183.471ZM214.935 196.106L213.942 195.51L195.239 206.316L196.231 206.912L214.935 196.106ZM217.08 190.265L216.087 189.669L191.188 204.052L192.181 204.648L217.08 190.265ZM234.513 184.822L233.48 184.226L215.293 194.755L216.285 195.351L234.513 184.822Z" fill="#66B9A6"/>
<path d="M242.415 189.867L243.408 190.463L253.098 184.861L252.105 184.265L242.415 189.867ZM239.358 197.416L238.365 196.82L226.61 203.614L227.603 204.21L239.358 197.416ZM218.39 204.925L217.398 204.329L204.77 211.6L205.762 212.196L218.39 204.925ZM241.026 190.662L218.708 203.535L219.701 204.131L242.018 191.258L241.026 190.662ZM226.213 205.005L225.221 204.409L208.701 213.944L209.694 214.54L226.213 205.005Z" fill="#66B9A6"/>
<path d="M248.65 207.071L258.34 201.468L257.307 200.872L247.618 206.475L248.65 207.071ZM247.26 207.865L246.268 207.269L221.568 221.533L222.56 222.129L247.26 207.865ZM218.708 219.745L226.849 215.017L225.856 214.421L217.716 219.149L218.708 219.745ZM251.907 200.555L265.726 192.569L264.733 191.973L250.914 199.959L251.907 200.555ZM228.199 214.222L250.517 201.349L249.524 200.753L227.207 213.626L228.199 214.222Z" fill="#66B9A6"/>
<path d="M269.258 204.25L258.656 210.409L259.648 210.965L270.291 204.846L269.258 204.25Z" fill="#66B9A6"/>
<path d="M258.3 211.76L257.268 211.204L230.383 226.699L231.416 227.295L258.3 211.76Z" fill="#66B9A6"/>
<path d="M248.252 222.169L247.259 221.612L234.631 228.883L235.624 229.479L248.252 222.169Z" fill="#66B9A6"/>
<path d="M257.346 215.772L248.61 220.818L249.603 221.375L258.339 216.368L257.346 215.772Z" fill="#66B9A6"/>
<defs>
<linearGradient id="paint0_linear_283_4571" x1="51.4765" y1="279.304" x2="360.005" y2="279.304" gradientUnits="userSpaceOnUse">
<stop stop-color="#43BEA2"/>
<stop offset="0.4557" stop-color="#31B99A"/>
<stop offset="1" stop-color="#69C6B1" stop-opacity="0.2"/>
</linearGradient>
<linearGradient id="paint1_linear_283_4571" x1="75.3438" y1="236.123" x2="85.7083" y2="254.066" gradientUnits="userSpaceOnUse">
<stop offset="0.6207" stop-color="#78E2CA"/>
<stop offset="0.8638" stop-color="#B5FFEE"/>
<stop offset="1" stop-color="#A4DFD2"/>
</linearGradient>
<linearGradient id="paint2_linear_283_4571" x1="97.5423" y1="248.956" x2="107.907" y2="266.899" gradientUnits="userSpaceOnUse">
<stop offset="0.6207" stop-color="#78E2CA"/>
<stop offset="0.8638" stop-color="#B5FFEE"/>
<stop offset="1" stop-color="#A4DFD2"/>
</linearGradient>
</defs>
</svg>
